%TF.GenerationSoftware,KiCad,Pcbnew,5.1.12-84ad8e8a86~92~ubuntu16.04.1*%
%TF.CreationDate,2021-11-14T14:14:53+01:00*%
%TF.ProjectId,AE01.12.09.010,41453031-2e31-4322-9e30-392e3031302e,1*%
%TF.SameCoordinates,Original*%
%TF.FileFunction,Copper,L1,Top*%
%TF.FilePolarity,Positive*%
%FSLAX46Y46*%
G04 Gerber Fmt 4.6, Leading zero omitted, Abs format (unit mm)*
G04 Created by KiCad (PCBNEW 5.1.12-84ad8e8a86~92~ubuntu16.04.1) date 2021-11-14 14:14:53*
%MOMM*%
%LPD*%
G01*
G04 APERTURE LIST*
%ADD10C,0.100000*%
%ADD11C,0.150000*%
%ADD12C,0.300000*%
%ADD13C,0.400000*%
%TA.AperFunction,NonConductor*%
%ADD14C,0.300000*%
%TD*%
%TA.AperFunction,Profile*%
%ADD15C,0.050000*%
%TD*%
%TA.AperFunction,SMDPad,CuDef*%
%ADD16C,1.500000*%
%TD*%
%TA.AperFunction,ComponentPad*%
%ADD17C,2.400000*%
%TD*%
%TA.AperFunction,ComponentPad*%
%ADD18O,2.400000X2.400000*%
%TD*%
%TA.AperFunction,ComponentPad*%
%ADD19C,0.800000*%
%TD*%
%TA.AperFunction,ComponentPad*%
%ADD20C,6.400000*%
%TD*%
%TA.AperFunction,ComponentPad*%
%ADD21R,2.600000X2.600000*%
%TD*%
%TA.AperFunction,ComponentPad*%
%ADD22C,2.600000*%
%TD*%
%TA.AperFunction,SMDPad,CuDef*%
%ADD23R,3.225800X2.743200*%
%TD*%
%TA.AperFunction,SMDPad,CuDef*%
%ADD24R,1.200000X2.200000*%
%TD*%
%TA.AperFunction,SMDPad,CuDef*%
%ADD25R,5.800000X6.400000*%
%TD*%
%TA.AperFunction,SMDPad,CuDef*%
%ADD26R,0.800000X0.900000*%
%TD*%
%TA.AperFunction,ComponentPad*%
%ADD27R,1.700000X1.700000*%
%TD*%
%TA.AperFunction,ComponentPad*%
%ADD28O,1.700000X1.700000*%
%TD*%
%TA.AperFunction,SMDPad,CuDef*%
%ADD29C,1.000000*%
%TD*%
%TA.AperFunction,SMDPad,CuDef*%
%ADD30R,3.300000X2.500000*%
%TD*%
%TA.AperFunction,SMDPad,CuDef*%
%ADD31R,1.300000X1.700000*%
%TD*%
%TA.AperFunction,ViaPad*%
%ADD32C,0.812800*%
%TD*%
%TA.AperFunction,Conductor*%
%ADD33C,0.304800*%
%TD*%
%TA.AperFunction,Conductor*%
%ADD34C,0.250000*%
%TD*%
%TA.AperFunction,Conductor*%
%ADD35C,0.254000*%
%TD*%
%TA.AperFunction,Conductor*%
%ADD36C,0.100000*%
%TD*%
G04 APERTURE END LIST*
D10*
D11*
X177002200Y-166007200D02*
X177002200Y-198007200D01*
X285002200Y-198007200D01*
X285002200Y-166007200D01*
X177002200Y-166007200D01*
D10*
D11*
X10000000Y-10000000D02*
X10000000Y-200007200D01*
X287002200Y-200007200D01*
X287002200Y-10000000D01*
X10000000Y-10000000D01*
D10*
D11*
X12000000Y-12000000D02*
X12000000Y-198007200D01*
X285002200Y-198007200D01*
X285002200Y-12000000D01*
X12000000Y-12000000D01*
D10*
D11*
X60000000Y-12000000D02*
X60000000Y-10000000D01*
D10*
D11*
X110000000Y-12000000D02*
X110000000Y-10000000D01*
D10*
D11*
X160000000Y-12000000D02*
X160000000Y-10000000D01*
D10*
D11*
X210000000Y-12000000D02*
X210000000Y-10000000D01*
D10*
D11*
X260000000Y-12000000D02*
X260000000Y-10000000D01*
D10*
D11*
X36065476Y-11588095D02*
X35322619Y-11588095D01*
X35694047Y-11588095D02*
X35694047Y-10288095D01*
X35570238Y-10473809D01*
X35446428Y-10597619D01*
X35322619Y-10659523D01*
D10*
D11*
X85322619Y-10411904D02*
X85384523Y-10350000D01*
X85508333Y-10288095D01*
X85817857Y-10288095D01*
X85941666Y-10350000D01*
X86003571Y-10411904D01*
X86065476Y-10535714D01*
X86065476Y-10659523D01*
X86003571Y-10845238D01*
X85260714Y-11588095D01*
X86065476Y-11588095D01*
D10*
D11*
X135260714Y-10288095D02*
X136065476Y-10288095D01*
X135632142Y-10783333D01*
X135817857Y-10783333D01*
X135941666Y-10845238D01*
X136003571Y-10907142D01*
X136065476Y-11030952D01*
X136065476Y-11340476D01*
X136003571Y-11464285D01*
X135941666Y-11526190D01*
X135817857Y-11588095D01*
X135446428Y-11588095D01*
X135322619Y-11526190D01*
X135260714Y-11464285D01*
D10*
D11*
X185941666Y-10721428D02*
X185941666Y-11588095D01*
X185632142Y-10226190D02*
X185322619Y-11154761D01*
X186127380Y-11154761D01*
D10*
D11*
X236003571Y-10288095D02*
X235384523Y-10288095D01*
X235322619Y-10907142D01*
X235384523Y-10845238D01*
X235508333Y-10783333D01*
X235817857Y-10783333D01*
X235941666Y-10845238D01*
X236003571Y-10907142D01*
X236065476Y-11030952D01*
X236065476Y-11340476D01*
X236003571Y-11464285D01*
X235941666Y-11526190D01*
X235817857Y-11588095D01*
X235508333Y-11588095D01*
X235384523Y-11526190D01*
X235322619Y-11464285D01*
D10*
D11*
X285941666Y-10288095D02*
X285694047Y-10288095D01*
X285570238Y-10350000D01*
X285508333Y-10411904D01*
X285384523Y-10597619D01*
X285322619Y-10845238D01*
X285322619Y-11340476D01*
X285384523Y-11464285D01*
X285446428Y-11526190D01*
X285570238Y-11588095D01*
X285817857Y-11588095D01*
X285941666Y-11526190D01*
X286003571Y-11464285D01*
X286065476Y-11340476D01*
X286065476Y-11030952D01*
X286003571Y-10907142D01*
X285941666Y-10845238D01*
X285817857Y-10783333D01*
X285570238Y-10783333D01*
X285446428Y-10845238D01*
X285384523Y-10907142D01*
X285322619Y-11030952D01*
D10*
D11*
X60000000Y-198007200D02*
X60000000Y-200007200D01*
D10*
D11*
X110000000Y-198007200D02*
X110000000Y-200007200D01*
D10*
D11*
X160000000Y-198007200D02*
X160000000Y-200007200D01*
D10*
D11*
X210000000Y-198007200D02*
X210000000Y-200007200D01*
D10*
D11*
X260000000Y-198007200D02*
X260000000Y-200007200D01*
D10*
D11*
X36065476Y-199595295D02*
X35322619Y-199595295D01*
X35694047Y-199595295D02*
X35694047Y-198295295D01*
X35570238Y-198481009D01*
X35446428Y-198604819D01*
X35322619Y-198666723D01*
D10*
D11*
X85322619Y-198419104D02*
X85384523Y-198357200D01*
X85508333Y-198295295D01*
X85817857Y-198295295D01*
X85941666Y-198357200D01*
X86003571Y-198419104D01*
X86065476Y-198542914D01*
X86065476Y-198666723D01*
X86003571Y-198852438D01*
X85260714Y-199595295D01*
X86065476Y-199595295D01*
D10*
D11*
X135260714Y-198295295D02*
X136065476Y-198295295D01*
X135632142Y-198790533D01*
X135817857Y-198790533D01*
X135941666Y-198852438D01*
X136003571Y-198914342D01*
X136065476Y-199038152D01*
X136065476Y-199347676D01*
X136003571Y-199471485D01*
X135941666Y-199533390D01*
X135817857Y-199595295D01*
X135446428Y-199595295D01*
X135322619Y-199533390D01*
X135260714Y-199471485D01*
D10*
D11*
X185941666Y-198728628D02*
X185941666Y-199595295D01*
X185632142Y-198233390D02*
X185322619Y-199161961D01*
X186127380Y-199161961D01*
D10*
D11*
X236003571Y-198295295D02*
X235384523Y-198295295D01*
X235322619Y-198914342D01*
X235384523Y-198852438D01*
X235508333Y-198790533D01*
X235817857Y-198790533D01*
X235941666Y-198852438D01*
X236003571Y-198914342D01*
X236065476Y-199038152D01*
X236065476Y-199347676D01*
X236003571Y-199471485D01*
X235941666Y-199533390D01*
X235817857Y-199595295D01*
X235508333Y-199595295D01*
X235384523Y-199533390D01*
X235322619Y-199471485D01*
D10*
D11*
X285941666Y-198295295D02*
X285694047Y-198295295D01*
X285570238Y-198357200D01*
X285508333Y-198419104D01*
X285384523Y-198604819D01*
X285322619Y-198852438D01*
X285322619Y-199347676D01*
X285384523Y-199471485D01*
X285446428Y-199533390D01*
X285570238Y-199595295D01*
X285817857Y-199595295D01*
X285941666Y-199533390D01*
X286003571Y-199471485D01*
X286065476Y-199347676D01*
X286065476Y-199038152D01*
X286003571Y-198914342D01*
X285941666Y-198852438D01*
X285817857Y-198790533D01*
X285570238Y-198790533D01*
X285446428Y-198852438D01*
X285384523Y-198914342D01*
X285322619Y-199038152D01*
D10*
D11*
X10000000Y-60000000D02*
X12000000Y-60000000D01*
D10*
D11*
X10000000Y-110000000D02*
X12000000Y-110000000D01*
D10*
D11*
X10000000Y-160000000D02*
X12000000Y-160000000D01*
D10*
D11*
X10690476Y-35216666D02*
X11309523Y-35216666D01*
X10566666Y-35588095D02*
X11000000Y-34288095D01*
X11433333Y-35588095D01*
D10*
D11*
X11092857Y-84907142D02*
X11278571Y-84969047D01*
X11340476Y-85030952D01*
X11402380Y-85154761D01*
X11402380Y-85340476D01*
X11340476Y-85464285D01*
X11278571Y-85526190D01*
X11154761Y-85588095D01*
X10659523Y-85588095D01*
X10659523Y-84288095D01*
X11092857Y-84288095D01*
X11216666Y-84350000D01*
X11278571Y-84411904D01*
X11340476Y-84535714D01*
X11340476Y-84659523D01*
X11278571Y-84783333D01*
X11216666Y-84845238D01*
X11092857Y-84907142D01*
X10659523Y-84907142D01*
D10*
D11*
X11402380Y-135464285D02*
X11340476Y-135526190D01*
X11154761Y-135588095D01*
X11030952Y-135588095D01*
X10845238Y-135526190D01*
X10721428Y-135402380D01*
X10659523Y-135278571D01*
X10597619Y-135030952D01*
X10597619Y-134845238D01*
X10659523Y-134597619D01*
X10721428Y-134473809D01*
X10845238Y-134350000D01*
X11030952Y-134288095D01*
X11154761Y-134288095D01*
X11340476Y-134350000D01*
X11402380Y-134411904D01*
D10*
D11*
X10659523Y-185588095D02*
X10659523Y-184288095D01*
X10969047Y-184288095D01*
X11154761Y-184350000D01*
X11278571Y-184473809D01*
X11340476Y-184597619D01*
X11402380Y-184845238D01*
X11402380Y-185030952D01*
X11340476Y-185278571D01*
X11278571Y-185402380D01*
X11154761Y-185526190D01*
X10969047Y-185588095D01*
X10659523Y-185588095D01*
D10*
D11*
X287002200Y-60000000D02*
X285002200Y-60000000D01*
D10*
D11*
X287002200Y-110000000D02*
X285002200Y-110000000D01*
D10*
D11*
X287002200Y-160000000D02*
X285002200Y-160000000D01*
D10*
D11*
X285692676Y-35216666D02*
X286311723Y-35216666D01*
X285568866Y-35588095D02*
X286002200Y-34288095D01*
X286435533Y-35588095D01*
D10*
D11*
X286095057Y-84907142D02*
X286280771Y-84969047D01*
X286342676Y-85030952D01*
X286404580Y-85154761D01*
X286404580Y-85340476D01*
X286342676Y-85464285D01*
X286280771Y-85526190D01*
X286156961Y-85588095D01*
X285661723Y-85588095D01*
X285661723Y-84288095D01*
X286095057Y-84288095D01*
X286218866Y-84350000D01*
X286280771Y-84411904D01*
X286342676Y-84535714D01*
X286342676Y-84659523D01*
X286280771Y-84783333D01*
X286218866Y-84845238D01*
X286095057Y-84907142D01*
X285661723Y-84907142D01*
D10*
D11*
X286404580Y-135464285D02*
X286342676Y-135526190D01*
X286156961Y-135588095D01*
X286033152Y-135588095D01*
X285847438Y-135526190D01*
X285723628Y-135402380D01*
X285661723Y-135278571D01*
X285599819Y-135030952D01*
X285599819Y-134845238D01*
X285661723Y-134597619D01*
X285723628Y-134473809D01*
X285847438Y-134350000D01*
X286033152Y-134288095D01*
X286156961Y-134288095D01*
X286342676Y-134350000D01*
X286404580Y-134411904D01*
D10*
D11*
X285661723Y-185588095D02*
X285661723Y-184288095D01*
X285971247Y-184288095D01*
X286156961Y-184350000D01*
X286280771Y-184473809D01*
X286342676Y-184597619D01*
X286404580Y-184845238D01*
X286404580Y-185030952D01*
X286342676Y-185278571D01*
X286280771Y-185402380D01*
X286156961Y-185526190D01*
X285971247Y-185588095D01*
X285661723Y-185588095D01*
D10*
D11*
X200434342Y-193785771D02*
X200434342Y-192285771D01*
X200791485Y-192285771D01*
X201005771Y-192357200D01*
X201148628Y-192500057D01*
X201220057Y-192642914D01*
X201291485Y-192928628D01*
X201291485Y-193142914D01*
X201220057Y-193428628D01*
X201148628Y-193571485D01*
X201005771Y-193714342D01*
X200791485Y-193785771D01*
X200434342Y-193785771D01*
X202577200Y-193785771D02*
X202577200Y-193000057D01*
X202505771Y-192857200D01*
X202362914Y-192785771D01*
X202077200Y-192785771D01*
X201934342Y-192857200D01*
X202577200Y-193714342D02*
X202434342Y-193785771D01*
X202077200Y-193785771D01*
X201934342Y-193714342D01*
X201862914Y-193571485D01*
X201862914Y-193428628D01*
X201934342Y-193285771D01*
X202077200Y-193214342D01*
X202434342Y-193214342D01*
X202577200Y-193142914D01*
X203077200Y-192785771D02*
X203648628Y-192785771D01*
X203291485Y-192285771D02*
X203291485Y-193571485D01*
X203362914Y-193714342D01*
X203505771Y-193785771D01*
X203648628Y-193785771D01*
X204720057Y-193714342D02*
X204577200Y-193785771D01*
X204291485Y-193785771D01*
X204148628Y-193714342D01*
X204077200Y-193571485D01*
X204077200Y-193000057D01*
X204148628Y-192857200D01*
X204291485Y-192785771D01*
X204577200Y-192785771D01*
X204720057Y-192857200D01*
X204791485Y-193000057D01*
X204791485Y-193142914D01*
X204077200Y-193285771D01*
X205434342Y-193642914D02*
X205505771Y-193714342D01*
X205434342Y-193785771D01*
X205362914Y-193714342D01*
X205434342Y-193642914D01*
X205434342Y-193785771D01*
X205434342Y-192857200D02*
X205505771Y-192928628D01*
X205434342Y-193000057D01*
X205362914Y-192928628D01*
X205434342Y-192857200D01*
X205434342Y-193000057D01*
X207220057Y-192428628D02*
X207291485Y-192357200D01*
X207434342Y-192285771D01*
X207791485Y-192285771D01*
X207934342Y-192357200D01*
X208005771Y-192428628D01*
X208077200Y-192571485D01*
X208077200Y-192714342D01*
X208005771Y-192928628D01*
X207148628Y-193785771D01*
X208077200Y-193785771D01*
X209005771Y-192285771D02*
X209148628Y-192285771D01*
X209291485Y-192357200D01*
X209362914Y-192428628D01*
X209434342Y-192571485D01*
X209505771Y-192857200D01*
X209505771Y-193214342D01*
X209434342Y-193500057D01*
X209362914Y-193642914D01*
X209291485Y-193714342D01*
X209148628Y-193785771D01*
X209005771Y-193785771D01*
X208862914Y-193714342D01*
X208791485Y-193642914D01*
X208720057Y-193500057D01*
X208648628Y-193214342D01*
X208648628Y-192857200D01*
X208720057Y-192571485D01*
X208791485Y-192428628D01*
X208862914Y-192357200D01*
X209005771Y-192285771D01*
X210077200Y-192428628D02*
X210148628Y-192357200D01*
X210291485Y-192285771D01*
X210648628Y-192285771D01*
X210791485Y-192357200D01*
X210862914Y-192428628D01*
X210934342Y-192571485D01*
X210934342Y-192714342D01*
X210862914Y-192928628D01*
X210005771Y-193785771D01*
X210934342Y-193785771D01*
X212362914Y-193785771D02*
X211505771Y-193785771D01*
X211934342Y-193785771D02*
X211934342Y-192285771D01*
X211791485Y-192500057D01*
X211648628Y-192642914D01*
X211505771Y-192714342D01*
X213005771Y-193214342D02*
X214148628Y-193214342D01*
X215648628Y-193785771D02*
X214791485Y-193785771D01*
X215220057Y-193785771D02*
X215220057Y-192285771D01*
X215077200Y-192500057D01*
X214934342Y-192642914D01*
X214791485Y-192714342D01*
X217077200Y-193785771D02*
X216220057Y-193785771D01*
X216648628Y-193785771D02*
X216648628Y-192285771D01*
X216505771Y-192500057D01*
X216362914Y-192642914D01*
X216220057Y-192714342D01*
X217720057Y-193214342D02*
X218862914Y-193214342D01*
X220362914Y-193785771D02*
X219505771Y-193785771D01*
X219934342Y-193785771D02*
X219934342Y-192285771D01*
X219791485Y-192500057D01*
X219648628Y-192642914D01*
X219505771Y-192714342D01*
X221648628Y-192785771D02*
X221648628Y-193785771D01*
X221291485Y-192214342D02*
X220934342Y-193285771D01*
X221862914Y-193285771D01*
D10*
D11*
X177002200Y-194507200D02*
X285002200Y-194507200D01*
D10*
D11*
X178434342Y-196585771D02*
X178434342Y-195085771D01*
X179291485Y-196585771D02*
X178648628Y-195728628D01*
X179291485Y-195085771D02*
X178434342Y-195942914D01*
X179934342Y-196585771D02*
X179934342Y-195585771D01*
X179934342Y-195085771D02*
X179862914Y-195157200D01*
X179934342Y-195228628D01*
X180005771Y-195157200D01*
X179934342Y-195085771D01*
X179934342Y-195228628D01*
X181505771Y-196442914D02*
X181434342Y-196514342D01*
X181220057Y-196585771D01*
X181077200Y-196585771D01*
X180862914Y-196514342D01*
X180720057Y-196371485D01*
X180648628Y-196228628D01*
X180577200Y-195942914D01*
X180577200Y-195728628D01*
X180648628Y-195442914D01*
X180720057Y-195300057D01*
X180862914Y-195157200D01*
X181077200Y-195085771D01*
X181220057Y-195085771D01*
X181434342Y-195157200D01*
X181505771Y-195228628D01*
X182791485Y-196585771D02*
X182791485Y-195800057D01*
X182720057Y-195657200D01*
X182577200Y-195585771D01*
X182291485Y-195585771D01*
X182148628Y-195657200D01*
X182791485Y-196514342D02*
X182648628Y-196585771D01*
X182291485Y-196585771D01*
X182148628Y-196514342D01*
X182077200Y-196371485D01*
X182077200Y-196228628D01*
X182148628Y-196085771D01*
X182291485Y-196014342D01*
X182648628Y-196014342D01*
X182791485Y-195942914D01*
X184148628Y-196585771D02*
X184148628Y-195085771D01*
X184148628Y-196514342D02*
X184005771Y-196585771D01*
X183720057Y-196585771D01*
X183577200Y-196514342D01*
X183505771Y-196442914D01*
X183434342Y-196300057D01*
X183434342Y-195871485D01*
X183505771Y-195728628D01*
X183577200Y-195657200D01*
X183720057Y-195585771D01*
X184005771Y-195585771D01*
X184148628Y-195657200D01*
X186005771Y-195800057D02*
X186505771Y-195800057D01*
X186720057Y-196585771D02*
X186005771Y-196585771D01*
X186005771Y-195085771D01*
X186720057Y-195085771D01*
X187362914Y-196442914D02*
X187434342Y-196514342D01*
X187362914Y-196585771D01*
X187291485Y-196514342D01*
X187362914Y-196442914D01*
X187362914Y-196585771D01*
X188077200Y-196585771D02*
X188077200Y-195085771D01*
X188434342Y-195085771D01*
X188648628Y-195157200D01*
X188791485Y-195300057D01*
X188862914Y-195442914D01*
X188934342Y-195728628D01*
X188934342Y-195942914D01*
X188862914Y-196228628D01*
X188791485Y-196371485D01*
X188648628Y-196514342D01*
X188434342Y-196585771D01*
X188077200Y-196585771D01*
X189577200Y-196442914D02*
X189648628Y-196514342D01*
X189577200Y-196585771D01*
X189505771Y-196514342D01*
X189577200Y-196442914D01*
X189577200Y-196585771D01*
X190220057Y-196157200D02*
X190934342Y-196157200D01*
X190077200Y-196585771D02*
X190577200Y-195085771D01*
X191077200Y-196585771D01*
X191577200Y-196442914D02*
X191648628Y-196514342D01*
X191577200Y-196585771D01*
X191505771Y-196514342D01*
X191577200Y-196442914D01*
X191577200Y-196585771D01*
X194577200Y-196585771D02*
X194577200Y-195085771D01*
X194720057Y-196014342D02*
X195148628Y-196585771D01*
X195148628Y-195585771D02*
X194577200Y-196157200D01*
X195791485Y-196585771D02*
X195791485Y-195585771D01*
X195791485Y-195085771D02*
X195720057Y-195157200D01*
X195791485Y-195228628D01*
X195862914Y-195157200D01*
X195791485Y-195085771D01*
X195791485Y-195228628D01*
X197148628Y-196514342D02*
X197005771Y-196585771D01*
X196720057Y-196585771D01*
X196577200Y-196514342D01*
X196505771Y-196442914D01*
X196434342Y-196300057D01*
X196434342Y-195871485D01*
X196505771Y-195728628D01*
X196577200Y-195657200D01*
X196720057Y-195585771D01*
X197005771Y-195585771D01*
X197148628Y-195657200D01*
X198434342Y-196585771D02*
X198434342Y-195800057D01*
X198362914Y-195657200D01*
X198220057Y-195585771D01*
X197934342Y-195585771D01*
X197791485Y-195657200D01*
X198434342Y-196514342D02*
X198291485Y-196585771D01*
X197934342Y-196585771D01*
X197791485Y-196514342D01*
X197720057Y-196371485D01*
X197720057Y-196228628D01*
X197791485Y-196085771D01*
X197934342Y-196014342D01*
X198291485Y-196014342D01*
X198434342Y-195942914D01*
X199791485Y-196585771D02*
X199791485Y-195085771D01*
X199791485Y-196514342D02*
X199648628Y-196585771D01*
X199362914Y-196585771D01*
X199220057Y-196514342D01*
X199148628Y-196442914D01*
X199077200Y-196300057D01*
X199077200Y-195871485D01*
X199148628Y-195728628D01*
X199220057Y-195657200D01*
X199362914Y-195585771D01*
X199648628Y-195585771D01*
X199791485Y-195657200D01*
X202362914Y-195085771D02*
X201648628Y-195085771D01*
X201577200Y-195800057D01*
X201648628Y-195728628D01*
X201791485Y-195657200D01*
X202148628Y-195657200D01*
X202291485Y-195728628D01*
X202362914Y-195800057D01*
X202434342Y-195942914D01*
X202434342Y-196300057D01*
X202362914Y-196442914D01*
X202291485Y-196514342D01*
X202148628Y-196585771D01*
X201791485Y-196585771D01*
X201648628Y-196514342D01*
X201577200Y-196442914D01*
X203077200Y-196442914D02*
X203148628Y-196514342D01*
X203077200Y-196585771D01*
X203005771Y-196514342D01*
X203077200Y-196442914D01*
X203077200Y-196585771D01*
X204577200Y-196585771D02*
X203720057Y-196585771D01*
X204148628Y-196585771D02*
X204148628Y-195085771D01*
X204005771Y-195300057D01*
X203862914Y-195442914D01*
X203720057Y-195514342D01*
X205220057Y-196442914D02*
X205291485Y-196514342D01*
X205220057Y-196585771D01*
X205148628Y-196514342D01*
X205220057Y-196442914D01*
X205220057Y-196585771D01*
X206720057Y-196585771D02*
X205862914Y-196585771D01*
X206291485Y-196585771D02*
X206291485Y-195085771D01*
X206148628Y-195300057D01*
X206005771Y-195442914D01*
X205862914Y-195514342D01*
X207291485Y-195228628D02*
X207362914Y-195157200D01*
X207505771Y-195085771D01*
X207862914Y-195085771D01*
X208005771Y-195157200D01*
X208077200Y-195228628D01*
X208148628Y-195371485D01*
X208148628Y-195514342D01*
X208077200Y-195728628D01*
X207220057Y-196585771D01*
X208148628Y-196585771D01*
X208791485Y-196014342D02*
X209934342Y-196014342D01*
X210862914Y-195728628D02*
X210720057Y-195657200D01*
X210648628Y-195585771D01*
X210577200Y-195442914D01*
X210577200Y-195371485D01*
X210648628Y-195228628D01*
X210720057Y-195157200D01*
X210862914Y-195085771D01*
X211148628Y-195085771D01*
X211291485Y-195157200D01*
X211362914Y-195228628D01*
X211434342Y-195371485D01*
X211434342Y-195442914D01*
X211362914Y-195585771D01*
X211291485Y-195657200D01*
X211148628Y-195728628D01*
X210862914Y-195728628D01*
X210720057Y-195800057D01*
X210648628Y-195871485D01*
X210577200Y-196014342D01*
X210577200Y-196300057D01*
X210648628Y-196442914D01*
X210720057Y-196514342D01*
X210862914Y-196585771D01*
X211148628Y-196585771D01*
X211291485Y-196514342D01*
X211362914Y-196442914D01*
X211434342Y-196300057D01*
X211434342Y-196014342D01*
X211362914Y-195871485D01*
X211291485Y-195800057D01*
X211148628Y-195728628D01*
X212720057Y-195585771D02*
X212720057Y-196585771D01*
X212362914Y-195014342D02*
X212005771Y-196085771D01*
X212934342Y-196085771D01*
X214148628Y-196585771D02*
X214148628Y-195800057D01*
X214077200Y-195657200D01*
X213934342Y-195585771D01*
X213648628Y-195585771D01*
X213505771Y-195657200D01*
X214148628Y-196514342D02*
X214005771Y-196585771D01*
X213648628Y-196585771D01*
X213505771Y-196514342D01*
X213434342Y-196371485D01*
X213434342Y-196228628D01*
X213505771Y-196085771D01*
X213648628Y-196014342D01*
X214005771Y-196014342D01*
X214148628Y-195942914D01*
X215505771Y-196585771D02*
X215505771Y-195085771D01*
X215505771Y-196514342D02*
X215362914Y-196585771D01*
X215077200Y-196585771D01*
X214934342Y-196514342D01*
X214862914Y-196442914D01*
X214791485Y-196300057D01*
X214791485Y-195871485D01*
X214862914Y-195728628D01*
X214934342Y-195657200D01*
X215077200Y-195585771D01*
X215362914Y-195585771D01*
X215505771Y-195657200D01*
X216434342Y-195728628D02*
X216291485Y-195657200D01*
X216220057Y-195585771D01*
X216148628Y-195442914D01*
X216148628Y-195371485D01*
X216220057Y-195228628D01*
X216291485Y-195157200D01*
X216434342Y-195085771D01*
X216720057Y-195085771D01*
X216862914Y-195157200D01*
X216934342Y-195228628D01*
X217005771Y-195371485D01*
X217005771Y-195442914D01*
X216934342Y-195585771D01*
X216862914Y-195657200D01*
X216720057Y-195728628D01*
X216434342Y-195728628D01*
X216291485Y-195800057D01*
X216220057Y-195871485D01*
X216148628Y-196014342D01*
X216148628Y-196300057D01*
X216220057Y-196442914D01*
X216291485Y-196514342D01*
X216434342Y-196585771D01*
X216720057Y-196585771D01*
X216862914Y-196514342D01*
X216934342Y-196442914D01*
X217005771Y-196300057D01*
X217005771Y-196014342D01*
X216934342Y-195871485D01*
X216862914Y-195800057D01*
X216720057Y-195728628D01*
X218220057Y-196514342D02*
X218077200Y-196585771D01*
X217791485Y-196585771D01*
X217648628Y-196514342D01*
X217577200Y-196371485D01*
X217577200Y-195800057D01*
X217648628Y-195657200D01*
X217791485Y-195585771D01*
X218077200Y-195585771D01*
X218220057Y-195657200D01*
X218291485Y-195800057D01*
X218291485Y-195942914D01*
X217577200Y-196085771D01*
X219148628Y-195728628D02*
X219005771Y-195657200D01*
X218934342Y-195585771D01*
X218862914Y-195442914D01*
X218862914Y-195371485D01*
X218934342Y-195228628D01*
X219005771Y-195157200D01*
X219148628Y-195085771D01*
X219434342Y-195085771D01*
X219577200Y-195157200D01*
X219648628Y-195228628D01*
X219720057Y-195371485D01*
X219720057Y-195442914D01*
X219648628Y-195585771D01*
X219577200Y-195657200D01*
X219434342Y-195728628D01*
X219148628Y-195728628D01*
X219005771Y-195800057D01*
X218934342Y-195871485D01*
X218862914Y-196014342D01*
X218862914Y-196300057D01*
X218934342Y-196442914D01*
X219005771Y-196514342D01*
X219148628Y-196585771D01*
X219434342Y-196585771D01*
X219577200Y-196514342D01*
X219648628Y-196442914D01*
X219720057Y-196300057D01*
X219720057Y-196014342D01*
X219648628Y-195871485D01*
X219577200Y-195800057D01*
X219434342Y-195728628D01*
X221005771Y-196585771D02*
X221005771Y-195800057D01*
X220934342Y-195657200D01*
X220791485Y-195585771D01*
X220505771Y-195585771D01*
X220362914Y-195657200D01*
X221005771Y-196514342D02*
X220862914Y-196585771D01*
X220505771Y-196585771D01*
X220362914Y-196514342D01*
X220291485Y-196371485D01*
X220291485Y-196228628D01*
X220362914Y-196085771D01*
X220505771Y-196014342D01*
X220862914Y-196014342D01*
X221005771Y-195942914D01*
X221934342Y-195728628D02*
X221791485Y-195657200D01*
X221720057Y-195585771D01*
X221648628Y-195442914D01*
X221648628Y-195371485D01*
X221720057Y-195228628D01*
X221791485Y-195157200D01*
X221934342Y-195085771D01*
X222220057Y-195085771D01*
X222362914Y-195157200D01*
X222434342Y-195228628D01*
X222505771Y-195371485D01*
X222505771Y-195442914D01*
X222434342Y-195585771D01*
X222362914Y-195657200D01*
X222220057Y-195728628D01*
X221934342Y-195728628D01*
X221791485Y-195800057D01*
X221720057Y-195871485D01*
X221648628Y-196014342D01*
X221648628Y-196300057D01*
X221720057Y-196442914D01*
X221791485Y-196514342D01*
X221934342Y-196585771D01*
X222220057Y-196585771D01*
X222362914Y-196514342D01*
X222434342Y-196442914D01*
X222505771Y-196300057D01*
X222505771Y-196014342D01*
X222434342Y-195871485D01*
X222362914Y-195800057D01*
X222220057Y-195728628D01*
X223791485Y-195085771D02*
X223505771Y-195085771D01*
X223362914Y-195157200D01*
X223291485Y-195228628D01*
X223148628Y-195442914D01*
X223077200Y-195728628D01*
X223077200Y-196300057D01*
X223148628Y-196442914D01*
X223220057Y-196514342D01*
X223362914Y-196585771D01*
X223648628Y-196585771D01*
X223791485Y-196514342D01*
X223862914Y-196442914D01*
X223934342Y-196300057D01*
X223934342Y-195942914D01*
X223862914Y-195800057D01*
X223791485Y-195728628D01*
X223648628Y-195657200D01*
X223362914Y-195657200D01*
X223220057Y-195728628D01*
X223148628Y-195800057D01*
X223077200Y-195942914D01*
X224220057Y-194677200D02*
X225648628Y-194677200D01*
X224648628Y-196585771D02*
X224934342Y-196585771D01*
X225077200Y-196514342D01*
X225148628Y-196442914D01*
X225291485Y-196228628D01*
X225362914Y-195942914D01*
X225362914Y-195371485D01*
X225291485Y-195228628D01*
X225220057Y-195157200D01*
X225077200Y-195085771D01*
X224791485Y-195085771D01*
X224648628Y-195157200D01*
X224577200Y-195228628D01*
X224505771Y-195371485D01*
X224505771Y-195728628D01*
X224577200Y-195871485D01*
X224648628Y-195942914D01*
X224791485Y-196014342D01*
X225077200Y-196014342D01*
X225220057Y-195942914D01*
X225291485Y-195871485D01*
X225362914Y-195728628D01*
X225648628Y-194677200D02*
X227077199Y-194677200D01*
X225934342Y-195228628D02*
X226005771Y-195157200D01*
X226148628Y-195085771D01*
X226505771Y-195085771D01*
X226648628Y-195157200D01*
X226720057Y-195228628D01*
X226791485Y-195371485D01*
X226791485Y-195514342D01*
X226720057Y-195728628D01*
X225862914Y-196585771D01*
X226791485Y-196585771D01*
X228077199Y-195585771D02*
X228077199Y-196585771D01*
X227434342Y-195585771D02*
X227434342Y-196371485D01*
X227505771Y-196514342D01*
X227648628Y-196585771D01*
X227862914Y-196585771D01*
X228005771Y-196514342D01*
X228077199Y-196442914D01*
X228791485Y-196585771D02*
X228791485Y-195085771D01*
X228791485Y-195657200D02*
X228934342Y-195585771D01*
X229220057Y-195585771D01*
X229362914Y-195657200D01*
X229434342Y-195728628D01*
X229505771Y-195871485D01*
X229505771Y-196300057D01*
X229434342Y-196442914D01*
X229362914Y-196514342D01*
X229220057Y-196585771D01*
X228934342Y-196585771D01*
X228791485Y-196514342D01*
X230791485Y-195585771D02*
X230791485Y-196585771D01*
X230148628Y-195585771D02*
X230148628Y-196371485D01*
X230220057Y-196514342D01*
X230362914Y-196585771D01*
X230577199Y-196585771D01*
X230720057Y-196514342D01*
X230791485Y-196442914D01*
X231505771Y-195585771D02*
X231505771Y-196585771D01*
X231505771Y-195728628D02*
X231577199Y-195657200D01*
X231720057Y-195585771D01*
X231934342Y-195585771D01*
X232077199Y-195657200D01*
X232148628Y-195800057D01*
X232148628Y-196585771D01*
X232648628Y-195585771D02*
X233220057Y-195585771D01*
X232862914Y-195085771D02*
X232862914Y-196371485D01*
X232934342Y-196514342D01*
X233077200Y-196585771D01*
X233220057Y-196585771D01*
X234362914Y-195585771D02*
X234362914Y-196585771D01*
X233720057Y-195585771D02*
X233720057Y-196371485D01*
X233791485Y-196514342D01*
X233934342Y-196585771D01*
X234148628Y-196585771D01*
X234291485Y-196514342D01*
X234362914Y-196442914D01*
X235862914Y-196585771D02*
X235005771Y-196585771D01*
X235434342Y-196585771D02*
X235434342Y-195085771D01*
X235291485Y-195300057D01*
X235148628Y-195442914D01*
X235005771Y-195514342D01*
X237148628Y-195085771D02*
X236862914Y-195085771D01*
X236720057Y-195157200D01*
X236648628Y-195228628D01*
X236505771Y-195442914D01*
X236434342Y-195728628D01*
X236434342Y-196300057D01*
X236505771Y-196442914D01*
X236577199Y-196514342D01*
X236720057Y-196585771D01*
X237005771Y-196585771D01*
X237148628Y-196514342D01*
X237220057Y-196442914D01*
X237291485Y-196300057D01*
X237291485Y-195942914D01*
X237220057Y-195800057D01*
X237148628Y-195728628D01*
X237005771Y-195657200D01*
X236720057Y-195657200D01*
X236577199Y-195728628D01*
X236505771Y-195800057D01*
X236434342Y-195942914D01*
X237934342Y-196442914D02*
X238005771Y-196514342D01*
X237934342Y-196585771D01*
X237862914Y-196514342D01*
X237934342Y-196442914D01*
X237934342Y-196585771D01*
X238934342Y-195085771D02*
X239077199Y-195085771D01*
X239220057Y-195157200D01*
X239291485Y-195228628D01*
X239362914Y-195371485D01*
X239434342Y-195657200D01*
X239434342Y-196014342D01*
X239362914Y-196300057D01*
X239291485Y-196442914D01*
X239220057Y-196514342D01*
X239077199Y-196585771D01*
X238934342Y-196585771D01*
X238791485Y-196514342D01*
X238720057Y-196442914D01*
X238648628Y-196300057D01*
X238577199Y-196014342D01*
X238577199Y-195657200D01*
X238648628Y-195371485D01*
X238720057Y-195228628D01*
X238791485Y-195157200D01*
X238934342Y-195085771D01*
X240720057Y-195585771D02*
X240720057Y-196585771D01*
X240362914Y-195014342D02*
X240005771Y-196085771D01*
X240934342Y-196085771D01*
X241505771Y-196442914D02*
X241577199Y-196514342D01*
X241505771Y-196585771D01*
X241434342Y-196514342D01*
X241505771Y-196442914D01*
X241505771Y-196585771D01*
X243005771Y-196585771D02*
X242148628Y-196585771D01*
X242577199Y-196585771D02*
X242577199Y-195085771D01*
X242434342Y-195300057D01*
X242291485Y-195442914D01*
X242148628Y-195514342D01*
D10*
D11*
X177002200Y-191507200D02*
X285002200Y-191507200D01*
D10*
D12*
X264411485Y-193785771D02*
X263911485Y-193071485D01*
X263554342Y-193785771D02*
X263554342Y-192285771D01*
X264125771Y-192285771D01*
X264268628Y-192357200D01*
X264340057Y-192428628D01*
X264411485Y-192571485D01*
X264411485Y-192785771D01*
X264340057Y-192928628D01*
X264268628Y-193000057D01*
X264125771Y-193071485D01*
X263554342Y-193071485D01*
X265625771Y-193714342D02*
X265482914Y-193785771D01*
X265197200Y-193785771D01*
X265054342Y-193714342D01*
X264982914Y-193571485D01*
X264982914Y-193000057D01*
X265054342Y-192857200D01*
X265197200Y-192785771D01*
X265482914Y-192785771D01*
X265625771Y-192857200D01*
X265697200Y-193000057D01*
X265697200Y-193142914D01*
X264982914Y-193285771D01*
X266197200Y-192785771D02*
X266554342Y-193785771D01*
X266911485Y-192785771D01*
X267482914Y-193642914D02*
X267554342Y-193714342D01*
X267482914Y-193785771D01*
X267411485Y-193714342D01*
X267482914Y-193642914D01*
X267482914Y-193785771D01*
X267482914Y-192857200D02*
X267554342Y-192928628D01*
X267482914Y-193000057D01*
X267411485Y-192928628D01*
X267482914Y-192857200D01*
X267482914Y-193000057D01*
X270125771Y-193785771D02*
X269268628Y-193785771D01*
X269697200Y-193785771D02*
X269697200Y-192285771D01*
X269554342Y-192500057D01*
X269411485Y-192642914D01*
X269268628Y-192714342D01*
D10*
D11*
X178362914Y-193714342D02*
X178577200Y-193785771D01*
X178934342Y-193785771D01*
X179077200Y-193714342D01*
X179148628Y-193642914D01*
X179220057Y-193500057D01*
X179220057Y-193357200D01*
X179148628Y-193214342D01*
X179077200Y-193142914D01*
X178934342Y-193071485D01*
X178648628Y-193000057D01*
X178505771Y-192928628D01*
X178434342Y-192857200D01*
X178362914Y-192714342D01*
X178362914Y-192571485D01*
X178434342Y-192428628D01*
X178505771Y-192357200D01*
X178648628Y-192285771D01*
X179005771Y-192285771D01*
X179220057Y-192357200D01*
X179862914Y-193785771D02*
X179862914Y-192785771D01*
X179862914Y-192285771D02*
X179791485Y-192357200D01*
X179862914Y-192428628D01*
X179934342Y-192357200D01*
X179862914Y-192285771D01*
X179862914Y-192428628D01*
X180434342Y-192785771D02*
X181220057Y-192785771D01*
X180434342Y-193785771D01*
X181220057Y-193785771D01*
X182362914Y-193714342D02*
X182220057Y-193785771D01*
X181934342Y-193785771D01*
X181791485Y-193714342D01*
X181720057Y-193571485D01*
X181720057Y-193000057D01*
X181791485Y-192857200D01*
X181934342Y-192785771D01*
X182220057Y-192785771D01*
X182362914Y-192857200D01*
X182434342Y-193000057D01*
X182434342Y-193142914D01*
X181720057Y-193285771D01*
X183077200Y-193642914D02*
X183148628Y-193714342D01*
X183077200Y-193785771D01*
X183005771Y-193714342D01*
X183077200Y-193642914D01*
X183077200Y-193785771D01*
X183077200Y-192857200D02*
X183148628Y-192928628D01*
X183077200Y-193000057D01*
X183005771Y-192928628D01*
X183077200Y-192857200D01*
X183077200Y-193000057D01*
X184862914Y-193357200D02*
X185577200Y-193357200D01*
X184720057Y-193785771D02*
X185220057Y-192285771D01*
X185720057Y-193785771D01*
X186862914Y-192785771D02*
X186862914Y-193785771D01*
X186505771Y-192214342D02*
X186148628Y-193285771D01*
X187077200Y-193285771D01*
D10*
D11*
X263434342Y-196585771D02*
X263434342Y-195085771D01*
X264791485Y-196585771D02*
X264791485Y-195085771D01*
X264791485Y-196514342D02*
X264648628Y-196585771D01*
X264362914Y-196585771D01*
X264220057Y-196514342D01*
X264148628Y-196442914D01*
X264077200Y-196300057D01*
X264077200Y-195871485D01*
X264148628Y-195728628D01*
X264220057Y-195657200D01*
X264362914Y-195585771D01*
X264648628Y-195585771D01*
X264791485Y-195657200D01*
X265505771Y-196442914D02*
X265577200Y-196514342D01*
X265505771Y-196585771D01*
X265434342Y-196514342D01*
X265505771Y-196442914D01*
X265505771Y-196585771D01*
X265505771Y-195657200D02*
X265577200Y-195728628D01*
X265505771Y-195800057D01*
X265434342Y-195728628D01*
X265505771Y-195657200D01*
X265505771Y-195800057D01*
X268148628Y-196585771D02*
X267291485Y-196585771D01*
X267720057Y-196585771D02*
X267720057Y-195085771D01*
X267577200Y-195300057D01*
X267434342Y-195442914D01*
X267291485Y-195514342D01*
X269862914Y-195014342D02*
X268577200Y-196942914D01*
X271148628Y-196585771D02*
X270291485Y-196585771D01*
X270720057Y-196585771D02*
X270720057Y-195085771D01*
X270577200Y-195300057D01*
X270434342Y-195442914D01*
X270291485Y-195514342D01*
D10*
D11*
X177002200Y-187507200D02*
X285002200Y-187507200D01*
D10*
D13*
X178714580Y-188211961D02*
X179857438Y-188211961D01*
X179036009Y-190211961D02*
X179286009Y-188211961D01*
X180274104Y-190211961D02*
X180440771Y-188878628D01*
X180524104Y-188211961D02*
X180416961Y-188307200D01*
X180500295Y-188402438D01*
X180607438Y-188307200D01*
X180524104Y-188211961D01*
X180500295Y-188402438D01*
X181107438Y-188878628D02*
X181869342Y-188878628D01*
X181476485Y-188211961D02*
X181262200Y-189926247D01*
X181333628Y-190116723D01*
X181512200Y-190211961D01*
X181702676Y-190211961D01*
X182655057Y-190211961D02*
X182476485Y-190116723D01*
X182405057Y-189926247D01*
X182619342Y-188211961D01*
X184190771Y-190116723D02*
X183988390Y-190211961D01*
X183607438Y-190211961D01*
X183428866Y-190116723D01*
X183357438Y-189926247D01*
X183452676Y-189164342D01*
X183571723Y-188973866D01*
X183774104Y-188878628D01*
X184155057Y-188878628D01*
X184333628Y-188973866D01*
X184405057Y-189164342D01*
X184381247Y-189354819D01*
X183405057Y-189545295D01*
X185155057Y-190021485D02*
X185238390Y-190116723D01*
X185131247Y-190211961D01*
X185047914Y-190116723D01*
X185155057Y-190021485D01*
X185131247Y-190211961D01*
X185286009Y-188973866D02*
X185369342Y-189069104D01*
X185262200Y-189164342D01*
X185178866Y-189069104D01*
X185286009Y-188973866D01*
X185262200Y-189164342D01*
X187607438Y-190211961D02*
X187857438Y-188211961D01*
X188345533Y-189640533D01*
X189190771Y-188211961D01*
X188940771Y-190211961D01*
X189869342Y-189640533D02*
X190821723Y-189640533D01*
X189607438Y-190211961D02*
X190524104Y-188211961D01*
X190940771Y-190211961D01*
X191666961Y-188211961D02*
X192750295Y-190211961D01*
X193000295Y-188211961D02*
X191416961Y-190211961D01*
X193571723Y-188211961D02*
X194905057Y-188211961D01*
X193797914Y-190211961D01*
X196464580Y-190211961D02*
X195321723Y-190211961D01*
X195893152Y-190211961D02*
X196143152Y-188211961D01*
X195916961Y-188497676D01*
X195702676Y-188688152D01*
X195500295Y-188783390D01*
X197381247Y-188211961D02*
X198619342Y-188211961D01*
X197857438Y-188973866D01*
X198143152Y-188973866D01*
X198321723Y-189069104D01*
X198405057Y-189164342D01*
X198476485Y-189354819D01*
X198416961Y-189831009D01*
X198297914Y-190021485D01*
X198190771Y-190116723D01*
X197988390Y-190211961D01*
X197416961Y-190211961D01*
X197238390Y-190116723D01*
X197155057Y-190021485D01*
X200750295Y-190211961D02*
X201000295Y-188211961D01*
X201893152Y-190211961D01*
X202143152Y-188211961D01*
X202845533Y-190211961D02*
X203012200Y-188878628D01*
X203095533Y-188211961D02*
X202988390Y-188307200D01*
X203071723Y-188402438D01*
X203178866Y-188307200D01*
X203095533Y-188211961D01*
X203071723Y-188402438D01*
X204964580Y-190021485D02*
X204857438Y-190116723D01*
X204559819Y-190211961D01*
X204369342Y-190211961D01*
X204095533Y-190116723D01*
X203928866Y-189926247D01*
X203857438Y-189735771D01*
X203809819Y-189354819D01*
X203845533Y-189069104D01*
X203988390Y-188688152D01*
X204107438Y-188497676D01*
X204321723Y-188307200D01*
X204619342Y-188211961D01*
X204809819Y-188211961D01*
X205083628Y-188307200D01*
X205166961Y-188402438D01*
X206655057Y-190211961D02*
X206905057Y-188211961D01*
X206666961Y-190116723D02*
X206464580Y-190211961D01*
X206083628Y-190211961D01*
X205905057Y-190116723D01*
X205821723Y-190021485D01*
X205750295Y-189831009D01*
X205821723Y-189259580D01*
X205940771Y-189069104D01*
X206047914Y-188973866D01*
X206250295Y-188878628D01*
X206631247Y-188878628D01*
X206809819Y-188973866D01*
X209297914Y-188116723D02*
X207262200Y-190688152D01*
X209702676Y-190211961D02*
X209952676Y-188211961D01*
X210845533Y-190211961D01*
X211095533Y-188211961D01*
X211797914Y-190211961D02*
X211964580Y-188878628D01*
X212047914Y-188211961D02*
X211940771Y-188307200D01*
X212024104Y-188402438D01*
X212131247Y-188307200D01*
X212047914Y-188211961D01*
X212024104Y-188402438D01*
X212750295Y-190211961D02*
X213000295Y-188211961D01*
X213488390Y-189640533D01*
X214333628Y-188211961D01*
X214083628Y-190211961D01*
X215036009Y-190211961D02*
X215286009Y-188211961D01*
X215166961Y-189164342D02*
X216309819Y-189164342D01*
X216178866Y-190211961D02*
X216428866Y-188211961D01*
X218655057Y-190211961D02*
X218905057Y-188211961D01*
X218809819Y-188973866D02*
X219012200Y-188878628D01*
X219393152Y-188878628D01*
X219571723Y-188973866D01*
X219655057Y-189069104D01*
X219726485Y-189259580D01*
X219655057Y-189831009D01*
X219536009Y-190021485D01*
X219428866Y-190116723D01*
X219226485Y-190211961D01*
X218845533Y-190211961D01*
X218666961Y-190116723D01*
X221321723Y-190211961D02*
X221452676Y-189164342D01*
X221381247Y-188973866D01*
X221202676Y-188878628D01*
X220821723Y-188878628D01*
X220619342Y-188973866D01*
X221333628Y-190116723D02*
X221131247Y-190211961D01*
X220655057Y-190211961D01*
X220476485Y-190116723D01*
X220405057Y-189926247D01*
X220428866Y-189735771D01*
X220547914Y-189545295D01*
X220750295Y-189450057D01*
X221226485Y-189450057D01*
X221428866Y-189354819D01*
X222155057Y-188878628D02*
X222916961Y-188878628D01*
X222524104Y-188211961D02*
X222309819Y-189926247D01*
X222381247Y-190116723D01*
X222559819Y-190211961D01*
X222750295Y-190211961D01*
X223297914Y-188878628D02*
X224059819Y-188878628D01*
X223666961Y-188211961D02*
X223452676Y-189926247D01*
X223524104Y-190116723D01*
X223702676Y-190211961D01*
X223893152Y-190211961D01*
X225333628Y-190116723D02*
X225131247Y-190211961D01*
X224750295Y-190211961D01*
X224571723Y-190116723D01*
X224500295Y-189926247D01*
X224595533Y-189164342D01*
X224714580Y-188973866D01*
X224916961Y-188878628D01*
X225297914Y-188878628D01*
X225476485Y-188973866D01*
X225547914Y-189164342D01*
X225524104Y-189354819D01*
X224547914Y-189545295D01*
X226274104Y-190211961D02*
X226440771Y-188878628D01*
X226393152Y-189259580D02*
X226512200Y-189069104D01*
X226619342Y-188973866D01*
X226821723Y-188878628D01*
X227012199Y-188878628D01*
X227488390Y-188878628D02*
X227797914Y-190211961D01*
X228440771Y-188878628D02*
X227797914Y-190211961D01*
X227547914Y-190688152D01*
X227440771Y-190783390D01*
X227238390Y-190878628D01*
X230440771Y-188878628D02*
X231202676Y-188878628D01*
X230559819Y-190211961D02*
X230774104Y-188497676D01*
X230893152Y-188307200D01*
X231095533Y-188211961D01*
X231286009Y-188211961D01*
X232559819Y-190211961D02*
X232690771Y-189164342D01*
X232619342Y-188973866D01*
X232440771Y-188878628D01*
X232059819Y-188878628D01*
X231857438Y-188973866D01*
X232571723Y-190116723D02*
X232369342Y-190211961D01*
X231893152Y-190211961D01*
X231714580Y-190116723D01*
X231643152Y-189926247D01*
X231666961Y-189735771D01*
X231786009Y-189545295D01*
X231988390Y-189450057D01*
X232464580Y-189450057D01*
X232666961Y-189354819D01*
X233428866Y-190116723D02*
X233607438Y-190211961D01*
X233988390Y-190211961D01*
X234190771Y-190116723D01*
X234309819Y-189926247D01*
X234321723Y-189831009D01*
X234250295Y-189640533D01*
X234071723Y-189545295D01*
X233786009Y-189545295D01*
X233607438Y-189450057D01*
X233536009Y-189259580D01*
X233547914Y-189164342D01*
X233666961Y-188973866D01*
X233869342Y-188878628D01*
X234155057Y-188878628D01*
X234333628Y-188973866D01*
X235012199Y-188878628D02*
X235774104Y-188878628D01*
X235381247Y-188211961D02*
X235166961Y-189926247D01*
X235238390Y-190116723D01*
X235416961Y-190211961D01*
X235607438Y-190211961D01*
X236369342Y-189450057D02*
X237893152Y-189450057D01*
X239619342Y-190116723D02*
X239416961Y-190211961D01*
X239036009Y-190211961D01*
X238857438Y-190116723D01*
X238774104Y-190021485D01*
X238702676Y-189831009D01*
X238774104Y-189259580D01*
X238893152Y-189069104D01*
X239000295Y-188973866D01*
X239202676Y-188878628D01*
X239583628Y-188878628D01*
X239762199Y-188973866D01*
X240464580Y-190211961D02*
X240714580Y-188211961D01*
X241321723Y-190211961D02*
X241452676Y-189164342D01*
X241381247Y-188973866D01*
X241202676Y-188878628D01*
X240916961Y-188878628D01*
X240714580Y-188973866D01*
X240607438Y-189069104D01*
X243131247Y-190211961D02*
X243262199Y-189164342D01*
X243190771Y-188973866D01*
X243012199Y-188878628D01*
X242631247Y-188878628D01*
X242428866Y-188973866D01*
X243143152Y-190116723D02*
X242940771Y-190211961D01*
X242464580Y-190211961D01*
X242286009Y-190116723D01*
X242214580Y-189926247D01*
X242238390Y-189735771D01*
X242357438Y-189545295D01*
X242559819Y-189450057D01*
X243036009Y-189450057D01*
X243238390Y-189354819D01*
X244083628Y-190211961D02*
X244250295Y-188878628D01*
X244202676Y-189259580D02*
X244321723Y-189069104D01*
X244428866Y-188973866D01*
X244631247Y-188878628D01*
X244821723Y-188878628D01*
X246345533Y-188878628D02*
X246143152Y-190497676D01*
X246024104Y-190688152D01*
X245916961Y-190783390D01*
X245714580Y-190878628D01*
X245428866Y-190878628D01*
X245250295Y-190783390D01*
X246190771Y-190116723D02*
X245988390Y-190211961D01*
X245607438Y-190211961D01*
X245428866Y-190116723D01*
X245345533Y-190021485D01*
X245274104Y-189831009D01*
X245345533Y-189259580D01*
X245464580Y-189069104D01*
X245571723Y-188973866D01*
X245774104Y-188878628D01*
X246155057Y-188878628D01*
X246333628Y-188973866D01*
X247905057Y-190116723D02*
X247702676Y-190211961D01*
X247321723Y-190211961D01*
X247143152Y-190116723D01*
X247071723Y-189926247D01*
X247166961Y-189164342D01*
X247286009Y-188973866D01*
X247488390Y-188878628D01*
X247869342Y-188878628D01*
X248047914Y-188973866D01*
X248119342Y-189164342D01*
X248095533Y-189354819D01*
X247119342Y-189545295D01*
X251238390Y-190116723D02*
X251036009Y-190211961D01*
X250655057Y-190211961D01*
X250476485Y-190116723D01*
X250393152Y-190021485D01*
X250321723Y-189831009D01*
X250393152Y-189259580D01*
X250512200Y-189069104D01*
X250619342Y-188973866D01*
X250821723Y-188878628D01*
X251202676Y-188878628D01*
X251381247Y-188973866D01*
X252369342Y-190211961D02*
X252190771Y-190116723D01*
X252107438Y-190021485D01*
X252036009Y-189831009D01*
X252107438Y-189259580D01*
X252226485Y-189069104D01*
X252333628Y-188973866D01*
X252536009Y-188878628D01*
X252821723Y-188878628D01*
X253000295Y-188973866D01*
X253083628Y-189069104D01*
X253155057Y-189259580D01*
X253083628Y-189831009D01*
X252964580Y-190021485D01*
X252857438Y-190116723D01*
X252655057Y-190211961D01*
X252369342Y-190211961D01*
X254059819Y-188878628D02*
X253893152Y-190211961D01*
X254036009Y-189069104D02*
X254143152Y-188973866D01*
X254345533Y-188878628D01*
X254631247Y-188878628D01*
X254809819Y-188973866D01*
X254881247Y-189164342D01*
X254750295Y-190211961D01*
X255583628Y-188878628D02*
X256345533Y-188878628D01*
X255952676Y-188211961D02*
X255738390Y-189926247D01*
X255809819Y-190116723D01*
X255988390Y-190211961D01*
X256178866Y-190211961D01*
X256845533Y-190211961D02*
X257012200Y-188878628D01*
X256964580Y-189259580D02*
X257083628Y-189069104D01*
X257190771Y-188973866D01*
X257393152Y-188878628D01*
X257583628Y-188878628D01*
X258369342Y-190211961D02*
X258190771Y-190116723D01*
X258107438Y-190021485D01*
X258036009Y-189831009D01*
X258107438Y-189259580D01*
X258226485Y-189069104D01*
X258333628Y-188973866D01*
X258536009Y-188878628D01*
X258821723Y-188878628D01*
X259000295Y-188973866D01*
X259083628Y-189069104D01*
X259155057Y-189259580D01*
X259083628Y-189831009D01*
X258964580Y-190021485D01*
X258857438Y-190116723D01*
X258655057Y-190211961D01*
X258369342Y-190211961D01*
X260178866Y-190211961D02*
X260000295Y-190116723D01*
X259928866Y-189926247D01*
X260143152Y-188211961D01*
X261226485Y-190211961D02*
X261047914Y-190116723D01*
X260976485Y-189926247D01*
X261190771Y-188211961D01*
X262762199Y-190116723D02*
X262559819Y-190211961D01*
X262178866Y-190211961D01*
X262000295Y-190116723D01*
X261928866Y-189926247D01*
X262024104Y-189164342D01*
X262143152Y-188973866D01*
X262345533Y-188878628D01*
X262726485Y-188878628D01*
X262905057Y-188973866D01*
X262976485Y-189164342D01*
X262952676Y-189354819D01*
X261976485Y-189545295D01*
X263702676Y-190211961D02*
X263869342Y-188878628D01*
X263821723Y-189259580D02*
X263940771Y-189069104D01*
X264047914Y-188973866D01*
X264250295Y-188878628D01*
X264440771Y-188878628D01*
D10*
D11*
X178934342Y-185600057D02*
X178434342Y-185600057D01*
X178434342Y-186385771D02*
X178434342Y-184885771D01*
X179148628Y-184885771D01*
X179720057Y-186385771D02*
X179720057Y-185385771D01*
X179720057Y-184885771D02*
X179648628Y-184957200D01*
X179720057Y-185028628D01*
X179791485Y-184957200D01*
X179720057Y-184885771D01*
X179720057Y-185028628D01*
X180648628Y-186385771D02*
X180505771Y-186314342D01*
X180434342Y-186171485D01*
X180434342Y-184885771D01*
X181791485Y-186314342D02*
X181648628Y-186385771D01*
X181362914Y-186385771D01*
X181220057Y-186314342D01*
X181148628Y-186171485D01*
X181148628Y-185600057D01*
X181220057Y-185457200D01*
X181362914Y-185385771D01*
X181648628Y-185385771D01*
X181791485Y-185457200D01*
X181862914Y-185600057D01*
X181862914Y-185742914D01*
X181148628Y-185885771D01*
X182505771Y-186242914D02*
X182577200Y-186314342D01*
X182505771Y-186385771D01*
X182434342Y-186314342D01*
X182505771Y-186242914D01*
X182505771Y-186385771D01*
X182505771Y-185457200D02*
X182577200Y-185528628D01*
X182505771Y-185600057D01*
X182434342Y-185528628D01*
X182505771Y-185457200D01*
X182505771Y-185600057D01*
X184291485Y-185957200D02*
X185005771Y-185957200D01*
X184148628Y-186385771D02*
X184648628Y-184885771D01*
X185148628Y-186385771D01*
X185648628Y-185600057D02*
X186148628Y-185600057D01*
X186362914Y-186385771D02*
X185648628Y-186385771D01*
X185648628Y-184885771D01*
X186362914Y-184885771D01*
X187291485Y-184885771D02*
X187434342Y-184885771D01*
X187577200Y-184957200D01*
X187648628Y-185028628D01*
X187720057Y-185171485D01*
X187791485Y-185457200D01*
X187791485Y-185814342D01*
X187720057Y-186100057D01*
X187648628Y-186242914D01*
X187577200Y-186314342D01*
X187434342Y-186385771D01*
X187291485Y-186385771D01*
X187148628Y-186314342D01*
X187077200Y-186242914D01*
X187005771Y-186100057D01*
X186934342Y-185814342D01*
X186934342Y-185457200D01*
X187005771Y-185171485D01*
X187077200Y-185028628D01*
X187148628Y-184957200D01*
X187291485Y-184885771D01*
X189220057Y-186385771D02*
X188362914Y-186385771D01*
X188791485Y-186385771D02*
X188791485Y-184885771D01*
X188648628Y-185100057D01*
X188505771Y-185242914D01*
X188362914Y-185314342D01*
X189862914Y-186242914D02*
X189934342Y-186314342D01*
X189862914Y-186385771D01*
X189791485Y-186314342D01*
X189862914Y-186242914D01*
X189862914Y-186385771D01*
X191362914Y-186385771D02*
X190505771Y-186385771D01*
X190934342Y-186385771D02*
X190934342Y-184885771D01*
X190791485Y-185100057D01*
X190648628Y-185242914D01*
X190505771Y-185314342D01*
X191934342Y-185028628D02*
X192005771Y-184957200D01*
X192148628Y-184885771D01*
X192505771Y-184885771D01*
X192648628Y-184957200D01*
X192720057Y-185028628D01*
X192791485Y-185171485D01*
X192791485Y-185314342D01*
X192720057Y-185528628D01*
X191862914Y-186385771D01*
X192791485Y-186385771D01*
X193434342Y-186242914D02*
X193505771Y-186314342D01*
X193434342Y-186385771D01*
X193362914Y-186314342D01*
X193434342Y-186242914D01*
X193434342Y-186385771D01*
X194434342Y-184885771D02*
X194577200Y-184885771D01*
X194720057Y-184957200D01*
X194791485Y-185028628D01*
X194862914Y-185171485D01*
X194934342Y-185457200D01*
X194934342Y-185814342D01*
X194862914Y-186100057D01*
X194791485Y-186242914D01*
X194720057Y-186314342D01*
X194577200Y-186385771D01*
X194434342Y-186385771D01*
X194291485Y-186314342D01*
X194220057Y-186242914D01*
X194148628Y-186100057D01*
X194077200Y-185814342D01*
X194077200Y-185457200D01*
X194148628Y-185171485D01*
X194220057Y-185028628D01*
X194291485Y-184957200D01*
X194434342Y-184885771D01*
X195648628Y-186385771D02*
X195934342Y-186385771D01*
X196077200Y-186314342D01*
X196148628Y-186242914D01*
X196291485Y-186028628D01*
X196362914Y-185742914D01*
X196362914Y-185171485D01*
X196291485Y-185028628D01*
X196220057Y-184957200D01*
X196077200Y-184885771D01*
X195791485Y-184885771D01*
X195648628Y-184957200D01*
X195577200Y-185028628D01*
X195505771Y-185171485D01*
X195505771Y-185528628D01*
X195577200Y-185671485D01*
X195648628Y-185742914D01*
X195791485Y-185814342D01*
X196077200Y-185814342D01*
X196220057Y-185742914D01*
X196291485Y-185671485D01*
X196362914Y-185528628D01*
X197005771Y-186242914D02*
X197077200Y-186314342D01*
X197005771Y-186385771D01*
X196934342Y-186314342D01*
X197005771Y-186242914D01*
X197005771Y-186385771D01*
X198005771Y-184885771D02*
X198148628Y-184885771D01*
X198291485Y-184957200D01*
X198362914Y-185028628D01*
X198434342Y-185171485D01*
X198505771Y-185457200D01*
X198505771Y-185814342D01*
X198434342Y-186100057D01*
X198362914Y-186242914D01*
X198291485Y-186314342D01*
X198148628Y-186385771D01*
X198005771Y-186385771D01*
X197862914Y-186314342D01*
X197791485Y-186242914D01*
X197720057Y-186100057D01*
X197648628Y-185814342D01*
X197648628Y-185457200D01*
X197720057Y-185171485D01*
X197791485Y-185028628D01*
X197862914Y-184957200D01*
X198005771Y-184885771D01*
X199934342Y-186385771D02*
X199077200Y-186385771D01*
X199505771Y-186385771D02*
X199505771Y-184885771D01*
X199362914Y-185100057D01*
X199220057Y-185242914D01*
X199077200Y-185314342D01*
X200862914Y-184885771D02*
X201005771Y-184885771D01*
X201148628Y-184957200D01*
X201220057Y-185028628D01*
X201291485Y-185171485D01*
X201362914Y-185457200D01*
X201362914Y-185814342D01*
X201291485Y-186100057D01*
X201220057Y-186242914D01*
X201148628Y-186314342D01*
X201005771Y-186385771D01*
X200862914Y-186385771D01*
X200720057Y-186314342D01*
X200648628Y-186242914D01*
X200577200Y-186100057D01*
X200505771Y-185814342D01*
X200505771Y-185457200D01*
X200577200Y-185171485D01*
X200648628Y-185028628D01*
X200720057Y-184957200D01*
X200862914Y-184885771D01*
X202005771Y-186242914D02*
X202077200Y-186314342D01*
X202005771Y-186385771D01*
X201934342Y-186314342D01*
X202005771Y-186242914D01*
X202005771Y-186385771D01*
X202720057Y-186385771D02*
X202720057Y-184885771D01*
X202862914Y-185814342D02*
X203291485Y-186385771D01*
X203291485Y-185385771D02*
X202720057Y-185957200D01*
X203934342Y-186385771D02*
X203934342Y-185385771D01*
X203934342Y-184885771D02*
X203862914Y-184957200D01*
X203934342Y-185028628D01*
X204005771Y-184957200D01*
X203934342Y-184885771D01*
X203934342Y-185028628D01*
X205291485Y-186314342D02*
X205148628Y-186385771D01*
X204862914Y-186385771D01*
X204720057Y-186314342D01*
X204648628Y-186242914D01*
X204577200Y-186100057D01*
X204577200Y-185671485D01*
X204648628Y-185528628D01*
X204720057Y-185457200D01*
X204862914Y-185385771D01*
X205148628Y-185385771D01*
X205291485Y-185457200D01*
X206577200Y-186385771D02*
X206577200Y-185600057D01*
X206505771Y-185457200D01*
X206362914Y-185385771D01*
X206077200Y-185385771D01*
X205934342Y-185457200D01*
X206577200Y-186314342D02*
X206434342Y-186385771D01*
X206077200Y-186385771D01*
X205934342Y-186314342D01*
X205862914Y-186171485D01*
X205862914Y-186028628D01*
X205934342Y-185885771D01*
X206077200Y-185814342D01*
X206434342Y-185814342D01*
X206577200Y-185742914D01*
X207934342Y-186385771D02*
X207934342Y-184885771D01*
X207934342Y-186314342D02*
X207791485Y-186385771D01*
X207505771Y-186385771D01*
X207362914Y-186314342D01*
X207291485Y-186242914D01*
X207220057Y-186100057D01*
X207220057Y-185671485D01*
X207291485Y-185528628D01*
X207362914Y-185457200D01*
X207505771Y-185385771D01*
X207791485Y-185385771D01*
X207934342Y-185457200D01*
X208291485Y-186528628D02*
X209434342Y-186528628D01*
X209791485Y-185385771D02*
X209791485Y-186885771D01*
X209791485Y-185457200D02*
X209934342Y-185385771D01*
X210220057Y-185385771D01*
X210362914Y-185457200D01*
X210434342Y-185528628D01*
X210505771Y-185671485D01*
X210505771Y-186100057D01*
X210434342Y-186242914D01*
X210362914Y-186314342D01*
X210220057Y-186385771D01*
X209934342Y-186385771D01*
X209791485Y-186314342D01*
X211791485Y-186314342D02*
X211648628Y-186385771D01*
X211362914Y-186385771D01*
X211220057Y-186314342D01*
X211148628Y-186242914D01*
X211077200Y-186100057D01*
X211077200Y-185671485D01*
X211148628Y-185528628D01*
X211220057Y-185457200D01*
X211362914Y-185385771D01*
X211648628Y-185385771D01*
X211791485Y-185457200D01*
X212434342Y-186385771D02*
X212434342Y-184885771D01*
X212434342Y-185457200D02*
X212577200Y-185385771D01*
X212862914Y-185385771D01*
X213005771Y-185457200D01*
X213077200Y-185528628D01*
X213148628Y-185671485D01*
X213148628Y-186100057D01*
X213077200Y-186242914D01*
X213005771Y-186314342D01*
X212862914Y-186385771D01*
X212577200Y-186385771D01*
X212434342Y-186314342D01*
D10*
D11*
X177002200Y-181507200D02*
X285002200Y-181507200D01*
D10*
D11*
X178362914Y-183614342D02*
X178577200Y-183685771D01*
X178934342Y-183685771D01*
X179077200Y-183614342D01*
X179148628Y-183542914D01*
X179220057Y-183400057D01*
X179220057Y-183257200D01*
X179148628Y-183114342D01*
X179077200Y-183042914D01*
X178934342Y-182971485D01*
X178648628Y-182900057D01*
X178505771Y-182828628D01*
X178434342Y-182757200D01*
X178362914Y-182614342D01*
X178362914Y-182471485D01*
X178434342Y-182328628D01*
X178505771Y-182257200D01*
X178648628Y-182185771D01*
X179005771Y-182185771D01*
X179220057Y-182257200D01*
X179862914Y-183685771D02*
X179862914Y-182185771D01*
X180505771Y-183685771D02*
X180505771Y-182900057D01*
X180434342Y-182757200D01*
X180291485Y-182685771D01*
X180077200Y-182685771D01*
X179934342Y-182757200D01*
X179862914Y-182828628D01*
X181791485Y-183614342D02*
X181648628Y-183685771D01*
X181362914Y-183685771D01*
X181220057Y-183614342D01*
X181148628Y-183471485D01*
X181148628Y-182900057D01*
X181220057Y-182757200D01*
X181362914Y-182685771D01*
X181648628Y-182685771D01*
X181791485Y-182757200D01*
X181862914Y-182900057D01*
X181862914Y-183042914D01*
X181148628Y-183185771D01*
X183077200Y-183614342D02*
X182934342Y-183685771D01*
X182648628Y-183685771D01*
X182505771Y-183614342D01*
X182434342Y-183471485D01*
X182434342Y-182900057D01*
X182505771Y-182757200D01*
X182648628Y-182685771D01*
X182934342Y-182685771D01*
X183077200Y-182757200D01*
X183148628Y-182900057D01*
X183148628Y-183042914D01*
X182434342Y-183185771D01*
X183577200Y-182685771D02*
X184148628Y-182685771D01*
X183791485Y-182185771D02*
X183791485Y-183471485D01*
X183862914Y-183614342D01*
X184005771Y-183685771D01*
X184148628Y-183685771D01*
X184648628Y-183542914D02*
X184720057Y-183614342D01*
X184648628Y-183685771D01*
X184577200Y-183614342D01*
X184648628Y-183542914D01*
X184648628Y-183685771D01*
X184648628Y-182757200D02*
X184720057Y-182828628D01*
X184648628Y-182900057D01*
X184577200Y-182828628D01*
X184648628Y-182757200D01*
X184648628Y-182900057D01*
D10*
D12*
X179197200Y-180685771D02*
X179197200Y-179900057D01*
X179125771Y-179757200D01*
X178982914Y-179685771D01*
X178697200Y-179685771D01*
X178554342Y-179757200D01*
X179197200Y-180614342D02*
X179054342Y-180685771D01*
X178697200Y-180685771D01*
X178554342Y-180614342D01*
X178482914Y-180471485D01*
X178482914Y-180328628D01*
X178554342Y-180185771D01*
X178697200Y-180114342D01*
X179054342Y-180114342D01*
X179197200Y-180042914D01*
X179840057Y-180614342D02*
X179982914Y-180685771D01*
X180268628Y-180685771D01*
X180411485Y-180614342D01*
X180482914Y-180471485D01*
X180482914Y-180400057D01*
X180411485Y-180257200D01*
X180268628Y-180185771D01*
X180054342Y-180185771D01*
X179911485Y-180114342D01*
X179840057Y-179971485D01*
X179840057Y-179900057D01*
X179911485Y-179757200D01*
X180054342Y-179685771D01*
X180268628Y-179685771D01*
X180411485Y-179757200D01*
X180911485Y-179685771D02*
X181482914Y-179685771D01*
X181125771Y-179185771D02*
X181125771Y-180471485D01*
X181197200Y-180614342D01*
X181340057Y-180685771D01*
X181482914Y-180685771D01*
X181982914Y-180685771D02*
X181982914Y-179685771D01*
X181982914Y-179971485D02*
X182054342Y-179828628D01*
X182125771Y-179757200D01*
X182268628Y-179685771D01*
X182411485Y-179685771D01*
X183125771Y-180685771D02*
X182982914Y-180614342D01*
X182911485Y-180542914D01*
X182840057Y-180400057D01*
X182840057Y-179971485D01*
X182911485Y-179828628D01*
X182982914Y-179757200D01*
X183125771Y-179685771D01*
X183340057Y-179685771D01*
X183482914Y-179757200D01*
X183554342Y-179828628D01*
X183625771Y-179971485D01*
X183625771Y-180400057D01*
X183554342Y-180542914D01*
X183482914Y-180614342D01*
X183340057Y-180685771D01*
X183125771Y-180685771D01*
X184840057Y-180614342D02*
X184697200Y-180685771D01*
X184411485Y-180685771D01*
X184268628Y-180614342D01*
X184197200Y-180471485D01*
X184197200Y-179900057D01*
X184268628Y-179757200D01*
X184411485Y-179685771D01*
X184697200Y-179685771D01*
X184840057Y-179757200D01*
X184911485Y-179900057D01*
X184911485Y-180042914D01*
X184197200Y-180185771D01*
X185768628Y-180685771D02*
X185625771Y-180614342D01*
X185554342Y-180471485D01*
X185554342Y-179185771D01*
X186911485Y-180614342D02*
X186768628Y-180685771D01*
X186482914Y-180685771D01*
X186340057Y-180614342D01*
X186268628Y-180471485D01*
X186268628Y-179900057D01*
X186340057Y-179757200D01*
X186482914Y-179685771D01*
X186768628Y-179685771D01*
X186911485Y-179757200D01*
X186982914Y-179900057D01*
X186982914Y-180042914D01*
X186268628Y-180185771D01*
X188268628Y-180614342D02*
X188125771Y-180685771D01*
X187840057Y-180685771D01*
X187697200Y-180614342D01*
X187625771Y-180542914D01*
X187554342Y-180400057D01*
X187554342Y-179971485D01*
X187625771Y-179828628D01*
X187697200Y-179757200D01*
X187840057Y-179685771D01*
X188125771Y-179685771D01*
X188268628Y-179757200D01*
X188697200Y-179685771D02*
X189268628Y-179685771D01*
X188911485Y-179185771D02*
X188911485Y-180471485D01*
X188982914Y-180614342D01*
X189125771Y-180685771D01*
X189268628Y-180685771D01*
X189768628Y-180685771D02*
X189768628Y-179685771D01*
X189768628Y-179971485D02*
X189840057Y-179828628D01*
X189911485Y-179757200D01*
X190054342Y-179685771D01*
X190197200Y-179685771D01*
X190911485Y-180685771D02*
X190768628Y-180614342D01*
X190697200Y-180542914D01*
X190625771Y-180400057D01*
X190625771Y-179971485D01*
X190697200Y-179828628D01*
X190768628Y-179757200D01*
X190911485Y-179685771D01*
X191125771Y-179685771D01*
X191268628Y-179757200D01*
X191340057Y-179828628D01*
X191411485Y-179971485D01*
X191411485Y-180400057D01*
X191340057Y-180542914D01*
X191268628Y-180614342D01*
X191125771Y-180685771D01*
X190911485Y-180685771D01*
X192054342Y-179685771D02*
X192054342Y-180685771D01*
X192054342Y-179828628D02*
X192125771Y-179757200D01*
X192268628Y-179685771D01*
X192482914Y-179685771D01*
X192625771Y-179757200D01*
X192697200Y-179900057D01*
X192697200Y-180685771D01*
X193411485Y-180685771D02*
X193411485Y-179685771D01*
X193411485Y-179185771D02*
X193340057Y-179257200D01*
X193411485Y-179328628D01*
X193482914Y-179257200D01*
X193411485Y-179185771D01*
X193411485Y-179328628D01*
X194768628Y-180614342D02*
X194625771Y-180685771D01*
X194340057Y-180685771D01*
X194197200Y-180614342D01*
X194125771Y-180542914D01*
X194054342Y-180400057D01*
X194054342Y-179971485D01*
X194125771Y-179828628D01*
X194197200Y-179757200D01*
X194340057Y-179685771D01*
X194625771Y-179685771D01*
X194768628Y-179757200D01*
X196340057Y-179971485D02*
X196268628Y-179900057D01*
X196125771Y-179828628D01*
X195982914Y-179828628D01*
X195840057Y-179900057D01*
X195768628Y-179971485D01*
X195697200Y-180114342D01*
X195697200Y-180257200D01*
X195768628Y-180400057D01*
X195840057Y-180471485D01*
X195982914Y-180542914D01*
X196125771Y-180542914D01*
X196268628Y-180471485D01*
X196340057Y-180400057D01*
X196340057Y-179828628D02*
X196340057Y-180400057D01*
X196411485Y-180471485D01*
X196482914Y-180471485D01*
X196625771Y-180400057D01*
X196697200Y-180257200D01*
X196697200Y-179900057D01*
X196554342Y-179685771D01*
X196340057Y-179542914D01*
X196054342Y-179471485D01*
X195768628Y-179542914D01*
X195554342Y-179685771D01*
X195411485Y-179900057D01*
X195340057Y-180185771D01*
X195411485Y-180471485D01*
X195554342Y-180685771D01*
X195768628Y-180828628D01*
X196054342Y-180900057D01*
X196340057Y-180828628D01*
X196554342Y-180685771D01*
D10*
D11*
X197002200Y-191507200D02*
X197002200Y-194507200D01*
D10*
D11*
X261002200Y-191507200D02*
X261002200Y-198007200D01*
D14*
X112239571Y-57018571D02*
X111382428Y-57018571D01*
X111811000Y-57018571D02*
X111811000Y-55518571D01*
X111668142Y-55732857D01*
X111525285Y-55875714D01*
X111382428Y-55947142D01*
D15*
X101666666Y-130000000D02*
G75*
G03*
X101666666Y-130000000I-1666666J0D01*
G01*
X97500000Y-130000000D02*
X102500000Y-130000000D01*
X100000000Y-127500000D02*
X100000000Y-132500000D01*
X100000000Y-53800000D02*
X100000000Y-130000000D01*
X176200000Y-53800000D02*
X100000000Y-53800000D01*
X176200000Y-130000000D02*
X176200000Y-53800000D01*
X100000000Y-130000000D02*
X176200000Y-130000000D01*
D16*
%TO.P,TP13,1*%
%TO.N,Net-(D2-Pad1)*%
X173660000Y-96980000D03*
%TD*%
D17*
%TO.P,R1,1*%
%TO.N,/VIN*%
X143180000Y-61420000D03*
D18*
%TO.P,R1,2*%
%TO.N,/V+*%
X112700000Y-61420000D03*
%TD*%
D19*
%TO.P,H4,1*%
%TO.N,N/C*%
X172817056Y-57182944D03*
X171120000Y-56480000D03*
X169422944Y-57182944D03*
X168720000Y-58880000D03*
X169422944Y-60577056D03*
X171120000Y-61280000D03*
X172817056Y-60577056D03*
X173520000Y-58880000D03*
D20*
X171120000Y-58880000D03*
%TD*%
D19*
%TO.P,H3,1*%
%TO.N,N/C*%
X172817056Y-123222944D03*
X171120000Y-122520000D03*
X169422944Y-123222944D03*
X168720000Y-124920000D03*
X169422944Y-126617056D03*
X171120000Y-127320000D03*
X172817056Y-126617056D03*
X173520000Y-124920000D03*
D20*
X171120000Y-124920000D03*
%TD*%
D19*
%TO.P,H2,1*%
%TO.N,N/C*%
X106777056Y-123222944D03*
X105080000Y-122520000D03*
X103382944Y-123222944D03*
X102680000Y-124920000D03*
X103382944Y-126617056D03*
X105080000Y-127320000D03*
X106777056Y-126617056D03*
X107480000Y-124920000D03*
D20*
X105080000Y-124920000D03*
%TD*%
D19*
%TO.P,H1,1*%
%TO.N,N/C*%
X106777056Y-57182944D03*
X105080000Y-56480000D03*
X103382944Y-57182944D03*
X102680000Y-58880000D03*
X103382944Y-60577056D03*
X105080000Y-61280000D03*
X106777056Y-60577056D03*
X107480000Y-58880000D03*
D20*
X105080000Y-58880000D03*
%TD*%
D21*
%TO.P,CONN1,1*%
%TO.N,GND*%
X168580000Y-74120000D03*
D22*
%TO.P,CONN1,2*%
%TO.N,/VIN*%
X168580000Y-69040000D03*
%TD*%
%TO.P,CONN2,2*%
%TO.N,/BATT+*%
X168580000Y-109680000D03*
D21*
%TO.P,CONN2,1*%
%TO.N,/BATT-*%
X168580000Y-114760000D03*
%TD*%
%TO.P,R3,1*%
%TO.N,/BATT-*%
%TA.AperFunction,SMDPad,CuDef*%
G36*
G01*
X149295000Y-113335000D02*
X149295000Y-116185000D01*
G75*
G02*
X149045000Y-116435000I-250000J0D01*
G01*
X148320000Y-116435000D01*
G75*
G02*
X148070000Y-116185000I0J250000D01*
G01*
X148070000Y-113335000D01*
G75*
G02*
X148320000Y-113085000I250000J0D01*
G01*
X149045000Y-113085000D01*
G75*
G02*
X149295000Y-113335000I0J-250000D01*
G01*
G37*
%TD.AperFunction*%
%TO.P,R3,2*%
%TO.N,GND*%
%TA.AperFunction,SMDPad,CuDef*%
G36*
G01*
X143370000Y-113335000D02*
X143370000Y-116185000D01*
G75*
G02*
X143120000Y-116435000I-250000J0D01*
G01*
X142395000Y-116435000D01*
G75*
G02*
X142145000Y-116185000I0J250000D01*
G01*
X142145000Y-113335000D01*
G75*
G02*
X142395000Y-113085000I250000J0D01*
G01*
X143120000Y-113085000D01*
G75*
G02*
X143370000Y-113335000I0J-250000D01*
G01*
G37*
%TD.AperFunction*%
%TD*%
%TO.P,U1,1*%
%TO.N,/REF*%
%TA.AperFunction,SMDPad,CuDef*%
G36*
G01*
X124490000Y-100305000D02*
X124490000Y-100005000D01*
G75*
G02*
X124640000Y-99855000I150000J0D01*
G01*
X126290000Y-99855000D01*
G75*
G02*
X126440000Y-100005000I0J-150000D01*
G01*
X126440000Y-100305000D01*
G75*
G02*
X126290000Y-100455000I-150000J0D01*
G01*
X124640000Y-100455000D01*
G75*
G02*
X124490000Y-100305000I0J150000D01*
G01*
G37*
%TD.AperFunction*%
%TO.P,U1,2*%
%TO.N,/BATT+*%
%TA.AperFunction,SMDPad,CuDef*%
G36*
G01*
X124490000Y-101575000D02*
X124490000Y-101275000D01*
G75*
G02*
X124640000Y-101125000I150000J0D01*
G01*
X126290000Y-101125000D01*
G75*
G02*
X126440000Y-101275000I0J-150000D01*
G01*
X126440000Y-101575000D01*
G75*
G02*
X126290000Y-101725000I-150000J0D01*
G01*
X124640000Y-101725000D01*
G75*
G02*
X124490000Y-101575000I0J150000D01*
G01*
G37*
%TD.AperFunction*%
%TO.P,U1,3*%
%TO.N,/PGM0*%
%TA.AperFunction,SMDPad,CuDef*%
G36*
G01*
X124490000Y-102845000D02*
X124490000Y-102545000D01*
G75*
G02*
X124640000Y-102395000I150000J0D01*
G01*
X126290000Y-102395000D01*
G75*
G02*
X126440000Y-102545000I0J-150000D01*
G01*
X126440000Y-102845000D01*
G75*
G02*
X126290000Y-102995000I-150000J0D01*
G01*
X124640000Y-102995000D01*
G75*
G02*
X124490000Y-102845000I0J150000D01*
G01*
G37*
%TD.AperFunction*%
%TO.P,U1,4*%
%TO.N,/PGM1*%
%TA.AperFunction,SMDPad,CuDef*%
G36*
G01*
X124490000Y-104115000D02*
X124490000Y-103815000D01*
G75*
G02*
X124640000Y-103665000I150000J0D01*
G01*
X126290000Y-103665000D01*
G75*
G02*
X126440000Y-103815000I0J-150000D01*
G01*
X126440000Y-104115000D01*
G75*
G02*
X126290000Y-104265000I-150000J0D01*
G01*
X124640000Y-104265000D01*
G75*
G02*
X124490000Y-104115000I0J150000D01*
G01*
G37*
%TD.AperFunction*%
%TO.P,U1,5*%
%TO.N,/V+*%
%TA.AperFunction,SMDPad,CuDef*%
G36*
G01*
X124490000Y-105385000D02*
X124490000Y-105085000D01*
G75*
G02*
X124640000Y-104935000I150000J0D01*
G01*
X126290000Y-104935000D01*
G75*
G02*
X126440000Y-105085000I0J-150000D01*
G01*
X126440000Y-105385000D01*
G75*
G02*
X126290000Y-105535000I-150000J0D01*
G01*
X124640000Y-105535000D01*
G75*
G02*
X124490000Y-105385000I0J150000D01*
G01*
G37*
%TD.AperFunction*%
%TO.P,U1,6*%
%TO.N,/BATT-*%
%TA.AperFunction,SMDPad,CuDef*%
G36*
G01*
X124490000Y-106655000D02*
X124490000Y-106355000D01*
G75*
G02*
X124640000Y-106205000I150000J0D01*
G01*
X126290000Y-106205000D01*
G75*
G02*
X126440000Y-106355000I0J-150000D01*
G01*
X126440000Y-106655000D01*
G75*
G02*
X126290000Y-106805000I-150000J0D01*
G01*
X124640000Y-106805000D01*
G75*
G02*
X124490000Y-106655000I0J150000D01*
G01*
G37*
%TD.AperFunction*%
%TO.P,U1,7*%
%TO.N,/TEMP*%
%TA.AperFunction,SMDPad,CuDef*%
G36*
G01*
X124490000Y-107925000D02*
X124490000Y-107625000D01*
G75*
G02*
X124640000Y-107475000I150000J0D01*
G01*
X126290000Y-107475000D01*
G75*
G02*
X126440000Y-107625000I0J-150000D01*
G01*
X126440000Y-107925000D01*
G75*
G02*
X126290000Y-108075000I-150000J0D01*
G01*
X124640000Y-108075000D01*
G75*
G02*
X124490000Y-107925000I0J150000D01*
G01*
G37*
%TD.AperFunction*%
%TO.P,U1,8*%
%TO.N,/~FASTCHG*%
%TA.AperFunction,SMDPad,CuDef*%
G36*
G01*
X124490000Y-109195000D02*
X124490000Y-108895000D01*
G75*
G02*
X124640000Y-108745000I150000J0D01*
G01*
X126290000Y-108745000D01*
G75*
G02*
X126440000Y-108895000I0J-150000D01*
G01*
X126440000Y-109195000D01*
G75*
G02*
X126290000Y-109345000I-150000J0D01*
G01*
X124640000Y-109345000D01*
G75*
G02*
X124490000Y-109195000I0J150000D01*
G01*
G37*
%TD.AperFunction*%
%TO.P,U1,9*%
%TO.N,/PGM2*%
%TA.AperFunction,SMDPad,CuDef*%
G36*
G01*
X129440000Y-109195000D02*
X129440000Y-108895000D01*
G75*
G02*
X129590000Y-108745000I150000J0D01*
G01*
X131240000Y-108745000D01*
G75*
G02*
X131390000Y-108895000I0J-150000D01*
G01*
X131390000Y-109195000D01*
G75*
G02*
X131240000Y-109345000I-150000J0D01*
G01*
X129590000Y-109345000D01*
G75*
G02*
X129440000Y-109195000I0J150000D01*
G01*
G37*
%TD.AperFunction*%
%TO.P,U1,10*%
%TO.N,/PGM3*%
%TA.AperFunction,SMDPad,CuDef*%
G36*
G01*
X129440000Y-107925000D02*
X129440000Y-107625000D01*
G75*
G02*
X129590000Y-107475000I150000J0D01*
G01*
X131240000Y-107475000D01*
G75*
G02*
X131390000Y-107625000I0J-150000D01*
G01*
X131390000Y-107925000D01*
G75*
G02*
X131240000Y-108075000I-150000J0D01*
G01*
X129590000Y-108075000D01*
G75*
G02*
X129440000Y-107925000I0J150000D01*
G01*
G37*
%TD.AperFunction*%
%TO.P,U1,11*%
%TO.N,/CC*%
%TA.AperFunction,SMDPad,CuDef*%
G36*
G01*
X129440000Y-106655000D02*
X129440000Y-106355000D01*
G75*
G02*
X129590000Y-106205000I150000J0D01*
G01*
X131240000Y-106205000D01*
G75*
G02*
X131390000Y-106355000I0J-150000D01*
G01*
X131390000Y-106655000D01*
G75*
G02*
X131240000Y-106805000I-150000J0D01*
G01*
X129590000Y-106805000D01*
G75*
G02*
X129440000Y-106655000I0J150000D01*
G01*
G37*
%TD.AperFunction*%
%TO.P,U1,12*%
%TO.N,/BATT-*%
%TA.AperFunction,SMDPad,CuDef*%
G36*
G01*
X129440000Y-105385000D02*
X129440000Y-105085000D01*
G75*
G02*
X129590000Y-104935000I150000J0D01*
G01*
X131240000Y-104935000D01*
G75*
G02*
X131390000Y-105085000I0J-150000D01*
G01*
X131390000Y-105385000D01*
G75*
G02*
X131240000Y-105535000I-150000J0D01*
G01*
X129590000Y-105535000D01*
G75*
G02*
X129440000Y-105385000I0J150000D01*
G01*
G37*
%TD.AperFunction*%
%TO.P,U1,13*%
%TO.N,GND*%
%TA.AperFunction,SMDPad,CuDef*%
G36*
G01*
X129440000Y-104115000D02*
X129440000Y-103815000D01*
G75*
G02*
X129590000Y-103665000I150000J0D01*
G01*
X131240000Y-103665000D01*
G75*
G02*
X131390000Y-103815000I0J-150000D01*
G01*
X131390000Y-104115000D01*
G75*
G02*
X131240000Y-104265000I-150000J0D01*
G01*
X129590000Y-104265000D01*
G75*
G02*
X129440000Y-104115000I0J150000D01*
G01*
G37*
%TD.AperFunction*%
%TO.P,U1,14*%
%TO.N,/DRV*%
%TA.AperFunction,SMDPad,CuDef*%
G36*
G01*
X129440000Y-102845000D02*
X129440000Y-102545000D01*
G75*
G02*
X129590000Y-102395000I150000J0D01*
G01*
X131240000Y-102395000D01*
G75*
G02*
X131390000Y-102545000I0J-150000D01*
G01*
X131390000Y-102845000D01*
G75*
G02*
X131240000Y-102995000I-150000J0D01*
G01*
X129590000Y-102995000D01*
G75*
G02*
X129440000Y-102845000I0J150000D01*
G01*
G37*
%TD.AperFunction*%
%TO.P,U1,15*%
%TO.N,/V+*%
%TA.AperFunction,SMDPad,CuDef*%
G36*
G01*
X129440000Y-101575000D02*
X129440000Y-101275000D01*
G75*
G02*
X129590000Y-101125000I150000J0D01*
G01*
X131240000Y-101125000D01*
G75*
G02*
X131390000Y-101275000I0J-150000D01*
G01*
X131390000Y-101575000D01*
G75*
G02*
X131240000Y-101725000I-150000J0D01*
G01*
X129590000Y-101725000D01*
G75*
G02*
X129440000Y-101575000I0J150000D01*
G01*
G37*
%TD.AperFunction*%
%TO.P,U1,16*%
%TO.N,/REF*%
%TA.AperFunction,SMDPad,CuDef*%
G36*
G01*
X129440000Y-100305000D02*
X129440000Y-100005000D01*
G75*
G02*
X129590000Y-99855000I150000J0D01*
G01*
X131240000Y-99855000D01*
G75*
G02*
X131390000Y-100005000I0J-150000D01*
G01*
X131390000Y-100305000D01*
G75*
G02*
X131240000Y-100455000I-150000J0D01*
G01*
X129590000Y-100455000D01*
G75*
G02*
X129440000Y-100305000I0J150000D01*
G01*
G37*
%TD.AperFunction*%
%TD*%
D23*
%TO.P,L1,1*%
%TO.N,Net-(D2-Pad1)*%
X168796901Y-96980000D03*
%TO.P,L1,2*%
%TO.N,Net-(D1-Pad2)*%
X158203099Y-96980000D03*
%TD*%
D24*
%TO.P,M1,1*%
%TO.N,Net-(M1-Pad1)*%
X150540000Y-80080000D03*
%TO.P,M1,3*%
%TO.N,/VIN*%
X145980000Y-80080000D03*
D25*
%TO.P,M1,2*%
%TO.N,Net-(D2-Pad1)*%
X148260000Y-86380000D03*
%TD*%
D26*
%TO.P,Q1,3*%
%TO.N,/VIN*%
X133020000Y-73120000D03*
%TO.P,Q1,2*%
%TO.N,Net-(M1-Pad1)*%
X133970000Y-75120000D03*
%TO.P,Q1,1*%
%TO.N,Net-(JP2-Pad1)*%
X132070000Y-75120000D03*
%TD*%
%TO.P,Q2,1*%
%TO.N,Net-(JP2-Pad1)*%
X132070000Y-80200000D03*
%TO.P,Q2,2*%
%TO.N,Net-(M1-Pad1)*%
X133970000Y-80200000D03*
%TO.P,Q2,3*%
%TO.N,GND*%
X133020000Y-78200000D03*
%TD*%
%TO.P,Q3,3*%
%TO.N,Net-(JP2-Pad1)*%
X127940000Y-78200000D03*
%TO.P,Q3,2*%
%TO.N,Net-(Q3-Pad2)*%
X128890000Y-80200000D03*
%TO.P,Q3,1*%
%TO.N,Net-(JP1-Pad2)*%
X126990000Y-80200000D03*
%TD*%
%TO.P,Q4,1*%
%TO.N,/V+*%
X126990000Y-75120000D03*
%TO.P,Q4,2*%
%TO.N,Net-(Q4-Pad2)*%
X128890000Y-75120000D03*
%TO.P,Q4,3*%
%TO.N,/LED*%
X127940000Y-73120000D03*
%TD*%
D27*
%TO.P,JP1,1*%
%TO.N,/V+*%
X105080000Y-74120000D03*
D28*
%TO.P,JP1,2*%
%TO.N,Net-(JP1-Pad2)*%
X107620000Y-74120000D03*
%TD*%
%TO.P,JP2,2*%
%TO.N,/DRV*%
X105080000Y-69040000D03*
D27*
%TO.P,JP2,1*%
%TO.N,Net-(JP2-Pad1)*%
X107620000Y-69040000D03*
%TD*%
D16*
%TO.P,TP1,1*%
%TO.N,/PGM0*%
X115240000Y-84280000D03*
%TD*%
%TO.P,TP2,1*%
%TO.N,/PGM1*%
X115240000Y-94440000D03*
%TD*%
%TO.P,TP3,1*%
%TO.N,/PGM2*%
X115240000Y-104600000D03*
%TD*%
%TO.P,TP4,1*%
%TO.N,/PGM3*%
X115240000Y-114760000D03*
%TD*%
%TO.P,TP5,1*%
%TO.N,GND*%
X155880000Y-79200000D03*
%TD*%
%TO.P,TP6,1*%
%TO.N,/LED*%
X127940000Y-69040000D03*
%TD*%
%TO.P,TP7,1*%
%TO.N,Net-(Q4-Pad2)*%
X135560000Y-114760000D03*
%TD*%
%TO.P,TP8,1*%
%TO.N,/V+*%
X133020000Y-69040000D03*
%TD*%
%TO.P,TP9,1*%
%TO.N,/VIN*%
X143180000Y-69040000D03*
%TD*%
%TO.P,TP10,1*%
%TO.N,Net-(JP1-Pad2)*%
X122860000Y-84280000D03*
%TD*%
%TO.P,TP11,1*%
%TO.N,Net-(JP2-Pad1)*%
X122860000Y-79200000D03*
%TD*%
%TO.P,TP12,1*%
%TO.N,Net-(M1-Pad1)*%
X133020000Y-84280000D03*
%TD*%
%TO.P,TP14,1*%
%TO.N,Net-(D1-Pad2)*%
X153340000Y-96980000D03*
%TD*%
%TO.P,TP15,1*%
%TO.N,/BATT-*%
X143180000Y-109680000D03*
%TD*%
%TO.P,TP16,1*%
%TO.N,/BATT+*%
X120320000Y-99520000D03*
%TD*%
%TO.P,TP17,1*%
%TO.N,/REF*%
X122860000Y-99520000D03*
%TD*%
%TO.P,TP18,1*%
%TO.N,/TEMP*%
X125400000Y-112220000D03*
%TD*%
%TO.P,TP19,1*%
%TO.N,Net-(Q3-Pad2)*%
X127940000Y-84280000D03*
%TD*%
%TO.P,TP20,1*%
%TO.N,/~FASTCHG*%
X127940000Y-112220000D03*
%TD*%
%TO.P,TP21,1*%
%TO.N,/DRV*%
X135560000Y-102060000D03*
%TD*%
%TO.P,TP22,1*%
%TO.N,/CC*%
X135560000Y-107140000D03*
%TD*%
%TO.P,C2,2*%
%TO.N,/CC*%
%TA.AperFunction,SMDPad,CuDef*%
G36*
G01*
X137625000Y-107590000D02*
X138575000Y-107590000D01*
G75*
G02*
X138825000Y-107840000I0J-250000D01*
G01*
X138825000Y-108340000D01*
G75*
G02*
X138575000Y-108590000I-250000J0D01*
G01*
X137625000Y-108590000D01*
G75*
G02*
X137375000Y-108340000I0J250000D01*
G01*
X137375000Y-107840000D01*
G75*
G02*
X137625000Y-107590000I250000J0D01*
G01*
G37*
%TD.AperFunction*%
%TO.P,C2,1*%
%TO.N,/BATT-*%
%TA.AperFunction,SMDPad,CuDef*%
G36*
G01*
X137625000Y-105690000D02*
X138575000Y-105690000D01*
G75*
G02*
X138825000Y-105940000I0J-250000D01*
G01*
X138825000Y-106440000D01*
G75*
G02*
X138575000Y-106690000I-250000J0D01*
G01*
X137625000Y-106690000D01*
G75*
G02*
X137375000Y-106440000I0J250000D01*
G01*
X137375000Y-105940000D01*
G75*
G02*
X137625000Y-105690000I250000J0D01*
G01*
G37*
%TD.AperFunction*%
%TD*%
%TO.P,C4,1*%
%TO.N,/REF*%
%TA.AperFunction,SMDPad,CuDef*%
G36*
G01*
X121770000Y-109205000D02*
X121770000Y-110155000D01*
G75*
G02*
X121520000Y-110405000I-250000J0D01*
G01*
X121020000Y-110405000D01*
G75*
G02*
X120770000Y-110155000I0J250000D01*
G01*
X120770000Y-109205000D01*
G75*
G02*
X121020000Y-108955000I250000J0D01*
G01*
X121520000Y-108955000D01*
G75*
G02*
X121770000Y-109205000I0J-250000D01*
G01*
G37*
%TD.AperFunction*%
%TO.P,C4,2*%
%TO.N,/BATT-*%
%TA.AperFunction,SMDPad,CuDef*%
G36*
G01*
X119870000Y-109205000D02*
X119870000Y-110155000D01*
G75*
G02*
X119620000Y-110405000I-250000J0D01*
G01*
X119120000Y-110405000D01*
G75*
G02*
X118870000Y-110155000I0J250000D01*
G01*
X118870000Y-109205000D01*
G75*
G02*
X119120000Y-108955000I250000J0D01*
G01*
X119620000Y-108955000D01*
G75*
G02*
X119870000Y-109205000I0J-250000D01*
G01*
G37*
%TD.AperFunction*%
%TD*%
%TO.P,R2,2*%
%TO.N,Net-(JP2-Pad1)*%
%TA.AperFunction,SMDPad,CuDef*%
G36*
G01*
X137700000Y-73669999D02*
X137700000Y-74570001D01*
G75*
G02*
X137450001Y-74820000I-249999J0D01*
G01*
X136924999Y-74820000D01*
G75*
G02*
X136675000Y-74570001I0J249999D01*
G01*
X136675000Y-73669999D01*
G75*
G02*
X136924999Y-73420000I249999J0D01*
G01*
X137450001Y-73420000D01*
G75*
G02*
X137700000Y-73669999I0J-249999D01*
G01*
G37*
%TD.AperFunction*%
%TO.P,R2,1*%
%TO.N,/VIN*%
%TA.AperFunction,SMDPad,CuDef*%
G36*
G01*
X139525000Y-73669999D02*
X139525000Y-74570001D01*
G75*
G02*
X139275001Y-74820000I-249999J0D01*
G01*
X138749999Y-74820000D01*
G75*
G02*
X138500000Y-74570001I0J249999D01*
G01*
X138500000Y-73669999D01*
G75*
G02*
X138749999Y-73420000I249999J0D01*
G01*
X139275001Y-73420000D01*
G75*
G02*
X139525000Y-73669999I0J-249999D01*
G01*
G37*
%TD.AperFunction*%
%TD*%
%TO.P,R4,1*%
%TO.N,Net-(Q3-Pad2)*%
%TA.AperFunction,SMDPad,CuDef*%
G36*
G01*
X137649999Y-100635000D02*
X138550001Y-100635000D01*
G75*
G02*
X138800000Y-100884999I0J-249999D01*
G01*
X138800000Y-101410001D01*
G75*
G02*
X138550001Y-101660000I-249999J0D01*
G01*
X137649999Y-101660000D01*
G75*
G02*
X137400000Y-101410001I0J249999D01*
G01*
X137400000Y-100884999D01*
G75*
G02*
X137649999Y-100635000I249999J0D01*
G01*
G37*
%TD.AperFunction*%
%TO.P,R4,2*%
%TO.N,/DRV*%
%TA.AperFunction,SMDPad,CuDef*%
G36*
G01*
X137649999Y-102460000D02*
X138550001Y-102460000D01*
G75*
G02*
X138800000Y-102709999I0J-249999D01*
G01*
X138800000Y-103235001D01*
G75*
G02*
X138550001Y-103485000I-249999J0D01*
G01*
X137649999Y-103485000D01*
G75*
G02*
X137400000Y-103235001I0J249999D01*
G01*
X137400000Y-102709999D01*
G75*
G02*
X137649999Y-102460000I249999J0D01*
G01*
G37*
%TD.AperFunction*%
%TD*%
%TO.P,R5,2*%
%TO.N,Net-(Q4-Pad2)*%
%TA.AperFunction,SMDPad,CuDef*%
G36*
G01*
X133420000Y-112670001D02*
X133420000Y-111769999D01*
G75*
G02*
X133669999Y-111520000I249999J0D01*
G01*
X134195001Y-111520000D01*
G75*
G02*
X134445000Y-111769999I0J-249999D01*
G01*
X134445000Y-112670001D01*
G75*
G02*
X134195001Y-112920000I-249999J0D01*
G01*
X133669999Y-112920000D01*
G75*
G02*
X133420000Y-112670001I0J249999D01*
G01*
G37*
%TD.AperFunction*%
%TO.P,R5,1*%
%TO.N,/~FASTCHG*%
%TA.AperFunction,SMDPad,CuDef*%
G36*
G01*
X131595000Y-112670001D02*
X131595000Y-111769999D01*
G75*
G02*
X131844999Y-111520000I249999J0D01*
G01*
X132370001Y-111520000D01*
G75*
G02*
X132620000Y-111769999I0J-249999D01*
G01*
X132620000Y-112670001D01*
G75*
G02*
X132370001Y-112920000I-249999J0D01*
G01*
X131844999Y-112920000D01*
G75*
G02*
X131595000Y-112670001I0J249999D01*
G01*
G37*
%TD.AperFunction*%
%TD*%
%TO.P,R7,1*%
%TO.N,/REF*%
%TA.AperFunction,SMDPad,CuDef*%
G36*
G01*
X118895000Y-112670001D02*
X118895000Y-111769999D01*
G75*
G02*
X119144999Y-111520000I249999J0D01*
G01*
X119670001Y-111520000D01*
G75*
G02*
X119920000Y-111769999I0J-249999D01*
G01*
X119920000Y-112670001D01*
G75*
G02*
X119670001Y-112920000I-249999J0D01*
G01*
X119144999Y-112920000D01*
G75*
G02*
X118895000Y-112670001I0J249999D01*
G01*
G37*
%TD.AperFunction*%
%TO.P,R7,2*%
%TO.N,/TEMP*%
%TA.AperFunction,SMDPad,CuDef*%
G36*
G01*
X120720000Y-112670001D02*
X120720000Y-111769999D01*
G75*
G02*
X120969999Y-111520000I249999J0D01*
G01*
X121495001Y-111520000D01*
G75*
G02*
X121745000Y-111769999I0J-249999D01*
G01*
X121745000Y-112670001D01*
G75*
G02*
X121495001Y-112920000I-249999J0D01*
G01*
X120969999Y-112920000D01*
G75*
G02*
X120720000Y-112670001I0J249999D01*
G01*
G37*
%TD.AperFunction*%
%TD*%
%TO.P,R8,1*%
%TO.N,/TEMP*%
%TA.AperFunction,SMDPad,CuDef*%
G36*
G01*
X121745000Y-106689999D02*
X121745000Y-107590001D01*
G75*
G02*
X121495001Y-107840000I-249999J0D01*
G01*
X120969999Y-107840000D01*
G75*
G02*
X120720000Y-107590001I0J249999D01*
G01*
X120720000Y-106689999D01*
G75*
G02*
X120969999Y-106440000I249999J0D01*
G01*
X121495001Y-106440000D01*
G75*
G02*
X121745000Y-106689999I0J-249999D01*
G01*
G37*
%TD.AperFunction*%
%TO.P,R8,2*%
%TO.N,/BATT-*%
%TA.AperFunction,SMDPad,CuDef*%
G36*
G01*
X119920000Y-106689999D02*
X119920000Y-107590001D01*
G75*
G02*
X119670001Y-107840000I-249999J0D01*
G01*
X119144999Y-107840000D01*
G75*
G02*
X118895000Y-107590001I0J249999D01*
G01*
X118895000Y-106689999D01*
G75*
G02*
X119144999Y-106440000I249999J0D01*
G01*
X119670001Y-106440000D01*
G75*
G02*
X119920000Y-106689999I0J-249999D01*
G01*
G37*
%TD.AperFunction*%
%TD*%
D28*
%TO.P,SW1,6*%
%TO.N,/BATT-*%
X110160000Y-81740000D03*
%TO.P,SW1,5*%
%TO.N,/PGM0*%
X110160000Y-84280000D03*
%TO.P,SW1,4*%
%TO.N,/REF*%
X107620000Y-81740000D03*
%TO.P,SW1,3*%
%TO.N,/PGM0*%
X107620000Y-84280000D03*
%TO.P,SW1,2*%
%TO.N,/V+*%
X105080000Y-81740000D03*
D27*
%TO.P,SW1,1*%
%TO.N,/PGM0*%
X105080000Y-84280000D03*
%TD*%
%TO.P,SW2,1*%
%TO.N,/PGM1*%
X105080000Y-94440000D03*
D28*
%TO.P,SW2,2*%
%TO.N,/V+*%
X105080000Y-91900000D03*
%TO.P,SW2,3*%
%TO.N,/PGM1*%
X107620000Y-94440000D03*
%TO.P,SW2,4*%
%TO.N,/REF*%
X107620000Y-91900000D03*
%TO.P,SW2,5*%
%TO.N,/PGM1*%
X110160000Y-94440000D03*
%TO.P,SW2,6*%
%TO.N,/BATT-*%
X110160000Y-91900000D03*
%TD*%
%TO.P,SW3,6*%
%TO.N,/BATT-*%
X110160000Y-102060000D03*
%TO.P,SW3,5*%
%TO.N,/PGM2*%
X110160000Y-104600000D03*
%TO.P,SW3,4*%
%TO.N,/REF*%
X107620000Y-102060000D03*
%TO.P,SW3,3*%
%TO.N,/PGM2*%
X107620000Y-104600000D03*
%TO.P,SW3,2*%
%TO.N,/V+*%
X105080000Y-102060000D03*
D27*
%TO.P,SW3,1*%
%TO.N,/PGM2*%
X105080000Y-104600000D03*
%TD*%
%TO.P,SW4,1*%
%TO.N,/PGM3*%
X105080000Y-114760000D03*
D28*
%TO.P,SW4,2*%
%TO.N,/V+*%
X105080000Y-112220000D03*
%TO.P,SW4,3*%
%TO.N,/PGM3*%
X107620000Y-114760000D03*
%TO.P,SW4,4*%
%TO.N,/REF*%
X107620000Y-112220000D03*
%TO.P,SW4,5*%
%TO.N,/PGM3*%
X110160000Y-114760000D03*
%TO.P,SW4,6*%
%TO.N,/BATT-*%
X110160000Y-112220000D03*
%TD*%
D29*
%TO.P,FID1,*%
%TO.N,*%
X110160000Y-127460000D03*
%TD*%
%TO.P,FID2,*%
%TO.N,*%
X102540000Y-63960000D03*
%TD*%
%TO.P,FID3,*%
%TO.N,*%
X167564000Y-121110000D03*
%TD*%
D30*
%TO.P,D1,2*%
%TO.N,Net-(D1-Pad2)*%
X148260000Y-93580000D03*
%TO.P,D1,1*%
%TO.N,/BATT+*%
X148260000Y-100380000D03*
%TD*%
%TO.P,D2,1*%
%TO.N,Net-(D2-Pad1)*%
X166040000Y-87680000D03*
%TO.P,D2,2*%
%TO.N,GND*%
X166040000Y-80880000D03*
%TD*%
D31*
%TO.P,D4,1*%
%TO.N,/V+*%
X136350000Y-69040000D03*
%TO.P,D4,2*%
%TO.N,/VIN*%
X139850000Y-69040000D03*
%TD*%
%TO.P,D3,1*%
%TO.N,/LED*%
%TA.AperFunction,SMDPad,CuDef*%
G36*
G01*
X123316250Y-75545000D02*
X122403750Y-75545000D01*
G75*
G02*
X122160000Y-75301250I0J243750D01*
G01*
X122160000Y-74813750D01*
G75*
G02*
X122403750Y-74570000I243750J0D01*
G01*
X123316250Y-74570000D01*
G75*
G02*
X123560000Y-74813750I0J-243750D01*
G01*
X123560000Y-75301250D01*
G75*
G02*
X123316250Y-75545000I-243750J0D01*
G01*
G37*
%TD.AperFunction*%
%TO.P,D3,2*%
%TO.N,/VIN*%
%TA.AperFunction,SMDPad,CuDef*%
G36*
G01*
X123316250Y-73670000D02*
X122403750Y-73670000D01*
G75*
G02*
X122160000Y-73426250I0J243750D01*
G01*
X122160000Y-72938750D01*
G75*
G02*
X122403750Y-72695000I243750J0D01*
G01*
X123316250Y-72695000D01*
G75*
G02*
X123560000Y-72938750I0J-243750D01*
G01*
X123560000Y-73426250D01*
G75*
G02*
X123316250Y-73670000I-243750J0D01*
G01*
G37*
%TD.AperFunction*%
%TD*%
%TO.P,C1,1*%
%TO.N,/V+*%
%TA.AperFunction,SMDPad,CuDef*%
G36*
G01*
X130140000Y-96054999D02*
X130140000Y-97905001D01*
G75*
G02*
X129890001Y-98155000I-249999J0D01*
G01*
X129064999Y-98155000D01*
G75*
G02*
X128815000Y-97905001I0J249999D01*
G01*
X128815000Y-96054999D01*
G75*
G02*
X129064999Y-95805000I249999J0D01*
G01*
X129890001Y-95805000D01*
G75*
G02*
X130140000Y-96054999I0J-249999D01*
G01*
G37*
%TD.AperFunction*%
%TO.P,C1,2*%
%TO.N,/BATT-*%
%TA.AperFunction,SMDPad,CuDef*%
G36*
G01*
X127065000Y-96054999D02*
X127065000Y-97905001D01*
G75*
G02*
X126815001Y-98155000I-249999J0D01*
G01*
X125989999Y-98155000D01*
G75*
G02*
X125740000Y-97905001I0J249999D01*
G01*
X125740000Y-96054999D01*
G75*
G02*
X125989999Y-95805000I249999J0D01*
G01*
X126815001Y-95805000D01*
G75*
G02*
X127065000Y-96054999I0J-249999D01*
G01*
G37*
%TD.AperFunction*%
%TD*%
%TO.P,C3,1*%
%TO.N,/BATT+*%
%TA.AperFunction,SMDPad,CuDef*%
G36*
G01*
X152980000Y-108120000D02*
X158780000Y-108120000D01*
G75*
G02*
X159030000Y-108370000I0J-250000D01*
G01*
X159030000Y-110370000D01*
G75*
G02*
X158780000Y-110620000I-250000J0D01*
G01*
X152980000Y-110620000D01*
G75*
G02*
X152730000Y-110370000I0J250000D01*
G01*
X152730000Y-108370000D01*
G75*
G02*
X152980000Y-108120000I250000J0D01*
G01*
G37*
%TD.AperFunction*%
%TO.P,C3,2*%
%TO.N,/BATT-*%
%TA.AperFunction,SMDPad,CuDef*%
G36*
G01*
X152980000Y-113820000D02*
X158780000Y-113820000D01*
G75*
G02*
X159030000Y-114070000I0J-250000D01*
G01*
X159030000Y-116070000D01*
G75*
G02*
X158780000Y-116320000I-250000J0D01*
G01*
X152980000Y-116320000D01*
G75*
G02*
X152730000Y-116070000I0J250000D01*
G01*
X152730000Y-114070000D01*
G75*
G02*
X152980000Y-113820000I250000J0D01*
G01*
G37*
%TD.AperFunction*%
%TD*%
%TO.P,C5,1*%
%TO.N,/VIN*%
%TA.AperFunction,SMDPad,CuDef*%
G36*
G01*
X152980000Y-67480000D02*
X158780000Y-67480000D01*
G75*
G02*
X159030000Y-67730000I0J-250000D01*
G01*
X159030000Y-69730000D01*
G75*
G02*
X158780000Y-69980000I-250000J0D01*
G01*
X152980000Y-69980000D01*
G75*
G02*
X152730000Y-69730000I0J250000D01*
G01*
X152730000Y-67730000D01*
G75*
G02*
X152980000Y-67480000I250000J0D01*
G01*
G37*
%TD.AperFunction*%
%TO.P,C5,2*%
%TO.N,GND*%
%TA.AperFunction,SMDPad,CuDef*%
G36*
G01*
X152980000Y-73180000D02*
X158780000Y-73180000D01*
G75*
G02*
X159030000Y-73430000I0J-250000D01*
G01*
X159030000Y-75430000D01*
G75*
G02*
X158780000Y-75680000I-250000J0D01*
G01*
X152980000Y-75680000D01*
G75*
G02*
X152730000Y-75430000I0J250000D01*
G01*
X152730000Y-73430000D01*
G75*
G02*
X152980000Y-73180000I250000J0D01*
G01*
G37*
%TD.AperFunction*%
%TD*%
%TO.P,C6,2*%
%TO.N,GND*%
%TA.AperFunction,SMDPad,CuDef*%
G36*
G01*
X145360000Y-73180000D02*
X151160000Y-73180000D01*
G75*
G02*
X151410000Y-73430000I0J-250000D01*
G01*
X151410000Y-75430000D01*
G75*
G02*
X151160000Y-75680000I-250000J0D01*
G01*
X145360000Y-75680000D01*
G75*
G02*
X145110000Y-75430000I0J250000D01*
G01*
X145110000Y-73430000D01*
G75*
G02*
X145360000Y-73180000I250000J0D01*
G01*
G37*
%TD.AperFunction*%
%TO.P,C6,1*%
%TO.N,/VIN*%
%TA.AperFunction,SMDPad,CuDef*%
G36*
G01*
X145360000Y-67480000D02*
X151160000Y-67480000D01*
G75*
G02*
X151410000Y-67730000I0J-250000D01*
G01*
X151410000Y-69730000D01*
G75*
G02*
X151160000Y-69980000I-250000J0D01*
G01*
X145360000Y-69980000D01*
G75*
G02*
X145110000Y-69730000I0J250000D01*
G01*
X145110000Y-67730000D01*
G75*
G02*
X145360000Y-67480000I250000J0D01*
G01*
G37*
%TD.AperFunction*%
%TD*%
D18*
%TO.P,R6,2*%
%TO.N,GND*%
X125400000Y-122380000D03*
D17*
%TO.P,R6,1*%
%TO.N,/BATT-*%
X155880000Y-122380000D03*
%TD*%
D32*
%TO.N,GND*%
X133020000Y-76660000D03*
X132512000Y-104092000D03*
X141148000Y-114760000D03*
X155880000Y-76660000D03*
X154356000Y-76660000D03*
X157404000Y-76660000D03*
X148260000Y-76660000D03*
X149784000Y-76660000D03*
X146736000Y-76660000D03*
X141148000Y-113490000D03*
X141148000Y-116030000D03*
%TO.N,/BATT-*%
X123241000Y-106505000D03*
X124638000Y-96980000D03*
%TO.N,/REF*%
X117526000Y-112220000D03*
X121844000Y-97742000D03*
%TO.N,/VIN*%
X122860000Y-71834000D03*
%TO.N,Net-(Q4-Pad2)*%
X130480000Y-77168000D03*
X135560000Y-112728000D03*
%TO.N,/PGM2*%
X115240000Y-106632000D03*
X117780000Y-115776000D03*
%TO.N,Net-(Q3-Pad2)*%
X133020000Y-91392000D03*
X136830000Y-99520000D03*
%TO.N,/DRV*%
X139878000Y-102314000D03*
X136068000Y-93170000D03*
%TD*%
D33*
%TO.N,GND*%
X133020000Y-78200000D02*
X133020000Y-76660000D01*
X132385000Y-103965000D02*
X132512000Y-104092000D01*
X130415000Y-103965000D02*
X132385000Y-103965000D01*
D34*
%TO.N,/BATT+*%
X155570000Y-109680000D02*
X155880000Y-109370000D01*
D33*
X125465000Y-101425000D02*
X120701000Y-101425000D01*
X120320000Y-101044000D02*
X120320000Y-99520000D01*
X120701000Y-101425000D02*
X120320000Y-101044000D01*
X141246000Y-100380000D02*
X148260000Y-100380000D01*
X120320000Y-99520000D02*
X120320000Y-97234000D01*
X120320000Y-97234000D02*
X123114000Y-94440000D01*
X123114000Y-94440000D02*
X135306000Y-94440000D01*
X135306000Y-94440000D02*
X141246000Y-100380000D01*
%TO.N,/BATT-*%
X119370000Y-107177500D02*
X119407500Y-107140000D01*
X119370000Y-109680000D02*
X119370000Y-107177500D01*
X123241000Y-106505000D02*
X122606000Y-105870000D01*
X122606000Y-105870000D02*
X119558000Y-105870000D01*
X119407500Y-106020500D02*
X119407500Y-107140000D01*
X119558000Y-105870000D02*
X119407500Y-106020500D01*
X125465000Y-106505000D02*
X127305000Y-106505000D01*
X128575000Y-105235000D02*
X130415000Y-105235000D01*
X127305000Y-106505000D02*
X128575000Y-105235000D01*
X137145000Y-105235000D02*
X138100000Y-106190000D01*
X130415000Y-105235000D02*
X137145000Y-105235000D01*
X125465000Y-106505000D02*
X123241000Y-106505000D01*
X124638000Y-96980000D02*
X126402500Y-96980000D01*
X138100000Y-106190000D02*
X141976000Y-106190000D01*
X143180000Y-107394000D02*
X143180000Y-109680000D01*
X141976000Y-106190000D02*
X143180000Y-107394000D01*
X143180000Y-109680000D02*
X143180000Y-110950000D01*
X146990000Y-114760000D02*
X148682500Y-114760000D01*
X143180000Y-110950000D02*
X146990000Y-114760000D01*
X111684000Y-112220000D02*
X110160000Y-112220000D01*
X114224000Y-109680000D02*
X111684000Y-112220000D01*
X119370000Y-109680000D02*
X114224000Y-109680000D01*
%TO.N,/REF*%
X130415000Y-100155000D02*
X125465000Y-100155000D01*
X119407500Y-111542500D02*
X121270000Y-109680000D01*
X119407500Y-112220000D02*
X119407500Y-111542500D01*
X123495000Y-100155000D02*
X122860000Y-99520000D01*
X125465000Y-100155000D02*
X123495000Y-100155000D01*
X117526000Y-112220000D02*
X119407500Y-112220000D01*
X122860000Y-98758000D02*
X121844000Y-97742000D01*
X122860000Y-99520000D02*
X122860000Y-98758000D01*
X114478000Y-112220000D02*
X117526000Y-112220000D01*
X108890000Y-113490000D02*
X113208000Y-113490000D01*
X113208000Y-113490000D02*
X114478000Y-112220000D01*
X107620000Y-112220000D02*
X108890000Y-113490000D01*
%TO.N,/VIN*%
X133020000Y-73120000D02*
X133020000Y-71834000D01*
X133020000Y-71834000D02*
X133528000Y-71326000D01*
X133528000Y-71326000D02*
X139370000Y-71326000D01*
X139370000Y-71326000D02*
X140132000Y-72088000D01*
X140132000Y-72088000D02*
X140132000Y-74120000D01*
X140132000Y-74120000D02*
X139012500Y-74120000D01*
X122860000Y-73182500D02*
X122860000Y-71834000D01*
%TO.N,Net-(M1-Pad1)*%
X133970000Y-80200000D02*
X133970000Y-75120000D01*
X133970000Y-80404000D02*
X133970000Y-80200000D01*
X133020000Y-82756000D02*
X133020000Y-84280000D01*
X133970000Y-81806000D02*
X133020000Y-82756000D01*
X133970000Y-80200000D02*
X133970000Y-81806000D01*
X135052000Y-84280000D02*
X133020000Y-84280000D01*
X150540000Y-80080000D02*
X149412000Y-80080000D01*
X149412000Y-80080000D02*
X147244000Y-82248000D01*
X137084000Y-82248000D02*
X135052000Y-84280000D01*
X147244000Y-82248000D02*
X137084000Y-82248000D01*
%TO.N,Net-(JP2-Pad1)*%
X123860000Y-78200000D02*
X122860000Y-79200000D01*
X127940000Y-78200000D02*
X123860000Y-78200000D01*
X132512000Y-74120000D02*
X132070000Y-74562000D01*
X132070000Y-74562000D02*
X132070000Y-75120000D01*
X132070000Y-80200000D02*
X132070000Y-75120000D01*
X128718000Y-78200000D02*
X130718000Y-80200000D01*
X130718000Y-80200000D02*
X132070000Y-80200000D01*
X127940000Y-78200000D02*
X128718000Y-78200000D01*
X107620000Y-69040000D02*
X110414000Y-69040000D01*
X120574000Y-79200000D02*
X122860000Y-79200000D01*
X110414000Y-69040000D02*
X120574000Y-79200000D01*
X132512000Y-74120000D02*
X137187500Y-74120000D01*
%TO.N,Net-(JP1-Pad2)*%
X122352000Y-84280000D02*
X122860000Y-84280000D01*
X107620000Y-74120000D02*
X112192000Y-74120000D01*
X122860000Y-84280000D02*
X124262000Y-84280000D01*
X122352000Y-84280000D02*
X112192000Y-74120000D01*
X124450000Y-84280000D02*
X122352000Y-84280000D01*
X126990000Y-81740000D02*
X124450000Y-84280000D01*
X126990000Y-80200000D02*
X126990000Y-81740000D01*
%TO.N,Net-(Q4-Pad2)*%
X128890000Y-75120000D02*
X128890000Y-75578000D01*
X128890000Y-75578000D02*
X130480000Y-77168000D01*
X135560000Y-114760000D02*
X135560000Y-112728000D01*
X134290000Y-114760000D02*
X135560000Y-114760000D01*
X133932500Y-114402500D02*
X134290000Y-114760000D01*
X133932500Y-112220000D02*
X133932500Y-114402500D01*
%TO.N,/PGM0*%
X105080000Y-84280000D02*
X115240000Y-84280000D01*
X117526000Y-86566000D02*
X115240000Y-84280000D01*
X119177000Y-102695000D02*
X117526000Y-101044000D01*
X117526000Y-101044000D02*
X117526000Y-86566000D01*
X125465000Y-102695000D02*
X119177000Y-102695000D01*
%TO.N,/PGM1*%
X115240000Y-95500660D02*
X115240000Y-94440000D01*
X125465000Y-103965000D02*
X118822880Y-103965000D01*
X118822880Y-103965000D02*
X116510000Y-101652120D01*
X116510000Y-101652120D02*
X116510000Y-96770660D01*
X116510000Y-96770660D02*
X115240000Y-95500660D01*
X115240000Y-94440000D02*
X110160000Y-94440000D01*
X110160000Y-94440000D02*
X107620000Y-94440000D01*
X107620000Y-94440000D02*
X105080000Y-94440000D01*
%TO.N,/PGM2*%
X115240000Y-104600000D02*
X110160000Y-104600000D01*
X110160000Y-104600000D02*
X107620000Y-104600000D01*
X107620000Y-104600000D02*
X105080000Y-104600000D01*
X115240000Y-104600000D02*
X115240000Y-106632000D01*
X137084000Y-111966000D02*
X134163000Y-109045000D01*
X119812000Y-116284000D02*
X136322000Y-116284000D01*
X136322000Y-116284000D02*
X137084000Y-115522000D01*
X134163000Y-109045000D02*
X130415000Y-109045000D01*
X137084000Y-115522000D02*
X137084000Y-111966000D01*
X118288000Y-116284000D02*
X117780000Y-115776000D01*
X119812000Y-116284000D02*
X118288000Y-116284000D01*
%TO.N,/PGM3*%
X115240000Y-114760000D02*
X110160000Y-114760000D01*
X133909000Y-107775000D02*
X130415000Y-107775000D01*
X115240000Y-114760000D02*
X117526000Y-117046000D01*
X117526000Y-117046000D02*
X136576000Y-117046000D01*
X137846000Y-111712000D02*
X133909000Y-107775000D01*
X136576000Y-117046000D02*
X137846000Y-115776000D01*
X137846000Y-115776000D02*
X137846000Y-111712000D01*
%TO.N,Net-(Q3-Pad2)*%
X128890000Y-83330000D02*
X127940000Y-84280000D01*
X128890000Y-80200000D02*
X128890000Y-83330000D01*
X127940000Y-84280000D02*
X127940000Y-89106000D01*
X127940000Y-89106000D02*
X130226000Y-91392000D01*
X130226000Y-91392000D02*
X133020000Y-91392000D01*
X138100000Y-100790000D02*
X136830000Y-99520000D01*
X138100000Y-101147500D02*
X138100000Y-100790000D01*
D34*
%TO.N,/TEMP*%
X125465000Y-107775000D02*
X123241000Y-107775000D01*
X122606000Y-107140000D02*
X121232500Y-107140000D01*
X123241000Y-107775000D02*
X122606000Y-107140000D01*
X125400000Y-112220000D02*
X121232500Y-112220000D01*
X121232500Y-107140000D02*
X121590000Y-107140000D01*
X123749000Y-109299000D02*
X123749000Y-110569000D01*
X121590000Y-107140000D02*
X123749000Y-109299000D01*
X125400000Y-112220000D02*
X123749000Y-110569000D01*
D33*
%TO.N,/CC*%
X136510000Y-108090000D02*
X135560000Y-107140000D01*
X138100000Y-108090000D02*
X136510000Y-108090000D01*
X134925000Y-106505000D02*
X135560000Y-107140000D01*
X130415000Y-106505000D02*
X134925000Y-106505000D01*
%TO.N,/V+*%
X126990000Y-75120000D02*
X126990000Y-74562000D01*
X131242000Y-69040000D02*
X136350000Y-69040000D01*
X130480000Y-73358000D02*
X130480000Y-69802000D01*
X130480000Y-69802000D02*
X131242000Y-69040000D01*
X129718000Y-74120000D02*
X130480000Y-73358000D01*
X127432000Y-74120000D02*
X129718000Y-74120000D01*
X126990000Y-74562000D02*
X127432000Y-74120000D01*
X125465000Y-105235000D02*
X127305000Y-105235000D01*
X127305000Y-105235000D02*
X128194000Y-104346000D01*
X128194000Y-104346000D02*
X128194000Y-102060000D01*
X128829000Y-101425000D02*
X130415000Y-101425000D01*
X128194000Y-102060000D02*
X128829000Y-101425000D01*
X129477500Y-96980000D02*
X131750000Y-96980000D01*
X131750000Y-96980000D02*
X132512000Y-97742000D01*
X132512000Y-97742000D02*
X132512000Y-101044000D01*
X132131000Y-101425000D02*
X130415000Y-101425000D01*
X132512000Y-101044000D02*
X132131000Y-101425000D01*
X112700000Y-61420000D02*
X133020000Y-61420000D01*
X133020000Y-61420000D02*
X136350000Y-64750000D01*
X136350000Y-64750000D02*
X136350000Y-69040000D01*
X118415000Y-105235000D02*
X125465000Y-105235000D01*
X105080000Y-112220000D02*
X105080000Y-109172000D01*
X105080000Y-109172000D02*
X106350000Y-107902000D01*
X106350000Y-107902000D02*
X115748000Y-107902000D01*
X115748000Y-107902000D02*
X118415000Y-105235000D01*
%TO.N,/DRV*%
X130415000Y-102695000D02*
X133147000Y-102695000D01*
X133782000Y-102060000D02*
X135560000Y-102060000D01*
X133147000Y-102695000D02*
X133782000Y-102060000D01*
X136472500Y-102972500D02*
X135560000Y-102060000D01*
X138100000Y-102972500D02*
X136472500Y-102972500D01*
X139219500Y-102972500D02*
X139878000Y-102314000D01*
X138100000Y-102972500D02*
X139219500Y-102972500D01*
X136068000Y-93170000D02*
X127686000Y-93170000D01*
X105080000Y-69040000D02*
X102540000Y-71580000D01*
X102540000Y-71580000D02*
X102540000Y-76406000D01*
X104572000Y-78438000D02*
X112954000Y-78438000D01*
X102540000Y-76406000D02*
X104572000Y-78438000D01*
X127686000Y-93170000D02*
X112954000Y-78438000D01*
%TO.N,/LED*%
X127940000Y-73120000D02*
X127940000Y-70945000D01*
X122860000Y-75057500D02*
X124208500Y-75057500D01*
X124638000Y-74628000D02*
X124638000Y-74374000D01*
X125146000Y-69040000D02*
X124638000Y-69548000D01*
X124638000Y-69548000D02*
X124638000Y-74374000D01*
X127940000Y-69040000D02*
X125146000Y-69040000D01*
X124208500Y-75057500D02*
X124638000Y-74628000D01*
X127940000Y-73120000D02*
X127940000Y-69040000D01*
D34*
%TO.N,/~FASTCHG*%
X125465000Y-109045000D02*
X127305000Y-109045000D01*
X127940000Y-109680000D02*
X127940000Y-112220000D01*
X127305000Y-109045000D02*
X127940000Y-109680000D01*
X132107500Y-112220000D02*
X127940000Y-112220000D01*
%TD*%
D35*
%TO.N,/VIN*%
X144831000Y-60202606D02*
X144831000Y-66246000D01*
X144833440Y-66270776D01*
X144840667Y-66294601D01*
X144852403Y-66316557D01*
X144868197Y-66335803D01*
X145376197Y-66843803D01*
X145395443Y-66859597D01*
X145417399Y-66871333D01*
X145441224Y-66878560D01*
X145466000Y-66881000D01*
X169797394Y-66881000D01*
X170231000Y-67314606D01*
X170231000Y-70003394D01*
X169797394Y-70437000D01*
X143688000Y-70437000D01*
X143663224Y-70439440D01*
X143639399Y-70446667D01*
X143617443Y-70458403D01*
X143598197Y-70474197D01*
X143090197Y-70982197D01*
X143074403Y-71001443D01*
X143062667Y-71023399D01*
X143055440Y-71047224D01*
X143053000Y-71072000D01*
X143053000Y-77930000D01*
X143055440Y-77954776D01*
X143062667Y-77978601D01*
X143074403Y-78000557D01*
X143090197Y-78019803D01*
X143598197Y-78527803D01*
X143617443Y-78543597D01*
X143639399Y-78555333D01*
X143663224Y-78562560D01*
X143688000Y-78565000D01*
X146429394Y-78565000D01*
X146863000Y-78998606D01*
X146863000Y-80925394D01*
X146429394Y-81359000D01*
X139422606Y-81359000D01*
X138989000Y-80925394D01*
X138989000Y-60202606D01*
X139422606Y-59769000D01*
X144397394Y-59769000D01*
X144831000Y-60202606D01*
%TA.AperFunction,Conductor*%
D36*
G36*
X144831000Y-60202606D02*
G01*
X144831000Y-66246000D01*
X144833440Y-66270776D01*
X144840667Y-66294601D01*
X144852403Y-66316557D01*
X144868197Y-66335803D01*
X145376197Y-66843803D01*
X145395443Y-66859597D01*
X145417399Y-66871333D01*
X145441224Y-66878560D01*
X145466000Y-66881000D01*
X169797394Y-66881000D01*
X170231000Y-67314606D01*
X170231000Y-70003394D01*
X169797394Y-70437000D01*
X143688000Y-70437000D01*
X143663224Y-70439440D01*
X143639399Y-70446667D01*
X143617443Y-70458403D01*
X143598197Y-70474197D01*
X143090197Y-70982197D01*
X143074403Y-71001443D01*
X143062667Y-71023399D01*
X143055440Y-71047224D01*
X143053000Y-71072000D01*
X143053000Y-77930000D01*
X143055440Y-77954776D01*
X143062667Y-77978601D01*
X143074403Y-78000557D01*
X143090197Y-78019803D01*
X143598197Y-78527803D01*
X143617443Y-78543597D01*
X143639399Y-78555333D01*
X143663224Y-78562560D01*
X143688000Y-78565000D01*
X146429394Y-78565000D01*
X146863000Y-78998606D01*
X146863000Y-80925394D01*
X146429394Y-81359000D01*
X139422606Y-81359000D01*
X138989000Y-80925394D01*
X138989000Y-60202606D01*
X139422606Y-59769000D01*
X144397394Y-59769000D01*
X144831000Y-60202606D01*
G37*
%TD.AperFunction*%
%TD*%
D35*
%TO.N,GND*%
X170231000Y-73156606D02*
X170231000Y-75845394D01*
X169797394Y-76279000D01*
X159436000Y-76279000D01*
X159411224Y-76281440D01*
X159387399Y-76288667D01*
X159365443Y-76300403D01*
X159346197Y-76316197D01*
X158838197Y-76824197D01*
X158822403Y-76843443D01*
X158810667Y-76865399D01*
X158803440Y-76889224D01*
X158801000Y-76914000D01*
X158801000Y-78438000D01*
X158803440Y-78462776D01*
X158810667Y-78486601D01*
X158822403Y-78508557D01*
X158838197Y-78527803D01*
X159346197Y-79035803D01*
X159365443Y-79051597D01*
X159387399Y-79063333D01*
X159411224Y-79070560D01*
X159436000Y-79073000D01*
X167765394Y-79073000D01*
X168199000Y-79506606D01*
X168199000Y-82195394D01*
X167765394Y-82629000D01*
X153392606Y-82629000D01*
X152959000Y-82195394D01*
X152959000Y-77930000D01*
X152956560Y-77905224D01*
X152949333Y-77881399D01*
X152937597Y-77859443D01*
X152921803Y-77840197D01*
X152413803Y-77332197D01*
X152394557Y-77316403D01*
X152372601Y-77304667D01*
X152348776Y-77297440D01*
X152324000Y-77295000D01*
X145010606Y-77295000D01*
X144577000Y-76861394D01*
X144577000Y-73156606D01*
X145010606Y-72723000D01*
X169797394Y-72723000D01*
X170231000Y-73156606D01*
%TA.AperFunction,Conductor*%
D36*
G36*
X170231000Y-73156606D02*
G01*
X170231000Y-75845394D01*
X169797394Y-76279000D01*
X159436000Y-76279000D01*
X159411224Y-76281440D01*
X159387399Y-76288667D01*
X159365443Y-76300403D01*
X159346197Y-76316197D01*
X158838197Y-76824197D01*
X158822403Y-76843443D01*
X158810667Y-76865399D01*
X158803440Y-76889224D01*
X158801000Y-76914000D01*
X158801000Y-78438000D01*
X158803440Y-78462776D01*
X158810667Y-78486601D01*
X158822403Y-78508557D01*
X158838197Y-78527803D01*
X159346197Y-79035803D01*
X159365443Y-79051597D01*
X159387399Y-79063333D01*
X159411224Y-79070560D01*
X159436000Y-79073000D01*
X167765394Y-79073000D01*
X168199000Y-79506606D01*
X168199000Y-82195394D01*
X167765394Y-82629000D01*
X153392606Y-82629000D01*
X152959000Y-82195394D01*
X152959000Y-77930000D01*
X152956560Y-77905224D01*
X152949333Y-77881399D01*
X152937597Y-77859443D01*
X152921803Y-77840197D01*
X152413803Y-77332197D01*
X152394557Y-77316403D01*
X152372601Y-77304667D01*
X152348776Y-77297440D01*
X152324000Y-77295000D01*
X145010606Y-77295000D01*
X144577000Y-76861394D01*
X144577000Y-73156606D01*
X145010606Y-72723000D01*
X169797394Y-72723000D01*
X170231000Y-73156606D01*
G37*
%TD.AperFunction*%
%TD*%
D35*
%TO.N,Net-(D1-Pad2)*%
X156261000Y-92460606D02*
X156261000Y-94948000D01*
X156263440Y-94972776D01*
X156270667Y-94996601D01*
X156282403Y-95018557D01*
X156298197Y-95037803D01*
X156806197Y-95545803D01*
X156825443Y-95561597D01*
X156847399Y-95573333D01*
X156871224Y-95580560D01*
X156896000Y-95583000D01*
X158039000Y-95583000D01*
X158039000Y-98377000D01*
X156896000Y-98377000D01*
X156871224Y-98379440D01*
X156847399Y-98386667D01*
X156825443Y-98398403D01*
X156806197Y-98414197D01*
X156335394Y-98885000D01*
X152376606Y-98885000D01*
X151943000Y-98451394D01*
X151943000Y-95964000D01*
X151940560Y-95939224D01*
X151933333Y-95915399D01*
X151921597Y-95893443D01*
X151905803Y-95874197D01*
X151397803Y-95366197D01*
X151378557Y-95350403D01*
X151356601Y-95338667D01*
X151332776Y-95331440D01*
X151308000Y-95329000D01*
X146534606Y-95329000D01*
X146101000Y-94895394D01*
X146101000Y-92460606D01*
X146534606Y-92027000D01*
X155827394Y-92027000D01*
X156261000Y-92460606D01*
%TA.AperFunction,Conductor*%
D36*
G36*
X156261000Y-92460606D02*
G01*
X156261000Y-94948000D01*
X156263440Y-94972776D01*
X156270667Y-94996601D01*
X156282403Y-95018557D01*
X156298197Y-95037803D01*
X156806197Y-95545803D01*
X156825443Y-95561597D01*
X156847399Y-95573333D01*
X156871224Y-95580560D01*
X156896000Y-95583000D01*
X158039000Y-95583000D01*
X158039000Y-98377000D01*
X156896000Y-98377000D01*
X156871224Y-98379440D01*
X156847399Y-98386667D01*
X156825443Y-98398403D01*
X156806197Y-98414197D01*
X156335394Y-98885000D01*
X152376606Y-98885000D01*
X151943000Y-98451394D01*
X151943000Y-95964000D01*
X151940560Y-95939224D01*
X151933333Y-95915399D01*
X151921597Y-95893443D01*
X151905803Y-95874197D01*
X151397803Y-95366197D01*
X151378557Y-95350403D01*
X151356601Y-95338667D01*
X151332776Y-95331440D01*
X151308000Y-95329000D01*
X146534606Y-95329000D01*
X146101000Y-94895394D01*
X146101000Y-92460606D01*
X146534606Y-92027000D01*
X155827394Y-92027000D01*
X156261000Y-92460606D01*
G37*
%TD.AperFunction*%
%TD*%
D35*
%TO.N,Net-(D2-Pad1)*%
X152197000Y-83316606D02*
X152197000Y-85296000D01*
X152199440Y-85320776D01*
X152206667Y-85344601D01*
X152218403Y-85366557D01*
X152234197Y-85385803D01*
X152742197Y-85893803D01*
X152761443Y-85909597D01*
X152783399Y-85921333D01*
X152807224Y-85928560D01*
X152832000Y-85931000D01*
X174877394Y-85931000D01*
X175311000Y-86364606D01*
X175311000Y-98451394D01*
X174877394Y-98885000D01*
X170918606Y-98885000D01*
X170447803Y-98414197D01*
X170428557Y-98398403D01*
X170406601Y-98386667D01*
X170382776Y-98379440D01*
X170358000Y-98377000D01*
X168961000Y-98377000D01*
X168961000Y-95583000D01*
X170358000Y-95583000D01*
X170382776Y-95580560D01*
X170406601Y-95573333D01*
X170428557Y-95561597D01*
X170447803Y-95545803D01*
X170955803Y-95037803D01*
X170971597Y-95018557D01*
X170983333Y-94996601D01*
X170990560Y-94972776D01*
X170993000Y-94948000D01*
X170993000Y-90630000D01*
X170990560Y-90605224D01*
X170983333Y-90581399D01*
X170971597Y-90559443D01*
X170955803Y-90540197D01*
X170447803Y-90032197D01*
X170428557Y-90016403D01*
X170406601Y-90004667D01*
X170382776Y-89997440D01*
X170358000Y-89995000D01*
X143232606Y-89995000D01*
X142799000Y-89561394D01*
X142799000Y-83316606D01*
X143232606Y-82883000D01*
X151763394Y-82883000D01*
X152197000Y-83316606D01*
%TA.AperFunction,Conductor*%
D36*
G36*
X152197000Y-83316606D02*
G01*
X152197000Y-85296000D01*
X152199440Y-85320776D01*
X152206667Y-85344601D01*
X152218403Y-85366557D01*
X152234197Y-85385803D01*
X152742197Y-85893803D01*
X152761443Y-85909597D01*
X152783399Y-85921333D01*
X152807224Y-85928560D01*
X152832000Y-85931000D01*
X174877394Y-85931000D01*
X175311000Y-86364606D01*
X175311000Y-98451394D01*
X174877394Y-98885000D01*
X170918606Y-98885000D01*
X170447803Y-98414197D01*
X170428557Y-98398403D01*
X170406601Y-98386667D01*
X170382776Y-98379440D01*
X170358000Y-98377000D01*
X168961000Y-98377000D01*
X168961000Y-95583000D01*
X170358000Y-95583000D01*
X170382776Y-95580560D01*
X170406601Y-95573333D01*
X170428557Y-95561597D01*
X170447803Y-95545803D01*
X170955803Y-95037803D01*
X170971597Y-95018557D01*
X170983333Y-94996601D01*
X170990560Y-94972776D01*
X170993000Y-94948000D01*
X170993000Y-90630000D01*
X170990560Y-90605224D01*
X170983333Y-90581399D01*
X170971597Y-90559443D01*
X170955803Y-90540197D01*
X170447803Y-90032197D01*
X170428557Y-90016403D01*
X170406601Y-90004667D01*
X170382776Y-89997440D01*
X170358000Y-89995000D01*
X143232606Y-89995000D01*
X142799000Y-89561394D01*
X142799000Y-83316606D01*
X143232606Y-82883000D01*
X151763394Y-82883000D01*
X152197000Y-83316606D01*
G37*
%TD.AperFunction*%
%TD*%
D35*
%TO.N,/BATT+*%
X150419000Y-99064606D02*
X150419000Y-106886000D01*
X150421440Y-106910776D01*
X150428667Y-106934601D01*
X150440403Y-106956557D01*
X150456197Y-106975803D01*
X150964197Y-107483803D01*
X150983443Y-107499597D01*
X151005399Y-107511333D01*
X151029224Y-107518560D01*
X151054000Y-107521000D01*
X169797394Y-107521000D01*
X170231000Y-107954606D01*
X170231000Y-110643394D01*
X169797394Y-111077000D01*
X146534606Y-111077000D01*
X146101000Y-110643394D01*
X146101000Y-99064606D01*
X146534606Y-98631000D01*
X149985394Y-98631000D01*
X150419000Y-99064606D01*
%TA.AperFunction,Conductor*%
D36*
G36*
X150419000Y-99064606D02*
G01*
X150419000Y-106886000D01*
X150421440Y-106910776D01*
X150428667Y-106934601D01*
X150440403Y-106956557D01*
X150456197Y-106975803D01*
X150964197Y-107483803D01*
X150983443Y-107499597D01*
X151005399Y-107511333D01*
X151029224Y-107518560D01*
X151054000Y-107521000D01*
X169797394Y-107521000D01*
X170231000Y-107954606D01*
X170231000Y-110643394D01*
X169797394Y-111077000D01*
X146534606Y-111077000D01*
X146101000Y-110643394D01*
X146101000Y-99064606D01*
X146534606Y-98631000D01*
X149985394Y-98631000D01*
X150419000Y-99064606D01*
G37*
%TD.AperFunction*%
%TD*%
D35*
%TO.N,/BATT-*%
X170231000Y-113796606D02*
X170231000Y-116485394D01*
X169797394Y-116919000D01*
X151308000Y-116919000D01*
X151283224Y-116921440D01*
X151259399Y-116928667D01*
X151237443Y-116940403D01*
X151218197Y-116956197D01*
X150710197Y-117464197D01*
X150694403Y-117483443D01*
X150682667Y-117505399D01*
X150675440Y-117529224D01*
X150673000Y-117554000D01*
X150673000Y-119840000D01*
X150675440Y-119864776D01*
X150682667Y-119888601D01*
X150694403Y-119910557D01*
X150710197Y-119929803D01*
X151218197Y-120437803D01*
X151237443Y-120453597D01*
X151259399Y-120465333D01*
X151283224Y-120472560D01*
X151308000Y-120475000D01*
X157097394Y-120475000D01*
X157531000Y-120908606D01*
X157531000Y-123597394D01*
X157097394Y-124031000D01*
X148058606Y-124031000D01*
X147625000Y-123597394D01*
X147625000Y-113796606D01*
X148058606Y-113363000D01*
X169797394Y-113363000D01*
X170231000Y-113796606D01*
%TA.AperFunction,Conductor*%
D36*
G36*
X170231000Y-113796606D02*
G01*
X170231000Y-116485394D01*
X169797394Y-116919000D01*
X151308000Y-116919000D01*
X151283224Y-116921440D01*
X151259399Y-116928667D01*
X151237443Y-116940403D01*
X151218197Y-116956197D01*
X150710197Y-117464197D01*
X150694403Y-117483443D01*
X150682667Y-117505399D01*
X150675440Y-117529224D01*
X150673000Y-117554000D01*
X150673000Y-119840000D01*
X150675440Y-119864776D01*
X150682667Y-119888601D01*
X150694403Y-119910557D01*
X150710197Y-119929803D01*
X151218197Y-120437803D01*
X151237443Y-120453597D01*
X151259399Y-120465333D01*
X151283224Y-120472560D01*
X151308000Y-120475000D01*
X157097394Y-120475000D01*
X157531000Y-120908606D01*
X157531000Y-123597394D01*
X157097394Y-124031000D01*
X148058606Y-124031000D01*
X147625000Y-123597394D01*
X147625000Y-113796606D01*
X148058606Y-113363000D01*
X169797394Y-113363000D01*
X170231000Y-113796606D01*
G37*
%TD.AperFunction*%
%TD*%
D35*
%TO.N,GND*%
X143815000Y-113288606D02*
X143815000Y-116231394D01*
X143381394Y-116665000D01*
X140946606Y-116665000D01*
X140513000Y-116231394D01*
X140513000Y-113288606D01*
X140946606Y-112855000D01*
X143381394Y-112855000D01*
X143815000Y-113288606D01*
%TA.AperFunction,Conductor*%
D36*
G36*
X143815000Y-113288606D02*
G01*
X143815000Y-116231394D01*
X143381394Y-116665000D01*
X140946606Y-116665000D01*
X140513000Y-116231394D01*
X140513000Y-113288606D01*
X140946606Y-112855000D01*
X143381394Y-112855000D01*
X143815000Y-113288606D01*
G37*
%TD.AperFunction*%
%TD*%
M02*
