%TF.GenerationSoftware,KiCad,Pcbnew,5.1.12-84ad8e8a86~92~ubuntu16.04.1*%
%TF.CreationDate,2021-11-14T14:14:53+01:00*%
%TF.ProjectId,AE01.12.09.010,41453031-2e31-4322-9e30-392e3031302e,1*%
%TF.SameCoordinates,Original*%
%TF.FileFunction,Copper,L2,Bot*%
%TF.FilePolarity,Positive*%
%FSLAX46Y46*%
G04 Gerber Fmt 4.6, Leading zero omitted, Abs format (unit mm)*
G04 Created by KiCad (PCBNEW 5.1.12-84ad8e8a86~92~ubuntu16.04.1) date 2021-11-14 14:14:53*
%MOMM*%
%LPD*%
G01*
G04 APERTURE LIST*
%ADD10C,0.100000*%
%ADD11C,0.150000*%
%ADD12C,0.300000*%
%ADD13C,0.400000*%
%TA.AperFunction,NonConductor*%
%ADD14C,0.300000*%
%TD*%
%TA.AperFunction,Profile*%
%ADD15C,0.050000*%
%TD*%
%TA.AperFunction,ComponentPad*%
%ADD16C,2.400000*%
%TD*%
%TA.AperFunction,ComponentPad*%
%ADD17O,2.400000X2.400000*%
%TD*%
%TA.AperFunction,ComponentPad*%
%ADD18C,0.800000*%
%TD*%
%TA.AperFunction,ComponentPad*%
%ADD19C,6.400000*%
%TD*%
%TA.AperFunction,ComponentPad*%
%ADD20R,2.600000X2.600000*%
%TD*%
%TA.AperFunction,ComponentPad*%
%ADD21C,2.600000*%
%TD*%
%TA.AperFunction,ComponentPad*%
%ADD22R,1.700000X1.700000*%
%TD*%
%TA.AperFunction,ComponentPad*%
%ADD23O,1.700000X1.700000*%
%TD*%
%TA.AperFunction,ViaPad*%
%ADD24C,0.812800*%
%TD*%
%TA.AperFunction,Conductor*%
%ADD25C,0.304800*%
%TD*%
%TA.AperFunction,Conductor*%
%ADD26C,0.254000*%
%TD*%
%TA.AperFunction,Conductor*%
%ADD27C,0.100000*%
%TD*%
G04 APERTURE END LIST*
D10*
D11*
X177002200Y-166007200D02*
X177002200Y-198007200D01*
X285002200Y-198007200D01*
X285002200Y-166007200D01*
X177002200Y-166007200D01*
D10*
D11*
X10000000Y-10000000D02*
X10000000Y-200007200D01*
X287002200Y-200007200D01*
X287002200Y-10000000D01*
X10000000Y-10000000D01*
D10*
D11*
X12000000Y-12000000D02*
X12000000Y-198007200D01*
X285002200Y-198007200D01*
X285002200Y-12000000D01*
X12000000Y-12000000D01*
D10*
D11*
X60000000Y-12000000D02*
X60000000Y-10000000D01*
D10*
D11*
X110000000Y-12000000D02*
X110000000Y-10000000D01*
D10*
D11*
X160000000Y-12000000D02*
X160000000Y-10000000D01*
D10*
D11*
X210000000Y-12000000D02*
X210000000Y-10000000D01*
D10*
D11*
X260000000Y-12000000D02*
X260000000Y-10000000D01*
D10*
D11*
X36065476Y-11588095D02*
X35322619Y-11588095D01*
X35694047Y-11588095D02*
X35694047Y-10288095D01*
X35570238Y-10473809D01*
X35446428Y-10597619D01*
X35322619Y-10659523D01*
D10*
D11*
X85322619Y-10411904D02*
X85384523Y-10350000D01*
X85508333Y-10288095D01*
X85817857Y-10288095D01*
X85941666Y-10350000D01*
X86003571Y-10411904D01*
X86065476Y-10535714D01*
X86065476Y-10659523D01*
X86003571Y-10845238D01*
X85260714Y-11588095D01*
X86065476Y-11588095D01*
D10*
D11*
X135260714Y-10288095D02*
X136065476Y-10288095D01*
X135632142Y-10783333D01*
X135817857Y-10783333D01*
X135941666Y-10845238D01*
X136003571Y-10907142D01*
X136065476Y-11030952D01*
X136065476Y-11340476D01*
X136003571Y-11464285D01*
X135941666Y-11526190D01*
X135817857Y-11588095D01*
X135446428Y-11588095D01*
X135322619Y-11526190D01*
X135260714Y-11464285D01*
D10*
D11*
X185941666Y-10721428D02*
X185941666Y-11588095D01*
X185632142Y-10226190D02*
X185322619Y-11154761D01*
X186127380Y-11154761D01*
D10*
D11*
X236003571Y-10288095D02*
X235384523Y-10288095D01*
X235322619Y-10907142D01*
X235384523Y-10845238D01*
X235508333Y-10783333D01*
X235817857Y-10783333D01*
X235941666Y-10845238D01*
X236003571Y-10907142D01*
X236065476Y-11030952D01*
X236065476Y-11340476D01*
X236003571Y-11464285D01*
X235941666Y-11526190D01*
X235817857Y-11588095D01*
X235508333Y-11588095D01*
X235384523Y-11526190D01*
X235322619Y-11464285D01*
D10*
D11*
X285941666Y-10288095D02*
X285694047Y-10288095D01*
X285570238Y-10350000D01*
X285508333Y-10411904D01*
X285384523Y-10597619D01*
X285322619Y-10845238D01*
X285322619Y-11340476D01*
X285384523Y-11464285D01*
X285446428Y-11526190D01*
X285570238Y-11588095D01*
X285817857Y-11588095D01*
X285941666Y-11526190D01*
X286003571Y-11464285D01*
X286065476Y-11340476D01*
X286065476Y-11030952D01*
X286003571Y-10907142D01*
X285941666Y-10845238D01*
X285817857Y-10783333D01*
X285570238Y-10783333D01*
X285446428Y-10845238D01*
X285384523Y-10907142D01*
X285322619Y-11030952D01*
D10*
D11*
X60000000Y-198007200D02*
X60000000Y-200007200D01*
D10*
D11*
X110000000Y-198007200D02*
X110000000Y-200007200D01*
D10*
D11*
X160000000Y-198007200D02*
X160000000Y-200007200D01*
D10*
D11*
X210000000Y-198007200D02*
X210000000Y-200007200D01*
D10*
D11*
X260000000Y-198007200D02*
X260000000Y-200007200D01*
D10*
D11*
X36065476Y-199595295D02*
X35322619Y-199595295D01*
X35694047Y-199595295D02*
X35694047Y-198295295D01*
X35570238Y-198481009D01*
X35446428Y-198604819D01*
X35322619Y-198666723D01*
D10*
D11*
X85322619Y-198419104D02*
X85384523Y-198357200D01*
X85508333Y-198295295D01*
X85817857Y-198295295D01*
X85941666Y-198357200D01*
X86003571Y-198419104D01*
X86065476Y-198542914D01*
X86065476Y-198666723D01*
X86003571Y-198852438D01*
X85260714Y-199595295D01*
X86065476Y-199595295D01*
D10*
D11*
X135260714Y-198295295D02*
X136065476Y-198295295D01*
X135632142Y-198790533D01*
X135817857Y-198790533D01*
X135941666Y-198852438D01*
X136003571Y-198914342D01*
X136065476Y-199038152D01*
X136065476Y-199347676D01*
X136003571Y-199471485D01*
X135941666Y-199533390D01*
X135817857Y-199595295D01*
X135446428Y-199595295D01*
X135322619Y-199533390D01*
X135260714Y-199471485D01*
D10*
D11*
X185941666Y-198728628D02*
X185941666Y-199595295D01*
X185632142Y-198233390D02*
X185322619Y-199161961D01*
X186127380Y-199161961D01*
D10*
D11*
X236003571Y-198295295D02*
X235384523Y-198295295D01*
X235322619Y-198914342D01*
X235384523Y-198852438D01*
X235508333Y-198790533D01*
X235817857Y-198790533D01*
X235941666Y-198852438D01*
X236003571Y-198914342D01*
X236065476Y-199038152D01*
X236065476Y-199347676D01*
X236003571Y-199471485D01*
X235941666Y-199533390D01*
X235817857Y-199595295D01*
X235508333Y-199595295D01*
X235384523Y-199533390D01*
X235322619Y-199471485D01*
D10*
D11*
X285941666Y-198295295D02*
X285694047Y-198295295D01*
X285570238Y-198357200D01*
X285508333Y-198419104D01*
X285384523Y-198604819D01*
X285322619Y-198852438D01*
X285322619Y-199347676D01*
X285384523Y-199471485D01*
X285446428Y-199533390D01*
X285570238Y-199595295D01*
X285817857Y-199595295D01*
X285941666Y-199533390D01*
X286003571Y-199471485D01*
X286065476Y-199347676D01*
X286065476Y-199038152D01*
X286003571Y-198914342D01*
X285941666Y-198852438D01*
X285817857Y-198790533D01*
X285570238Y-198790533D01*
X285446428Y-198852438D01*
X285384523Y-198914342D01*
X285322619Y-199038152D01*
D10*
D11*
X10000000Y-60000000D02*
X12000000Y-60000000D01*
D10*
D11*
X10000000Y-110000000D02*
X12000000Y-110000000D01*
D10*
D11*
X10000000Y-160000000D02*
X12000000Y-160000000D01*
D10*
D11*
X10690476Y-35216666D02*
X11309523Y-35216666D01*
X10566666Y-35588095D02*
X11000000Y-34288095D01*
X11433333Y-35588095D01*
D10*
D11*
X11092857Y-84907142D02*
X11278571Y-84969047D01*
X11340476Y-85030952D01*
X11402380Y-85154761D01*
X11402380Y-85340476D01*
X11340476Y-85464285D01*
X11278571Y-85526190D01*
X11154761Y-85588095D01*
X10659523Y-85588095D01*
X10659523Y-84288095D01*
X11092857Y-84288095D01*
X11216666Y-84350000D01*
X11278571Y-84411904D01*
X11340476Y-84535714D01*
X11340476Y-84659523D01*
X11278571Y-84783333D01*
X11216666Y-84845238D01*
X11092857Y-84907142D01*
X10659523Y-84907142D01*
D10*
D11*
X11402380Y-135464285D02*
X11340476Y-135526190D01*
X11154761Y-135588095D01*
X11030952Y-135588095D01*
X10845238Y-135526190D01*
X10721428Y-135402380D01*
X10659523Y-135278571D01*
X10597619Y-135030952D01*
X10597619Y-134845238D01*
X10659523Y-134597619D01*
X10721428Y-134473809D01*
X10845238Y-134350000D01*
X11030952Y-134288095D01*
X11154761Y-134288095D01*
X11340476Y-134350000D01*
X11402380Y-134411904D01*
D10*
D11*
X10659523Y-185588095D02*
X10659523Y-184288095D01*
X10969047Y-184288095D01*
X11154761Y-184350000D01*
X11278571Y-184473809D01*
X11340476Y-184597619D01*
X11402380Y-184845238D01*
X11402380Y-185030952D01*
X11340476Y-185278571D01*
X11278571Y-185402380D01*
X11154761Y-185526190D01*
X10969047Y-185588095D01*
X10659523Y-185588095D01*
D10*
D11*
X287002200Y-60000000D02*
X285002200Y-60000000D01*
D10*
D11*
X287002200Y-110000000D02*
X285002200Y-110000000D01*
D10*
D11*
X287002200Y-160000000D02*
X285002200Y-160000000D01*
D10*
D11*
X285692676Y-35216666D02*
X286311723Y-35216666D01*
X285568866Y-35588095D02*
X286002200Y-34288095D01*
X286435533Y-35588095D01*
D10*
D11*
X286095057Y-84907142D02*
X286280771Y-84969047D01*
X286342676Y-85030952D01*
X286404580Y-85154761D01*
X286404580Y-85340476D01*
X286342676Y-85464285D01*
X286280771Y-85526190D01*
X286156961Y-85588095D01*
X285661723Y-85588095D01*
X285661723Y-84288095D01*
X286095057Y-84288095D01*
X286218866Y-84350000D01*
X286280771Y-84411904D01*
X286342676Y-84535714D01*
X286342676Y-84659523D01*
X286280771Y-84783333D01*
X286218866Y-84845238D01*
X286095057Y-84907142D01*
X285661723Y-84907142D01*
D10*
D11*
X286404580Y-135464285D02*
X286342676Y-135526190D01*
X286156961Y-135588095D01*
X286033152Y-135588095D01*
X285847438Y-135526190D01*
X285723628Y-135402380D01*
X285661723Y-135278571D01*
X285599819Y-135030952D01*
X285599819Y-134845238D01*
X285661723Y-134597619D01*
X285723628Y-134473809D01*
X285847438Y-134350000D01*
X286033152Y-134288095D01*
X286156961Y-134288095D01*
X286342676Y-134350000D01*
X286404580Y-134411904D01*
D10*
D11*
X285661723Y-185588095D02*
X285661723Y-184288095D01*
X285971247Y-184288095D01*
X286156961Y-184350000D01*
X286280771Y-184473809D01*
X286342676Y-184597619D01*
X286404580Y-184845238D01*
X286404580Y-185030952D01*
X286342676Y-185278571D01*
X286280771Y-185402380D01*
X286156961Y-185526190D01*
X285971247Y-185588095D01*
X285661723Y-185588095D01*
D10*
D11*
X200434342Y-193785771D02*
X200434342Y-192285771D01*
X200791485Y-192285771D01*
X201005771Y-192357200D01*
X201148628Y-192500057D01*
X201220057Y-192642914D01*
X201291485Y-192928628D01*
X201291485Y-193142914D01*
X201220057Y-193428628D01*
X201148628Y-193571485D01*
X201005771Y-193714342D01*
X200791485Y-193785771D01*
X200434342Y-193785771D01*
X202577200Y-193785771D02*
X202577200Y-193000057D01*
X202505771Y-192857200D01*
X202362914Y-192785771D01*
X202077200Y-192785771D01*
X201934342Y-192857200D01*
X202577200Y-193714342D02*
X202434342Y-193785771D01*
X202077200Y-193785771D01*
X201934342Y-193714342D01*
X201862914Y-193571485D01*
X201862914Y-193428628D01*
X201934342Y-193285771D01*
X202077200Y-193214342D01*
X202434342Y-193214342D01*
X202577200Y-193142914D01*
X203077200Y-192785771D02*
X203648628Y-192785771D01*
X203291485Y-192285771D02*
X203291485Y-193571485D01*
X203362914Y-193714342D01*
X203505771Y-193785771D01*
X203648628Y-193785771D01*
X204720057Y-193714342D02*
X204577200Y-193785771D01*
X204291485Y-193785771D01*
X204148628Y-193714342D01*
X204077200Y-193571485D01*
X204077200Y-193000057D01*
X204148628Y-192857200D01*
X204291485Y-192785771D01*
X204577200Y-192785771D01*
X204720057Y-192857200D01*
X204791485Y-193000057D01*
X204791485Y-193142914D01*
X204077200Y-193285771D01*
X205434342Y-193642914D02*
X205505771Y-193714342D01*
X205434342Y-193785771D01*
X205362914Y-193714342D01*
X205434342Y-193642914D01*
X205434342Y-193785771D01*
X205434342Y-192857200D02*
X205505771Y-192928628D01*
X205434342Y-193000057D01*
X205362914Y-192928628D01*
X205434342Y-192857200D01*
X205434342Y-193000057D01*
X207220057Y-192428628D02*
X207291485Y-192357200D01*
X207434342Y-192285771D01*
X207791485Y-192285771D01*
X207934342Y-192357200D01*
X208005771Y-192428628D01*
X208077200Y-192571485D01*
X208077200Y-192714342D01*
X208005771Y-192928628D01*
X207148628Y-193785771D01*
X208077200Y-193785771D01*
X209005771Y-192285771D02*
X209148628Y-192285771D01*
X209291485Y-192357200D01*
X209362914Y-192428628D01*
X209434342Y-192571485D01*
X209505771Y-192857200D01*
X209505771Y-193214342D01*
X209434342Y-193500057D01*
X209362914Y-193642914D01*
X209291485Y-193714342D01*
X209148628Y-193785771D01*
X209005771Y-193785771D01*
X208862914Y-193714342D01*
X208791485Y-193642914D01*
X208720057Y-193500057D01*
X208648628Y-193214342D01*
X208648628Y-192857200D01*
X208720057Y-192571485D01*
X208791485Y-192428628D01*
X208862914Y-192357200D01*
X209005771Y-192285771D01*
X210077200Y-192428628D02*
X210148628Y-192357200D01*
X210291485Y-192285771D01*
X210648628Y-192285771D01*
X210791485Y-192357200D01*
X210862914Y-192428628D01*
X210934342Y-192571485D01*
X210934342Y-192714342D01*
X210862914Y-192928628D01*
X210005771Y-193785771D01*
X210934342Y-193785771D01*
X212362914Y-193785771D02*
X211505771Y-193785771D01*
X211934342Y-193785771D02*
X211934342Y-192285771D01*
X211791485Y-192500057D01*
X211648628Y-192642914D01*
X211505771Y-192714342D01*
X213005771Y-193214342D02*
X214148628Y-193214342D01*
X215648628Y-193785771D02*
X214791485Y-193785771D01*
X215220057Y-193785771D02*
X215220057Y-192285771D01*
X215077200Y-192500057D01*
X214934342Y-192642914D01*
X214791485Y-192714342D01*
X217077200Y-193785771D02*
X216220057Y-193785771D01*
X216648628Y-193785771D02*
X216648628Y-192285771D01*
X216505771Y-192500057D01*
X216362914Y-192642914D01*
X216220057Y-192714342D01*
X217720057Y-193214342D02*
X218862914Y-193214342D01*
X220362914Y-193785771D02*
X219505771Y-193785771D01*
X219934342Y-193785771D02*
X219934342Y-192285771D01*
X219791485Y-192500057D01*
X219648628Y-192642914D01*
X219505771Y-192714342D01*
X221648628Y-192785771D02*
X221648628Y-193785771D01*
X221291485Y-192214342D02*
X220934342Y-193285771D01*
X221862914Y-193285771D01*
D10*
D11*
X177002200Y-194507200D02*
X285002200Y-194507200D01*
D10*
D11*
X178434342Y-196585771D02*
X178434342Y-195085771D01*
X179291485Y-196585771D02*
X178648628Y-195728628D01*
X179291485Y-195085771D02*
X178434342Y-195942914D01*
X179934342Y-196585771D02*
X179934342Y-195585771D01*
X179934342Y-195085771D02*
X179862914Y-195157200D01*
X179934342Y-195228628D01*
X180005771Y-195157200D01*
X179934342Y-195085771D01*
X179934342Y-195228628D01*
X181505771Y-196442914D02*
X181434342Y-196514342D01*
X181220057Y-196585771D01*
X181077200Y-196585771D01*
X180862914Y-196514342D01*
X180720057Y-196371485D01*
X180648628Y-196228628D01*
X180577200Y-195942914D01*
X180577200Y-195728628D01*
X180648628Y-195442914D01*
X180720057Y-195300057D01*
X180862914Y-195157200D01*
X181077200Y-195085771D01*
X181220057Y-195085771D01*
X181434342Y-195157200D01*
X181505771Y-195228628D01*
X182791485Y-196585771D02*
X182791485Y-195800057D01*
X182720057Y-195657200D01*
X182577200Y-195585771D01*
X182291485Y-195585771D01*
X182148628Y-195657200D01*
X182791485Y-196514342D02*
X182648628Y-196585771D01*
X182291485Y-196585771D01*
X182148628Y-196514342D01*
X182077200Y-196371485D01*
X182077200Y-196228628D01*
X182148628Y-196085771D01*
X182291485Y-196014342D01*
X182648628Y-196014342D01*
X182791485Y-195942914D01*
X184148628Y-196585771D02*
X184148628Y-195085771D01*
X184148628Y-196514342D02*
X184005771Y-196585771D01*
X183720057Y-196585771D01*
X183577200Y-196514342D01*
X183505771Y-196442914D01*
X183434342Y-196300057D01*
X183434342Y-195871485D01*
X183505771Y-195728628D01*
X183577200Y-195657200D01*
X183720057Y-195585771D01*
X184005771Y-195585771D01*
X184148628Y-195657200D01*
X186005771Y-195800057D02*
X186505771Y-195800057D01*
X186720057Y-196585771D02*
X186005771Y-196585771D01*
X186005771Y-195085771D01*
X186720057Y-195085771D01*
X187362914Y-196442914D02*
X187434342Y-196514342D01*
X187362914Y-196585771D01*
X187291485Y-196514342D01*
X187362914Y-196442914D01*
X187362914Y-196585771D01*
X188077200Y-196585771D02*
X188077200Y-195085771D01*
X188434342Y-195085771D01*
X188648628Y-195157200D01*
X188791485Y-195300057D01*
X188862914Y-195442914D01*
X188934342Y-195728628D01*
X188934342Y-195942914D01*
X188862914Y-196228628D01*
X188791485Y-196371485D01*
X188648628Y-196514342D01*
X188434342Y-196585771D01*
X188077200Y-196585771D01*
X189577200Y-196442914D02*
X189648628Y-196514342D01*
X189577200Y-196585771D01*
X189505771Y-196514342D01*
X189577200Y-196442914D01*
X189577200Y-196585771D01*
X190220057Y-196157200D02*
X190934342Y-196157200D01*
X190077200Y-196585771D02*
X190577200Y-195085771D01*
X191077200Y-196585771D01*
X191577200Y-196442914D02*
X191648628Y-196514342D01*
X191577200Y-196585771D01*
X191505771Y-196514342D01*
X191577200Y-196442914D01*
X191577200Y-196585771D01*
X194577200Y-196585771D02*
X194577200Y-195085771D01*
X194720057Y-196014342D02*
X195148628Y-196585771D01*
X195148628Y-195585771D02*
X194577200Y-196157200D01*
X195791485Y-196585771D02*
X195791485Y-195585771D01*
X195791485Y-195085771D02*
X195720057Y-195157200D01*
X195791485Y-195228628D01*
X195862914Y-195157200D01*
X195791485Y-195085771D01*
X195791485Y-195228628D01*
X197148628Y-196514342D02*
X197005771Y-196585771D01*
X196720057Y-196585771D01*
X196577200Y-196514342D01*
X196505771Y-196442914D01*
X196434342Y-196300057D01*
X196434342Y-195871485D01*
X196505771Y-195728628D01*
X196577200Y-195657200D01*
X196720057Y-195585771D01*
X197005771Y-195585771D01*
X197148628Y-195657200D01*
X198434342Y-196585771D02*
X198434342Y-195800057D01*
X198362914Y-195657200D01*
X198220057Y-195585771D01*
X197934342Y-195585771D01*
X197791485Y-195657200D01*
X198434342Y-196514342D02*
X198291485Y-196585771D01*
X197934342Y-196585771D01*
X197791485Y-196514342D01*
X197720057Y-196371485D01*
X197720057Y-196228628D01*
X197791485Y-196085771D01*
X197934342Y-196014342D01*
X198291485Y-196014342D01*
X198434342Y-195942914D01*
X199791485Y-196585771D02*
X199791485Y-195085771D01*
X199791485Y-196514342D02*
X199648628Y-196585771D01*
X199362914Y-196585771D01*
X199220057Y-196514342D01*
X199148628Y-196442914D01*
X199077200Y-196300057D01*
X199077200Y-195871485D01*
X199148628Y-195728628D01*
X199220057Y-195657200D01*
X199362914Y-195585771D01*
X199648628Y-195585771D01*
X199791485Y-195657200D01*
X202362914Y-195085771D02*
X201648628Y-195085771D01*
X201577200Y-195800057D01*
X201648628Y-195728628D01*
X201791485Y-195657200D01*
X202148628Y-195657200D01*
X202291485Y-195728628D01*
X202362914Y-195800057D01*
X202434342Y-195942914D01*
X202434342Y-196300057D01*
X202362914Y-196442914D01*
X202291485Y-196514342D01*
X202148628Y-196585771D01*
X201791485Y-196585771D01*
X201648628Y-196514342D01*
X201577200Y-196442914D01*
X203077200Y-196442914D02*
X203148628Y-196514342D01*
X203077200Y-196585771D01*
X203005771Y-196514342D01*
X203077200Y-196442914D01*
X203077200Y-196585771D01*
X204577200Y-196585771D02*
X203720057Y-196585771D01*
X204148628Y-196585771D02*
X204148628Y-195085771D01*
X204005771Y-195300057D01*
X203862914Y-195442914D01*
X203720057Y-195514342D01*
X205220057Y-196442914D02*
X205291485Y-196514342D01*
X205220057Y-196585771D01*
X205148628Y-196514342D01*
X205220057Y-196442914D01*
X205220057Y-196585771D01*
X206720057Y-196585771D02*
X205862914Y-196585771D01*
X206291485Y-196585771D02*
X206291485Y-195085771D01*
X206148628Y-195300057D01*
X206005771Y-195442914D01*
X205862914Y-195514342D01*
X207291485Y-195228628D02*
X207362914Y-195157200D01*
X207505771Y-195085771D01*
X207862914Y-195085771D01*
X208005771Y-195157200D01*
X208077200Y-195228628D01*
X208148628Y-195371485D01*
X208148628Y-195514342D01*
X208077200Y-195728628D01*
X207220057Y-196585771D01*
X208148628Y-196585771D01*
X208791485Y-196014342D02*
X209934342Y-196014342D01*
X210862914Y-195728628D02*
X210720057Y-195657200D01*
X210648628Y-195585771D01*
X210577200Y-195442914D01*
X210577200Y-195371485D01*
X210648628Y-195228628D01*
X210720057Y-195157200D01*
X210862914Y-195085771D01*
X211148628Y-195085771D01*
X211291485Y-195157200D01*
X211362914Y-195228628D01*
X211434342Y-195371485D01*
X211434342Y-195442914D01*
X211362914Y-195585771D01*
X211291485Y-195657200D01*
X211148628Y-195728628D01*
X210862914Y-195728628D01*
X210720057Y-195800057D01*
X210648628Y-195871485D01*
X210577200Y-196014342D01*
X210577200Y-196300057D01*
X210648628Y-196442914D01*
X210720057Y-196514342D01*
X210862914Y-196585771D01*
X211148628Y-196585771D01*
X211291485Y-196514342D01*
X211362914Y-196442914D01*
X211434342Y-196300057D01*
X211434342Y-196014342D01*
X211362914Y-195871485D01*
X211291485Y-195800057D01*
X211148628Y-195728628D01*
X212720057Y-195585771D02*
X212720057Y-196585771D01*
X212362914Y-195014342D02*
X212005771Y-196085771D01*
X212934342Y-196085771D01*
X214148628Y-196585771D02*
X214148628Y-195800057D01*
X214077200Y-195657200D01*
X213934342Y-195585771D01*
X213648628Y-195585771D01*
X213505771Y-195657200D01*
X214148628Y-196514342D02*
X214005771Y-196585771D01*
X213648628Y-196585771D01*
X213505771Y-196514342D01*
X213434342Y-196371485D01*
X213434342Y-196228628D01*
X213505771Y-196085771D01*
X213648628Y-196014342D01*
X214005771Y-196014342D01*
X214148628Y-195942914D01*
X215505771Y-196585771D02*
X215505771Y-195085771D01*
X215505771Y-196514342D02*
X215362914Y-196585771D01*
X215077200Y-196585771D01*
X214934342Y-196514342D01*
X214862914Y-196442914D01*
X214791485Y-196300057D01*
X214791485Y-195871485D01*
X214862914Y-195728628D01*
X214934342Y-195657200D01*
X215077200Y-195585771D01*
X215362914Y-195585771D01*
X215505771Y-195657200D01*
X216434342Y-195728628D02*
X216291485Y-195657200D01*
X216220057Y-195585771D01*
X216148628Y-195442914D01*
X216148628Y-195371485D01*
X216220057Y-195228628D01*
X216291485Y-195157200D01*
X216434342Y-195085771D01*
X216720057Y-195085771D01*
X216862914Y-195157200D01*
X216934342Y-195228628D01*
X217005771Y-195371485D01*
X217005771Y-195442914D01*
X216934342Y-195585771D01*
X216862914Y-195657200D01*
X216720057Y-195728628D01*
X216434342Y-195728628D01*
X216291485Y-195800057D01*
X216220057Y-195871485D01*
X216148628Y-196014342D01*
X216148628Y-196300057D01*
X216220057Y-196442914D01*
X216291485Y-196514342D01*
X216434342Y-196585771D01*
X216720057Y-196585771D01*
X216862914Y-196514342D01*
X216934342Y-196442914D01*
X217005771Y-196300057D01*
X217005771Y-196014342D01*
X216934342Y-195871485D01*
X216862914Y-195800057D01*
X216720057Y-195728628D01*
X218220057Y-196514342D02*
X218077200Y-196585771D01*
X217791485Y-196585771D01*
X217648628Y-196514342D01*
X217577200Y-196371485D01*
X217577200Y-195800057D01*
X217648628Y-195657200D01*
X217791485Y-195585771D01*
X218077200Y-195585771D01*
X218220057Y-195657200D01*
X218291485Y-195800057D01*
X218291485Y-195942914D01*
X217577200Y-196085771D01*
X219148628Y-195728628D02*
X219005771Y-195657200D01*
X218934342Y-195585771D01*
X218862914Y-195442914D01*
X218862914Y-195371485D01*
X218934342Y-195228628D01*
X219005771Y-195157200D01*
X219148628Y-195085771D01*
X219434342Y-195085771D01*
X219577200Y-195157200D01*
X219648628Y-195228628D01*
X219720057Y-195371485D01*
X219720057Y-195442914D01*
X219648628Y-195585771D01*
X219577200Y-195657200D01*
X219434342Y-195728628D01*
X219148628Y-195728628D01*
X219005771Y-195800057D01*
X218934342Y-195871485D01*
X218862914Y-196014342D01*
X218862914Y-196300057D01*
X218934342Y-196442914D01*
X219005771Y-196514342D01*
X219148628Y-196585771D01*
X219434342Y-196585771D01*
X219577200Y-196514342D01*
X219648628Y-196442914D01*
X219720057Y-196300057D01*
X219720057Y-196014342D01*
X219648628Y-195871485D01*
X219577200Y-195800057D01*
X219434342Y-195728628D01*
X221005771Y-196585771D02*
X221005771Y-195800057D01*
X220934342Y-195657200D01*
X220791485Y-195585771D01*
X220505771Y-195585771D01*
X220362914Y-195657200D01*
X221005771Y-196514342D02*
X220862914Y-196585771D01*
X220505771Y-196585771D01*
X220362914Y-196514342D01*
X220291485Y-196371485D01*
X220291485Y-196228628D01*
X220362914Y-196085771D01*
X220505771Y-196014342D01*
X220862914Y-196014342D01*
X221005771Y-195942914D01*
X221934342Y-195728628D02*
X221791485Y-195657200D01*
X221720057Y-195585771D01*
X221648628Y-195442914D01*
X221648628Y-195371485D01*
X221720057Y-195228628D01*
X221791485Y-195157200D01*
X221934342Y-195085771D01*
X222220057Y-195085771D01*
X222362914Y-195157200D01*
X222434342Y-195228628D01*
X222505771Y-195371485D01*
X222505771Y-195442914D01*
X222434342Y-195585771D01*
X222362914Y-195657200D01*
X222220057Y-195728628D01*
X221934342Y-195728628D01*
X221791485Y-195800057D01*
X221720057Y-195871485D01*
X221648628Y-196014342D01*
X221648628Y-196300057D01*
X221720057Y-196442914D01*
X221791485Y-196514342D01*
X221934342Y-196585771D01*
X222220057Y-196585771D01*
X222362914Y-196514342D01*
X222434342Y-196442914D01*
X222505771Y-196300057D01*
X222505771Y-196014342D01*
X222434342Y-195871485D01*
X222362914Y-195800057D01*
X222220057Y-195728628D01*
X223791485Y-195085771D02*
X223505771Y-195085771D01*
X223362914Y-195157200D01*
X223291485Y-195228628D01*
X223148628Y-195442914D01*
X223077200Y-195728628D01*
X223077200Y-196300057D01*
X223148628Y-196442914D01*
X223220057Y-196514342D01*
X223362914Y-196585771D01*
X223648628Y-196585771D01*
X223791485Y-196514342D01*
X223862914Y-196442914D01*
X223934342Y-196300057D01*
X223934342Y-195942914D01*
X223862914Y-195800057D01*
X223791485Y-195728628D01*
X223648628Y-195657200D01*
X223362914Y-195657200D01*
X223220057Y-195728628D01*
X223148628Y-195800057D01*
X223077200Y-195942914D01*
X224220057Y-194677200D02*
X225648628Y-194677200D01*
X224648628Y-196585771D02*
X224934342Y-196585771D01*
X225077200Y-196514342D01*
X225148628Y-196442914D01*
X225291485Y-196228628D01*
X225362914Y-195942914D01*
X225362914Y-195371485D01*
X225291485Y-195228628D01*
X225220057Y-195157200D01*
X225077200Y-195085771D01*
X224791485Y-195085771D01*
X224648628Y-195157200D01*
X224577200Y-195228628D01*
X224505771Y-195371485D01*
X224505771Y-195728628D01*
X224577200Y-195871485D01*
X224648628Y-195942914D01*
X224791485Y-196014342D01*
X225077200Y-196014342D01*
X225220057Y-195942914D01*
X225291485Y-195871485D01*
X225362914Y-195728628D01*
X225648628Y-194677200D02*
X227077199Y-194677200D01*
X225934342Y-195228628D02*
X226005771Y-195157200D01*
X226148628Y-195085771D01*
X226505771Y-195085771D01*
X226648628Y-195157200D01*
X226720057Y-195228628D01*
X226791485Y-195371485D01*
X226791485Y-195514342D01*
X226720057Y-195728628D01*
X225862914Y-196585771D01*
X226791485Y-196585771D01*
X228077199Y-195585771D02*
X228077199Y-196585771D01*
X227434342Y-195585771D02*
X227434342Y-196371485D01*
X227505771Y-196514342D01*
X227648628Y-196585771D01*
X227862914Y-196585771D01*
X228005771Y-196514342D01*
X228077199Y-196442914D01*
X228791485Y-196585771D02*
X228791485Y-195085771D01*
X228791485Y-195657200D02*
X228934342Y-195585771D01*
X229220057Y-195585771D01*
X229362914Y-195657200D01*
X229434342Y-195728628D01*
X229505771Y-195871485D01*
X229505771Y-196300057D01*
X229434342Y-196442914D01*
X229362914Y-196514342D01*
X229220057Y-196585771D01*
X228934342Y-196585771D01*
X228791485Y-196514342D01*
X230791485Y-195585771D02*
X230791485Y-196585771D01*
X230148628Y-195585771D02*
X230148628Y-196371485D01*
X230220057Y-196514342D01*
X230362914Y-196585771D01*
X230577199Y-196585771D01*
X230720057Y-196514342D01*
X230791485Y-196442914D01*
X231505771Y-195585771D02*
X231505771Y-196585771D01*
X231505771Y-195728628D02*
X231577199Y-195657200D01*
X231720057Y-195585771D01*
X231934342Y-195585771D01*
X232077199Y-195657200D01*
X232148628Y-195800057D01*
X232148628Y-196585771D01*
X232648628Y-195585771D02*
X233220057Y-195585771D01*
X232862914Y-195085771D02*
X232862914Y-196371485D01*
X232934342Y-196514342D01*
X233077200Y-196585771D01*
X233220057Y-196585771D01*
X234362914Y-195585771D02*
X234362914Y-196585771D01*
X233720057Y-195585771D02*
X233720057Y-196371485D01*
X233791485Y-196514342D01*
X233934342Y-196585771D01*
X234148628Y-196585771D01*
X234291485Y-196514342D01*
X234362914Y-196442914D01*
X235862914Y-196585771D02*
X235005771Y-196585771D01*
X235434342Y-196585771D02*
X235434342Y-195085771D01*
X235291485Y-195300057D01*
X235148628Y-195442914D01*
X235005771Y-195514342D01*
X237148628Y-195085771D02*
X236862914Y-195085771D01*
X236720057Y-195157200D01*
X236648628Y-195228628D01*
X236505771Y-195442914D01*
X236434342Y-195728628D01*
X236434342Y-196300057D01*
X236505771Y-196442914D01*
X236577199Y-196514342D01*
X236720057Y-196585771D01*
X237005771Y-196585771D01*
X237148628Y-196514342D01*
X237220057Y-196442914D01*
X237291485Y-196300057D01*
X237291485Y-195942914D01*
X237220057Y-195800057D01*
X237148628Y-195728628D01*
X237005771Y-195657200D01*
X236720057Y-195657200D01*
X236577199Y-195728628D01*
X236505771Y-195800057D01*
X236434342Y-195942914D01*
X237934342Y-196442914D02*
X238005771Y-196514342D01*
X237934342Y-196585771D01*
X237862914Y-196514342D01*
X237934342Y-196442914D01*
X237934342Y-196585771D01*
X238934342Y-195085771D02*
X239077199Y-195085771D01*
X239220057Y-195157200D01*
X239291485Y-195228628D01*
X239362914Y-195371485D01*
X239434342Y-195657200D01*
X239434342Y-196014342D01*
X239362914Y-196300057D01*
X239291485Y-196442914D01*
X239220057Y-196514342D01*
X239077199Y-196585771D01*
X238934342Y-196585771D01*
X238791485Y-196514342D01*
X238720057Y-196442914D01*
X238648628Y-196300057D01*
X238577199Y-196014342D01*
X238577199Y-195657200D01*
X238648628Y-195371485D01*
X238720057Y-195228628D01*
X238791485Y-195157200D01*
X238934342Y-195085771D01*
X240720057Y-195585771D02*
X240720057Y-196585771D01*
X240362914Y-195014342D02*
X240005771Y-196085771D01*
X240934342Y-196085771D01*
X241505771Y-196442914D02*
X241577199Y-196514342D01*
X241505771Y-196585771D01*
X241434342Y-196514342D01*
X241505771Y-196442914D01*
X241505771Y-196585771D01*
X243005771Y-196585771D02*
X242148628Y-196585771D01*
X242577199Y-196585771D02*
X242577199Y-195085771D01*
X242434342Y-195300057D01*
X242291485Y-195442914D01*
X242148628Y-195514342D01*
D10*
D11*
X177002200Y-191507200D02*
X285002200Y-191507200D01*
D10*
D12*
X264411485Y-193785771D02*
X263911485Y-193071485D01*
X263554342Y-193785771D02*
X263554342Y-192285771D01*
X264125771Y-192285771D01*
X264268628Y-192357200D01*
X264340057Y-192428628D01*
X264411485Y-192571485D01*
X264411485Y-192785771D01*
X264340057Y-192928628D01*
X264268628Y-193000057D01*
X264125771Y-193071485D01*
X263554342Y-193071485D01*
X265625771Y-193714342D02*
X265482914Y-193785771D01*
X265197200Y-193785771D01*
X265054342Y-193714342D01*
X264982914Y-193571485D01*
X264982914Y-193000057D01*
X265054342Y-192857200D01*
X265197200Y-192785771D01*
X265482914Y-192785771D01*
X265625771Y-192857200D01*
X265697200Y-193000057D01*
X265697200Y-193142914D01*
X264982914Y-193285771D01*
X266197200Y-192785771D02*
X266554342Y-193785771D01*
X266911485Y-192785771D01*
X267482914Y-193642914D02*
X267554342Y-193714342D01*
X267482914Y-193785771D01*
X267411485Y-193714342D01*
X267482914Y-193642914D01*
X267482914Y-193785771D01*
X267482914Y-192857200D02*
X267554342Y-192928628D01*
X267482914Y-193000057D01*
X267411485Y-192928628D01*
X267482914Y-192857200D01*
X267482914Y-193000057D01*
X270125771Y-193785771D02*
X269268628Y-193785771D01*
X269697200Y-193785771D02*
X269697200Y-192285771D01*
X269554342Y-192500057D01*
X269411485Y-192642914D01*
X269268628Y-192714342D01*
D10*
D11*
X178362914Y-193714342D02*
X178577200Y-193785771D01*
X178934342Y-193785771D01*
X179077200Y-193714342D01*
X179148628Y-193642914D01*
X179220057Y-193500057D01*
X179220057Y-193357200D01*
X179148628Y-193214342D01*
X179077200Y-193142914D01*
X178934342Y-193071485D01*
X178648628Y-193000057D01*
X178505771Y-192928628D01*
X178434342Y-192857200D01*
X178362914Y-192714342D01*
X178362914Y-192571485D01*
X178434342Y-192428628D01*
X178505771Y-192357200D01*
X178648628Y-192285771D01*
X179005771Y-192285771D01*
X179220057Y-192357200D01*
X179862914Y-193785771D02*
X179862914Y-192785771D01*
X179862914Y-192285771D02*
X179791485Y-192357200D01*
X179862914Y-192428628D01*
X179934342Y-192357200D01*
X179862914Y-192285771D01*
X179862914Y-192428628D01*
X180434342Y-192785771D02*
X181220057Y-192785771D01*
X180434342Y-193785771D01*
X181220057Y-193785771D01*
X182362914Y-193714342D02*
X182220057Y-193785771D01*
X181934342Y-193785771D01*
X181791485Y-193714342D01*
X181720057Y-193571485D01*
X181720057Y-193000057D01*
X181791485Y-192857200D01*
X181934342Y-192785771D01*
X182220057Y-192785771D01*
X182362914Y-192857200D01*
X182434342Y-193000057D01*
X182434342Y-193142914D01*
X181720057Y-193285771D01*
X183077200Y-193642914D02*
X183148628Y-193714342D01*
X183077200Y-193785771D01*
X183005771Y-193714342D01*
X183077200Y-193642914D01*
X183077200Y-193785771D01*
X183077200Y-192857200D02*
X183148628Y-192928628D01*
X183077200Y-193000057D01*
X183005771Y-192928628D01*
X183077200Y-192857200D01*
X183077200Y-193000057D01*
X184862914Y-193357200D02*
X185577200Y-193357200D01*
X184720057Y-193785771D02*
X185220057Y-192285771D01*
X185720057Y-193785771D01*
X186862914Y-192785771D02*
X186862914Y-193785771D01*
X186505771Y-192214342D02*
X186148628Y-193285771D01*
X187077200Y-193285771D01*
D10*
D11*
X263434342Y-196585771D02*
X263434342Y-195085771D01*
X264791485Y-196585771D02*
X264791485Y-195085771D01*
X264791485Y-196514342D02*
X264648628Y-196585771D01*
X264362914Y-196585771D01*
X264220057Y-196514342D01*
X264148628Y-196442914D01*
X264077200Y-196300057D01*
X264077200Y-195871485D01*
X264148628Y-195728628D01*
X264220057Y-195657200D01*
X264362914Y-195585771D01*
X264648628Y-195585771D01*
X264791485Y-195657200D01*
X265505771Y-196442914D02*
X265577200Y-196514342D01*
X265505771Y-196585771D01*
X265434342Y-196514342D01*
X265505771Y-196442914D01*
X265505771Y-196585771D01*
X265505771Y-195657200D02*
X265577200Y-195728628D01*
X265505771Y-195800057D01*
X265434342Y-195728628D01*
X265505771Y-195657200D01*
X265505771Y-195800057D01*
X268148628Y-196585771D02*
X267291485Y-196585771D01*
X267720057Y-196585771D02*
X267720057Y-195085771D01*
X267577200Y-195300057D01*
X267434342Y-195442914D01*
X267291485Y-195514342D01*
X269862914Y-195014342D02*
X268577200Y-196942914D01*
X271148628Y-196585771D02*
X270291485Y-196585771D01*
X270720057Y-196585771D02*
X270720057Y-195085771D01*
X270577200Y-195300057D01*
X270434342Y-195442914D01*
X270291485Y-195514342D01*
D10*
D11*
X177002200Y-187507200D02*
X285002200Y-187507200D01*
D10*
D13*
X178714580Y-188211961D02*
X179857438Y-188211961D01*
X179036009Y-190211961D02*
X179286009Y-188211961D01*
X180274104Y-190211961D02*
X180440771Y-188878628D01*
X180524104Y-188211961D02*
X180416961Y-188307200D01*
X180500295Y-188402438D01*
X180607438Y-188307200D01*
X180524104Y-188211961D01*
X180500295Y-188402438D01*
X181107438Y-188878628D02*
X181869342Y-188878628D01*
X181476485Y-188211961D02*
X181262200Y-189926247D01*
X181333628Y-190116723D01*
X181512200Y-190211961D01*
X181702676Y-190211961D01*
X182655057Y-190211961D02*
X182476485Y-190116723D01*
X182405057Y-189926247D01*
X182619342Y-188211961D01*
X184190771Y-190116723D02*
X183988390Y-190211961D01*
X183607438Y-190211961D01*
X183428866Y-190116723D01*
X183357438Y-189926247D01*
X183452676Y-189164342D01*
X183571723Y-188973866D01*
X183774104Y-188878628D01*
X184155057Y-188878628D01*
X184333628Y-188973866D01*
X184405057Y-189164342D01*
X184381247Y-189354819D01*
X183405057Y-189545295D01*
X185155057Y-190021485D02*
X185238390Y-190116723D01*
X185131247Y-190211961D01*
X185047914Y-190116723D01*
X185155057Y-190021485D01*
X185131247Y-190211961D01*
X185286009Y-188973866D02*
X185369342Y-189069104D01*
X185262200Y-189164342D01*
X185178866Y-189069104D01*
X185286009Y-188973866D01*
X185262200Y-189164342D01*
X187607438Y-190211961D02*
X187857438Y-188211961D01*
X188345533Y-189640533D01*
X189190771Y-188211961D01*
X188940771Y-190211961D01*
X189869342Y-189640533D02*
X190821723Y-189640533D01*
X189607438Y-190211961D02*
X190524104Y-188211961D01*
X190940771Y-190211961D01*
X191666961Y-188211961D02*
X192750295Y-190211961D01*
X193000295Y-188211961D02*
X191416961Y-190211961D01*
X193571723Y-188211961D02*
X194905057Y-188211961D01*
X193797914Y-190211961D01*
X196464580Y-190211961D02*
X195321723Y-190211961D01*
X195893152Y-190211961D02*
X196143152Y-188211961D01*
X195916961Y-188497676D01*
X195702676Y-188688152D01*
X195500295Y-188783390D01*
X197381247Y-188211961D02*
X198619342Y-188211961D01*
X197857438Y-188973866D01*
X198143152Y-188973866D01*
X198321723Y-189069104D01*
X198405057Y-189164342D01*
X198476485Y-189354819D01*
X198416961Y-189831009D01*
X198297914Y-190021485D01*
X198190771Y-190116723D01*
X197988390Y-190211961D01*
X197416961Y-190211961D01*
X197238390Y-190116723D01*
X197155057Y-190021485D01*
X200750295Y-190211961D02*
X201000295Y-188211961D01*
X201893152Y-190211961D01*
X202143152Y-188211961D01*
X202845533Y-190211961D02*
X203012200Y-188878628D01*
X203095533Y-188211961D02*
X202988390Y-188307200D01*
X203071723Y-188402438D01*
X203178866Y-188307200D01*
X203095533Y-188211961D01*
X203071723Y-188402438D01*
X204964580Y-190021485D02*
X204857438Y-190116723D01*
X204559819Y-190211961D01*
X204369342Y-190211961D01*
X204095533Y-190116723D01*
X203928866Y-189926247D01*
X203857438Y-189735771D01*
X203809819Y-189354819D01*
X203845533Y-189069104D01*
X203988390Y-188688152D01*
X204107438Y-188497676D01*
X204321723Y-188307200D01*
X204619342Y-188211961D01*
X204809819Y-188211961D01*
X205083628Y-188307200D01*
X205166961Y-188402438D01*
X206655057Y-190211961D02*
X206905057Y-188211961D01*
X206666961Y-190116723D02*
X206464580Y-190211961D01*
X206083628Y-190211961D01*
X205905057Y-190116723D01*
X205821723Y-190021485D01*
X205750295Y-189831009D01*
X205821723Y-189259580D01*
X205940771Y-189069104D01*
X206047914Y-188973866D01*
X206250295Y-188878628D01*
X206631247Y-188878628D01*
X206809819Y-188973866D01*
X209297914Y-188116723D02*
X207262200Y-190688152D01*
X209702676Y-190211961D02*
X209952676Y-188211961D01*
X210845533Y-190211961D01*
X211095533Y-188211961D01*
X211797914Y-190211961D02*
X211964580Y-188878628D01*
X212047914Y-188211961D02*
X211940771Y-188307200D01*
X212024104Y-188402438D01*
X212131247Y-188307200D01*
X212047914Y-188211961D01*
X212024104Y-188402438D01*
X212750295Y-190211961D02*
X213000295Y-188211961D01*
X213488390Y-189640533D01*
X214333628Y-188211961D01*
X214083628Y-190211961D01*
X215036009Y-190211961D02*
X215286009Y-188211961D01*
X215166961Y-189164342D02*
X216309819Y-189164342D01*
X216178866Y-190211961D02*
X216428866Y-188211961D01*
X218655057Y-190211961D02*
X218905057Y-188211961D01*
X218809819Y-188973866D02*
X219012200Y-188878628D01*
X219393152Y-188878628D01*
X219571723Y-188973866D01*
X219655057Y-189069104D01*
X219726485Y-189259580D01*
X219655057Y-189831009D01*
X219536009Y-190021485D01*
X219428866Y-190116723D01*
X219226485Y-190211961D01*
X218845533Y-190211961D01*
X218666961Y-190116723D01*
X221321723Y-190211961D02*
X221452676Y-189164342D01*
X221381247Y-188973866D01*
X221202676Y-188878628D01*
X220821723Y-188878628D01*
X220619342Y-188973866D01*
X221333628Y-190116723D02*
X221131247Y-190211961D01*
X220655057Y-190211961D01*
X220476485Y-190116723D01*
X220405057Y-189926247D01*
X220428866Y-189735771D01*
X220547914Y-189545295D01*
X220750295Y-189450057D01*
X221226485Y-189450057D01*
X221428866Y-189354819D01*
X222155057Y-188878628D02*
X222916961Y-188878628D01*
X222524104Y-188211961D02*
X222309819Y-189926247D01*
X222381247Y-190116723D01*
X222559819Y-190211961D01*
X222750295Y-190211961D01*
X223297914Y-188878628D02*
X224059819Y-188878628D01*
X223666961Y-188211961D02*
X223452676Y-189926247D01*
X223524104Y-190116723D01*
X223702676Y-190211961D01*
X223893152Y-190211961D01*
X225333628Y-190116723D02*
X225131247Y-190211961D01*
X224750295Y-190211961D01*
X224571723Y-190116723D01*
X224500295Y-189926247D01*
X224595533Y-189164342D01*
X224714580Y-188973866D01*
X224916961Y-188878628D01*
X225297914Y-188878628D01*
X225476485Y-188973866D01*
X225547914Y-189164342D01*
X225524104Y-189354819D01*
X224547914Y-189545295D01*
X226274104Y-190211961D02*
X226440771Y-188878628D01*
X226393152Y-189259580D02*
X226512200Y-189069104D01*
X226619342Y-188973866D01*
X226821723Y-188878628D01*
X227012199Y-188878628D01*
X227488390Y-188878628D02*
X227797914Y-190211961D01*
X228440771Y-188878628D02*
X227797914Y-190211961D01*
X227547914Y-190688152D01*
X227440771Y-190783390D01*
X227238390Y-190878628D01*
X230440771Y-188878628D02*
X231202676Y-188878628D01*
X230559819Y-190211961D02*
X230774104Y-188497676D01*
X230893152Y-188307200D01*
X231095533Y-188211961D01*
X231286009Y-188211961D01*
X232559819Y-190211961D02*
X232690771Y-189164342D01*
X232619342Y-188973866D01*
X232440771Y-188878628D01*
X232059819Y-188878628D01*
X231857438Y-188973866D01*
X232571723Y-190116723D02*
X232369342Y-190211961D01*
X231893152Y-190211961D01*
X231714580Y-190116723D01*
X231643152Y-189926247D01*
X231666961Y-189735771D01*
X231786009Y-189545295D01*
X231988390Y-189450057D01*
X232464580Y-189450057D01*
X232666961Y-189354819D01*
X233428866Y-190116723D02*
X233607438Y-190211961D01*
X233988390Y-190211961D01*
X234190771Y-190116723D01*
X234309819Y-189926247D01*
X234321723Y-189831009D01*
X234250295Y-189640533D01*
X234071723Y-189545295D01*
X233786009Y-189545295D01*
X233607438Y-189450057D01*
X233536009Y-189259580D01*
X233547914Y-189164342D01*
X233666961Y-188973866D01*
X233869342Y-188878628D01*
X234155057Y-188878628D01*
X234333628Y-188973866D01*
X235012199Y-188878628D02*
X235774104Y-188878628D01*
X235381247Y-188211961D02*
X235166961Y-189926247D01*
X235238390Y-190116723D01*
X235416961Y-190211961D01*
X235607438Y-190211961D01*
X236369342Y-189450057D02*
X237893152Y-189450057D01*
X239619342Y-190116723D02*
X239416961Y-190211961D01*
X239036009Y-190211961D01*
X238857438Y-190116723D01*
X238774104Y-190021485D01*
X238702676Y-189831009D01*
X238774104Y-189259580D01*
X238893152Y-189069104D01*
X239000295Y-188973866D01*
X239202676Y-188878628D01*
X239583628Y-188878628D01*
X239762199Y-188973866D01*
X240464580Y-190211961D02*
X240714580Y-188211961D01*
X241321723Y-190211961D02*
X241452676Y-189164342D01*
X241381247Y-188973866D01*
X241202676Y-188878628D01*
X240916961Y-188878628D01*
X240714580Y-188973866D01*
X240607438Y-189069104D01*
X243131247Y-190211961D02*
X243262199Y-189164342D01*
X243190771Y-188973866D01*
X243012199Y-188878628D01*
X242631247Y-188878628D01*
X242428866Y-188973866D01*
X243143152Y-190116723D02*
X242940771Y-190211961D01*
X242464580Y-190211961D01*
X242286009Y-190116723D01*
X242214580Y-189926247D01*
X242238390Y-189735771D01*
X242357438Y-189545295D01*
X242559819Y-189450057D01*
X243036009Y-189450057D01*
X243238390Y-189354819D01*
X244083628Y-190211961D02*
X244250295Y-188878628D01*
X244202676Y-189259580D02*
X244321723Y-189069104D01*
X244428866Y-188973866D01*
X244631247Y-188878628D01*
X244821723Y-188878628D01*
X246345533Y-188878628D02*
X246143152Y-190497676D01*
X246024104Y-190688152D01*
X245916961Y-190783390D01*
X245714580Y-190878628D01*
X245428866Y-190878628D01*
X245250295Y-190783390D01*
X246190771Y-190116723D02*
X245988390Y-190211961D01*
X245607438Y-190211961D01*
X245428866Y-190116723D01*
X245345533Y-190021485D01*
X245274104Y-189831009D01*
X245345533Y-189259580D01*
X245464580Y-189069104D01*
X245571723Y-188973866D01*
X245774104Y-188878628D01*
X246155057Y-188878628D01*
X246333628Y-188973866D01*
X247905057Y-190116723D02*
X247702676Y-190211961D01*
X247321723Y-190211961D01*
X247143152Y-190116723D01*
X247071723Y-189926247D01*
X247166961Y-189164342D01*
X247286009Y-188973866D01*
X247488390Y-188878628D01*
X247869342Y-188878628D01*
X248047914Y-188973866D01*
X248119342Y-189164342D01*
X248095533Y-189354819D01*
X247119342Y-189545295D01*
X251238390Y-190116723D02*
X251036009Y-190211961D01*
X250655057Y-190211961D01*
X250476485Y-190116723D01*
X250393152Y-190021485D01*
X250321723Y-189831009D01*
X250393152Y-189259580D01*
X250512200Y-189069104D01*
X250619342Y-188973866D01*
X250821723Y-188878628D01*
X251202676Y-188878628D01*
X251381247Y-188973866D01*
X252369342Y-190211961D02*
X252190771Y-190116723D01*
X252107438Y-190021485D01*
X252036009Y-189831009D01*
X252107438Y-189259580D01*
X252226485Y-189069104D01*
X252333628Y-188973866D01*
X252536009Y-188878628D01*
X252821723Y-188878628D01*
X253000295Y-188973866D01*
X253083628Y-189069104D01*
X253155057Y-189259580D01*
X253083628Y-189831009D01*
X252964580Y-190021485D01*
X252857438Y-190116723D01*
X252655057Y-190211961D01*
X252369342Y-190211961D01*
X254059819Y-188878628D02*
X253893152Y-190211961D01*
X254036009Y-189069104D02*
X254143152Y-188973866D01*
X254345533Y-188878628D01*
X254631247Y-188878628D01*
X254809819Y-188973866D01*
X254881247Y-189164342D01*
X254750295Y-190211961D01*
X255583628Y-188878628D02*
X256345533Y-188878628D01*
X255952676Y-188211961D02*
X255738390Y-189926247D01*
X255809819Y-190116723D01*
X255988390Y-190211961D01*
X256178866Y-190211961D01*
X256845533Y-190211961D02*
X257012200Y-188878628D01*
X256964580Y-189259580D02*
X257083628Y-189069104D01*
X257190771Y-188973866D01*
X257393152Y-188878628D01*
X257583628Y-188878628D01*
X258369342Y-190211961D02*
X258190771Y-190116723D01*
X258107438Y-190021485D01*
X258036009Y-189831009D01*
X258107438Y-189259580D01*
X258226485Y-189069104D01*
X258333628Y-188973866D01*
X258536009Y-188878628D01*
X258821723Y-188878628D01*
X259000295Y-188973866D01*
X259083628Y-189069104D01*
X259155057Y-189259580D01*
X259083628Y-189831009D01*
X258964580Y-190021485D01*
X258857438Y-190116723D01*
X258655057Y-190211961D01*
X258369342Y-190211961D01*
X260178866Y-190211961D02*
X260000295Y-190116723D01*
X259928866Y-189926247D01*
X260143152Y-188211961D01*
X261226485Y-190211961D02*
X261047914Y-190116723D01*
X260976485Y-189926247D01*
X261190771Y-188211961D01*
X262762199Y-190116723D02*
X262559819Y-190211961D01*
X262178866Y-190211961D01*
X262000295Y-190116723D01*
X261928866Y-189926247D01*
X262024104Y-189164342D01*
X262143152Y-188973866D01*
X262345533Y-188878628D01*
X262726485Y-188878628D01*
X262905057Y-188973866D01*
X262976485Y-189164342D01*
X262952676Y-189354819D01*
X261976485Y-189545295D01*
X263702676Y-190211961D02*
X263869342Y-188878628D01*
X263821723Y-189259580D02*
X263940771Y-189069104D01*
X264047914Y-188973866D01*
X264250295Y-188878628D01*
X264440771Y-188878628D01*
D10*
D11*
X178934342Y-185600057D02*
X178434342Y-185600057D01*
X178434342Y-186385771D02*
X178434342Y-184885771D01*
X179148628Y-184885771D01*
X179720057Y-186385771D02*
X179720057Y-185385771D01*
X179720057Y-184885771D02*
X179648628Y-184957200D01*
X179720057Y-185028628D01*
X179791485Y-184957200D01*
X179720057Y-184885771D01*
X179720057Y-185028628D01*
X180648628Y-186385771D02*
X180505771Y-186314342D01*
X180434342Y-186171485D01*
X180434342Y-184885771D01*
X181791485Y-186314342D02*
X181648628Y-186385771D01*
X181362914Y-186385771D01*
X181220057Y-186314342D01*
X181148628Y-186171485D01*
X181148628Y-185600057D01*
X181220057Y-185457200D01*
X181362914Y-185385771D01*
X181648628Y-185385771D01*
X181791485Y-185457200D01*
X181862914Y-185600057D01*
X181862914Y-185742914D01*
X181148628Y-185885771D01*
X182505771Y-186242914D02*
X182577200Y-186314342D01*
X182505771Y-186385771D01*
X182434342Y-186314342D01*
X182505771Y-186242914D01*
X182505771Y-186385771D01*
X182505771Y-185457200D02*
X182577200Y-185528628D01*
X182505771Y-185600057D01*
X182434342Y-185528628D01*
X182505771Y-185457200D01*
X182505771Y-185600057D01*
X184291485Y-185957200D02*
X185005771Y-185957200D01*
X184148628Y-186385771D02*
X184648628Y-184885771D01*
X185148628Y-186385771D01*
X185648628Y-185600057D02*
X186148628Y-185600057D01*
X186362914Y-186385771D02*
X185648628Y-186385771D01*
X185648628Y-184885771D01*
X186362914Y-184885771D01*
X187291485Y-184885771D02*
X187434342Y-184885771D01*
X187577200Y-184957200D01*
X187648628Y-185028628D01*
X187720057Y-185171485D01*
X187791485Y-185457200D01*
X187791485Y-185814342D01*
X187720057Y-186100057D01*
X187648628Y-186242914D01*
X187577200Y-186314342D01*
X187434342Y-186385771D01*
X187291485Y-186385771D01*
X187148628Y-186314342D01*
X187077200Y-186242914D01*
X187005771Y-186100057D01*
X186934342Y-185814342D01*
X186934342Y-185457200D01*
X187005771Y-185171485D01*
X187077200Y-185028628D01*
X187148628Y-184957200D01*
X187291485Y-184885771D01*
X189220057Y-186385771D02*
X188362914Y-186385771D01*
X188791485Y-186385771D02*
X188791485Y-184885771D01*
X188648628Y-185100057D01*
X188505771Y-185242914D01*
X188362914Y-185314342D01*
X189862914Y-186242914D02*
X189934342Y-186314342D01*
X189862914Y-186385771D01*
X189791485Y-186314342D01*
X189862914Y-186242914D01*
X189862914Y-186385771D01*
X191362914Y-186385771D02*
X190505771Y-186385771D01*
X190934342Y-186385771D02*
X190934342Y-184885771D01*
X190791485Y-185100057D01*
X190648628Y-185242914D01*
X190505771Y-185314342D01*
X191934342Y-185028628D02*
X192005771Y-184957200D01*
X192148628Y-184885771D01*
X192505771Y-184885771D01*
X192648628Y-184957200D01*
X192720057Y-185028628D01*
X192791485Y-185171485D01*
X192791485Y-185314342D01*
X192720057Y-185528628D01*
X191862914Y-186385771D01*
X192791485Y-186385771D01*
X193434342Y-186242914D02*
X193505771Y-186314342D01*
X193434342Y-186385771D01*
X193362914Y-186314342D01*
X193434342Y-186242914D01*
X193434342Y-186385771D01*
X194434342Y-184885771D02*
X194577200Y-184885771D01*
X194720057Y-184957200D01*
X194791485Y-185028628D01*
X194862914Y-185171485D01*
X194934342Y-185457200D01*
X194934342Y-185814342D01*
X194862914Y-186100057D01*
X194791485Y-186242914D01*
X194720057Y-186314342D01*
X194577200Y-186385771D01*
X194434342Y-186385771D01*
X194291485Y-186314342D01*
X194220057Y-186242914D01*
X194148628Y-186100057D01*
X194077200Y-185814342D01*
X194077200Y-185457200D01*
X194148628Y-185171485D01*
X194220057Y-185028628D01*
X194291485Y-184957200D01*
X194434342Y-184885771D01*
X195648628Y-186385771D02*
X195934342Y-186385771D01*
X196077200Y-186314342D01*
X196148628Y-186242914D01*
X196291485Y-186028628D01*
X196362914Y-185742914D01*
X196362914Y-185171485D01*
X196291485Y-185028628D01*
X196220057Y-184957200D01*
X196077200Y-184885771D01*
X195791485Y-184885771D01*
X195648628Y-184957200D01*
X195577200Y-185028628D01*
X195505771Y-185171485D01*
X195505771Y-185528628D01*
X195577200Y-185671485D01*
X195648628Y-185742914D01*
X195791485Y-185814342D01*
X196077200Y-185814342D01*
X196220057Y-185742914D01*
X196291485Y-185671485D01*
X196362914Y-185528628D01*
X197005771Y-186242914D02*
X197077200Y-186314342D01*
X197005771Y-186385771D01*
X196934342Y-186314342D01*
X197005771Y-186242914D01*
X197005771Y-186385771D01*
X198005771Y-184885771D02*
X198148628Y-184885771D01*
X198291485Y-184957200D01*
X198362914Y-185028628D01*
X198434342Y-185171485D01*
X198505771Y-185457200D01*
X198505771Y-185814342D01*
X198434342Y-186100057D01*
X198362914Y-186242914D01*
X198291485Y-186314342D01*
X198148628Y-186385771D01*
X198005771Y-186385771D01*
X197862914Y-186314342D01*
X197791485Y-186242914D01*
X197720057Y-186100057D01*
X197648628Y-185814342D01*
X197648628Y-185457200D01*
X197720057Y-185171485D01*
X197791485Y-185028628D01*
X197862914Y-184957200D01*
X198005771Y-184885771D01*
X199934342Y-186385771D02*
X199077200Y-186385771D01*
X199505771Y-186385771D02*
X199505771Y-184885771D01*
X199362914Y-185100057D01*
X199220057Y-185242914D01*
X199077200Y-185314342D01*
X200862914Y-184885771D02*
X201005771Y-184885771D01*
X201148628Y-184957200D01*
X201220057Y-185028628D01*
X201291485Y-185171485D01*
X201362914Y-185457200D01*
X201362914Y-185814342D01*
X201291485Y-186100057D01*
X201220057Y-186242914D01*
X201148628Y-186314342D01*
X201005771Y-186385771D01*
X200862914Y-186385771D01*
X200720057Y-186314342D01*
X200648628Y-186242914D01*
X200577200Y-186100057D01*
X200505771Y-185814342D01*
X200505771Y-185457200D01*
X200577200Y-185171485D01*
X200648628Y-185028628D01*
X200720057Y-184957200D01*
X200862914Y-184885771D01*
X202005771Y-186242914D02*
X202077200Y-186314342D01*
X202005771Y-186385771D01*
X201934342Y-186314342D01*
X202005771Y-186242914D01*
X202005771Y-186385771D01*
X202720057Y-186385771D02*
X202720057Y-184885771D01*
X202862914Y-185814342D02*
X203291485Y-186385771D01*
X203291485Y-185385771D02*
X202720057Y-185957200D01*
X203934342Y-186385771D02*
X203934342Y-185385771D01*
X203934342Y-184885771D02*
X203862914Y-184957200D01*
X203934342Y-185028628D01*
X204005771Y-184957200D01*
X203934342Y-184885771D01*
X203934342Y-185028628D01*
X205291485Y-186314342D02*
X205148628Y-186385771D01*
X204862914Y-186385771D01*
X204720057Y-186314342D01*
X204648628Y-186242914D01*
X204577200Y-186100057D01*
X204577200Y-185671485D01*
X204648628Y-185528628D01*
X204720057Y-185457200D01*
X204862914Y-185385771D01*
X205148628Y-185385771D01*
X205291485Y-185457200D01*
X206577200Y-186385771D02*
X206577200Y-185600057D01*
X206505771Y-185457200D01*
X206362914Y-185385771D01*
X206077200Y-185385771D01*
X205934342Y-185457200D01*
X206577200Y-186314342D02*
X206434342Y-186385771D01*
X206077200Y-186385771D01*
X205934342Y-186314342D01*
X205862914Y-186171485D01*
X205862914Y-186028628D01*
X205934342Y-185885771D01*
X206077200Y-185814342D01*
X206434342Y-185814342D01*
X206577200Y-185742914D01*
X207934342Y-186385771D02*
X207934342Y-184885771D01*
X207934342Y-186314342D02*
X207791485Y-186385771D01*
X207505771Y-186385771D01*
X207362914Y-186314342D01*
X207291485Y-186242914D01*
X207220057Y-186100057D01*
X207220057Y-185671485D01*
X207291485Y-185528628D01*
X207362914Y-185457200D01*
X207505771Y-185385771D01*
X207791485Y-185385771D01*
X207934342Y-185457200D01*
X208291485Y-186528628D02*
X209434342Y-186528628D01*
X209791485Y-185385771D02*
X209791485Y-186885771D01*
X209791485Y-185457200D02*
X209934342Y-185385771D01*
X210220057Y-185385771D01*
X210362914Y-185457200D01*
X210434342Y-185528628D01*
X210505771Y-185671485D01*
X210505771Y-186100057D01*
X210434342Y-186242914D01*
X210362914Y-186314342D01*
X210220057Y-186385771D01*
X209934342Y-186385771D01*
X209791485Y-186314342D01*
X211791485Y-186314342D02*
X211648628Y-186385771D01*
X211362914Y-186385771D01*
X211220057Y-186314342D01*
X211148628Y-186242914D01*
X211077200Y-186100057D01*
X211077200Y-185671485D01*
X211148628Y-185528628D01*
X211220057Y-185457200D01*
X211362914Y-185385771D01*
X211648628Y-185385771D01*
X211791485Y-185457200D01*
X212434342Y-186385771D02*
X212434342Y-184885771D01*
X212434342Y-185457200D02*
X212577200Y-185385771D01*
X212862914Y-185385771D01*
X213005771Y-185457200D01*
X213077200Y-185528628D01*
X213148628Y-185671485D01*
X213148628Y-186100057D01*
X213077200Y-186242914D01*
X213005771Y-186314342D01*
X212862914Y-186385771D01*
X212577200Y-186385771D01*
X212434342Y-186314342D01*
D10*
D11*
X177002200Y-181507200D02*
X285002200Y-181507200D01*
D10*
D11*
X178362914Y-183614342D02*
X178577200Y-183685771D01*
X178934342Y-183685771D01*
X179077200Y-183614342D01*
X179148628Y-183542914D01*
X179220057Y-183400057D01*
X179220057Y-183257200D01*
X179148628Y-183114342D01*
X179077200Y-183042914D01*
X178934342Y-182971485D01*
X178648628Y-182900057D01*
X178505771Y-182828628D01*
X178434342Y-182757200D01*
X178362914Y-182614342D01*
X178362914Y-182471485D01*
X178434342Y-182328628D01*
X178505771Y-182257200D01*
X178648628Y-182185771D01*
X179005771Y-182185771D01*
X179220057Y-182257200D01*
X179862914Y-183685771D02*
X179862914Y-182185771D01*
X180505771Y-183685771D02*
X180505771Y-182900057D01*
X180434342Y-182757200D01*
X180291485Y-182685771D01*
X180077200Y-182685771D01*
X179934342Y-182757200D01*
X179862914Y-182828628D01*
X181791485Y-183614342D02*
X181648628Y-183685771D01*
X181362914Y-183685771D01*
X181220057Y-183614342D01*
X181148628Y-183471485D01*
X181148628Y-182900057D01*
X181220057Y-182757200D01*
X181362914Y-182685771D01*
X181648628Y-182685771D01*
X181791485Y-182757200D01*
X181862914Y-182900057D01*
X181862914Y-183042914D01*
X181148628Y-183185771D01*
X183077200Y-183614342D02*
X182934342Y-183685771D01*
X182648628Y-183685771D01*
X182505771Y-183614342D01*
X182434342Y-183471485D01*
X182434342Y-182900057D01*
X182505771Y-182757200D01*
X182648628Y-182685771D01*
X182934342Y-182685771D01*
X183077200Y-182757200D01*
X183148628Y-182900057D01*
X183148628Y-183042914D01*
X182434342Y-183185771D01*
X183577200Y-182685771D02*
X184148628Y-182685771D01*
X183791485Y-182185771D02*
X183791485Y-183471485D01*
X183862914Y-183614342D01*
X184005771Y-183685771D01*
X184148628Y-183685771D01*
X184648628Y-183542914D02*
X184720057Y-183614342D01*
X184648628Y-183685771D01*
X184577200Y-183614342D01*
X184648628Y-183542914D01*
X184648628Y-183685771D01*
X184648628Y-182757200D02*
X184720057Y-182828628D01*
X184648628Y-182900057D01*
X184577200Y-182828628D01*
X184648628Y-182757200D01*
X184648628Y-182900057D01*
D10*
D12*
X179197200Y-180685771D02*
X179197200Y-179900057D01*
X179125771Y-179757200D01*
X178982914Y-179685771D01*
X178697200Y-179685771D01*
X178554342Y-179757200D01*
X179197200Y-180614342D02*
X179054342Y-180685771D01*
X178697200Y-180685771D01*
X178554342Y-180614342D01*
X178482914Y-180471485D01*
X178482914Y-180328628D01*
X178554342Y-180185771D01*
X178697200Y-180114342D01*
X179054342Y-180114342D01*
X179197200Y-180042914D01*
X179840057Y-180614342D02*
X179982914Y-180685771D01*
X180268628Y-180685771D01*
X180411485Y-180614342D01*
X180482914Y-180471485D01*
X180482914Y-180400057D01*
X180411485Y-180257200D01*
X180268628Y-180185771D01*
X180054342Y-180185771D01*
X179911485Y-180114342D01*
X179840057Y-179971485D01*
X179840057Y-179900057D01*
X179911485Y-179757200D01*
X180054342Y-179685771D01*
X180268628Y-179685771D01*
X180411485Y-179757200D01*
X180911485Y-179685771D02*
X181482914Y-179685771D01*
X181125771Y-179185771D02*
X181125771Y-180471485D01*
X181197200Y-180614342D01*
X181340057Y-180685771D01*
X181482914Y-180685771D01*
X181982914Y-180685771D02*
X181982914Y-179685771D01*
X181982914Y-179971485D02*
X182054342Y-179828628D01*
X182125771Y-179757200D01*
X182268628Y-179685771D01*
X182411485Y-179685771D01*
X183125771Y-180685771D02*
X182982914Y-180614342D01*
X182911485Y-180542914D01*
X182840057Y-180400057D01*
X182840057Y-179971485D01*
X182911485Y-179828628D01*
X182982914Y-179757200D01*
X183125771Y-179685771D01*
X183340057Y-179685771D01*
X183482914Y-179757200D01*
X183554342Y-179828628D01*
X183625771Y-179971485D01*
X183625771Y-180400057D01*
X183554342Y-180542914D01*
X183482914Y-180614342D01*
X183340057Y-180685771D01*
X183125771Y-180685771D01*
X184840057Y-180614342D02*
X184697200Y-180685771D01*
X184411485Y-180685771D01*
X184268628Y-180614342D01*
X184197200Y-180471485D01*
X184197200Y-179900057D01*
X184268628Y-179757200D01*
X184411485Y-179685771D01*
X184697200Y-179685771D01*
X184840057Y-179757200D01*
X184911485Y-179900057D01*
X184911485Y-180042914D01*
X184197200Y-180185771D01*
X185768628Y-180685771D02*
X185625771Y-180614342D01*
X185554342Y-180471485D01*
X185554342Y-179185771D01*
X186911485Y-180614342D02*
X186768628Y-180685771D01*
X186482914Y-180685771D01*
X186340057Y-180614342D01*
X186268628Y-180471485D01*
X186268628Y-179900057D01*
X186340057Y-179757200D01*
X186482914Y-179685771D01*
X186768628Y-179685771D01*
X186911485Y-179757200D01*
X186982914Y-179900057D01*
X186982914Y-180042914D01*
X186268628Y-180185771D01*
X188268628Y-180614342D02*
X188125771Y-180685771D01*
X187840057Y-180685771D01*
X187697200Y-180614342D01*
X187625771Y-180542914D01*
X187554342Y-180400057D01*
X187554342Y-179971485D01*
X187625771Y-179828628D01*
X187697200Y-179757200D01*
X187840057Y-179685771D01*
X188125771Y-179685771D01*
X188268628Y-179757200D01*
X188697200Y-179685771D02*
X189268628Y-179685771D01*
X188911485Y-179185771D02*
X188911485Y-180471485D01*
X188982914Y-180614342D01*
X189125771Y-180685771D01*
X189268628Y-180685771D01*
X189768628Y-180685771D02*
X189768628Y-179685771D01*
X189768628Y-179971485D02*
X189840057Y-179828628D01*
X189911485Y-179757200D01*
X190054342Y-179685771D01*
X190197200Y-179685771D01*
X190911485Y-180685771D02*
X190768628Y-180614342D01*
X190697200Y-180542914D01*
X190625771Y-180400057D01*
X190625771Y-179971485D01*
X190697200Y-179828628D01*
X190768628Y-179757200D01*
X190911485Y-179685771D01*
X191125771Y-179685771D01*
X191268628Y-179757200D01*
X191340057Y-179828628D01*
X191411485Y-179971485D01*
X191411485Y-180400057D01*
X191340057Y-180542914D01*
X191268628Y-180614342D01*
X191125771Y-180685771D01*
X190911485Y-180685771D01*
X192054342Y-179685771D02*
X192054342Y-180685771D01*
X192054342Y-179828628D02*
X192125771Y-179757200D01*
X192268628Y-179685771D01*
X192482914Y-179685771D01*
X192625771Y-179757200D01*
X192697200Y-179900057D01*
X192697200Y-180685771D01*
X193411485Y-180685771D02*
X193411485Y-179685771D01*
X193411485Y-179185771D02*
X193340057Y-179257200D01*
X193411485Y-179328628D01*
X193482914Y-179257200D01*
X193411485Y-179185771D01*
X193411485Y-179328628D01*
X194768628Y-180614342D02*
X194625771Y-180685771D01*
X194340057Y-180685771D01*
X194197200Y-180614342D01*
X194125771Y-180542914D01*
X194054342Y-180400057D01*
X194054342Y-179971485D01*
X194125771Y-179828628D01*
X194197200Y-179757200D01*
X194340057Y-179685771D01*
X194625771Y-179685771D01*
X194768628Y-179757200D01*
X196340057Y-179971485D02*
X196268628Y-179900057D01*
X196125771Y-179828628D01*
X195982914Y-179828628D01*
X195840057Y-179900057D01*
X195768628Y-179971485D01*
X195697200Y-180114342D01*
X195697200Y-180257200D01*
X195768628Y-180400057D01*
X195840057Y-180471485D01*
X195982914Y-180542914D01*
X196125771Y-180542914D01*
X196268628Y-180471485D01*
X196340057Y-180400057D01*
X196340057Y-179828628D02*
X196340057Y-180400057D01*
X196411485Y-180471485D01*
X196482914Y-180471485D01*
X196625771Y-180400057D01*
X196697200Y-180257200D01*
X196697200Y-179900057D01*
X196554342Y-179685771D01*
X196340057Y-179542914D01*
X196054342Y-179471485D01*
X195768628Y-179542914D01*
X195554342Y-179685771D01*
X195411485Y-179900057D01*
X195340057Y-180185771D01*
X195411485Y-180471485D01*
X195554342Y-180685771D01*
X195768628Y-180828628D01*
X196054342Y-180900057D01*
X196340057Y-180828628D01*
X196554342Y-180685771D01*
D10*
D11*
X197002200Y-191507200D02*
X197002200Y-194507200D01*
D10*
D11*
X261002200Y-191507200D02*
X261002200Y-198007200D01*
D14*
X114779571Y-55661428D02*
X114708142Y-55590000D01*
X114565285Y-55518571D01*
X114208142Y-55518571D01*
X114065285Y-55590000D01*
X113993857Y-55661428D01*
X113922428Y-55804285D01*
X113922428Y-55947142D01*
X113993857Y-56161428D01*
X114851000Y-57018571D01*
X113922428Y-57018571D01*
D15*
X101666666Y-130000000D02*
G75*
G03*
X101666666Y-130000000I-1666666J0D01*
G01*
X97500000Y-130000000D02*
X102500000Y-130000000D01*
X100000000Y-127500000D02*
X100000000Y-132500000D01*
X100000000Y-53800000D02*
X100000000Y-130000000D01*
X176200000Y-53800000D02*
X100000000Y-53800000D01*
X176200000Y-130000000D02*
X176200000Y-53800000D01*
X100000000Y-130000000D02*
X176200000Y-130000000D01*
D16*
%TO.P,R1,1*%
%TO.N,/VIN*%
X143180000Y-61420000D03*
D17*
%TO.P,R1,2*%
%TO.N,/V+*%
X112700000Y-61420000D03*
%TD*%
D18*
%TO.P,H4,1*%
%TO.N,N/C*%
X172817056Y-57182944D03*
X171120000Y-56480000D03*
X169422944Y-57182944D03*
X168720000Y-58880000D03*
X169422944Y-60577056D03*
X171120000Y-61280000D03*
X172817056Y-60577056D03*
X173520000Y-58880000D03*
D19*
X171120000Y-58880000D03*
%TD*%
D18*
%TO.P,H3,1*%
%TO.N,N/C*%
X172817056Y-123222944D03*
X171120000Y-122520000D03*
X169422944Y-123222944D03*
X168720000Y-124920000D03*
X169422944Y-126617056D03*
X171120000Y-127320000D03*
X172817056Y-126617056D03*
X173520000Y-124920000D03*
D19*
X171120000Y-124920000D03*
%TD*%
D18*
%TO.P,H2,1*%
%TO.N,N/C*%
X106777056Y-123222944D03*
X105080000Y-122520000D03*
X103382944Y-123222944D03*
X102680000Y-124920000D03*
X103382944Y-126617056D03*
X105080000Y-127320000D03*
X106777056Y-126617056D03*
X107480000Y-124920000D03*
D19*
X105080000Y-124920000D03*
%TD*%
D18*
%TO.P,H1,1*%
%TO.N,N/C*%
X106777056Y-57182944D03*
X105080000Y-56480000D03*
X103382944Y-57182944D03*
X102680000Y-58880000D03*
X103382944Y-60577056D03*
X105080000Y-61280000D03*
X106777056Y-60577056D03*
X107480000Y-58880000D03*
D19*
X105080000Y-58880000D03*
%TD*%
D20*
%TO.P,CONN1,1*%
%TO.N,GND*%
X168580000Y-74120000D03*
D21*
%TO.P,CONN1,2*%
%TO.N,/VIN*%
X168580000Y-69040000D03*
%TD*%
%TO.P,CONN2,2*%
%TO.N,/BATT+*%
X168580000Y-109680000D03*
D20*
%TO.P,CONN2,1*%
%TO.N,/BATT-*%
X168580000Y-114760000D03*
%TD*%
D22*
%TO.P,JP1,1*%
%TO.N,/V+*%
X105080000Y-74120000D03*
D23*
%TO.P,JP1,2*%
%TO.N,Net-(JP1-Pad2)*%
X107620000Y-74120000D03*
%TD*%
%TO.P,JP2,2*%
%TO.N,/DRV*%
X105080000Y-69040000D03*
D22*
%TO.P,JP2,1*%
%TO.N,Net-(JP2-Pad1)*%
X107620000Y-69040000D03*
%TD*%
D23*
%TO.P,SW1,6*%
%TO.N,/BATT-*%
X110160000Y-81740000D03*
%TO.P,SW1,5*%
%TO.N,/PGM0*%
X110160000Y-84280000D03*
%TO.P,SW1,4*%
%TO.N,/REF*%
X107620000Y-81740000D03*
%TO.P,SW1,3*%
%TO.N,/PGM0*%
X107620000Y-84280000D03*
%TO.P,SW1,2*%
%TO.N,/V+*%
X105080000Y-81740000D03*
D22*
%TO.P,SW1,1*%
%TO.N,/PGM0*%
X105080000Y-84280000D03*
%TD*%
%TO.P,SW2,1*%
%TO.N,/PGM1*%
X105080000Y-94440000D03*
D23*
%TO.P,SW2,2*%
%TO.N,/V+*%
X105080000Y-91900000D03*
%TO.P,SW2,3*%
%TO.N,/PGM1*%
X107620000Y-94440000D03*
%TO.P,SW2,4*%
%TO.N,/REF*%
X107620000Y-91900000D03*
%TO.P,SW2,5*%
%TO.N,/PGM1*%
X110160000Y-94440000D03*
%TO.P,SW2,6*%
%TO.N,/BATT-*%
X110160000Y-91900000D03*
%TD*%
%TO.P,SW3,6*%
%TO.N,/BATT-*%
X110160000Y-102060000D03*
%TO.P,SW3,5*%
%TO.N,/PGM2*%
X110160000Y-104600000D03*
%TO.P,SW3,4*%
%TO.N,/REF*%
X107620000Y-102060000D03*
%TO.P,SW3,3*%
%TO.N,/PGM2*%
X107620000Y-104600000D03*
%TO.P,SW3,2*%
%TO.N,/V+*%
X105080000Y-102060000D03*
D22*
%TO.P,SW3,1*%
%TO.N,/PGM2*%
X105080000Y-104600000D03*
%TD*%
%TO.P,SW4,1*%
%TO.N,/PGM3*%
X105080000Y-114760000D03*
D23*
%TO.P,SW4,2*%
%TO.N,/V+*%
X105080000Y-112220000D03*
%TO.P,SW4,3*%
%TO.N,/PGM3*%
X107620000Y-114760000D03*
%TO.P,SW4,4*%
%TO.N,/REF*%
X107620000Y-112220000D03*
%TO.P,SW4,5*%
%TO.N,/PGM3*%
X110160000Y-114760000D03*
%TO.P,SW4,6*%
%TO.N,/BATT-*%
X110160000Y-112220000D03*
%TD*%
D17*
%TO.P,R6,2*%
%TO.N,GND*%
X125400000Y-122380000D03*
D16*
%TO.P,R6,1*%
%TO.N,/BATT-*%
X155880000Y-122380000D03*
%TD*%
D24*
%TO.N,GND*%
X133020000Y-76660000D03*
X132512000Y-104092000D03*
X141148000Y-114760000D03*
X155880000Y-76660000D03*
X154356000Y-76660000D03*
X157404000Y-76660000D03*
X148260000Y-76660000D03*
X149784000Y-76660000D03*
X146736000Y-76660000D03*
X141148000Y-113490000D03*
X141148000Y-116030000D03*
%TO.N,/BATT-*%
X123241000Y-106505000D03*
X124638000Y-96980000D03*
%TO.N,/REF*%
X117526000Y-112220000D03*
X121844000Y-97742000D03*
%TO.N,/VIN*%
X122860000Y-71834000D03*
%TO.N,Net-(Q4-Pad2)*%
X130480000Y-77168000D03*
X135560000Y-112728000D03*
%TO.N,/PGM2*%
X115240000Y-106632000D03*
X117780000Y-115776000D03*
%TO.N,Net-(Q3-Pad2)*%
X133020000Y-91392000D03*
X136830000Y-99520000D03*
%TO.N,/DRV*%
X139878000Y-102314000D03*
X136068000Y-93170000D03*
%TD*%
D25*
%TO.N,/BATT-*%
X124638000Y-102822000D02*
X124638000Y-96980000D01*
X123241000Y-104219000D02*
X124638000Y-102822000D01*
X123241000Y-106505000D02*
X123241000Y-104219000D01*
X111938000Y-83518000D02*
X110160000Y-81740000D01*
X111938000Y-90122000D02*
X111938000Y-83518000D01*
X110160000Y-91900000D02*
X111938000Y-90122000D01*
X110160000Y-91900000D02*
X111938000Y-93678000D01*
X111938000Y-100282000D02*
X110160000Y-102060000D01*
X111938000Y-93678000D02*
X111938000Y-100282000D01*
X110160000Y-112220000D02*
X111938000Y-110442000D01*
X111938000Y-103838000D02*
X110160000Y-102060000D01*
X111938000Y-110442000D02*
X111938000Y-103838000D01*
%TO.N,/REF*%
X107620000Y-81740000D02*
X106350000Y-83010000D01*
X106350000Y-90630000D02*
X107620000Y-91900000D01*
X106350000Y-83010000D02*
X106350000Y-90630000D01*
X107620000Y-91900000D02*
X106350000Y-93170000D01*
X106350000Y-100790000D02*
X107620000Y-102060000D01*
X106350000Y-93170000D02*
X106350000Y-100790000D01*
X107620000Y-102060000D02*
X106350000Y-103330000D01*
X106350000Y-110950000D02*
X107620000Y-112220000D01*
X106350000Y-103330000D02*
X106350000Y-110950000D01*
X119304000Y-98758000D02*
X120320000Y-97742000D01*
X119304000Y-110442000D02*
X119304000Y-98758000D01*
X120320000Y-97742000D02*
X121844000Y-97742000D01*
X117526000Y-112220000D02*
X119304000Y-110442000D01*
%TO.N,/VIN*%
X125146000Y-61420000D02*
X122860000Y-63706000D01*
X122860000Y-63706000D02*
X122860000Y-71834000D01*
X143180000Y-61420000D02*
X125146000Y-61420000D01*
%TO.N,Net-(Q4-Pad2)*%
X135560000Y-112728000D02*
X135560000Y-102568000D01*
X130480000Y-97488000D02*
X130480000Y-77168000D01*
X135560000Y-102568000D02*
X130480000Y-97488000D01*
%TO.N,/PGM2*%
X115240000Y-114506000D02*
X115240000Y-106632000D01*
X116510000Y-115776000D02*
X115240000Y-114506000D01*
X117780000Y-115776000D02*
X116510000Y-115776000D01*
%TO.N,/PGM3*%
X110160000Y-114760000D02*
X107620000Y-114760000D01*
X107620000Y-114760000D02*
X105080000Y-114760000D01*
%TO.N,Net-(Q3-Pad2)*%
X133020000Y-93678000D02*
X133020000Y-91392000D01*
X133020000Y-95710000D02*
X133020000Y-91392000D01*
X136830000Y-99520000D02*
X133020000Y-95710000D01*
%TO.N,/V+*%
X105080000Y-74120000D02*
X105080000Y-81740000D01*
X105080000Y-74120000D02*
X105080000Y-72850000D01*
X105080000Y-72850000D02*
X106350000Y-71580000D01*
X106350000Y-71580000D02*
X111430000Y-71580000D01*
X112700000Y-70310000D02*
X112700000Y-61420000D01*
X111430000Y-71580000D02*
X112700000Y-70310000D01*
X103556000Y-110696000D02*
X105080000Y-112220000D01*
X103556000Y-103584000D02*
X103556000Y-110696000D01*
X105080000Y-102060000D02*
X103556000Y-103584000D01*
X103556000Y-100536000D02*
X105080000Y-102060000D01*
X103556000Y-93424000D02*
X103556000Y-100536000D01*
X105080000Y-91900000D02*
X103556000Y-93424000D01*
X103556000Y-90376000D02*
X105080000Y-91900000D01*
X103556000Y-83264000D02*
X103556000Y-90376000D01*
X105080000Y-81740000D02*
X103556000Y-83264000D01*
%TO.N,/DRV*%
X139878000Y-96980000D02*
X136068000Y-93170000D01*
X139878000Y-102314000D02*
X139878000Y-96980000D01*
%TD*%
D26*
%TO.N,GND*%
X175565000Y-54868606D02*
X175565000Y-63399394D01*
X175131394Y-63833000D01*
X161468000Y-63833000D01*
X161443224Y-63835440D01*
X161419399Y-63842667D01*
X161397443Y-63854403D01*
X161378197Y-63870197D01*
X160870197Y-64378197D01*
X160854403Y-64397443D01*
X160842667Y-64419399D01*
X160835440Y-64443224D01*
X160833000Y-64468000D01*
X160833000Y-77676000D01*
X160835440Y-77700776D01*
X160842667Y-77724601D01*
X160854403Y-77746557D01*
X160870197Y-77765803D01*
X161378197Y-78273803D01*
X161397443Y-78289597D01*
X161419399Y-78301333D01*
X161443224Y-78308560D01*
X161468000Y-78311000D01*
X175131394Y-78311000D01*
X175565000Y-78744606D01*
X175565000Y-128931394D01*
X175131394Y-129365000D01*
X101068606Y-129365000D01*
X100635000Y-128931394D01*
X100635000Y-124567302D01*
X101499000Y-124567302D01*
X101499000Y-125272698D01*
X101636616Y-125964539D01*
X101906559Y-126616240D01*
X102298456Y-127202754D01*
X102797246Y-127701544D01*
X103383760Y-128093441D01*
X104035461Y-128363384D01*
X104727302Y-128501000D01*
X105432698Y-128501000D01*
X106124539Y-128363384D01*
X106776240Y-128093441D01*
X107362754Y-127701544D01*
X107861544Y-127202754D01*
X108253441Y-126616240D01*
X108523384Y-125964539D01*
X108661000Y-125272698D01*
X108661000Y-124567302D01*
X167539000Y-124567302D01*
X167539000Y-125272698D01*
X167676616Y-125964539D01*
X167946559Y-126616240D01*
X168338456Y-127202754D01*
X168837246Y-127701544D01*
X169423760Y-128093441D01*
X170075461Y-128363384D01*
X170767302Y-128501000D01*
X171472698Y-128501000D01*
X172164539Y-128363384D01*
X172816240Y-128093441D01*
X173402754Y-127701544D01*
X173901544Y-127202754D01*
X174293441Y-126616240D01*
X174563384Y-125964539D01*
X174701000Y-125272698D01*
X174701000Y-124567302D01*
X174563384Y-123875461D01*
X174293441Y-123223760D01*
X173901544Y-122637246D01*
X173402754Y-122138456D01*
X172816240Y-121746559D01*
X172164539Y-121476616D01*
X171472698Y-121339000D01*
X170767302Y-121339000D01*
X170075461Y-121476616D01*
X169423760Y-121746559D01*
X168837246Y-122138456D01*
X168338456Y-122637246D01*
X167946559Y-123223760D01*
X167676616Y-123875461D01*
X167539000Y-124567302D01*
X108661000Y-124567302D01*
X108523384Y-123875461D01*
X108253441Y-123223760D01*
X107861544Y-122637246D01*
X107448583Y-122224285D01*
X154299000Y-122224285D01*
X154299000Y-122535715D01*
X154359757Y-122841161D01*
X154478936Y-123128884D01*
X154651957Y-123387829D01*
X154872171Y-123608043D01*
X155131116Y-123781064D01*
X155418839Y-123900243D01*
X155724285Y-123961000D01*
X156035715Y-123961000D01*
X156341161Y-123900243D01*
X156628884Y-123781064D01*
X156887829Y-123608043D01*
X157108043Y-123387829D01*
X157281064Y-123128884D01*
X157400243Y-122841161D01*
X157461000Y-122535715D01*
X157461000Y-122224285D01*
X157400243Y-121918839D01*
X157281064Y-121631116D01*
X157108043Y-121372171D01*
X156887829Y-121151957D01*
X156628884Y-120978936D01*
X156341161Y-120859757D01*
X156035715Y-120799000D01*
X155724285Y-120799000D01*
X155418839Y-120859757D01*
X155131116Y-120978936D01*
X154872171Y-121151957D01*
X154651957Y-121372171D01*
X154478936Y-121631116D01*
X154359757Y-121918839D01*
X154299000Y-122224285D01*
X107448583Y-122224285D01*
X107362754Y-122138456D01*
X106776240Y-121746559D01*
X106124539Y-121476616D01*
X105432698Y-121339000D01*
X104727302Y-121339000D01*
X104035461Y-121476616D01*
X103383760Y-121746559D01*
X102797246Y-122138456D01*
X102298456Y-122637246D01*
X101906559Y-123223760D01*
X101636616Y-123875461D01*
X101499000Y-124567302D01*
X100635000Y-124567302D01*
X100635000Y-113910000D01*
X103847157Y-113910000D01*
X103847157Y-115610000D01*
X103854513Y-115684689D01*
X103876299Y-115756508D01*
X103911678Y-115822696D01*
X103959289Y-115880711D01*
X104017304Y-115928322D01*
X104083492Y-115963701D01*
X104155311Y-115985487D01*
X104230000Y-115992843D01*
X105930000Y-115992843D01*
X106004689Y-115985487D01*
X106076508Y-115963701D01*
X106142696Y-115928322D01*
X106200711Y-115880711D01*
X106248322Y-115822696D01*
X106283701Y-115756508D01*
X106305487Y-115684689D01*
X106312843Y-115610000D01*
X106312843Y-115293400D01*
X106508517Y-115293400D01*
X106529102Y-115343097D01*
X106663820Y-115544717D01*
X106835283Y-115716180D01*
X107036903Y-115850898D01*
X107260931Y-115943693D01*
X107498757Y-115991000D01*
X107741243Y-115991000D01*
X107979069Y-115943693D01*
X108203097Y-115850898D01*
X108404717Y-115716180D01*
X108576180Y-115544717D01*
X108710898Y-115343097D01*
X108731483Y-115293400D01*
X109048517Y-115293400D01*
X109069102Y-115343097D01*
X109203820Y-115544717D01*
X109375283Y-115716180D01*
X109576903Y-115850898D01*
X109800931Y-115943693D01*
X110038757Y-115991000D01*
X110281243Y-115991000D01*
X110519069Y-115943693D01*
X110743097Y-115850898D01*
X110944717Y-115716180D01*
X111116180Y-115544717D01*
X111250898Y-115343097D01*
X111343693Y-115119069D01*
X111391000Y-114881243D01*
X111391000Y-114638757D01*
X111343693Y-114400931D01*
X111250898Y-114176903D01*
X111116180Y-113975283D01*
X110944717Y-113803820D01*
X110743097Y-113669102D01*
X110519069Y-113576307D01*
X110281243Y-113529000D01*
X110038757Y-113529000D01*
X109800931Y-113576307D01*
X109576903Y-113669102D01*
X109375283Y-113803820D01*
X109203820Y-113975283D01*
X109069102Y-114176903D01*
X109048517Y-114226600D01*
X108731483Y-114226600D01*
X108710898Y-114176903D01*
X108576180Y-113975283D01*
X108404717Y-113803820D01*
X108203097Y-113669102D01*
X107979069Y-113576307D01*
X107741243Y-113529000D01*
X107498757Y-113529000D01*
X107260931Y-113576307D01*
X107036903Y-113669102D01*
X106835283Y-113803820D01*
X106663820Y-113975283D01*
X106529102Y-114176903D01*
X106508517Y-114226600D01*
X106312843Y-114226600D01*
X106312843Y-113910000D01*
X106305487Y-113835311D01*
X106283701Y-113763492D01*
X106248322Y-113697304D01*
X106200711Y-113639289D01*
X106142696Y-113591678D01*
X106076508Y-113556299D01*
X106004689Y-113534513D01*
X105930000Y-113527157D01*
X104230000Y-113527157D01*
X104155311Y-113534513D01*
X104083492Y-113556299D01*
X104017304Y-113591678D01*
X103959289Y-113639289D01*
X103911678Y-113697304D01*
X103876299Y-113763492D01*
X103854513Y-113835311D01*
X103847157Y-113910000D01*
X100635000Y-113910000D01*
X100635000Y-83264000D01*
X103020021Y-83264000D01*
X103022600Y-83290187D01*
X103022601Y-90349803D01*
X103020021Y-90376000D01*
X103030319Y-90480564D01*
X103060819Y-90581110D01*
X103060820Y-90581111D01*
X103110350Y-90673775D01*
X103127125Y-90694215D01*
X103160307Y-90734648D01*
X103160310Y-90734651D01*
X103177006Y-90754995D01*
X103197350Y-90771691D01*
X103916892Y-91491234D01*
X103896307Y-91540931D01*
X103849000Y-91778757D01*
X103849000Y-92021243D01*
X103896307Y-92259069D01*
X103916892Y-92308766D01*
X103197354Y-93028304D01*
X103177005Y-93045005D01*
X103110349Y-93126225D01*
X103060819Y-93218890D01*
X103030319Y-93319436D01*
X103022600Y-93397806D01*
X103022600Y-93397813D01*
X103020021Y-93424000D01*
X103022600Y-93450187D01*
X103022601Y-100509803D01*
X103020021Y-100536000D01*
X103030319Y-100640564D01*
X103060819Y-100741110D01*
X103060820Y-100741111D01*
X103110350Y-100833775D01*
X103137674Y-100867069D01*
X103160307Y-100894648D01*
X103160310Y-100894651D01*
X103177006Y-100914995D01*
X103197350Y-100931691D01*
X103916892Y-101651234D01*
X103896307Y-101700931D01*
X103849000Y-101938757D01*
X103849000Y-102181243D01*
X103896307Y-102419069D01*
X103916892Y-102468766D01*
X103197354Y-103188304D01*
X103177005Y-103205005D01*
X103110349Y-103286225D01*
X103060819Y-103378890D01*
X103030319Y-103479436D01*
X103022600Y-103557806D01*
X103022600Y-103557813D01*
X103020021Y-103584000D01*
X103022600Y-103610187D01*
X103022601Y-110669803D01*
X103020021Y-110696000D01*
X103030319Y-110800564D01*
X103060819Y-110901110D01*
X103060820Y-110901111D01*
X103110350Y-110993775D01*
X103137674Y-111027069D01*
X103160307Y-111054648D01*
X103160310Y-111054651D01*
X103177006Y-111074995D01*
X103197350Y-111091691D01*
X103916892Y-111811234D01*
X103896307Y-111860931D01*
X103849000Y-112098757D01*
X103849000Y-112341243D01*
X103896307Y-112579069D01*
X103989102Y-112803097D01*
X104123820Y-113004717D01*
X104295283Y-113176180D01*
X104496903Y-113310898D01*
X104720931Y-113403693D01*
X104958757Y-113451000D01*
X105201243Y-113451000D01*
X105439069Y-113403693D01*
X105663097Y-113310898D01*
X105864717Y-113176180D01*
X106036180Y-113004717D01*
X106170898Y-112803097D01*
X106263693Y-112579069D01*
X106311000Y-112341243D01*
X106311000Y-112098757D01*
X106263693Y-111860931D01*
X106170898Y-111636903D01*
X106036180Y-111435283D01*
X105864717Y-111263820D01*
X105663097Y-111129102D01*
X105439069Y-111036307D01*
X105201243Y-110989000D01*
X104958757Y-110989000D01*
X104720931Y-111036307D01*
X104671234Y-111056892D01*
X104089400Y-110475059D01*
X104089400Y-105805493D01*
X104155311Y-105825487D01*
X104230000Y-105832843D01*
X105816600Y-105832843D01*
X105816601Y-110923803D01*
X105814021Y-110950000D01*
X105824319Y-111054564D01*
X105854819Y-111155110D01*
X105854820Y-111155111D01*
X105904350Y-111247775D01*
X105917518Y-111263820D01*
X105954307Y-111308648D01*
X105954310Y-111308651D01*
X105971006Y-111328995D01*
X105991350Y-111345691D01*
X106456892Y-111811234D01*
X106436307Y-111860931D01*
X106389000Y-112098757D01*
X106389000Y-112341243D01*
X106436307Y-112579069D01*
X106529102Y-112803097D01*
X106663820Y-113004717D01*
X106835283Y-113176180D01*
X107036903Y-113310898D01*
X107260931Y-113403693D01*
X107498757Y-113451000D01*
X107741243Y-113451000D01*
X107979069Y-113403693D01*
X108203097Y-113310898D01*
X108404717Y-113176180D01*
X108576180Y-113004717D01*
X108710898Y-112803097D01*
X108803693Y-112579069D01*
X108851000Y-112341243D01*
X108851000Y-112098757D01*
X108803693Y-111860931D01*
X108710898Y-111636903D01*
X108576180Y-111435283D01*
X108404717Y-111263820D01*
X108203097Y-111129102D01*
X107979069Y-111036307D01*
X107741243Y-110989000D01*
X107498757Y-110989000D01*
X107260931Y-111036307D01*
X107211234Y-111056892D01*
X106883400Y-110729059D01*
X106883400Y-105588331D01*
X107036903Y-105690898D01*
X107260931Y-105783693D01*
X107498757Y-105831000D01*
X107741243Y-105831000D01*
X107979069Y-105783693D01*
X108203097Y-105690898D01*
X108404717Y-105556180D01*
X108576180Y-105384717D01*
X108710898Y-105183097D01*
X108803693Y-104959069D01*
X108851000Y-104721243D01*
X108851000Y-104478757D01*
X108929000Y-104478757D01*
X108929000Y-104721243D01*
X108976307Y-104959069D01*
X109069102Y-105183097D01*
X109203820Y-105384717D01*
X109375283Y-105556180D01*
X109576903Y-105690898D01*
X109800931Y-105783693D01*
X110038757Y-105831000D01*
X110281243Y-105831000D01*
X110519069Y-105783693D01*
X110743097Y-105690898D01*
X110944717Y-105556180D01*
X111116180Y-105384717D01*
X111250898Y-105183097D01*
X111343693Y-104959069D01*
X111391000Y-104721243D01*
X111391000Y-104478757D01*
X111343693Y-104240931D01*
X111250898Y-104016903D01*
X111116180Y-103815283D01*
X110944717Y-103643820D01*
X110743097Y-103509102D01*
X110519069Y-103416307D01*
X110281243Y-103369000D01*
X110038757Y-103369000D01*
X109800931Y-103416307D01*
X109576903Y-103509102D01*
X109375283Y-103643820D01*
X109203820Y-103815283D01*
X109069102Y-104016903D01*
X108976307Y-104240931D01*
X108929000Y-104478757D01*
X108851000Y-104478757D01*
X108803693Y-104240931D01*
X108710898Y-104016903D01*
X108576180Y-103815283D01*
X108404717Y-103643820D01*
X108203097Y-103509102D01*
X107979069Y-103416307D01*
X107741243Y-103369000D01*
X107498757Y-103369000D01*
X107260931Y-103416307D01*
X107036903Y-103509102D01*
X106883400Y-103611669D01*
X106883400Y-103550941D01*
X107211234Y-103223108D01*
X107260931Y-103243693D01*
X107498757Y-103291000D01*
X107741243Y-103291000D01*
X107979069Y-103243693D01*
X108203097Y-103150898D01*
X108404717Y-103016180D01*
X108576180Y-102844717D01*
X108710898Y-102643097D01*
X108803693Y-102419069D01*
X108851000Y-102181243D01*
X108851000Y-101938757D01*
X108803693Y-101700931D01*
X108710898Y-101476903D01*
X108576180Y-101275283D01*
X108404717Y-101103820D01*
X108203097Y-100969102D01*
X107979069Y-100876307D01*
X107741243Y-100829000D01*
X107498757Y-100829000D01*
X107260931Y-100876307D01*
X107211234Y-100896892D01*
X106883400Y-100569059D01*
X106883400Y-95428331D01*
X107036903Y-95530898D01*
X107260931Y-95623693D01*
X107498757Y-95671000D01*
X107741243Y-95671000D01*
X107979069Y-95623693D01*
X108203097Y-95530898D01*
X108404717Y-95396180D01*
X108576180Y-95224717D01*
X108710898Y-95023097D01*
X108803693Y-94799069D01*
X108851000Y-94561243D01*
X108851000Y-94318757D01*
X108929000Y-94318757D01*
X108929000Y-94561243D01*
X108976307Y-94799069D01*
X109069102Y-95023097D01*
X109203820Y-95224717D01*
X109375283Y-95396180D01*
X109576903Y-95530898D01*
X109800931Y-95623693D01*
X110038757Y-95671000D01*
X110281243Y-95671000D01*
X110519069Y-95623693D01*
X110743097Y-95530898D01*
X110944717Y-95396180D01*
X111116180Y-95224717D01*
X111250898Y-95023097D01*
X111343693Y-94799069D01*
X111391000Y-94561243D01*
X111391000Y-94318757D01*
X111343693Y-94080931D01*
X111250898Y-93856903D01*
X111116180Y-93655283D01*
X110944717Y-93483820D01*
X110743097Y-93349102D01*
X110519069Y-93256307D01*
X110281243Y-93209000D01*
X110038757Y-93209000D01*
X109800931Y-93256307D01*
X109576903Y-93349102D01*
X109375283Y-93483820D01*
X109203820Y-93655283D01*
X109069102Y-93856903D01*
X108976307Y-94080931D01*
X108929000Y-94318757D01*
X108851000Y-94318757D01*
X108803693Y-94080931D01*
X108710898Y-93856903D01*
X108576180Y-93655283D01*
X108404717Y-93483820D01*
X108203097Y-93349102D01*
X107979069Y-93256307D01*
X107741243Y-93209000D01*
X107498757Y-93209000D01*
X107260931Y-93256307D01*
X107036903Y-93349102D01*
X106883400Y-93451669D01*
X106883400Y-93390941D01*
X107211234Y-93063108D01*
X107260931Y-93083693D01*
X107498757Y-93131000D01*
X107741243Y-93131000D01*
X107979069Y-93083693D01*
X108203097Y-92990898D01*
X108404717Y-92856180D01*
X108576180Y-92684717D01*
X108710898Y-92483097D01*
X108803693Y-92259069D01*
X108851000Y-92021243D01*
X108851000Y-91778757D01*
X108803693Y-91540931D01*
X108710898Y-91316903D01*
X108576180Y-91115283D01*
X108404717Y-90943820D01*
X108203097Y-90809102D01*
X107979069Y-90716307D01*
X107741243Y-90669000D01*
X107498757Y-90669000D01*
X107260931Y-90716307D01*
X107211234Y-90736892D01*
X106883400Y-90409059D01*
X106883400Y-85268331D01*
X107036903Y-85370898D01*
X107260931Y-85463693D01*
X107498757Y-85511000D01*
X107741243Y-85511000D01*
X107979069Y-85463693D01*
X108203097Y-85370898D01*
X108404717Y-85236180D01*
X108576180Y-85064717D01*
X108710898Y-84863097D01*
X108803693Y-84639069D01*
X108851000Y-84401243D01*
X108851000Y-84158757D01*
X108929000Y-84158757D01*
X108929000Y-84401243D01*
X108976307Y-84639069D01*
X109069102Y-84863097D01*
X109203820Y-85064717D01*
X109375283Y-85236180D01*
X109576903Y-85370898D01*
X109800931Y-85463693D01*
X110038757Y-85511000D01*
X110281243Y-85511000D01*
X110519069Y-85463693D01*
X110743097Y-85370898D01*
X110944717Y-85236180D01*
X111116180Y-85064717D01*
X111250898Y-84863097D01*
X111343693Y-84639069D01*
X111391000Y-84401243D01*
X111391000Y-84158757D01*
X111343693Y-83920931D01*
X111250898Y-83696903D01*
X111116180Y-83495283D01*
X110944717Y-83323820D01*
X110743097Y-83189102D01*
X110519069Y-83096307D01*
X110281243Y-83049000D01*
X110038757Y-83049000D01*
X109800931Y-83096307D01*
X109576903Y-83189102D01*
X109375283Y-83323820D01*
X109203820Y-83495283D01*
X109069102Y-83696903D01*
X108976307Y-83920931D01*
X108929000Y-84158757D01*
X108851000Y-84158757D01*
X108803693Y-83920931D01*
X108710898Y-83696903D01*
X108576180Y-83495283D01*
X108404717Y-83323820D01*
X108203097Y-83189102D01*
X107979069Y-83096307D01*
X107741243Y-83049000D01*
X107498757Y-83049000D01*
X107260931Y-83096307D01*
X107036903Y-83189102D01*
X106883400Y-83291669D01*
X106883400Y-83230941D01*
X107211234Y-82903108D01*
X107260931Y-82923693D01*
X107498757Y-82971000D01*
X107741243Y-82971000D01*
X107979069Y-82923693D01*
X108203097Y-82830898D01*
X108404717Y-82696180D01*
X108576180Y-82524717D01*
X108710898Y-82323097D01*
X108803693Y-82099069D01*
X108851000Y-81861243D01*
X108851000Y-81618757D01*
X108929000Y-81618757D01*
X108929000Y-81861243D01*
X108976307Y-82099069D01*
X109069102Y-82323097D01*
X109203820Y-82524717D01*
X109375283Y-82696180D01*
X109576903Y-82830898D01*
X109800931Y-82923693D01*
X110038757Y-82971000D01*
X110281243Y-82971000D01*
X110519069Y-82923693D01*
X110568767Y-82903108D01*
X111404601Y-83738942D01*
X111404600Y-89901059D01*
X110568767Y-90736892D01*
X110519069Y-90716307D01*
X110281243Y-90669000D01*
X110038757Y-90669000D01*
X109800931Y-90716307D01*
X109576903Y-90809102D01*
X109375283Y-90943820D01*
X109203820Y-91115283D01*
X109069102Y-91316903D01*
X108976307Y-91540931D01*
X108929000Y-91778757D01*
X108929000Y-92021243D01*
X108976307Y-92259069D01*
X109069102Y-92483097D01*
X109203820Y-92684717D01*
X109375283Y-92856180D01*
X109576903Y-92990898D01*
X109800931Y-93083693D01*
X110038757Y-93131000D01*
X110281243Y-93131000D01*
X110519069Y-93083693D01*
X110568767Y-93063108D01*
X111404600Y-93898941D01*
X111404601Y-100061058D01*
X110568767Y-100896892D01*
X110519069Y-100876307D01*
X110281243Y-100829000D01*
X110038757Y-100829000D01*
X109800931Y-100876307D01*
X109576903Y-100969102D01*
X109375283Y-101103820D01*
X109203820Y-101275283D01*
X109069102Y-101476903D01*
X108976307Y-101700931D01*
X108929000Y-101938757D01*
X108929000Y-102181243D01*
X108976307Y-102419069D01*
X109069102Y-102643097D01*
X109203820Y-102844717D01*
X109375283Y-103016180D01*
X109576903Y-103150898D01*
X109800931Y-103243693D01*
X110038757Y-103291000D01*
X110281243Y-103291000D01*
X110519069Y-103243693D01*
X110568767Y-103223108D01*
X111404601Y-104058942D01*
X111404600Y-110221059D01*
X110568767Y-111056892D01*
X110519069Y-111036307D01*
X110281243Y-110989000D01*
X110038757Y-110989000D01*
X109800931Y-111036307D01*
X109576903Y-111129102D01*
X109375283Y-111263820D01*
X109203820Y-111435283D01*
X109069102Y-111636903D01*
X108976307Y-111860931D01*
X108929000Y-112098757D01*
X108929000Y-112341243D01*
X108976307Y-112579069D01*
X109069102Y-112803097D01*
X109203820Y-113004717D01*
X109375283Y-113176180D01*
X109576903Y-113310898D01*
X109800931Y-113403693D01*
X110038757Y-113451000D01*
X110281243Y-113451000D01*
X110519069Y-113403693D01*
X110743097Y-113310898D01*
X110944717Y-113176180D01*
X111116180Y-113004717D01*
X111250898Y-112803097D01*
X111343693Y-112579069D01*
X111391000Y-112341243D01*
X111391000Y-112098757D01*
X111343693Y-111860931D01*
X111323108Y-111811233D01*
X112296645Y-110837696D01*
X112316995Y-110820995D01*
X112383651Y-110739775D01*
X112433181Y-110647111D01*
X112463681Y-110546565D01*
X112471400Y-110468195D01*
X112471400Y-110468194D01*
X112473980Y-110442000D01*
X112471400Y-110415806D01*
X112471400Y-106554448D01*
X114452600Y-106554448D01*
X114452600Y-106709552D01*
X114482859Y-106861676D01*
X114542215Y-107004974D01*
X114628386Y-107133938D01*
X114706601Y-107212153D01*
X114706600Y-114479813D01*
X114704021Y-114506000D01*
X114706600Y-114532187D01*
X114706600Y-114532194D01*
X114714319Y-114610564D01*
X114744819Y-114711110D01*
X114794349Y-114803775D01*
X114861005Y-114884995D01*
X114881354Y-114901695D01*
X116114309Y-116134651D01*
X116131005Y-116154995D01*
X116212225Y-116221651D01*
X116304889Y-116271181D01*
X116405435Y-116301681D01*
X116483805Y-116309400D01*
X116483812Y-116309400D01*
X116509999Y-116311979D01*
X116536186Y-116309400D01*
X117199848Y-116309400D01*
X117278062Y-116387614D01*
X117407026Y-116473785D01*
X117550324Y-116533141D01*
X117702448Y-116563400D01*
X117857552Y-116563400D01*
X118009676Y-116533141D01*
X118152974Y-116473785D01*
X118281938Y-116387614D01*
X118391614Y-116277938D01*
X118477785Y-116148974D01*
X118537141Y-116005676D01*
X118567400Y-115853552D01*
X118567400Y-115698448D01*
X118537141Y-115546324D01*
X118477785Y-115403026D01*
X118391614Y-115274062D01*
X118281938Y-115164386D01*
X118152974Y-115078215D01*
X118009676Y-115018859D01*
X117857552Y-114988600D01*
X117702448Y-114988600D01*
X117550324Y-115018859D01*
X117407026Y-115078215D01*
X117278062Y-115164386D01*
X117199848Y-115242600D01*
X116730942Y-115242600D01*
X115773400Y-114285059D01*
X115773400Y-112142448D01*
X116738600Y-112142448D01*
X116738600Y-112297552D01*
X116768859Y-112449676D01*
X116828215Y-112592974D01*
X116914386Y-112721938D01*
X117024062Y-112831614D01*
X117153026Y-112917785D01*
X117296324Y-112977141D01*
X117448448Y-113007400D01*
X117603552Y-113007400D01*
X117755676Y-112977141D01*
X117898974Y-112917785D01*
X118027938Y-112831614D01*
X118137614Y-112721938D01*
X118223785Y-112592974D01*
X118283141Y-112449676D01*
X118313400Y-112297552D01*
X118313400Y-112186941D01*
X119662645Y-110837696D01*
X119682995Y-110820995D01*
X119749651Y-110739775D01*
X119799181Y-110647111D01*
X119829681Y-110546565D01*
X119837400Y-110468195D01*
X119837400Y-110468194D01*
X119839980Y-110442000D01*
X119837400Y-110415806D01*
X119837400Y-106427448D01*
X122453600Y-106427448D01*
X122453600Y-106582552D01*
X122483859Y-106734676D01*
X122543215Y-106877974D01*
X122629386Y-107006938D01*
X122739062Y-107116614D01*
X122868026Y-107202785D01*
X123011324Y-107262141D01*
X123163448Y-107292400D01*
X123318552Y-107292400D01*
X123470676Y-107262141D01*
X123613974Y-107202785D01*
X123742938Y-107116614D01*
X123852614Y-107006938D01*
X123938785Y-106877974D01*
X123998141Y-106734676D01*
X124028400Y-106582552D01*
X124028400Y-106427448D01*
X123998141Y-106275324D01*
X123938785Y-106132026D01*
X123852614Y-106003062D01*
X123774400Y-105924848D01*
X123774400Y-104439941D01*
X124996651Y-103217691D01*
X125016995Y-103200995D01*
X125083651Y-103119775D01*
X125133181Y-103027111D01*
X125163681Y-102926565D01*
X125171400Y-102848195D01*
X125171400Y-102848188D01*
X125173979Y-102822001D01*
X125171400Y-102795814D01*
X125171400Y-97560152D01*
X125249614Y-97481938D01*
X125335785Y-97352974D01*
X125395141Y-97209676D01*
X125425400Y-97057552D01*
X125425400Y-96902448D01*
X125395141Y-96750324D01*
X125335785Y-96607026D01*
X125249614Y-96478062D01*
X125139938Y-96368386D01*
X125010974Y-96282215D01*
X124867676Y-96222859D01*
X124715552Y-96192600D01*
X124560448Y-96192600D01*
X124408324Y-96222859D01*
X124265026Y-96282215D01*
X124136062Y-96368386D01*
X124026386Y-96478062D01*
X123940215Y-96607026D01*
X123880859Y-96750324D01*
X123850600Y-96902448D01*
X123850600Y-97057552D01*
X123880859Y-97209676D01*
X123940215Y-97352974D01*
X124026386Y-97481938D01*
X124104601Y-97560153D01*
X124104600Y-102601058D01*
X122882350Y-103823309D01*
X122862006Y-103840005D01*
X122845310Y-103860349D01*
X122845307Y-103860352D01*
X122827728Y-103881773D01*
X122795350Y-103921225D01*
X122795349Y-103921227D01*
X122745819Y-104013890D01*
X122715319Y-104114436D01*
X122705021Y-104219000D01*
X122707601Y-104245197D01*
X122707600Y-105924848D01*
X122629386Y-106003062D01*
X122543215Y-106132026D01*
X122483859Y-106275324D01*
X122453600Y-106427448D01*
X119837400Y-106427448D01*
X119837400Y-98978941D01*
X120540942Y-98275400D01*
X121263848Y-98275400D01*
X121342062Y-98353614D01*
X121471026Y-98439785D01*
X121614324Y-98499141D01*
X121766448Y-98529400D01*
X121921552Y-98529400D01*
X122073676Y-98499141D01*
X122216974Y-98439785D01*
X122345938Y-98353614D01*
X122455614Y-98243938D01*
X122541785Y-98114974D01*
X122601141Y-97971676D01*
X122631400Y-97819552D01*
X122631400Y-97664448D01*
X122601141Y-97512324D01*
X122541785Y-97369026D01*
X122455614Y-97240062D01*
X122345938Y-97130386D01*
X122216974Y-97044215D01*
X122073676Y-96984859D01*
X121921552Y-96954600D01*
X121766448Y-96954600D01*
X121614324Y-96984859D01*
X121471026Y-97044215D01*
X121342062Y-97130386D01*
X121263848Y-97208600D01*
X120346187Y-97208600D01*
X120320000Y-97206021D01*
X120293813Y-97208600D01*
X120293805Y-97208600D01*
X120215435Y-97216319D01*
X120114889Y-97246819D01*
X120022225Y-97296349D01*
X119941005Y-97363005D01*
X119924309Y-97383349D01*
X118945350Y-98362309D01*
X118925006Y-98379005D01*
X118908310Y-98399349D01*
X118908307Y-98399352D01*
X118885674Y-98426931D01*
X118858350Y-98460225D01*
X118858349Y-98460227D01*
X118808819Y-98552890D01*
X118778319Y-98653436D01*
X118768021Y-98758000D01*
X118770601Y-98784197D01*
X118770600Y-110221059D01*
X117559059Y-111432600D01*
X117448448Y-111432600D01*
X117296324Y-111462859D01*
X117153026Y-111522215D01*
X117024062Y-111608386D01*
X116914386Y-111718062D01*
X116828215Y-111847026D01*
X116768859Y-111990324D01*
X116738600Y-112142448D01*
X115773400Y-112142448D01*
X115773400Y-107212152D01*
X115851614Y-107133938D01*
X115937785Y-107004974D01*
X115997141Y-106861676D01*
X116027400Y-106709552D01*
X116027400Y-106554448D01*
X115997141Y-106402324D01*
X115937785Y-106259026D01*
X115851614Y-106130062D01*
X115741938Y-106020386D01*
X115612974Y-105934215D01*
X115469676Y-105874859D01*
X115317552Y-105844600D01*
X115162448Y-105844600D01*
X115010324Y-105874859D01*
X114867026Y-105934215D01*
X114738062Y-106020386D01*
X114628386Y-106130062D01*
X114542215Y-106259026D01*
X114482859Y-106402324D01*
X114452600Y-106554448D01*
X112471400Y-106554448D01*
X112471400Y-103864194D01*
X112473980Y-103838000D01*
X112467612Y-103773349D01*
X112463681Y-103733435D01*
X112433181Y-103632889D01*
X112383651Y-103540225D01*
X112316995Y-103459005D01*
X112296645Y-103442304D01*
X111323108Y-102468767D01*
X111343693Y-102419069D01*
X111391000Y-102181243D01*
X111391000Y-101938757D01*
X111343693Y-101700931D01*
X111323108Y-101651233D01*
X112296645Y-100677696D01*
X112316995Y-100660995D01*
X112383651Y-100579775D01*
X112433181Y-100487111D01*
X112463681Y-100386565D01*
X112471400Y-100308195D01*
X112471400Y-100308194D01*
X112473980Y-100282000D01*
X112471400Y-100255806D01*
X112471400Y-93704194D01*
X112473980Y-93678000D01*
X112467839Y-93615651D01*
X112463681Y-93573435D01*
X112433181Y-93472889D01*
X112383651Y-93380225D01*
X112316995Y-93299005D01*
X112296645Y-93282304D01*
X111323108Y-92308767D01*
X111343693Y-92259069D01*
X111391000Y-92021243D01*
X111391000Y-91778757D01*
X111343693Y-91540931D01*
X111323108Y-91491233D01*
X112296645Y-90517696D01*
X112316995Y-90500995D01*
X112383651Y-90419775D01*
X112433181Y-90327111D01*
X112463681Y-90226565D01*
X112471400Y-90148195D01*
X112471400Y-90148194D01*
X112473980Y-90122000D01*
X112471400Y-90095806D01*
X112471400Y-83544194D01*
X112473980Y-83518000D01*
X112467839Y-83455651D01*
X112463681Y-83413435D01*
X112433181Y-83312889D01*
X112383651Y-83220225D01*
X112316995Y-83139005D01*
X112296645Y-83122304D01*
X111323108Y-82148767D01*
X111343693Y-82099069D01*
X111391000Y-81861243D01*
X111391000Y-81618757D01*
X111343693Y-81380931D01*
X111250898Y-81156903D01*
X111116180Y-80955283D01*
X110944717Y-80783820D01*
X110743097Y-80649102D01*
X110519069Y-80556307D01*
X110281243Y-80509000D01*
X110038757Y-80509000D01*
X109800931Y-80556307D01*
X109576903Y-80649102D01*
X109375283Y-80783820D01*
X109203820Y-80955283D01*
X109069102Y-81156903D01*
X108976307Y-81380931D01*
X108929000Y-81618757D01*
X108851000Y-81618757D01*
X108803693Y-81380931D01*
X108710898Y-81156903D01*
X108576180Y-80955283D01*
X108404717Y-80783820D01*
X108203097Y-80649102D01*
X107979069Y-80556307D01*
X107741243Y-80509000D01*
X107498757Y-80509000D01*
X107260931Y-80556307D01*
X107036903Y-80649102D01*
X106835283Y-80783820D01*
X106663820Y-80955283D01*
X106529102Y-81156903D01*
X106436307Y-81380931D01*
X106389000Y-81618757D01*
X106389000Y-81861243D01*
X106436307Y-82099069D01*
X106456892Y-82148766D01*
X105991354Y-82614305D01*
X105971005Y-82631005D01*
X105904349Y-82712225D01*
X105854819Y-82804890D01*
X105824319Y-82905436D01*
X105816600Y-82983806D01*
X105816600Y-82983813D01*
X105814021Y-83010000D01*
X105816600Y-83036187D01*
X105816600Y-83047157D01*
X104527184Y-83047157D01*
X104671234Y-82903108D01*
X104720931Y-82923693D01*
X104958757Y-82971000D01*
X105201243Y-82971000D01*
X105439069Y-82923693D01*
X105663097Y-82830898D01*
X105864717Y-82696180D01*
X106036180Y-82524717D01*
X106170898Y-82323097D01*
X106263693Y-82099069D01*
X106311000Y-81861243D01*
X106311000Y-81618757D01*
X106263693Y-81380931D01*
X106170898Y-81156903D01*
X106036180Y-80955283D01*
X105864717Y-80783820D01*
X105663097Y-80649102D01*
X105613400Y-80628517D01*
X105613400Y-77090448D01*
X129692600Y-77090448D01*
X129692600Y-77245552D01*
X129722859Y-77397676D01*
X129782215Y-77540974D01*
X129868386Y-77669938D01*
X129946601Y-77748153D01*
X129946600Y-97461813D01*
X129944021Y-97488000D01*
X129946600Y-97514187D01*
X129946600Y-97514194D01*
X129954319Y-97592564D01*
X129984819Y-97693110D01*
X130034349Y-97785775D01*
X130101005Y-97866995D01*
X130121355Y-97883696D01*
X135026601Y-102788943D01*
X135026600Y-112147848D01*
X134948386Y-112226062D01*
X134862215Y-112355026D01*
X134802859Y-112498324D01*
X134772600Y-112650448D01*
X134772600Y-112805552D01*
X134802859Y-112957676D01*
X134862215Y-113100974D01*
X134948386Y-113229938D01*
X135058062Y-113339614D01*
X135187026Y-113425785D01*
X135330324Y-113485141D01*
X135482448Y-113515400D01*
X135637552Y-113515400D01*
X135789676Y-113485141D01*
X135850371Y-113460000D01*
X166897157Y-113460000D01*
X166897157Y-116060000D01*
X166904513Y-116134689D01*
X166926299Y-116206508D01*
X166961678Y-116272696D01*
X167009289Y-116330711D01*
X167067304Y-116378322D01*
X167133492Y-116413701D01*
X167205311Y-116435487D01*
X167280000Y-116442843D01*
X169880000Y-116442843D01*
X169954689Y-116435487D01*
X170026508Y-116413701D01*
X170092696Y-116378322D01*
X170150711Y-116330711D01*
X170198322Y-116272696D01*
X170233701Y-116206508D01*
X170255487Y-116134689D01*
X170262843Y-116060000D01*
X170262843Y-113460000D01*
X170255487Y-113385311D01*
X170233701Y-113313492D01*
X170198322Y-113247304D01*
X170150711Y-113189289D01*
X170092696Y-113141678D01*
X170026508Y-113106299D01*
X169954689Y-113084513D01*
X169880000Y-113077157D01*
X167280000Y-113077157D01*
X167205311Y-113084513D01*
X167133492Y-113106299D01*
X167067304Y-113141678D01*
X167009289Y-113189289D01*
X166961678Y-113247304D01*
X166926299Y-113313492D01*
X166904513Y-113385311D01*
X166897157Y-113460000D01*
X135850371Y-113460000D01*
X135932974Y-113425785D01*
X136061938Y-113339614D01*
X136171614Y-113229938D01*
X136257785Y-113100974D01*
X136317141Y-112957676D01*
X136347400Y-112805552D01*
X136347400Y-112650448D01*
X136317141Y-112498324D01*
X136257785Y-112355026D01*
X136171614Y-112226062D01*
X136093400Y-112147848D01*
X136093400Y-109514436D01*
X166899000Y-109514436D01*
X166899000Y-109845564D01*
X166963600Y-110170330D01*
X167090317Y-110476252D01*
X167274282Y-110751575D01*
X167508425Y-110985718D01*
X167783748Y-111169683D01*
X168089670Y-111296400D01*
X168414436Y-111361000D01*
X168745564Y-111361000D01*
X169070330Y-111296400D01*
X169376252Y-111169683D01*
X169651575Y-110985718D01*
X169885718Y-110751575D01*
X170069683Y-110476252D01*
X170196400Y-110170330D01*
X170261000Y-109845564D01*
X170261000Y-109514436D01*
X170196400Y-109189670D01*
X170069683Y-108883748D01*
X169885718Y-108608425D01*
X169651575Y-108374282D01*
X169376252Y-108190317D01*
X169070330Y-108063600D01*
X168745564Y-107999000D01*
X168414436Y-107999000D01*
X168089670Y-108063600D01*
X167783748Y-108190317D01*
X167508425Y-108374282D01*
X167274282Y-108608425D01*
X167090317Y-108883748D01*
X166963600Y-109189670D01*
X166899000Y-109514436D01*
X136093400Y-109514436D01*
X136093400Y-102594187D01*
X136095979Y-102568000D01*
X136093400Y-102541813D01*
X136093400Y-102541805D01*
X136085681Y-102463435D01*
X136055181Y-102362889D01*
X136005651Y-102270225D01*
X135938995Y-102189005D01*
X135918651Y-102172309D01*
X131013400Y-97267059D01*
X131013400Y-91314448D01*
X132232600Y-91314448D01*
X132232600Y-91469552D01*
X132262859Y-91621676D01*
X132322215Y-91764974D01*
X132408386Y-91893938D01*
X132486601Y-91972153D01*
X132486601Y-93548995D01*
X132486600Y-95683813D01*
X132484021Y-95710000D01*
X132486600Y-95736187D01*
X132486600Y-95736194D01*
X132494319Y-95814564D01*
X132524819Y-95915110D01*
X132574349Y-96007775D01*
X132641005Y-96088995D01*
X132661355Y-96105696D01*
X136042600Y-99486941D01*
X136042600Y-99597552D01*
X136072859Y-99749676D01*
X136132215Y-99892974D01*
X136218386Y-100021938D01*
X136328062Y-100131614D01*
X136457026Y-100217785D01*
X136600324Y-100277141D01*
X136752448Y-100307400D01*
X136907552Y-100307400D01*
X137059676Y-100277141D01*
X137202974Y-100217785D01*
X137331938Y-100131614D01*
X137441614Y-100021938D01*
X137527785Y-99892974D01*
X137587141Y-99749676D01*
X137617400Y-99597552D01*
X137617400Y-99442448D01*
X137587141Y-99290324D01*
X137527785Y-99147026D01*
X137441614Y-99018062D01*
X137331938Y-98908386D01*
X137202974Y-98822215D01*
X137059676Y-98762859D01*
X136907552Y-98732600D01*
X136796941Y-98732600D01*
X133553400Y-95489059D01*
X133553400Y-93092448D01*
X135280600Y-93092448D01*
X135280600Y-93247552D01*
X135310859Y-93399676D01*
X135370215Y-93542974D01*
X135456386Y-93671938D01*
X135566062Y-93781614D01*
X135695026Y-93867785D01*
X135838324Y-93927141D01*
X135990448Y-93957400D01*
X136101059Y-93957400D01*
X139344601Y-97200942D01*
X139344600Y-101733848D01*
X139266386Y-101812062D01*
X139180215Y-101941026D01*
X139120859Y-102084324D01*
X139090600Y-102236448D01*
X139090600Y-102391552D01*
X139120859Y-102543676D01*
X139180215Y-102686974D01*
X139266386Y-102815938D01*
X139376062Y-102925614D01*
X139505026Y-103011785D01*
X139648324Y-103071141D01*
X139800448Y-103101400D01*
X139955552Y-103101400D01*
X140107676Y-103071141D01*
X140250974Y-103011785D01*
X140379938Y-102925614D01*
X140489614Y-102815938D01*
X140575785Y-102686974D01*
X140635141Y-102543676D01*
X140665400Y-102391552D01*
X140665400Y-102236448D01*
X140635141Y-102084324D01*
X140575785Y-101941026D01*
X140489614Y-101812062D01*
X140411400Y-101733848D01*
X140411400Y-97006194D01*
X140413980Y-96980000D01*
X140403681Y-96875436D01*
X140373181Y-96774889D01*
X140360051Y-96750324D01*
X140323651Y-96682225D01*
X140256995Y-96601005D01*
X140236645Y-96584304D01*
X136855400Y-93203059D01*
X136855400Y-93092448D01*
X136825141Y-92940324D01*
X136765785Y-92797026D01*
X136679614Y-92668062D01*
X136673552Y-92662000D01*
X158293000Y-92662000D01*
X158293000Y-101298000D01*
X158295440Y-101322776D01*
X158302667Y-101346601D01*
X158314403Y-101368557D01*
X158330197Y-101387803D01*
X158838197Y-101895803D01*
X158857443Y-101911597D01*
X158879399Y-101923333D01*
X158903224Y-101930560D01*
X158928000Y-101933000D01*
X168072000Y-101933000D01*
X168096776Y-101930560D01*
X168120601Y-101923333D01*
X168142557Y-101911597D01*
X168161803Y-101895803D01*
X168669803Y-101387803D01*
X168685597Y-101368557D01*
X168697333Y-101346601D01*
X168704560Y-101322776D01*
X168707000Y-101298000D01*
X168707000Y-92662000D01*
X168704560Y-92637224D01*
X168697333Y-92613399D01*
X168685597Y-92591443D01*
X168669803Y-92572197D01*
X168161803Y-92064197D01*
X168142557Y-92048403D01*
X168120601Y-92036667D01*
X168096776Y-92029440D01*
X168072000Y-92027000D01*
X158928000Y-92027000D01*
X158903224Y-92029440D01*
X158879399Y-92036667D01*
X158857443Y-92048403D01*
X158838197Y-92064197D01*
X158330197Y-92572197D01*
X158314403Y-92591443D01*
X158302667Y-92613399D01*
X158295440Y-92637224D01*
X158293000Y-92662000D01*
X136673552Y-92662000D01*
X136569938Y-92558386D01*
X136440974Y-92472215D01*
X136297676Y-92412859D01*
X136145552Y-92382600D01*
X135990448Y-92382600D01*
X135838324Y-92412859D01*
X135695026Y-92472215D01*
X135566062Y-92558386D01*
X135456386Y-92668062D01*
X135370215Y-92797026D01*
X135310859Y-92940324D01*
X135280600Y-93092448D01*
X133553400Y-93092448D01*
X133553400Y-91972152D01*
X133631614Y-91893938D01*
X133717785Y-91764974D01*
X133777141Y-91621676D01*
X133807400Y-91469552D01*
X133807400Y-91314448D01*
X133777141Y-91162324D01*
X133717785Y-91019026D01*
X133631614Y-90890062D01*
X133521938Y-90780386D01*
X133392974Y-90694215D01*
X133249676Y-90634859D01*
X133097552Y-90604600D01*
X132942448Y-90604600D01*
X132790324Y-90634859D01*
X132647026Y-90694215D01*
X132518062Y-90780386D01*
X132408386Y-90890062D01*
X132322215Y-91019026D01*
X132262859Y-91162324D01*
X132232600Y-91314448D01*
X131013400Y-91314448D01*
X131013400Y-77748152D01*
X131091614Y-77669938D01*
X131177785Y-77540974D01*
X131237141Y-77397676D01*
X131267400Y-77245552D01*
X131267400Y-77090448D01*
X131237141Y-76938324D01*
X131177785Y-76795026D01*
X131091614Y-76666062D01*
X130981938Y-76556386D01*
X130852974Y-76470215D01*
X130709676Y-76410859D01*
X130557552Y-76380600D01*
X130402448Y-76380600D01*
X130250324Y-76410859D01*
X130107026Y-76470215D01*
X129978062Y-76556386D01*
X129868386Y-76666062D01*
X129782215Y-76795026D01*
X129722859Y-76938324D01*
X129692600Y-77090448D01*
X105613400Y-77090448D01*
X105613400Y-75352843D01*
X105930000Y-75352843D01*
X106004689Y-75345487D01*
X106076508Y-75323701D01*
X106142696Y-75288322D01*
X106200711Y-75240711D01*
X106248322Y-75182696D01*
X106283701Y-75116508D01*
X106305487Y-75044689D01*
X106312843Y-74970000D01*
X106312843Y-73998757D01*
X106389000Y-73998757D01*
X106389000Y-74241243D01*
X106436307Y-74479069D01*
X106529102Y-74703097D01*
X106663820Y-74904717D01*
X106835283Y-75076180D01*
X107036903Y-75210898D01*
X107260931Y-75303693D01*
X107498757Y-75351000D01*
X107741243Y-75351000D01*
X107979069Y-75303693D01*
X108203097Y-75210898D01*
X108404717Y-75076180D01*
X108576180Y-74904717D01*
X108710898Y-74703097D01*
X108803693Y-74479069D01*
X108851000Y-74241243D01*
X108851000Y-73998757D01*
X108803693Y-73760931D01*
X108710898Y-73536903D01*
X108576180Y-73335283D01*
X108404717Y-73163820D01*
X108203097Y-73029102D01*
X107979069Y-72936307D01*
X107741243Y-72889000D01*
X107498757Y-72889000D01*
X107260931Y-72936307D01*
X107036903Y-73029102D01*
X106835283Y-73163820D01*
X106663820Y-73335283D01*
X106529102Y-73536903D01*
X106436307Y-73760931D01*
X106389000Y-73998757D01*
X106312843Y-73998757D01*
X106312843Y-73270000D01*
X106305487Y-73195311D01*
X106283701Y-73123492D01*
X106248322Y-73057304D01*
X106200711Y-72999289D01*
X106142696Y-72951678D01*
X106076508Y-72916299D01*
X106004689Y-72894513D01*
X105930000Y-72887157D01*
X105797184Y-72887157D01*
X106570942Y-72113400D01*
X111403813Y-72113400D01*
X111430000Y-72115979D01*
X111456187Y-72113400D01*
X111456195Y-72113400D01*
X111534565Y-72105681D01*
X111635111Y-72075181D01*
X111727775Y-72025651D01*
X111808995Y-71958995D01*
X111825695Y-71938646D01*
X112007893Y-71756448D01*
X122072600Y-71756448D01*
X122072600Y-71911552D01*
X122102859Y-72063676D01*
X122162215Y-72206974D01*
X122248386Y-72335938D01*
X122358062Y-72445614D01*
X122487026Y-72531785D01*
X122630324Y-72591141D01*
X122782448Y-72621400D01*
X122937552Y-72621400D01*
X123089676Y-72591141D01*
X123232974Y-72531785D01*
X123361938Y-72445614D01*
X123471614Y-72335938D01*
X123557785Y-72206974D01*
X123617141Y-72063676D01*
X123647400Y-71911552D01*
X123647400Y-71756448D01*
X123617141Y-71604324D01*
X123557785Y-71461026D01*
X123471614Y-71332062D01*
X123393400Y-71253848D01*
X123393400Y-63926941D01*
X125366942Y-61953400D01*
X141689679Y-61953400D01*
X141778936Y-62168884D01*
X141951957Y-62427829D01*
X142172171Y-62648043D01*
X142431116Y-62821064D01*
X142718839Y-62940243D01*
X143024285Y-63001000D01*
X143335715Y-63001000D01*
X143641161Y-62940243D01*
X143928884Y-62821064D01*
X144187829Y-62648043D01*
X144408043Y-62427829D01*
X144581064Y-62168884D01*
X144700243Y-61881161D01*
X144761000Y-61575715D01*
X144761000Y-61264285D01*
X144700243Y-60958839D01*
X144581064Y-60671116D01*
X144408043Y-60412171D01*
X144187829Y-60191957D01*
X143928884Y-60018936D01*
X143641161Y-59899757D01*
X143335715Y-59839000D01*
X143024285Y-59839000D01*
X142718839Y-59899757D01*
X142431116Y-60018936D01*
X142172171Y-60191957D01*
X141951957Y-60412171D01*
X141778936Y-60671116D01*
X141689679Y-60886600D01*
X125172186Y-60886600D01*
X125145999Y-60884021D01*
X125119812Y-60886600D01*
X125119805Y-60886600D01*
X125041435Y-60894319D01*
X124940889Y-60924819D01*
X124848225Y-60974349D01*
X124767005Y-61041005D01*
X124750309Y-61061349D01*
X122501355Y-63310304D01*
X122481005Y-63327005D01*
X122414349Y-63408225D01*
X122364819Y-63500890D01*
X122334319Y-63601436D01*
X122326600Y-63679806D01*
X122326600Y-63679813D01*
X122324021Y-63706000D01*
X122326600Y-63732187D01*
X122326601Y-71253847D01*
X122248386Y-71332062D01*
X122162215Y-71461026D01*
X122102859Y-71604324D01*
X122072600Y-71756448D01*
X112007893Y-71756448D01*
X113058651Y-70705691D01*
X113078995Y-70688995D01*
X113145651Y-70607775D01*
X113195181Y-70515111D01*
X113225681Y-70414565D01*
X113233400Y-70336195D01*
X113233400Y-70336188D01*
X113235979Y-70310001D01*
X113233400Y-70283814D01*
X113233400Y-62910321D01*
X113448884Y-62821064D01*
X113707829Y-62648043D01*
X113928043Y-62427829D01*
X114101064Y-62168884D01*
X114220243Y-61881161D01*
X114281000Y-61575715D01*
X114281000Y-61264285D01*
X114220243Y-60958839D01*
X114101064Y-60671116D01*
X113928043Y-60412171D01*
X113707829Y-60191957D01*
X113448884Y-60018936D01*
X113161161Y-59899757D01*
X112855715Y-59839000D01*
X112544285Y-59839000D01*
X112238839Y-59899757D01*
X111951116Y-60018936D01*
X111692171Y-60191957D01*
X111471957Y-60412171D01*
X111298936Y-60671116D01*
X111179757Y-60958839D01*
X111119000Y-61264285D01*
X111119000Y-61575715D01*
X111179757Y-61881161D01*
X111298936Y-62168884D01*
X111471957Y-62427829D01*
X111692171Y-62648043D01*
X111951116Y-62821064D01*
X112166601Y-62910321D01*
X112166600Y-70089058D01*
X111209059Y-71046600D01*
X106376186Y-71046600D01*
X106349999Y-71044021D01*
X106323812Y-71046600D01*
X106323805Y-71046600D01*
X106245435Y-71054319D01*
X106144889Y-71084819D01*
X106052225Y-71134349D01*
X105971005Y-71201005D01*
X105954309Y-71221349D01*
X104721350Y-72454309D01*
X104701006Y-72471005D01*
X104684310Y-72491349D01*
X104684307Y-72491352D01*
X104661674Y-72518931D01*
X104634350Y-72552225D01*
X104634349Y-72552227D01*
X104584819Y-72644890D01*
X104554319Y-72745436D01*
X104544021Y-72850000D01*
X104546601Y-72876196D01*
X104546601Y-72887157D01*
X104230000Y-72887157D01*
X104155311Y-72894513D01*
X104083492Y-72916299D01*
X104017304Y-72951678D01*
X103959289Y-72999289D01*
X103911678Y-73057304D01*
X103876299Y-73123492D01*
X103854513Y-73195311D01*
X103847157Y-73270000D01*
X103847157Y-74970000D01*
X103854513Y-75044689D01*
X103876299Y-75116508D01*
X103911678Y-75182696D01*
X103959289Y-75240711D01*
X104017304Y-75288322D01*
X104083492Y-75323701D01*
X104155311Y-75345487D01*
X104230000Y-75352843D01*
X104546600Y-75352843D01*
X104546601Y-80628517D01*
X104496903Y-80649102D01*
X104295283Y-80783820D01*
X104123820Y-80955283D01*
X103989102Y-81156903D01*
X103896307Y-81380931D01*
X103849000Y-81618757D01*
X103849000Y-81861243D01*
X103896307Y-82099069D01*
X103916892Y-82148766D01*
X103197354Y-82868304D01*
X103177005Y-82885005D01*
X103110349Y-82966225D01*
X103060819Y-83058890D01*
X103030319Y-83159436D01*
X103022600Y-83237806D01*
X103022600Y-83237813D01*
X103020021Y-83264000D01*
X100635000Y-83264000D01*
X100635000Y-68918757D01*
X103849000Y-68918757D01*
X103849000Y-69161243D01*
X103896307Y-69399069D01*
X103989102Y-69623097D01*
X104123820Y-69824717D01*
X104295283Y-69996180D01*
X104496903Y-70130898D01*
X104720931Y-70223693D01*
X104958757Y-70271000D01*
X105201243Y-70271000D01*
X105439069Y-70223693D01*
X105663097Y-70130898D01*
X105864717Y-69996180D01*
X106036180Y-69824717D01*
X106170898Y-69623097D01*
X106263693Y-69399069D01*
X106311000Y-69161243D01*
X106311000Y-68918757D01*
X106263693Y-68680931D01*
X106170898Y-68456903D01*
X106036180Y-68255283D01*
X105970897Y-68190000D01*
X106387157Y-68190000D01*
X106387157Y-69890000D01*
X106394513Y-69964689D01*
X106416299Y-70036508D01*
X106451678Y-70102696D01*
X106499289Y-70160711D01*
X106557304Y-70208322D01*
X106623492Y-70243701D01*
X106695311Y-70265487D01*
X106770000Y-70272843D01*
X108470000Y-70272843D01*
X108544689Y-70265487D01*
X108616508Y-70243701D01*
X108682696Y-70208322D01*
X108740711Y-70160711D01*
X108788322Y-70102696D01*
X108823701Y-70036508D01*
X108845487Y-69964689D01*
X108852843Y-69890000D01*
X108852843Y-68190000D01*
X108845487Y-68115311D01*
X108823701Y-68043492D01*
X108788322Y-67977304D01*
X108740711Y-67919289D01*
X108682696Y-67871678D01*
X108616508Y-67836299D01*
X108544689Y-67814513D01*
X108470000Y-67807157D01*
X106770000Y-67807157D01*
X106695311Y-67814513D01*
X106623492Y-67836299D01*
X106557304Y-67871678D01*
X106499289Y-67919289D01*
X106451678Y-67977304D01*
X106416299Y-68043492D01*
X106394513Y-68115311D01*
X106387157Y-68190000D01*
X105970897Y-68190000D01*
X105864717Y-68083820D01*
X105663097Y-67949102D01*
X105439069Y-67856307D01*
X105201243Y-67809000D01*
X104958757Y-67809000D01*
X104720931Y-67856307D01*
X104496903Y-67949102D01*
X104295283Y-68083820D01*
X104123820Y-68255283D01*
X103989102Y-68456903D01*
X103896307Y-68680931D01*
X103849000Y-68918757D01*
X100635000Y-68918757D01*
X100635000Y-58527302D01*
X101499000Y-58527302D01*
X101499000Y-59232698D01*
X101636616Y-59924539D01*
X101906559Y-60576240D01*
X102298456Y-61162754D01*
X102797246Y-61661544D01*
X103383760Y-62053441D01*
X104035461Y-62323384D01*
X104727302Y-62461000D01*
X105432698Y-62461000D01*
X106124539Y-62323384D01*
X106776240Y-62053441D01*
X107362754Y-61661544D01*
X107861544Y-61162754D01*
X108253441Y-60576240D01*
X108523384Y-59924539D01*
X108661000Y-59232698D01*
X108661000Y-58527302D01*
X167539000Y-58527302D01*
X167539000Y-59232698D01*
X167676616Y-59924539D01*
X167946559Y-60576240D01*
X168338456Y-61162754D01*
X168837246Y-61661544D01*
X169423760Y-62053441D01*
X170075461Y-62323384D01*
X170767302Y-62461000D01*
X171472698Y-62461000D01*
X172164539Y-62323384D01*
X172816240Y-62053441D01*
X173402754Y-61661544D01*
X173901544Y-61162754D01*
X174293441Y-60576240D01*
X174563384Y-59924539D01*
X174701000Y-59232698D01*
X174701000Y-58527302D01*
X174563384Y-57835461D01*
X174293441Y-57183760D01*
X173901544Y-56597246D01*
X173402754Y-56098456D01*
X172816240Y-55706559D01*
X172164539Y-55436616D01*
X171472698Y-55299000D01*
X170767302Y-55299000D01*
X170075461Y-55436616D01*
X169423760Y-55706559D01*
X168837246Y-56098456D01*
X168338456Y-56597246D01*
X167946559Y-57183760D01*
X167676616Y-57835461D01*
X167539000Y-58527302D01*
X108661000Y-58527302D01*
X108523384Y-57835461D01*
X108253441Y-57183760D01*
X107861544Y-56597246D01*
X107362754Y-56098456D01*
X106776240Y-55706559D01*
X106124539Y-55436616D01*
X105432698Y-55299000D01*
X104727302Y-55299000D01*
X104035461Y-55436616D01*
X103383760Y-55706559D01*
X102797246Y-56098456D01*
X102298456Y-56597246D01*
X101906559Y-57183760D01*
X101636616Y-57835461D01*
X101499000Y-58527302D01*
X100635000Y-58527302D01*
X100635000Y-54868606D01*
X100699606Y-54804000D01*
X113105715Y-54804000D01*
X113105715Y-58116000D01*
X115596286Y-58116000D01*
X115596286Y-54804000D01*
X113105715Y-54804000D01*
X100699606Y-54804000D01*
X101068606Y-54435000D01*
X175131394Y-54435000D01*
X175565000Y-54868606D01*
%TA.AperFunction,Conductor*%
D27*
G36*
X175565000Y-54868606D02*
G01*
X175565000Y-63399394D01*
X175131394Y-63833000D01*
X161468000Y-63833000D01*
X161443224Y-63835440D01*
X161419399Y-63842667D01*
X161397443Y-63854403D01*
X161378197Y-63870197D01*
X160870197Y-64378197D01*
X160854403Y-64397443D01*
X160842667Y-64419399D01*
X160835440Y-64443224D01*
X160833000Y-64468000D01*
X160833000Y-77676000D01*
X160835440Y-77700776D01*
X160842667Y-77724601D01*
X160854403Y-77746557D01*
X160870197Y-77765803D01*
X161378197Y-78273803D01*
X161397443Y-78289597D01*
X161419399Y-78301333D01*
X161443224Y-78308560D01*
X161468000Y-78311000D01*
X175131394Y-78311000D01*
X175565000Y-78744606D01*
X175565000Y-128931394D01*
X175131394Y-129365000D01*
X101068606Y-129365000D01*
X100635000Y-128931394D01*
X100635000Y-124567302D01*
X101499000Y-124567302D01*
X101499000Y-125272698D01*
X101636616Y-125964539D01*
X101906559Y-126616240D01*
X102298456Y-127202754D01*
X102797246Y-127701544D01*
X103383760Y-128093441D01*
X104035461Y-128363384D01*
X104727302Y-128501000D01*
X105432698Y-128501000D01*
X106124539Y-128363384D01*
X106776240Y-128093441D01*
X107362754Y-127701544D01*
X107861544Y-127202754D01*
X108253441Y-126616240D01*
X108523384Y-125964539D01*
X108661000Y-125272698D01*
X108661000Y-124567302D01*
X167539000Y-124567302D01*
X167539000Y-125272698D01*
X167676616Y-125964539D01*
X167946559Y-126616240D01*
X168338456Y-127202754D01*
X168837246Y-127701544D01*
X169423760Y-128093441D01*
X170075461Y-128363384D01*
X170767302Y-128501000D01*
X171472698Y-128501000D01*
X172164539Y-128363384D01*
X172816240Y-128093441D01*
X173402754Y-127701544D01*
X173901544Y-127202754D01*
X174293441Y-126616240D01*
X174563384Y-125964539D01*
X174701000Y-125272698D01*
X174701000Y-124567302D01*
X174563384Y-123875461D01*
X174293441Y-123223760D01*
X173901544Y-122637246D01*
X173402754Y-122138456D01*
X172816240Y-121746559D01*
X172164539Y-121476616D01*
X171472698Y-121339000D01*
X170767302Y-121339000D01*
X170075461Y-121476616D01*
X169423760Y-121746559D01*
X168837246Y-122138456D01*
X168338456Y-122637246D01*
X167946559Y-123223760D01*
X167676616Y-123875461D01*
X167539000Y-124567302D01*
X108661000Y-124567302D01*
X108523384Y-123875461D01*
X108253441Y-123223760D01*
X107861544Y-122637246D01*
X107448583Y-122224285D01*
X154299000Y-122224285D01*
X154299000Y-122535715D01*
X154359757Y-122841161D01*
X154478936Y-123128884D01*
X154651957Y-123387829D01*
X154872171Y-123608043D01*
X155131116Y-123781064D01*
X155418839Y-123900243D01*
X155724285Y-123961000D01*
X156035715Y-123961000D01*
X156341161Y-123900243D01*
X156628884Y-123781064D01*
X156887829Y-123608043D01*
X157108043Y-123387829D01*
X157281064Y-123128884D01*
X157400243Y-122841161D01*
X157461000Y-122535715D01*
X157461000Y-122224285D01*
X157400243Y-121918839D01*
X157281064Y-121631116D01*
X157108043Y-121372171D01*
X156887829Y-121151957D01*
X156628884Y-120978936D01*
X156341161Y-120859757D01*
X156035715Y-120799000D01*
X155724285Y-120799000D01*
X155418839Y-120859757D01*
X155131116Y-120978936D01*
X154872171Y-121151957D01*
X154651957Y-121372171D01*
X154478936Y-121631116D01*
X154359757Y-121918839D01*
X154299000Y-122224285D01*
X107448583Y-122224285D01*
X107362754Y-122138456D01*
X106776240Y-121746559D01*
X106124539Y-121476616D01*
X105432698Y-121339000D01*
X104727302Y-121339000D01*
X104035461Y-121476616D01*
X103383760Y-121746559D01*
X102797246Y-122138456D01*
X102298456Y-122637246D01*
X101906559Y-123223760D01*
X101636616Y-123875461D01*
X101499000Y-124567302D01*
X100635000Y-124567302D01*
X100635000Y-113910000D01*
X103847157Y-113910000D01*
X103847157Y-115610000D01*
X103854513Y-115684689D01*
X103876299Y-115756508D01*
X103911678Y-115822696D01*
X103959289Y-115880711D01*
X104017304Y-115928322D01*
X104083492Y-115963701D01*
X104155311Y-115985487D01*
X104230000Y-115992843D01*
X105930000Y-115992843D01*
X106004689Y-115985487D01*
X106076508Y-115963701D01*
X106142696Y-115928322D01*
X106200711Y-115880711D01*
X106248322Y-115822696D01*
X106283701Y-115756508D01*
X106305487Y-115684689D01*
X106312843Y-115610000D01*
X106312843Y-115293400D01*
X106508517Y-115293400D01*
X106529102Y-115343097D01*
X106663820Y-115544717D01*
X106835283Y-115716180D01*
X107036903Y-115850898D01*
X107260931Y-115943693D01*
X107498757Y-115991000D01*
X107741243Y-115991000D01*
X107979069Y-115943693D01*
X108203097Y-115850898D01*
X108404717Y-115716180D01*
X108576180Y-115544717D01*
X108710898Y-115343097D01*
X108731483Y-115293400D01*
X109048517Y-115293400D01*
X109069102Y-115343097D01*
X109203820Y-115544717D01*
X109375283Y-115716180D01*
X109576903Y-115850898D01*
X109800931Y-115943693D01*
X110038757Y-115991000D01*
X110281243Y-115991000D01*
X110519069Y-115943693D01*
X110743097Y-115850898D01*
X110944717Y-115716180D01*
X111116180Y-115544717D01*
X111250898Y-115343097D01*
X111343693Y-115119069D01*
X111391000Y-114881243D01*
X111391000Y-114638757D01*
X111343693Y-114400931D01*
X111250898Y-114176903D01*
X111116180Y-113975283D01*
X110944717Y-113803820D01*
X110743097Y-113669102D01*
X110519069Y-113576307D01*
X110281243Y-113529000D01*
X110038757Y-113529000D01*
X109800931Y-113576307D01*
X109576903Y-113669102D01*
X109375283Y-113803820D01*
X109203820Y-113975283D01*
X109069102Y-114176903D01*
X109048517Y-114226600D01*
X108731483Y-114226600D01*
X108710898Y-114176903D01*
X108576180Y-113975283D01*
X108404717Y-113803820D01*
X108203097Y-113669102D01*
X107979069Y-113576307D01*
X107741243Y-113529000D01*
X107498757Y-113529000D01*
X107260931Y-113576307D01*
X107036903Y-113669102D01*
X106835283Y-113803820D01*
X106663820Y-113975283D01*
X106529102Y-114176903D01*
X106508517Y-114226600D01*
X106312843Y-114226600D01*
X106312843Y-113910000D01*
X106305487Y-113835311D01*
X106283701Y-113763492D01*
X106248322Y-113697304D01*
X106200711Y-113639289D01*
X106142696Y-113591678D01*
X106076508Y-113556299D01*
X106004689Y-113534513D01*
X105930000Y-113527157D01*
X104230000Y-113527157D01*
X104155311Y-113534513D01*
X104083492Y-113556299D01*
X104017304Y-113591678D01*
X103959289Y-113639289D01*
X103911678Y-113697304D01*
X103876299Y-113763492D01*
X103854513Y-113835311D01*
X103847157Y-113910000D01*
X100635000Y-113910000D01*
X100635000Y-83264000D01*
X103020021Y-83264000D01*
X103022600Y-83290187D01*
X103022601Y-90349803D01*
X103020021Y-90376000D01*
X103030319Y-90480564D01*
X103060819Y-90581110D01*
X103060820Y-90581111D01*
X103110350Y-90673775D01*
X103127125Y-90694215D01*
X103160307Y-90734648D01*
X103160310Y-90734651D01*
X103177006Y-90754995D01*
X103197350Y-90771691D01*
X103916892Y-91491234D01*
X103896307Y-91540931D01*
X103849000Y-91778757D01*
X103849000Y-92021243D01*
X103896307Y-92259069D01*
X103916892Y-92308766D01*
X103197354Y-93028304D01*
X103177005Y-93045005D01*
X103110349Y-93126225D01*
X103060819Y-93218890D01*
X103030319Y-93319436D01*
X103022600Y-93397806D01*
X103022600Y-93397813D01*
X103020021Y-93424000D01*
X103022600Y-93450187D01*
X103022601Y-100509803D01*
X103020021Y-100536000D01*
X103030319Y-100640564D01*
X103060819Y-100741110D01*
X103060820Y-100741111D01*
X103110350Y-100833775D01*
X103137674Y-100867069D01*
X103160307Y-100894648D01*
X103160310Y-100894651D01*
X103177006Y-100914995D01*
X103197350Y-100931691D01*
X103916892Y-101651234D01*
X103896307Y-101700931D01*
X103849000Y-101938757D01*
X103849000Y-102181243D01*
X103896307Y-102419069D01*
X103916892Y-102468766D01*
X103197354Y-103188304D01*
X103177005Y-103205005D01*
X103110349Y-103286225D01*
X103060819Y-103378890D01*
X103030319Y-103479436D01*
X103022600Y-103557806D01*
X103022600Y-103557813D01*
X103020021Y-103584000D01*
X103022600Y-103610187D01*
X103022601Y-110669803D01*
X103020021Y-110696000D01*
X103030319Y-110800564D01*
X103060819Y-110901110D01*
X103060820Y-110901111D01*
X103110350Y-110993775D01*
X103137674Y-111027069D01*
X103160307Y-111054648D01*
X103160310Y-111054651D01*
X103177006Y-111074995D01*
X103197350Y-111091691D01*
X103916892Y-111811234D01*
X103896307Y-111860931D01*
X103849000Y-112098757D01*
X103849000Y-112341243D01*
X103896307Y-112579069D01*
X103989102Y-112803097D01*
X104123820Y-113004717D01*
X104295283Y-113176180D01*
X104496903Y-113310898D01*
X104720931Y-113403693D01*
X104958757Y-113451000D01*
X105201243Y-113451000D01*
X105439069Y-113403693D01*
X105663097Y-113310898D01*
X105864717Y-113176180D01*
X106036180Y-113004717D01*
X106170898Y-112803097D01*
X106263693Y-112579069D01*
X106311000Y-112341243D01*
X106311000Y-112098757D01*
X106263693Y-111860931D01*
X106170898Y-111636903D01*
X106036180Y-111435283D01*
X105864717Y-111263820D01*
X105663097Y-111129102D01*
X105439069Y-111036307D01*
X105201243Y-110989000D01*
X104958757Y-110989000D01*
X104720931Y-111036307D01*
X104671234Y-111056892D01*
X104089400Y-110475059D01*
X104089400Y-105805493D01*
X104155311Y-105825487D01*
X104230000Y-105832843D01*
X105816600Y-105832843D01*
X105816601Y-110923803D01*
X105814021Y-110950000D01*
X105824319Y-111054564D01*
X105854819Y-111155110D01*
X105854820Y-111155111D01*
X105904350Y-111247775D01*
X105917518Y-111263820D01*
X105954307Y-111308648D01*
X105954310Y-111308651D01*
X105971006Y-111328995D01*
X105991350Y-111345691D01*
X106456892Y-111811234D01*
X106436307Y-111860931D01*
X106389000Y-112098757D01*
X106389000Y-112341243D01*
X106436307Y-112579069D01*
X106529102Y-112803097D01*
X106663820Y-113004717D01*
X106835283Y-113176180D01*
X107036903Y-113310898D01*
X107260931Y-113403693D01*
X107498757Y-113451000D01*
X107741243Y-113451000D01*
X107979069Y-113403693D01*
X108203097Y-113310898D01*
X108404717Y-113176180D01*
X108576180Y-113004717D01*
X108710898Y-112803097D01*
X108803693Y-112579069D01*
X108851000Y-112341243D01*
X108851000Y-112098757D01*
X108803693Y-111860931D01*
X108710898Y-111636903D01*
X108576180Y-111435283D01*
X108404717Y-111263820D01*
X108203097Y-111129102D01*
X107979069Y-111036307D01*
X107741243Y-110989000D01*
X107498757Y-110989000D01*
X107260931Y-111036307D01*
X107211234Y-111056892D01*
X106883400Y-110729059D01*
X106883400Y-105588331D01*
X107036903Y-105690898D01*
X107260931Y-105783693D01*
X107498757Y-105831000D01*
X107741243Y-105831000D01*
X107979069Y-105783693D01*
X108203097Y-105690898D01*
X108404717Y-105556180D01*
X108576180Y-105384717D01*
X108710898Y-105183097D01*
X108803693Y-104959069D01*
X108851000Y-104721243D01*
X108851000Y-104478757D01*
X108929000Y-104478757D01*
X108929000Y-104721243D01*
X108976307Y-104959069D01*
X109069102Y-105183097D01*
X109203820Y-105384717D01*
X109375283Y-105556180D01*
X109576903Y-105690898D01*
X109800931Y-105783693D01*
X110038757Y-105831000D01*
X110281243Y-105831000D01*
X110519069Y-105783693D01*
X110743097Y-105690898D01*
X110944717Y-105556180D01*
X111116180Y-105384717D01*
X111250898Y-105183097D01*
X111343693Y-104959069D01*
X111391000Y-104721243D01*
X111391000Y-104478757D01*
X111343693Y-104240931D01*
X111250898Y-104016903D01*
X111116180Y-103815283D01*
X110944717Y-103643820D01*
X110743097Y-103509102D01*
X110519069Y-103416307D01*
X110281243Y-103369000D01*
X110038757Y-103369000D01*
X109800931Y-103416307D01*
X109576903Y-103509102D01*
X109375283Y-103643820D01*
X109203820Y-103815283D01*
X109069102Y-104016903D01*
X108976307Y-104240931D01*
X108929000Y-104478757D01*
X108851000Y-104478757D01*
X108803693Y-104240931D01*
X108710898Y-104016903D01*
X108576180Y-103815283D01*
X108404717Y-103643820D01*
X108203097Y-103509102D01*
X107979069Y-103416307D01*
X107741243Y-103369000D01*
X107498757Y-103369000D01*
X107260931Y-103416307D01*
X107036903Y-103509102D01*
X106883400Y-103611669D01*
X106883400Y-103550941D01*
X107211234Y-103223108D01*
X107260931Y-103243693D01*
X107498757Y-103291000D01*
X107741243Y-103291000D01*
X107979069Y-103243693D01*
X108203097Y-103150898D01*
X108404717Y-103016180D01*
X108576180Y-102844717D01*
X108710898Y-102643097D01*
X108803693Y-102419069D01*
X108851000Y-102181243D01*
X108851000Y-101938757D01*
X108803693Y-101700931D01*
X108710898Y-101476903D01*
X108576180Y-101275283D01*
X108404717Y-101103820D01*
X108203097Y-100969102D01*
X107979069Y-100876307D01*
X107741243Y-100829000D01*
X107498757Y-100829000D01*
X107260931Y-100876307D01*
X107211234Y-100896892D01*
X106883400Y-100569059D01*
X106883400Y-95428331D01*
X107036903Y-95530898D01*
X107260931Y-95623693D01*
X107498757Y-95671000D01*
X107741243Y-95671000D01*
X107979069Y-95623693D01*
X108203097Y-95530898D01*
X108404717Y-95396180D01*
X108576180Y-95224717D01*
X108710898Y-95023097D01*
X108803693Y-94799069D01*
X108851000Y-94561243D01*
X108851000Y-94318757D01*
X108929000Y-94318757D01*
X108929000Y-94561243D01*
X108976307Y-94799069D01*
X109069102Y-95023097D01*
X109203820Y-95224717D01*
X109375283Y-95396180D01*
X109576903Y-95530898D01*
X109800931Y-95623693D01*
X110038757Y-95671000D01*
X110281243Y-95671000D01*
X110519069Y-95623693D01*
X110743097Y-95530898D01*
X110944717Y-95396180D01*
X111116180Y-95224717D01*
X111250898Y-95023097D01*
X111343693Y-94799069D01*
X111391000Y-94561243D01*
X111391000Y-94318757D01*
X111343693Y-94080931D01*
X111250898Y-93856903D01*
X111116180Y-93655283D01*
X110944717Y-93483820D01*
X110743097Y-93349102D01*
X110519069Y-93256307D01*
X110281243Y-93209000D01*
X110038757Y-93209000D01*
X109800931Y-93256307D01*
X109576903Y-93349102D01*
X109375283Y-93483820D01*
X109203820Y-93655283D01*
X109069102Y-93856903D01*
X108976307Y-94080931D01*
X108929000Y-94318757D01*
X108851000Y-94318757D01*
X108803693Y-94080931D01*
X108710898Y-93856903D01*
X108576180Y-93655283D01*
X108404717Y-93483820D01*
X108203097Y-93349102D01*
X107979069Y-93256307D01*
X107741243Y-93209000D01*
X107498757Y-93209000D01*
X107260931Y-93256307D01*
X107036903Y-93349102D01*
X106883400Y-93451669D01*
X106883400Y-93390941D01*
X107211234Y-93063108D01*
X107260931Y-93083693D01*
X107498757Y-93131000D01*
X107741243Y-93131000D01*
X107979069Y-93083693D01*
X108203097Y-92990898D01*
X108404717Y-92856180D01*
X108576180Y-92684717D01*
X108710898Y-92483097D01*
X108803693Y-92259069D01*
X108851000Y-92021243D01*
X108851000Y-91778757D01*
X108803693Y-91540931D01*
X108710898Y-91316903D01*
X108576180Y-91115283D01*
X108404717Y-90943820D01*
X108203097Y-90809102D01*
X107979069Y-90716307D01*
X107741243Y-90669000D01*
X107498757Y-90669000D01*
X107260931Y-90716307D01*
X107211234Y-90736892D01*
X106883400Y-90409059D01*
X106883400Y-85268331D01*
X107036903Y-85370898D01*
X107260931Y-85463693D01*
X107498757Y-85511000D01*
X107741243Y-85511000D01*
X107979069Y-85463693D01*
X108203097Y-85370898D01*
X108404717Y-85236180D01*
X108576180Y-85064717D01*
X108710898Y-84863097D01*
X108803693Y-84639069D01*
X108851000Y-84401243D01*
X108851000Y-84158757D01*
X108929000Y-84158757D01*
X108929000Y-84401243D01*
X108976307Y-84639069D01*
X109069102Y-84863097D01*
X109203820Y-85064717D01*
X109375283Y-85236180D01*
X109576903Y-85370898D01*
X109800931Y-85463693D01*
X110038757Y-85511000D01*
X110281243Y-85511000D01*
X110519069Y-85463693D01*
X110743097Y-85370898D01*
X110944717Y-85236180D01*
X111116180Y-85064717D01*
X111250898Y-84863097D01*
X111343693Y-84639069D01*
X111391000Y-84401243D01*
X111391000Y-84158757D01*
X111343693Y-83920931D01*
X111250898Y-83696903D01*
X111116180Y-83495283D01*
X110944717Y-83323820D01*
X110743097Y-83189102D01*
X110519069Y-83096307D01*
X110281243Y-83049000D01*
X110038757Y-83049000D01*
X109800931Y-83096307D01*
X109576903Y-83189102D01*
X109375283Y-83323820D01*
X109203820Y-83495283D01*
X109069102Y-83696903D01*
X108976307Y-83920931D01*
X108929000Y-84158757D01*
X108851000Y-84158757D01*
X108803693Y-83920931D01*
X108710898Y-83696903D01*
X108576180Y-83495283D01*
X108404717Y-83323820D01*
X108203097Y-83189102D01*
X107979069Y-83096307D01*
X107741243Y-83049000D01*
X107498757Y-83049000D01*
X107260931Y-83096307D01*
X107036903Y-83189102D01*
X106883400Y-83291669D01*
X106883400Y-83230941D01*
X107211234Y-82903108D01*
X107260931Y-82923693D01*
X107498757Y-82971000D01*
X107741243Y-82971000D01*
X107979069Y-82923693D01*
X108203097Y-82830898D01*
X108404717Y-82696180D01*
X108576180Y-82524717D01*
X108710898Y-82323097D01*
X108803693Y-82099069D01*
X108851000Y-81861243D01*
X108851000Y-81618757D01*
X108929000Y-81618757D01*
X108929000Y-81861243D01*
X108976307Y-82099069D01*
X109069102Y-82323097D01*
X109203820Y-82524717D01*
X109375283Y-82696180D01*
X109576903Y-82830898D01*
X109800931Y-82923693D01*
X110038757Y-82971000D01*
X110281243Y-82971000D01*
X110519069Y-82923693D01*
X110568767Y-82903108D01*
X111404601Y-83738942D01*
X111404600Y-89901059D01*
X110568767Y-90736892D01*
X110519069Y-90716307D01*
X110281243Y-90669000D01*
X110038757Y-90669000D01*
X109800931Y-90716307D01*
X109576903Y-90809102D01*
X109375283Y-90943820D01*
X109203820Y-91115283D01*
X109069102Y-91316903D01*
X108976307Y-91540931D01*
X108929000Y-91778757D01*
X108929000Y-92021243D01*
X108976307Y-92259069D01*
X109069102Y-92483097D01*
X109203820Y-92684717D01*
X109375283Y-92856180D01*
X109576903Y-92990898D01*
X109800931Y-93083693D01*
X110038757Y-93131000D01*
X110281243Y-93131000D01*
X110519069Y-93083693D01*
X110568767Y-93063108D01*
X111404600Y-93898941D01*
X111404601Y-100061058D01*
X110568767Y-100896892D01*
X110519069Y-100876307D01*
X110281243Y-100829000D01*
X110038757Y-100829000D01*
X109800931Y-100876307D01*
X109576903Y-100969102D01*
X109375283Y-101103820D01*
X109203820Y-101275283D01*
X109069102Y-101476903D01*
X108976307Y-101700931D01*
X108929000Y-101938757D01*
X108929000Y-102181243D01*
X108976307Y-102419069D01*
X109069102Y-102643097D01*
X109203820Y-102844717D01*
X109375283Y-103016180D01*
X109576903Y-103150898D01*
X109800931Y-103243693D01*
X110038757Y-103291000D01*
X110281243Y-103291000D01*
X110519069Y-103243693D01*
X110568767Y-103223108D01*
X111404601Y-104058942D01*
X111404600Y-110221059D01*
X110568767Y-111056892D01*
X110519069Y-111036307D01*
X110281243Y-110989000D01*
X110038757Y-110989000D01*
X109800931Y-111036307D01*
X109576903Y-111129102D01*
X109375283Y-111263820D01*
X109203820Y-111435283D01*
X109069102Y-111636903D01*
X108976307Y-111860931D01*
X108929000Y-112098757D01*
X108929000Y-112341243D01*
X108976307Y-112579069D01*
X109069102Y-112803097D01*
X109203820Y-113004717D01*
X109375283Y-113176180D01*
X109576903Y-113310898D01*
X109800931Y-113403693D01*
X110038757Y-113451000D01*
X110281243Y-113451000D01*
X110519069Y-113403693D01*
X110743097Y-113310898D01*
X110944717Y-113176180D01*
X111116180Y-113004717D01*
X111250898Y-112803097D01*
X111343693Y-112579069D01*
X111391000Y-112341243D01*
X111391000Y-112098757D01*
X111343693Y-111860931D01*
X111323108Y-111811233D01*
X112296645Y-110837696D01*
X112316995Y-110820995D01*
X112383651Y-110739775D01*
X112433181Y-110647111D01*
X112463681Y-110546565D01*
X112471400Y-110468195D01*
X112471400Y-110468194D01*
X112473980Y-110442000D01*
X112471400Y-110415806D01*
X112471400Y-106554448D01*
X114452600Y-106554448D01*
X114452600Y-106709552D01*
X114482859Y-106861676D01*
X114542215Y-107004974D01*
X114628386Y-107133938D01*
X114706601Y-107212153D01*
X114706600Y-114479813D01*
X114704021Y-114506000D01*
X114706600Y-114532187D01*
X114706600Y-114532194D01*
X114714319Y-114610564D01*
X114744819Y-114711110D01*
X114794349Y-114803775D01*
X114861005Y-114884995D01*
X114881354Y-114901695D01*
X116114309Y-116134651D01*
X116131005Y-116154995D01*
X116212225Y-116221651D01*
X116304889Y-116271181D01*
X116405435Y-116301681D01*
X116483805Y-116309400D01*
X116483812Y-116309400D01*
X116509999Y-116311979D01*
X116536186Y-116309400D01*
X117199848Y-116309400D01*
X117278062Y-116387614D01*
X117407026Y-116473785D01*
X117550324Y-116533141D01*
X117702448Y-116563400D01*
X117857552Y-116563400D01*
X118009676Y-116533141D01*
X118152974Y-116473785D01*
X118281938Y-116387614D01*
X118391614Y-116277938D01*
X118477785Y-116148974D01*
X118537141Y-116005676D01*
X118567400Y-115853552D01*
X118567400Y-115698448D01*
X118537141Y-115546324D01*
X118477785Y-115403026D01*
X118391614Y-115274062D01*
X118281938Y-115164386D01*
X118152974Y-115078215D01*
X118009676Y-115018859D01*
X117857552Y-114988600D01*
X117702448Y-114988600D01*
X117550324Y-115018859D01*
X117407026Y-115078215D01*
X117278062Y-115164386D01*
X117199848Y-115242600D01*
X116730942Y-115242600D01*
X115773400Y-114285059D01*
X115773400Y-112142448D01*
X116738600Y-112142448D01*
X116738600Y-112297552D01*
X116768859Y-112449676D01*
X116828215Y-112592974D01*
X116914386Y-112721938D01*
X117024062Y-112831614D01*
X117153026Y-112917785D01*
X117296324Y-112977141D01*
X117448448Y-113007400D01*
X117603552Y-113007400D01*
X117755676Y-112977141D01*
X117898974Y-112917785D01*
X118027938Y-112831614D01*
X118137614Y-112721938D01*
X118223785Y-112592974D01*
X118283141Y-112449676D01*
X118313400Y-112297552D01*
X118313400Y-112186941D01*
X119662645Y-110837696D01*
X119682995Y-110820995D01*
X119749651Y-110739775D01*
X119799181Y-110647111D01*
X119829681Y-110546565D01*
X119837400Y-110468195D01*
X119837400Y-110468194D01*
X119839980Y-110442000D01*
X119837400Y-110415806D01*
X119837400Y-106427448D01*
X122453600Y-106427448D01*
X122453600Y-106582552D01*
X122483859Y-106734676D01*
X122543215Y-106877974D01*
X122629386Y-107006938D01*
X122739062Y-107116614D01*
X122868026Y-107202785D01*
X123011324Y-107262141D01*
X123163448Y-107292400D01*
X123318552Y-107292400D01*
X123470676Y-107262141D01*
X123613974Y-107202785D01*
X123742938Y-107116614D01*
X123852614Y-107006938D01*
X123938785Y-106877974D01*
X123998141Y-106734676D01*
X124028400Y-106582552D01*
X124028400Y-106427448D01*
X123998141Y-106275324D01*
X123938785Y-106132026D01*
X123852614Y-106003062D01*
X123774400Y-105924848D01*
X123774400Y-104439941D01*
X124996651Y-103217691D01*
X125016995Y-103200995D01*
X125083651Y-103119775D01*
X125133181Y-103027111D01*
X125163681Y-102926565D01*
X125171400Y-102848195D01*
X125171400Y-102848188D01*
X125173979Y-102822001D01*
X125171400Y-102795814D01*
X125171400Y-97560152D01*
X125249614Y-97481938D01*
X125335785Y-97352974D01*
X125395141Y-97209676D01*
X125425400Y-97057552D01*
X125425400Y-96902448D01*
X125395141Y-96750324D01*
X125335785Y-96607026D01*
X125249614Y-96478062D01*
X125139938Y-96368386D01*
X125010974Y-96282215D01*
X124867676Y-96222859D01*
X124715552Y-96192600D01*
X124560448Y-96192600D01*
X124408324Y-96222859D01*
X124265026Y-96282215D01*
X124136062Y-96368386D01*
X124026386Y-96478062D01*
X123940215Y-96607026D01*
X123880859Y-96750324D01*
X123850600Y-96902448D01*
X123850600Y-97057552D01*
X123880859Y-97209676D01*
X123940215Y-97352974D01*
X124026386Y-97481938D01*
X124104601Y-97560153D01*
X124104600Y-102601058D01*
X122882350Y-103823309D01*
X122862006Y-103840005D01*
X122845310Y-103860349D01*
X122845307Y-103860352D01*
X122827728Y-103881773D01*
X122795350Y-103921225D01*
X122795349Y-103921227D01*
X122745819Y-104013890D01*
X122715319Y-104114436D01*
X122705021Y-104219000D01*
X122707601Y-104245197D01*
X122707600Y-105924848D01*
X122629386Y-106003062D01*
X122543215Y-106132026D01*
X122483859Y-106275324D01*
X122453600Y-106427448D01*
X119837400Y-106427448D01*
X119837400Y-98978941D01*
X120540942Y-98275400D01*
X121263848Y-98275400D01*
X121342062Y-98353614D01*
X121471026Y-98439785D01*
X121614324Y-98499141D01*
X121766448Y-98529400D01*
X121921552Y-98529400D01*
X122073676Y-98499141D01*
X122216974Y-98439785D01*
X122345938Y-98353614D01*
X122455614Y-98243938D01*
X122541785Y-98114974D01*
X122601141Y-97971676D01*
X122631400Y-97819552D01*
X122631400Y-97664448D01*
X122601141Y-97512324D01*
X122541785Y-97369026D01*
X122455614Y-97240062D01*
X122345938Y-97130386D01*
X122216974Y-97044215D01*
X122073676Y-96984859D01*
X121921552Y-96954600D01*
X121766448Y-96954600D01*
X121614324Y-96984859D01*
X121471026Y-97044215D01*
X121342062Y-97130386D01*
X121263848Y-97208600D01*
X120346187Y-97208600D01*
X120320000Y-97206021D01*
X120293813Y-97208600D01*
X120293805Y-97208600D01*
X120215435Y-97216319D01*
X120114889Y-97246819D01*
X120022225Y-97296349D01*
X119941005Y-97363005D01*
X119924309Y-97383349D01*
X118945350Y-98362309D01*
X118925006Y-98379005D01*
X118908310Y-98399349D01*
X118908307Y-98399352D01*
X118885674Y-98426931D01*
X118858350Y-98460225D01*
X118858349Y-98460227D01*
X118808819Y-98552890D01*
X118778319Y-98653436D01*
X118768021Y-98758000D01*
X118770601Y-98784197D01*
X118770600Y-110221059D01*
X117559059Y-111432600D01*
X117448448Y-111432600D01*
X117296324Y-111462859D01*
X117153026Y-111522215D01*
X117024062Y-111608386D01*
X116914386Y-111718062D01*
X116828215Y-111847026D01*
X116768859Y-111990324D01*
X116738600Y-112142448D01*
X115773400Y-112142448D01*
X115773400Y-107212152D01*
X115851614Y-107133938D01*
X115937785Y-107004974D01*
X115997141Y-106861676D01*
X116027400Y-106709552D01*
X116027400Y-106554448D01*
X115997141Y-106402324D01*
X115937785Y-106259026D01*
X115851614Y-106130062D01*
X115741938Y-106020386D01*
X115612974Y-105934215D01*
X115469676Y-105874859D01*
X115317552Y-105844600D01*
X115162448Y-105844600D01*
X115010324Y-105874859D01*
X114867026Y-105934215D01*
X114738062Y-106020386D01*
X114628386Y-106130062D01*
X114542215Y-106259026D01*
X114482859Y-106402324D01*
X114452600Y-106554448D01*
X112471400Y-106554448D01*
X112471400Y-103864194D01*
X112473980Y-103838000D01*
X112467612Y-103773349D01*
X112463681Y-103733435D01*
X112433181Y-103632889D01*
X112383651Y-103540225D01*
X112316995Y-103459005D01*
X112296645Y-103442304D01*
X111323108Y-102468767D01*
X111343693Y-102419069D01*
X111391000Y-102181243D01*
X111391000Y-101938757D01*
X111343693Y-101700931D01*
X111323108Y-101651233D01*
X112296645Y-100677696D01*
X112316995Y-100660995D01*
X112383651Y-100579775D01*
X112433181Y-100487111D01*
X112463681Y-100386565D01*
X112471400Y-100308195D01*
X112471400Y-100308194D01*
X112473980Y-100282000D01*
X112471400Y-100255806D01*
X112471400Y-93704194D01*
X112473980Y-93678000D01*
X112467839Y-93615651D01*
X112463681Y-93573435D01*
X112433181Y-93472889D01*
X112383651Y-93380225D01*
X112316995Y-93299005D01*
X112296645Y-93282304D01*
X111323108Y-92308767D01*
X111343693Y-92259069D01*
X111391000Y-92021243D01*
X111391000Y-91778757D01*
X111343693Y-91540931D01*
X111323108Y-91491233D01*
X112296645Y-90517696D01*
X112316995Y-90500995D01*
X112383651Y-90419775D01*
X112433181Y-90327111D01*
X112463681Y-90226565D01*
X112471400Y-90148195D01*
X112471400Y-90148194D01*
X112473980Y-90122000D01*
X112471400Y-90095806D01*
X112471400Y-83544194D01*
X112473980Y-83518000D01*
X112467839Y-83455651D01*
X112463681Y-83413435D01*
X112433181Y-83312889D01*
X112383651Y-83220225D01*
X112316995Y-83139005D01*
X112296645Y-83122304D01*
X111323108Y-82148767D01*
X111343693Y-82099069D01*
X111391000Y-81861243D01*
X111391000Y-81618757D01*
X111343693Y-81380931D01*
X111250898Y-81156903D01*
X111116180Y-80955283D01*
X110944717Y-80783820D01*
X110743097Y-80649102D01*
X110519069Y-80556307D01*
X110281243Y-80509000D01*
X110038757Y-80509000D01*
X109800931Y-80556307D01*
X109576903Y-80649102D01*
X109375283Y-80783820D01*
X109203820Y-80955283D01*
X109069102Y-81156903D01*
X108976307Y-81380931D01*
X108929000Y-81618757D01*
X108851000Y-81618757D01*
X108803693Y-81380931D01*
X108710898Y-81156903D01*
X108576180Y-80955283D01*
X108404717Y-80783820D01*
X108203097Y-80649102D01*
X107979069Y-80556307D01*
X107741243Y-80509000D01*
X107498757Y-80509000D01*
X107260931Y-80556307D01*
X107036903Y-80649102D01*
X106835283Y-80783820D01*
X106663820Y-80955283D01*
X106529102Y-81156903D01*
X106436307Y-81380931D01*
X106389000Y-81618757D01*
X106389000Y-81861243D01*
X106436307Y-82099069D01*
X106456892Y-82148766D01*
X105991354Y-82614305D01*
X105971005Y-82631005D01*
X105904349Y-82712225D01*
X105854819Y-82804890D01*
X105824319Y-82905436D01*
X105816600Y-82983806D01*
X105816600Y-82983813D01*
X105814021Y-83010000D01*
X105816600Y-83036187D01*
X105816600Y-83047157D01*
X104527184Y-83047157D01*
X104671234Y-82903108D01*
X104720931Y-82923693D01*
X104958757Y-82971000D01*
X105201243Y-82971000D01*
X105439069Y-82923693D01*
X105663097Y-82830898D01*
X105864717Y-82696180D01*
X106036180Y-82524717D01*
X106170898Y-82323097D01*
X106263693Y-82099069D01*
X106311000Y-81861243D01*
X106311000Y-81618757D01*
X106263693Y-81380931D01*
X106170898Y-81156903D01*
X106036180Y-80955283D01*
X105864717Y-80783820D01*
X105663097Y-80649102D01*
X105613400Y-80628517D01*
X105613400Y-77090448D01*
X129692600Y-77090448D01*
X129692600Y-77245552D01*
X129722859Y-77397676D01*
X129782215Y-77540974D01*
X129868386Y-77669938D01*
X129946601Y-77748153D01*
X129946600Y-97461813D01*
X129944021Y-97488000D01*
X129946600Y-97514187D01*
X129946600Y-97514194D01*
X129954319Y-97592564D01*
X129984819Y-97693110D01*
X130034349Y-97785775D01*
X130101005Y-97866995D01*
X130121355Y-97883696D01*
X135026601Y-102788943D01*
X135026600Y-112147848D01*
X134948386Y-112226062D01*
X134862215Y-112355026D01*
X134802859Y-112498324D01*
X134772600Y-112650448D01*
X134772600Y-112805552D01*
X134802859Y-112957676D01*
X134862215Y-113100974D01*
X134948386Y-113229938D01*
X135058062Y-113339614D01*
X135187026Y-113425785D01*
X135330324Y-113485141D01*
X135482448Y-113515400D01*
X135637552Y-113515400D01*
X135789676Y-113485141D01*
X135850371Y-113460000D01*
X166897157Y-113460000D01*
X166897157Y-116060000D01*
X166904513Y-116134689D01*
X166926299Y-116206508D01*
X166961678Y-116272696D01*
X167009289Y-116330711D01*
X167067304Y-116378322D01*
X167133492Y-116413701D01*
X167205311Y-116435487D01*
X167280000Y-116442843D01*
X169880000Y-116442843D01*
X169954689Y-116435487D01*
X170026508Y-116413701D01*
X170092696Y-116378322D01*
X170150711Y-116330711D01*
X170198322Y-116272696D01*
X170233701Y-116206508D01*
X170255487Y-116134689D01*
X170262843Y-116060000D01*
X170262843Y-113460000D01*
X170255487Y-113385311D01*
X170233701Y-113313492D01*
X170198322Y-113247304D01*
X170150711Y-113189289D01*
X170092696Y-113141678D01*
X170026508Y-113106299D01*
X169954689Y-113084513D01*
X169880000Y-113077157D01*
X167280000Y-113077157D01*
X167205311Y-113084513D01*
X167133492Y-113106299D01*
X167067304Y-113141678D01*
X167009289Y-113189289D01*
X166961678Y-113247304D01*
X166926299Y-113313492D01*
X166904513Y-113385311D01*
X166897157Y-113460000D01*
X135850371Y-113460000D01*
X135932974Y-113425785D01*
X136061938Y-113339614D01*
X136171614Y-113229938D01*
X136257785Y-113100974D01*
X136317141Y-112957676D01*
X136347400Y-112805552D01*
X136347400Y-112650448D01*
X136317141Y-112498324D01*
X136257785Y-112355026D01*
X136171614Y-112226062D01*
X136093400Y-112147848D01*
X136093400Y-109514436D01*
X166899000Y-109514436D01*
X166899000Y-109845564D01*
X166963600Y-110170330D01*
X167090317Y-110476252D01*
X167274282Y-110751575D01*
X167508425Y-110985718D01*
X167783748Y-111169683D01*
X168089670Y-111296400D01*
X168414436Y-111361000D01*
X168745564Y-111361000D01*
X169070330Y-111296400D01*
X169376252Y-111169683D01*
X169651575Y-110985718D01*
X169885718Y-110751575D01*
X170069683Y-110476252D01*
X170196400Y-110170330D01*
X170261000Y-109845564D01*
X170261000Y-109514436D01*
X170196400Y-109189670D01*
X170069683Y-108883748D01*
X169885718Y-108608425D01*
X169651575Y-108374282D01*
X169376252Y-108190317D01*
X169070330Y-108063600D01*
X168745564Y-107999000D01*
X168414436Y-107999000D01*
X168089670Y-108063600D01*
X167783748Y-108190317D01*
X167508425Y-108374282D01*
X167274282Y-108608425D01*
X167090317Y-108883748D01*
X166963600Y-109189670D01*
X166899000Y-109514436D01*
X136093400Y-109514436D01*
X136093400Y-102594187D01*
X136095979Y-102568000D01*
X136093400Y-102541813D01*
X136093400Y-102541805D01*
X136085681Y-102463435D01*
X136055181Y-102362889D01*
X136005651Y-102270225D01*
X135938995Y-102189005D01*
X135918651Y-102172309D01*
X131013400Y-97267059D01*
X131013400Y-91314448D01*
X132232600Y-91314448D01*
X132232600Y-91469552D01*
X132262859Y-91621676D01*
X132322215Y-91764974D01*
X132408386Y-91893938D01*
X132486601Y-91972153D01*
X132486601Y-93548995D01*
X132486600Y-95683813D01*
X132484021Y-95710000D01*
X132486600Y-95736187D01*
X132486600Y-95736194D01*
X132494319Y-95814564D01*
X132524819Y-95915110D01*
X132574349Y-96007775D01*
X132641005Y-96088995D01*
X132661355Y-96105696D01*
X136042600Y-99486941D01*
X136042600Y-99597552D01*
X136072859Y-99749676D01*
X136132215Y-99892974D01*
X136218386Y-100021938D01*
X136328062Y-100131614D01*
X136457026Y-100217785D01*
X136600324Y-100277141D01*
X136752448Y-100307400D01*
X136907552Y-100307400D01*
X137059676Y-100277141D01*
X137202974Y-100217785D01*
X137331938Y-100131614D01*
X137441614Y-100021938D01*
X137527785Y-99892974D01*
X137587141Y-99749676D01*
X137617400Y-99597552D01*
X137617400Y-99442448D01*
X137587141Y-99290324D01*
X137527785Y-99147026D01*
X137441614Y-99018062D01*
X137331938Y-98908386D01*
X137202974Y-98822215D01*
X137059676Y-98762859D01*
X136907552Y-98732600D01*
X136796941Y-98732600D01*
X133553400Y-95489059D01*
X133553400Y-93092448D01*
X135280600Y-93092448D01*
X135280600Y-93247552D01*
X135310859Y-93399676D01*
X135370215Y-93542974D01*
X135456386Y-93671938D01*
X135566062Y-93781614D01*
X135695026Y-93867785D01*
X135838324Y-93927141D01*
X135990448Y-93957400D01*
X136101059Y-93957400D01*
X139344601Y-97200942D01*
X139344600Y-101733848D01*
X139266386Y-101812062D01*
X139180215Y-101941026D01*
X139120859Y-102084324D01*
X139090600Y-102236448D01*
X139090600Y-102391552D01*
X139120859Y-102543676D01*
X139180215Y-102686974D01*
X139266386Y-102815938D01*
X139376062Y-102925614D01*
X139505026Y-103011785D01*
X139648324Y-103071141D01*
X139800448Y-103101400D01*
X139955552Y-103101400D01*
X140107676Y-103071141D01*
X140250974Y-103011785D01*
X140379938Y-102925614D01*
X140489614Y-102815938D01*
X140575785Y-102686974D01*
X140635141Y-102543676D01*
X140665400Y-102391552D01*
X140665400Y-102236448D01*
X140635141Y-102084324D01*
X140575785Y-101941026D01*
X140489614Y-101812062D01*
X140411400Y-101733848D01*
X140411400Y-97006194D01*
X140413980Y-96980000D01*
X140403681Y-96875436D01*
X140373181Y-96774889D01*
X140360051Y-96750324D01*
X140323651Y-96682225D01*
X140256995Y-96601005D01*
X140236645Y-96584304D01*
X136855400Y-93203059D01*
X136855400Y-93092448D01*
X136825141Y-92940324D01*
X136765785Y-92797026D01*
X136679614Y-92668062D01*
X136673552Y-92662000D01*
X158293000Y-92662000D01*
X158293000Y-101298000D01*
X158295440Y-101322776D01*
X158302667Y-101346601D01*
X158314403Y-101368557D01*
X158330197Y-101387803D01*
X158838197Y-101895803D01*
X158857443Y-101911597D01*
X158879399Y-101923333D01*
X158903224Y-101930560D01*
X158928000Y-101933000D01*
X168072000Y-101933000D01*
X168096776Y-101930560D01*
X168120601Y-101923333D01*
X168142557Y-101911597D01*
X168161803Y-101895803D01*
X168669803Y-101387803D01*
X168685597Y-101368557D01*
X168697333Y-101346601D01*
X168704560Y-101322776D01*
X168707000Y-101298000D01*
X168707000Y-92662000D01*
X168704560Y-92637224D01*
X168697333Y-92613399D01*
X168685597Y-92591443D01*
X168669803Y-92572197D01*
X168161803Y-92064197D01*
X168142557Y-92048403D01*
X168120601Y-92036667D01*
X168096776Y-92029440D01*
X168072000Y-92027000D01*
X158928000Y-92027000D01*
X158903224Y-92029440D01*
X158879399Y-92036667D01*
X158857443Y-92048403D01*
X158838197Y-92064197D01*
X158330197Y-92572197D01*
X158314403Y-92591443D01*
X158302667Y-92613399D01*
X158295440Y-92637224D01*
X158293000Y-92662000D01*
X136673552Y-92662000D01*
X136569938Y-92558386D01*
X136440974Y-92472215D01*
X136297676Y-92412859D01*
X136145552Y-92382600D01*
X135990448Y-92382600D01*
X135838324Y-92412859D01*
X135695026Y-92472215D01*
X135566062Y-92558386D01*
X135456386Y-92668062D01*
X135370215Y-92797026D01*
X135310859Y-92940324D01*
X135280600Y-93092448D01*
X133553400Y-93092448D01*
X133553400Y-91972152D01*
X133631614Y-91893938D01*
X133717785Y-91764974D01*
X133777141Y-91621676D01*
X133807400Y-91469552D01*
X133807400Y-91314448D01*
X133777141Y-91162324D01*
X133717785Y-91019026D01*
X133631614Y-90890062D01*
X133521938Y-90780386D01*
X133392974Y-90694215D01*
X133249676Y-90634859D01*
X133097552Y-90604600D01*
X132942448Y-90604600D01*
X132790324Y-90634859D01*
X132647026Y-90694215D01*
X132518062Y-90780386D01*
X132408386Y-90890062D01*
X132322215Y-91019026D01*
X132262859Y-91162324D01*
X132232600Y-91314448D01*
X131013400Y-91314448D01*
X131013400Y-77748152D01*
X131091614Y-77669938D01*
X131177785Y-77540974D01*
X131237141Y-77397676D01*
X131267400Y-77245552D01*
X131267400Y-77090448D01*
X131237141Y-76938324D01*
X131177785Y-76795026D01*
X131091614Y-76666062D01*
X130981938Y-76556386D01*
X130852974Y-76470215D01*
X130709676Y-76410859D01*
X130557552Y-76380600D01*
X130402448Y-76380600D01*
X130250324Y-76410859D01*
X130107026Y-76470215D01*
X129978062Y-76556386D01*
X129868386Y-76666062D01*
X129782215Y-76795026D01*
X129722859Y-76938324D01*
X129692600Y-77090448D01*
X105613400Y-77090448D01*
X105613400Y-75352843D01*
X105930000Y-75352843D01*
X106004689Y-75345487D01*
X106076508Y-75323701D01*
X106142696Y-75288322D01*
X106200711Y-75240711D01*
X106248322Y-75182696D01*
X106283701Y-75116508D01*
X106305487Y-75044689D01*
X106312843Y-74970000D01*
X106312843Y-73998757D01*
X106389000Y-73998757D01*
X106389000Y-74241243D01*
X106436307Y-74479069D01*
X106529102Y-74703097D01*
X106663820Y-74904717D01*
X106835283Y-75076180D01*
X107036903Y-75210898D01*
X107260931Y-75303693D01*
X107498757Y-75351000D01*
X107741243Y-75351000D01*
X107979069Y-75303693D01*
X108203097Y-75210898D01*
X108404717Y-75076180D01*
X108576180Y-74904717D01*
X108710898Y-74703097D01*
X108803693Y-74479069D01*
X108851000Y-74241243D01*
X108851000Y-73998757D01*
X108803693Y-73760931D01*
X108710898Y-73536903D01*
X108576180Y-73335283D01*
X108404717Y-73163820D01*
X108203097Y-73029102D01*
X107979069Y-72936307D01*
X107741243Y-72889000D01*
X107498757Y-72889000D01*
X107260931Y-72936307D01*
X107036903Y-73029102D01*
X106835283Y-73163820D01*
X106663820Y-73335283D01*
X106529102Y-73536903D01*
X106436307Y-73760931D01*
X106389000Y-73998757D01*
X106312843Y-73998757D01*
X106312843Y-73270000D01*
X106305487Y-73195311D01*
X106283701Y-73123492D01*
X106248322Y-73057304D01*
X106200711Y-72999289D01*
X106142696Y-72951678D01*
X106076508Y-72916299D01*
X106004689Y-72894513D01*
X105930000Y-72887157D01*
X105797184Y-72887157D01*
X106570942Y-72113400D01*
X111403813Y-72113400D01*
X111430000Y-72115979D01*
X111456187Y-72113400D01*
X111456195Y-72113400D01*
X111534565Y-72105681D01*
X111635111Y-72075181D01*
X111727775Y-72025651D01*
X111808995Y-71958995D01*
X111825695Y-71938646D01*
X112007893Y-71756448D01*
X122072600Y-71756448D01*
X122072600Y-71911552D01*
X122102859Y-72063676D01*
X122162215Y-72206974D01*
X122248386Y-72335938D01*
X122358062Y-72445614D01*
X122487026Y-72531785D01*
X122630324Y-72591141D01*
X122782448Y-72621400D01*
X122937552Y-72621400D01*
X123089676Y-72591141D01*
X123232974Y-72531785D01*
X123361938Y-72445614D01*
X123471614Y-72335938D01*
X123557785Y-72206974D01*
X123617141Y-72063676D01*
X123647400Y-71911552D01*
X123647400Y-71756448D01*
X123617141Y-71604324D01*
X123557785Y-71461026D01*
X123471614Y-71332062D01*
X123393400Y-71253848D01*
X123393400Y-63926941D01*
X125366942Y-61953400D01*
X141689679Y-61953400D01*
X141778936Y-62168884D01*
X141951957Y-62427829D01*
X142172171Y-62648043D01*
X142431116Y-62821064D01*
X142718839Y-62940243D01*
X143024285Y-63001000D01*
X143335715Y-63001000D01*
X143641161Y-62940243D01*
X143928884Y-62821064D01*
X144187829Y-62648043D01*
X144408043Y-62427829D01*
X144581064Y-62168884D01*
X144700243Y-61881161D01*
X144761000Y-61575715D01*
X144761000Y-61264285D01*
X144700243Y-60958839D01*
X144581064Y-60671116D01*
X144408043Y-60412171D01*
X144187829Y-60191957D01*
X143928884Y-60018936D01*
X143641161Y-59899757D01*
X143335715Y-59839000D01*
X143024285Y-59839000D01*
X142718839Y-59899757D01*
X142431116Y-60018936D01*
X142172171Y-60191957D01*
X141951957Y-60412171D01*
X141778936Y-60671116D01*
X141689679Y-60886600D01*
X125172186Y-60886600D01*
X125145999Y-60884021D01*
X125119812Y-60886600D01*
X125119805Y-60886600D01*
X125041435Y-60894319D01*
X124940889Y-60924819D01*
X124848225Y-60974349D01*
X124767005Y-61041005D01*
X124750309Y-61061349D01*
X122501355Y-63310304D01*
X122481005Y-63327005D01*
X122414349Y-63408225D01*
X122364819Y-63500890D01*
X122334319Y-63601436D01*
X122326600Y-63679806D01*
X122326600Y-63679813D01*
X122324021Y-63706000D01*
X122326600Y-63732187D01*
X122326601Y-71253847D01*
X122248386Y-71332062D01*
X122162215Y-71461026D01*
X122102859Y-71604324D01*
X122072600Y-71756448D01*
X112007893Y-71756448D01*
X113058651Y-70705691D01*
X113078995Y-70688995D01*
X113145651Y-70607775D01*
X113195181Y-70515111D01*
X113225681Y-70414565D01*
X113233400Y-70336195D01*
X113233400Y-70336188D01*
X113235979Y-70310001D01*
X113233400Y-70283814D01*
X113233400Y-62910321D01*
X113448884Y-62821064D01*
X113707829Y-62648043D01*
X113928043Y-62427829D01*
X114101064Y-62168884D01*
X114220243Y-61881161D01*
X114281000Y-61575715D01*
X114281000Y-61264285D01*
X114220243Y-60958839D01*
X114101064Y-60671116D01*
X113928043Y-60412171D01*
X113707829Y-60191957D01*
X113448884Y-60018936D01*
X113161161Y-59899757D01*
X112855715Y-59839000D01*
X112544285Y-59839000D01*
X112238839Y-59899757D01*
X111951116Y-60018936D01*
X111692171Y-60191957D01*
X111471957Y-60412171D01*
X111298936Y-60671116D01*
X111179757Y-60958839D01*
X111119000Y-61264285D01*
X111119000Y-61575715D01*
X111179757Y-61881161D01*
X111298936Y-62168884D01*
X111471957Y-62427829D01*
X111692171Y-62648043D01*
X111951116Y-62821064D01*
X112166601Y-62910321D01*
X112166600Y-70089058D01*
X111209059Y-71046600D01*
X106376186Y-71046600D01*
X106349999Y-71044021D01*
X106323812Y-71046600D01*
X106323805Y-71046600D01*
X106245435Y-71054319D01*
X106144889Y-71084819D01*
X106052225Y-71134349D01*
X105971005Y-71201005D01*
X105954309Y-71221349D01*
X104721350Y-72454309D01*
X104701006Y-72471005D01*
X104684310Y-72491349D01*
X104684307Y-72491352D01*
X104661674Y-72518931D01*
X104634350Y-72552225D01*
X104634349Y-72552227D01*
X104584819Y-72644890D01*
X104554319Y-72745436D01*
X104544021Y-72850000D01*
X104546601Y-72876196D01*
X104546601Y-72887157D01*
X104230000Y-72887157D01*
X104155311Y-72894513D01*
X104083492Y-72916299D01*
X104017304Y-72951678D01*
X103959289Y-72999289D01*
X103911678Y-73057304D01*
X103876299Y-73123492D01*
X103854513Y-73195311D01*
X103847157Y-73270000D01*
X103847157Y-74970000D01*
X103854513Y-75044689D01*
X103876299Y-75116508D01*
X103911678Y-75182696D01*
X103959289Y-75240711D01*
X104017304Y-75288322D01*
X104083492Y-75323701D01*
X104155311Y-75345487D01*
X104230000Y-75352843D01*
X104546600Y-75352843D01*
X104546601Y-80628517D01*
X104496903Y-80649102D01*
X104295283Y-80783820D01*
X104123820Y-80955283D01*
X103989102Y-81156903D01*
X103896307Y-81380931D01*
X103849000Y-81618757D01*
X103849000Y-81861243D01*
X103896307Y-82099069D01*
X103916892Y-82148766D01*
X103197354Y-82868304D01*
X103177005Y-82885005D01*
X103110349Y-82966225D01*
X103060819Y-83058890D01*
X103030319Y-83159436D01*
X103022600Y-83237806D01*
X103022600Y-83237813D01*
X103020021Y-83264000D01*
X100635000Y-83264000D01*
X100635000Y-68918757D01*
X103849000Y-68918757D01*
X103849000Y-69161243D01*
X103896307Y-69399069D01*
X103989102Y-69623097D01*
X104123820Y-69824717D01*
X104295283Y-69996180D01*
X104496903Y-70130898D01*
X104720931Y-70223693D01*
X104958757Y-70271000D01*
X105201243Y-70271000D01*
X105439069Y-70223693D01*
X105663097Y-70130898D01*
X105864717Y-69996180D01*
X106036180Y-69824717D01*
X106170898Y-69623097D01*
X106263693Y-69399069D01*
X106311000Y-69161243D01*
X106311000Y-68918757D01*
X106263693Y-68680931D01*
X106170898Y-68456903D01*
X106036180Y-68255283D01*
X105970897Y-68190000D01*
X106387157Y-68190000D01*
X106387157Y-69890000D01*
X106394513Y-69964689D01*
X106416299Y-70036508D01*
X106451678Y-70102696D01*
X106499289Y-70160711D01*
X106557304Y-70208322D01*
X106623492Y-70243701D01*
X106695311Y-70265487D01*
X106770000Y-70272843D01*
X108470000Y-70272843D01*
X108544689Y-70265487D01*
X108616508Y-70243701D01*
X108682696Y-70208322D01*
X108740711Y-70160711D01*
X108788322Y-70102696D01*
X108823701Y-70036508D01*
X108845487Y-69964689D01*
X108852843Y-69890000D01*
X108852843Y-68190000D01*
X108845487Y-68115311D01*
X108823701Y-68043492D01*
X108788322Y-67977304D01*
X108740711Y-67919289D01*
X108682696Y-67871678D01*
X108616508Y-67836299D01*
X108544689Y-67814513D01*
X108470000Y-67807157D01*
X106770000Y-67807157D01*
X106695311Y-67814513D01*
X106623492Y-67836299D01*
X106557304Y-67871678D01*
X106499289Y-67919289D01*
X106451678Y-67977304D01*
X106416299Y-68043492D01*
X106394513Y-68115311D01*
X106387157Y-68190000D01*
X105970897Y-68190000D01*
X105864717Y-68083820D01*
X105663097Y-67949102D01*
X105439069Y-67856307D01*
X105201243Y-67809000D01*
X104958757Y-67809000D01*
X104720931Y-67856307D01*
X104496903Y-67949102D01*
X104295283Y-68083820D01*
X104123820Y-68255283D01*
X103989102Y-68456903D01*
X103896307Y-68680931D01*
X103849000Y-68918757D01*
X100635000Y-68918757D01*
X100635000Y-58527302D01*
X101499000Y-58527302D01*
X101499000Y-59232698D01*
X101636616Y-59924539D01*
X101906559Y-60576240D01*
X102298456Y-61162754D01*
X102797246Y-61661544D01*
X103383760Y-62053441D01*
X104035461Y-62323384D01*
X104727302Y-62461000D01*
X105432698Y-62461000D01*
X106124539Y-62323384D01*
X106776240Y-62053441D01*
X107362754Y-61661544D01*
X107861544Y-61162754D01*
X108253441Y-60576240D01*
X108523384Y-59924539D01*
X108661000Y-59232698D01*
X108661000Y-58527302D01*
X167539000Y-58527302D01*
X167539000Y-59232698D01*
X167676616Y-59924539D01*
X167946559Y-60576240D01*
X168338456Y-61162754D01*
X168837246Y-61661544D01*
X169423760Y-62053441D01*
X170075461Y-62323384D01*
X170767302Y-62461000D01*
X171472698Y-62461000D01*
X172164539Y-62323384D01*
X172816240Y-62053441D01*
X173402754Y-61661544D01*
X173901544Y-61162754D01*
X174293441Y-60576240D01*
X174563384Y-59924539D01*
X174701000Y-59232698D01*
X174701000Y-58527302D01*
X174563384Y-57835461D01*
X174293441Y-57183760D01*
X173901544Y-56597246D01*
X173402754Y-56098456D01*
X172816240Y-55706559D01*
X172164539Y-55436616D01*
X171472698Y-55299000D01*
X170767302Y-55299000D01*
X170075461Y-55436616D01*
X169423760Y-55706559D01*
X168837246Y-56098456D01*
X168338456Y-56597246D01*
X167946559Y-57183760D01*
X167676616Y-57835461D01*
X167539000Y-58527302D01*
X108661000Y-58527302D01*
X108523384Y-57835461D01*
X108253441Y-57183760D01*
X107861544Y-56597246D01*
X107362754Y-56098456D01*
X106776240Y-55706559D01*
X106124539Y-55436616D01*
X105432698Y-55299000D01*
X104727302Y-55299000D01*
X104035461Y-55436616D01*
X103383760Y-55706559D01*
X102797246Y-56098456D01*
X102298456Y-56597246D01*
X101906559Y-57183760D01*
X101636616Y-57835461D01*
X101499000Y-58527302D01*
X100635000Y-58527302D01*
X100635000Y-54868606D01*
X100699606Y-54804000D01*
X113105715Y-54804000D01*
X113105715Y-58116000D01*
X115596286Y-58116000D01*
X115596286Y-54804000D01*
X113105715Y-54804000D01*
X100699606Y-54804000D01*
X101068606Y-54435000D01*
X175131394Y-54435000D01*
X175565000Y-54868606D01*
G37*
%TD.AperFunction*%
%TD*%
M02*
