%FSLAX45Y45*%
G04 Gerber Fmt 4.5, Leading zero omitted, Abs format (unit mm)*
G04 Created by KiCad (PCBNEW 5.1.12-84ad8e8a86~92~ubuntu16.04.1) date 2021-11-14 14:14:27*
%MOMM*%
%LPD*%
G01*
G04 APERTURE LIST*
%TA.AperFunction,Profile*%
%ADD10C,0.050000*%
%TD*%
%ADD11C,0.200000*%
%ADD12C,0.300000*%
G04 APERTURE END LIST*
D10*
X10000000Y-5380000D02*
X10000000Y-13000000D01*
X17620000Y-5380000D02*
X10000000Y-5380000D01*
X17620000Y-13000000D02*
X17620000Y-5380000D01*
X10000000Y-13000000D02*
X17620000Y-13000000D01*
D11*
X11501140Y-10640340D02*
X11546860Y-10686060D01*
X11546860Y-10640340D02*
X11501140Y-10686060D01*
X11729740Y-11199140D02*
X11775460Y-11244860D01*
X11775460Y-11199140D02*
X11729740Y-11244860D01*
X11755140Y-11554740D02*
X11800860Y-11600460D01*
X11800860Y-11554740D02*
X11755140Y-11600460D01*
X12161540Y-9751340D02*
X12207260Y-9797060D01*
X12207260Y-9751340D02*
X12161540Y-9797060D01*
X12263140Y-7160540D02*
X12308860Y-7206260D01*
X12308860Y-7160540D02*
X12263140Y-7206260D01*
X12301240Y-10627640D02*
X12346960Y-10673360D01*
X12346960Y-10627640D02*
X12301240Y-10673360D01*
X12440940Y-9675140D02*
X12486660Y-9720860D01*
X12486660Y-9675140D02*
X12440940Y-9720860D01*
X13025140Y-7693940D02*
X13070860Y-7739660D01*
X13070860Y-7693940D02*
X13025140Y-7739660D01*
X13228340Y-10386340D02*
X13274060Y-10432060D01*
X13274060Y-10386340D02*
X13228340Y-10432060D01*
X13279140Y-7643140D02*
X13324860Y-7688860D01*
X13324860Y-7643140D02*
X13279140Y-7688860D01*
X13279140Y-9116340D02*
X13324860Y-9162060D01*
X13324860Y-9116340D02*
X13279140Y-9162060D01*
X13533140Y-11249940D02*
X13578860Y-11295660D01*
X13578860Y-11249940D02*
X13533140Y-11295660D01*
X13583940Y-9294140D02*
X13629660Y-9339860D01*
X13629660Y-9294140D02*
X13583940Y-9339860D01*
X13660140Y-9929140D02*
X13705860Y-9974860D01*
X13705860Y-9929140D02*
X13660140Y-9974860D01*
X13964940Y-10208540D02*
X14010660Y-10254260D01*
X14010660Y-10208540D02*
X13964940Y-10254260D01*
X14091940Y-11326140D02*
X14137660Y-11371860D01*
X14137660Y-11326140D02*
X14091940Y-11371860D01*
X14091940Y-11453140D02*
X14137660Y-11498860D01*
X14137660Y-11453140D02*
X14091940Y-11498860D01*
X14091940Y-11580140D02*
X14137660Y-11625860D01*
X14137660Y-11580140D02*
X14091940Y-11625860D01*
X14650740Y-7643140D02*
X14696460Y-7688860D01*
X14696460Y-7643140D02*
X14650740Y-7688860D01*
X14803140Y-7643140D02*
X14848860Y-7688860D01*
X14848860Y-7643140D02*
X14803140Y-7688860D01*
X14955540Y-7643140D02*
X15001260Y-7688860D01*
X15001260Y-7643140D02*
X14955540Y-7688860D01*
X15412740Y-7643140D02*
X15458460Y-7688860D01*
X15458460Y-7643140D02*
X15412740Y-7688860D01*
X15565140Y-7643140D02*
X15610860Y-7688860D01*
X15610860Y-7643140D02*
X15565140Y-7688860D01*
X15717540Y-7643140D02*
X15763260Y-7688860D01*
X15763260Y-7643140D02*
X15717540Y-7688860D01*
X10293000Y-5888000D02*
G75*
G03*
X10293000Y-5888000I-25000J0D01*
G01*
X10293000Y-12492000D02*
G75*
G03*
X10293000Y-12492000I-25000J0D01*
G01*
X10363294Y-5718294D02*
G75*
G03*
X10363294Y-5718294I-25000J0D01*
G01*
X10363294Y-6057706D02*
G75*
G03*
X10363294Y-6057706I-25000J0D01*
G01*
X10363294Y-12322294D02*
G75*
G03*
X10363294Y-12322294I-25000J0D01*
G01*
X10363294Y-12661706D02*
G75*
G03*
X10363294Y-12661706I-25000J0D01*
G01*
X10533000Y-5648000D02*
G75*
G03*
X10533000Y-5648000I-25000J0D01*
G01*
X10533000Y-6128000D02*
G75*
G03*
X10533000Y-6128000I-25000J0D01*
G01*
X10533000Y-12252000D02*
G75*
G03*
X10533000Y-12252000I-25000J0D01*
G01*
X10533000Y-12732000D02*
G75*
G03*
X10533000Y-12732000I-25000J0D01*
G01*
X10702706Y-5718294D02*
G75*
G03*
X10702706Y-5718294I-25000J0D01*
G01*
X10702706Y-6057706D02*
G75*
G03*
X10702706Y-6057706I-25000J0D01*
G01*
X10702706Y-12322294D02*
G75*
G03*
X10702706Y-12322294I-25000J0D01*
G01*
X10702706Y-12661706D02*
G75*
G03*
X10702706Y-12661706I-25000J0D01*
G01*
X10773000Y-5888000D02*
G75*
G03*
X10773000Y-5888000I-25000J0D01*
G01*
X10773000Y-12492000D02*
G75*
G03*
X10773000Y-12492000I-25000J0D01*
G01*
X16897000Y-5888000D02*
G75*
G03*
X16897000Y-5888000I-25000J0D01*
G01*
X16897000Y-12492000D02*
G75*
G03*
X16897000Y-12492000I-25000J0D01*
G01*
X16967294Y-5718294D02*
G75*
G03*
X16967294Y-5718294I-25000J0D01*
G01*
X16967294Y-6057706D02*
G75*
G03*
X16967294Y-6057706I-25000J0D01*
G01*
X16967294Y-12322294D02*
G75*
G03*
X16967294Y-12322294I-25000J0D01*
G01*
X16967294Y-12661706D02*
G75*
G03*
X16967294Y-12661706I-25000J0D01*
G01*
X17137000Y-5648000D02*
G75*
G03*
X17137000Y-5648000I-25000J0D01*
G01*
X17137000Y-6128000D02*
G75*
G03*
X17137000Y-6128000I-25000J0D01*
G01*
X17137000Y-12252000D02*
G75*
G03*
X17137000Y-12252000I-25000J0D01*
G01*
X17137000Y-12732000D02*
G75*
G03*
X17137000Y-12732000I-25000J0D01*
G01*
X17306706Y-5718294D02*
G75*
G03*
X17306706Y-5718294I-25000J0D01*
G01*
X17306706Y-6057706D02*
G75*
G03*
X17306706Y-6057706I-25000J0D01*
G01*
X17306706Y-12322294D02*
G75*
G03*
X17306706Y-12322294I-25000J0D01*
G01*
X17306706Y-12661706D02*
G75*
G03*
X17306706Y-12661706I-25000J0D01*
G01*
X17377000Y-5888000D02*
G75*
G03*
X17377000Y-5888000I-25000J0D01*
G01*
X17377000Y-12492000D02*
G75*
G03*
X17377000Y-12492000I-25000J0D01*
G01*
X10508000Y-6854000D02*
X10508000Y-6954000D01*
X10458000Y-6904000D02*
X10558000Y-6904000D01*
X10508000Y-7362000D02*
X10508000Y-7462000D01*
X10458000Y-7412000D02*
X10558000Y-7412000D01*
X10508000Y-8124000D02*
X10508000Y-8224000D01*
X10458000Y-8174000D02*
X10558000Y-8174000D01*
X10508000Y-8378000D02*
X10508000Y-8478000D01*
X10458000Y-8428000D02*
X10558000Y-8428000D01*
X10508000Y-9140000D02*
X10508000Y-9240000D01*
X10458000Y-9190000D02*
X10558000Y-9190000D01*
X10508000Y-9394000D02*
X10508000Y-9494000D01*
X10458000Y-9444000D02*
X10558000Y-9444000D01*
X10508000Y-10156000D02*
X10508000Y-10256000D01*
X10458000Y-10206000D02*
X10558000Y-10206000D01*
X10508000Y-10410000D02*
X10508000Y-10510000D01*
X10458000Y-10460000D02*
X10558000Y-10460000D01*
X10508000Y-11172000D02*
X10508000Y-11272000D01*
X10458000Y-11222000D02*
X10558000Y-11222000D01*
X10508000Y-11426000D02*
X10508000Y-11526000D01*
X10458000Y-11476000D02*
X10558000Y-11476000D01*
X10762000Y-6854000D02*
X10762000Y-6954000D01*
X10712000Y-6904000D02*
X10812000Y-6904000D01*
X10762000Y-7362000D02*
X10762000Y-7462000D01*
X10712000Y-7412000D02*
X10812000Y-7412000D01*
X10762000Y-8124000D02*
X10762000Y-8224000D01*
X10712000Y-8174000D02*
X10812000Y-8174000D01*
X10762000Y-8378000D02*
X10762000Y-8478000D01*
X10712000Y-8428000D02*
X10812000Y-8428000D01*
X10762000Y-9140000D02*
X10762000Y-9240000D01*
X10712000Y-9190000D02*
X10812000Y-9190000D01*
X10762000Y-9394000D02*
X10762000Y-9494000D01*
X10712000Y-9444000D02*
X10812000Y-9444000D01*
X10762000Y-10156000D02*
X10762000Y-10256000D01*
X10712000Y-10206000D02*
X10812000Y-10206000D01*
X10762000Y-10410000D02*
X10762000Y-10510000D01*
X10712000Y-10460000D02*
X10812000Y-10460000D01*
X10762000Y-11172000D02*
X10762000Y-11272000D01*
X10712000Y-11222000D02*
X10812000Y-11222000D01*
X10762000Y-11426000D02*
X10762000Y-11526000D01*
X10712000Y-11476000D02*
X10812000Y-11476000D01*
X11016000Y-8124000D02*
X11016000Y-8224000D01*
X10966000Y-8174000D02*
X11066000Y-8174000D01*
X11016000Y-8378000D02*
X11016000Y-8478000D01*
X10966000Y-8428000D02*
X11066000Y-8428000D01*
X11016000Y-9140000D02*
X11016000Y-9240000D01*
X10966000Y-9190000D02*
X11066000Y-9190000D01*
X11016000Y-9394000D02*
X11016000Y-9494000D01*
X10966000Y-9444000D02*
X11066000Y-9444000D01*
X11016000Y-10156000D02*
X11016000Y-10256000D01*
X10966000Y-10206000D02*
X11066000Y-10206000D01*
X11016000Y-10410000D02*
X11016000Y-10510000D01*
X10966000Y-10460000D02*
X11066000Y-10460000D01*
X11016000Y-11172000D02*
X11016000Y-11272000D01*
X10966000Y-11222000D02*
X11066000Y-11222000D01*
X11016000Y-11426000D02*
X11016000Y-11526000D01*
X10966000Y-11476000D02*
X11066000Y-11476000D01*
X11312427Y-6184427D02*
X11312427Y-6099573D01*
X11227573Y-6099573D01*
X11227573Y-6184427D01*
X11312427Y-6184427D01*
X12582427Y-12280427D02*
X12582427Y-12195573D01*
X12497573Y-12195573D01*
X12497573Y-12280427D01*
X12582427Y-12280427D01*
X14360427Y-6184427D02*
X14360427Y-6099573D01*
X14275573Y-6099573D01*
X14275573Y-6184427D01*
X14360427Y-6184427D01*
X15630427Y-12280427D02*
X15630427Y-12195573D01*
X15545573Y-12195573D01*
X15545573Y-12280427D01*
X15630427Y-12280427D01*
X16858000Y-6969000D02*
X16923000Y-6904000D01*
X16858000Y-6839000D01*
X16793000Y-6904000D01*
X16858000Y-6969000D01*
X16858000Y-7477000D02*
X16923000Y-7412000D01*
X16858000Y-7347000D01*
X16793000Y-7412000D01*
X16858000Y-7477000D01*
X16858000Y-11033000D02*
X16923000Y-10968000D01*
X16858000Y-10903000D01*
X16793000Y-10968000D01*
X16858000Y-11033000D01*
X16858000Y-11541000D02*
X16923000Y-11476000D01*
X16858000Y-11411000D01*
X16793000Y-11476000D01*
X16858000Y-11541000D01*
X10348000Y-5728000D02*
X10668000Y-6048000D01*
X10668000Y-5728000D02*
X10348000Y-6048000D01*
X10668000Y-5888000D02*
G75*
G03*
X10668000Y-5888000I-160000J0D01*
G01*
X10348000Y-12332000D02*
X10668000Y-12652000D01*
X10668000Y-12332000D02*
X10348000Y-12652000D01*
X10668000Y-12492000D02*
G75*
G03*
X10668000Y-12492000I-160000J0D01*
G01*
X16952000Y-5728000D02*
X17272000Y-6048000D01*
X17272000Y-5728000D02*
X16952000Y-6048000D01*
X17272000Y-5888000D02*
G75*
G03*
X17272000Y-5888000I-160000J0D01*
G01*
X16952000Y-12332000D02*
X17272000Y-12652000D01*
X17272000Y-12332000D02*
X16952000Y-12652000D01*
X17272000Y-12492000D02*
G75*
G03*
X17272000Y-12492000I-160000J0D01*
G01*
D12*
X10036429Y-13715714D02*
X10036429Y-13415714D01*
X10107857Y-13415714D01*
X10150714Y-13430000D01*
X10179286Y-13458571D01*
X10193571Y-13487143D01*
X10207857Y-13544286D01*
X10207857Y-13587143D01*
X10193571Y-13644286D01*
X10179286Y-13672857D01*
X10150714Y-13701428D01*
X10107857Y-13715714D01*
X10036429Y-13715714D01*
X10336429Y-13715714D02*
X10336429Y-13515714D01*
X10336429Y-13572857D02*
X10350714Y-13544286D01*
X10365000Y-13530000D01*
X10393571Y-13515714D01*
X10422143Y-13515714D01*
X10522143Y-13715714D02*
X10522143Y-13515714D01*
X10522143Y-13415714D02*
X10507857Y-13430000D01*
X10522143Y-13444286D01*
X10536429Y-13430000D01*
X10522143Y-13415714D01*
X10522143Y-13444286D01*
X10707857Y-13715714D02*
X10679286Y-13701428D01*
X10665000Y-13672857D01*
X10665000Y-13415714D01*
X10865000Y-13715714D02*
X10836429Y-13701428D01*
X10822143Y-13672857D01*
X10822143Y-13415714D01*
X11207857Y-13715714D02*
X11207857Y-13415714D01*
X11307857Y-13630000D01*
X11407857Y-13415714D01*
X11407857Y-13715714D01*
X11679286Y-13715714D02*
X11679286Y-13558571D01*
X11665000Y-13530000D01*
X11636428Y-13515714D01*
X11579286Y-13515714D01*
X11550714Y-13530000D01*
X11679286Y-13701428D02*
X11650714Y-13715714D01*
X11579286Y-13715714D01*
X11550714Y-13701428D01*
X11536428Y-13672857D01*
X11536428Y-13644286D01*
X11550714Y-13615714D01*
X11579286Y-13601428D01*
X11650714Y-13601428D01*
X11679286Y-13587143D01*
X11822143Y-13515714D02*
X11822143Y-13815714D01*
X11822143Y-13530000D02*
X11850714Y-13515714D01*
X11907857Y-13515714D01*
X11936428Y-13530000D01*
X11950714Y-13544286D01*
X11965000Y-13572857D01*
X11965000Y-13658571D01*
X11950714Y-13687143D01*
X11936428Y-13701428D01*
X11907857Y-13715714D01*
X11850714Y-13715714D01*
X11822143Y-13701428D01*
X12093571Y-13687143D02*
X12107857Y-13701428D01*
X12093571Y-13715714D01*
X12079286Y-13701428D01*
X12093571Y-13687143D01*
X12093571Y-13715714D01*
X12093571Y-13530000D02*
X12107857Y-13544286D01*
X12093571Y-13558571D01*
X12079286Y-13544286D01*
X12093571Y-13530000D01*
X12093571Y-13558571D01*
X9704280Y-14187140D02*
X9750000Y-14232860D01*
X9750000Y-14187140D02*
X9704280Y-14232860D01*
X10093571Y-14045714D02*
X10122143Y-14045714D01*
X10150714Y-14060000D01*
X10165000Y-14074286D01*
X10179286Y-14102857D01*
X10193571Y-14160000D01*
X10193571Y-14231428D01*
X10179286Y-14288571D01*
X10165000Y-14317143D01*
X10150714Y-14331428D01*
X10122143Y-14345714D01*
X10093571Y-14345714D01*
X10065000Y-14331428D01*
X10050714Y-14317143D01*
X10036429Y-14288571D01*
X10022143Y-14231428D01*
X10022143Y-14160000D01*
X10036429Y-14102857D01*
X10050714Y-14074286D01*
X10065000Y-14060000D01*
X10093571Y-14045714D01*
X10322143Y-14317143D02*
X10336429Y-14331428D01*
X10322143Y-14345714D01*
X10307857Y-14331428D01*
X10322143Y-14317143D01*
X10322143Y-14345714D01*
X10593571Y-14145714D02*
X10593571Y-14345714D01*
X10522143Y-14031428D02*
X10450714Y-14245714D01*
X10636429Y-14245714D01*
X10893571Y-14045714D02*
X10750714Y-14045714D01*
X10736429Y-14188571D01*
X10750714Y-14174286D01*
X10779286Y-14160000D01*
X10850714Y-14160000D01*
X10879286Y-14174286D01*
X10893571Y-14188571D01*
X10907857Y-14217143D01*
X10907857Y-14288571D01*
X10893571Y-14317143D01*
X10879286Y-14331428D01*
X10850714Y-14345714D01*
X10779286Y-14345714D01*
X10750714Y-14331428D01*
X10736429Y-14317143D01*
X11007857Y-14045714D02*
X11207857Y-14045714D01*
X11079286Y-14345714D01*
X11322143Y-14345714D02*
X11322143Y-14145714D01*
X11322143Y-14174286D02*
X11336428Y-14160000D01*
X11365000Y-14145714D01*
X11407857Y-14145714D01*
X11436428Y-14160000D01*
X11450714Y-14188571D01*
X11450714Y-14345714D01*
X11450714Y-14188571D02*
X11465000Y-14160000D01*
X11493571Y-14145714D01*
X11536428Y-14145714D01*
X11565000Y-14160000D01*
X11579286Y-14188571D01*
X11579286Y-14345714D01*
X11722143Y-14345714D02*
X11722143Y-14145714D01*
X11722143Y-14174286D02*
X11736428Y-14160000D01*
X11765000Y-14145714D01*
X11807857Y-14145714D01*
X11836428Y-14160000D01*
X11850714Y-14188571D01*
X11850714Y-14345714D01*
X11850714Y-14188571D02*
X11865000Y-14160000D01*
X11893571Y-14145714D01*
X11936428Y-14145714D01*
X11965000Y-14160000D01*
X11979286Y-14188571D01*
X11979286Y-14345714D01*
X12565000Y-14031428D02*
X12307857Y-14417143D01*
X12950714Y-14045714D02*
X12979286Y-14045714D01*
X13007857Y-14060000D01*
X13022143Y-14074286D01*
X13036428Y-14102857D01*
X13050714Y-14160000D01*
X13050714Y-14231428D01*
X13036428Y-14288571D01*
X13022143Y-14317143D01*
X13007857Y-14331428D01*
X12979286Y-14345714D01*
X12950714Y-14345714D01*
X12922143Y-14331428D01*
X12907857Y-14317143D01*
X12893571Y-14288571D01*
X12879286Y-14231428D01*
X12879286Y-14160000D01*
X12893571Y-14102857D01*
X12907857Y-14074286D01*
X12922143Y-14060000D01*
X12950714Y-14045714D01*
X13179286Y-14317143D02*
X13193571Y-14331428D01*
X13179286Y-14345714D01*
X13165000Y-14331428D01*
X13179286Y-14317143D01*
X13179286Y-14345714D01*
X13379286Y-14045714D02*
X13407857Y-14045714D01*
X13436428Y-14060000D01*
X13450714Y-14074286D01*
X13465000Y-14102857D01*
X13479286Y-14160000D01*
X13479286Y-14231428D01*
X13465000Y-14288571D01*
X13450714Y-14317143D01*
X13436428Y-14331428D01*
X13407857Y-14345714D01*
X13379286Y-14345714D01*
X13350714Y-14331428D01*
X13336428Y-14317143D01*
X13322143Y-14288571D01*
X13307857Y-14231428D01*
X13307857Y-14160000D01*
X13322143Y-14102857D01*
X13336428Y-14074286D01*
X13350714Y-14060000D01*
X13379286Y-14045714D01*
X13765000Y-14345714D02*
X13593571Y-14345714D01*
X13679286Y-14345714D02*
X13679286Y-14045714D01*
X13650714Y-14088571D01*
X13622143Y-14117143D01*
X13593571Y-14131428D01*
X13936428Y-14174286D02*
X13907857Y-14160000D01*
X13893571Y-14145714D01*
X13879286Y-14117143D01*
X13879286Y-14102857D01*
X13893571Y-14074286D01*
X13907857Y-14060000D01*
X13936428Y-14045714D01*
X13993571Y-14045714D01*
X14022143Y-14060000D01*
X14036428Y-14074286D01*
X14050714Y-14102857D01*
X14050714Y-14117143D01*
X14036428Y-14145714D01*
X14022143Y-14160000D01*
X13993571Y-14174286D01*
X13936428Y-14174286D01*
X13907857Y-14188571D01*
X13893571Y-14202857D01*
X13879286Y-14231428D01*
X13879286Y-14288571D01*
X13893571Y-14317143D01*
X13907857Y-14331428D01*
X13936428Y-14345714D01*
X13993571Y-14345714D01*
X14022143Y-14331428D01*
X14036428Y-14317143D01*
X14050714Y-14288571D01*
X14050714Y-14231428D01*
X14036428Y-14202857D01*
X14022143Y-14188571D01*
X13993571Y-14174286D01*
X14236428Y-14045714D02*
X14265000Y-14045714D01*
X14293571Y-14060000D01*
X14307857Y-14074286D01*
X14322143Y-14102857D01*
X14336428Y-14160000D01*
X14336428Y-14231428D01*
X14322143Y-14288571D01*
X14307857Y-14317143D01*
X14293571Y-14331428D01*
X14265000Y-14345714D01*
X14236428Y-14345714D01*
X14207857Y-14331428D01*
X14193571Y-14317143D01*
X14179286Y-14288571D01*
X14165000Y-14231428D01*
X14165000Y-14160000D01*
X14179286Y-14102857D01*
X14193571Y-14074286D01*
X14207857Y-14060000D01*
X14236428Y-14045714D01*
X14450714Y-14045714D02*
X14450714Y-14102857D01*
X14565000Y-14045714D02*
X14565000Y-14102857D01*
X15007857Y-14460000D02*
X14993571Y-14445714D01*
X14965000Y-14402857D01*
X14950714Y-14374286D01*
X14936428Y-14331428D01*
X14922143Y-14260000D01*
X14922143Y-14202857D01*
X14936428Y-14131428D01*
X14950714Y-14088571D01*
X14965000Y-14060000D01*
X14993571Y-14017143D01*
X15007857Y-14002857D01*
X15107857Y-14074286D02*
X15122143Y-14060000D01*
X15150714Y-14045714D01*
X15222143Y-14045714D01*
X15250714Y-14060000D01*
X15265000Y-14074286D01*
X15279286Y-14102857D01*
X15279286Y-14131428D01*
X15265000Y-14174286D01*
X15093571Y-14345714D01*
X15279286Y-14345714D01*
X15536428Y-14145714D02*
X15536428Y-14345714D01*
X15465000Y-14031428D02*
X15393571Y-14245714D01*
X15579286Y-14245714D01*
X15922143Y-14345714D02*
X15922143Y-14045714D01*
X16050714Y-14345714D02*
X16050714Y-14188571D01*
X16036428Y-14160000D01*
X16007857Y-14145714D01*
X15965000Y-14145714D01*
X15936428Y-14160000D01*
X15922143Y-14174286D01*
X16236428Y-14345714D02*
X16207857Y-14331428D01*
X16193571Y-14317143D01*
X16179286Y-14288571D01*
X16179286Y-14202857D01*
X16193571Y-14174286D01*
X16207857Y-14160000D01*
X16236428Y-14145714D01*
X16279286Y-14145714D01*
X16307857Y-14160000D01*
X16322143Y-14174286D01*
X16336428Y-14202857D01*
X16336428Y-14288571D01*
X16322143Y-14317143D01*
X16307857Y-14331428D01*
X16279286Y-14345714D01*
X16236428Y-14345714D01*
X16507857Y-14345714D02*
X16479286Y-14331428D01*
X16465000Y-14302857D01*
X16465000Y-14045714D01*
X16736428Y-14331428D02*
X16707857Y-14345714D01*
X16650714Y-14345714D01*
X16622143Y-14331428D01*
X16607857Y-14302857D01*
X16607857Y-14188571D01*
X16622143Y-14160000D01*
X16650714Y-14145714D01*
X16707857Y-14145714D01*
X16736428Y-14160000D01*
X16750714Y-14188571D01*
X16750714Y-14217143D01*
X16607857Y-14245714D01*
X16865000Y-14331428D02*
X16893571Y-14345714D01*
X16950714Y-14345714D01*
X16979286Y-14331428D01*
X16993571Y-14302857D01*
X16993571Y-14288571D01*
X16979286Y-14260000D01*
X16950714Y-14245714D01*
X16907857Y-14245714D01*
X16879286Y-14231428D01*
X16865000Y-14202857D01*
X16865000Y-14188571D01*
X16879286Y-14160000D01*
X16907857Y-14145714D01*
X16950714Y-14145714D01*
X16979286Y-14160000D01*
X17093571Y-14460000D02*
X17107857Y-14445714D01*
X17136429Y-14402857D01*
X17150714Y-14374286D01*
X17165000Y-14331428D01*
X17179286Y-14260000D01*
X17179286Y-14202857D01*
X17165000Y-14131428D01*
X17150714Y-14088571D01*
X17136429Y-14060000D01*
X17107857Y-14017143D01*
X17093571Y-14002857D01*
X9750000Y-14606000D02*
G75*
G03*
X9750000Y-14606000I-25000J0D01*
G01*
X10093571Y-14441714D02*
X10122143Y-14441714D01*
X10150714Y-14456000D01*
X10165000Y-14470286D01*
X10179286Y-14498857D01*
X10193571Y-14556000D01*
X10193571Y-14627428D01*
X10179286Y-14684571D01*
X10165000Y-14713143D01*
X10150714Y-14727428D01*
X10122143Y-14741714D01*
X10093571Y-14741714D01*
X10065000Y-14727428D01*
X10050714Y-14713143D01*
X10036429Y-14684571D01*
X10022143Y-14627428D01*
X10022143Y-14556000D01*
X10036429Y-14498857D01*
X10050714Y-14470286D01*
X10065000Y-14456000D01*
X10093571Y-14441714D01*
X10322143Y-14713143D02*
X10336429Y-14727428D01*
X10322143Y-14741714D01*
X10307857Y-14727428D01*
X10322143Y-14713143D01*
X10322143Y-14741714D01*
X10607857Y-14441714D02*
X10465000Y-14441714D01*
X10450714Y-14584571D01*
X10465000Y-14570286D01*
X10493571Y-14556000D01*
X10565000Y-14556000D01*
X10593571Y-14570286D01*
X10607857Y-14584571D01*
X10622143Y-14613143D01*
X10622143Y-14684571D01*
X10607857Y-14713143D01*
X10593571Y-14727428D01*
X10565000Y-14741714D01*
X10493571Y-14741714D01*
X10465000Y-14727428D01*
X10450714Y-14713143D01*
X10807857Y-14441714D02*
X10836429Y-14441714D01*
X10865000Y-14456000D01*
X10879286Y-14470286D01*
X10893571Y-14498857D01*
X10907857Y-14556000D01*
X10907857Y-14627428D01*
X10893571Y-14684571D01*
X10879286Y-14713143D01*
X10865000Y-14727428D01*
X10836429Y-14741714D01*
X10807857Y-14741714D01*
X10779286Y-14727428D01*
X10765000Y-14713143D01*
X10750714Y-14684571D01*
X10736429Y-14627428D01*
X10736429Y-14556000D01*
X10750714Y-14498857D01*
X10765000Y-14470286D01*
X10779286Y-14456000D01*
X10807857Y-14441714D01*
X11093571Y-14441714D02*
X11122143Y-14441714D01*
X11150714Y-14456000D01*
X11165000Y-14470286D01*
X11179286Y-14498857D01*
X11193571Y-14556000D01*
X11193571Y-14627428D01*
X11179286Y-14684571D01*
X11165000Y-14713143D01*
X11150714Y-14727428D01*
X11122143Y-14741714D01*
X11093571Y-14741714D01*
X11065000Y-14727428D01*
X11050714Y-14713143D01*
X11036429Y-14684571D01*
X11022143Y-14627428D01*
X11022143Y-14556000D01*
X11036429Y-14498857D01*
X11050714Y-14470286D01*
X11065000Y-14456000D01*
X11093571Y-14441714D01*
X11322143Y-14741714D02*
X11322143Y-14541714D01*
X11322143Y-14570286D02*
X11336428Y-14556000D01*
X11365000Y-14541714D01*
X11407857Y-14541714D01*
X11436428Y-14556000D01*
X11450714Y-14584571D01*
X11450714Y-14741714D01*
X11450714Y-14584571D02*
X11465000Y-14556000D01*
X11493571Y-14541714D01*
X11536428Y-14541714D01*
X11565000Y-14556000D01*
X11579286Y-14584571D01*
X11579286Y-14741714D01*
X11722143Y-14741714D02*
X11722143Y-14541714D01*
X11722143Y-14570286D02*
X11736428Y-14556000D01*
X11765000Y-14541714D01*
X11807857Y-14541714D01*
X11836428Y-14556000D01*
X11850714Y-14584571D01*
X11850714Y-14741714D01*
X11850714Y-14584571D02*
X11865000Y-14556000D01*
X11893571Y-14541714D01*
X11936428Y-14541714D01*
X11965000Y-14556000D01*
X11979286Y-14584571D01*
X11979286Y-14741714D01*
X12565000Y-14427428D02*
X12307857Y-14813143D01*
X12950714Y-14441714D02*
X12979286Y-14441714D01*
X13007857Y-14456000D01*
X13022143Y-14470286D01*
X13036428Y-14498857D01*
X13050714Y-14556000D01*
X13050714Y-14627428D01*
X13036428Y-14684571D01*
X13022143Y-14713143D01*
X13007857Y-14727428D01*
X12979286Y-14741714D01*
X12950714Y-14741714D01*
X12922143Y-14727428D01*
X12907857Y-14713143D01*
X12893571Y-14684571D01*
X12879286Y-14627428D01*
X12879286Y-14556000D01*
X12893571Y-14498857D01*
X12907857Y-14470286D01*
X12922143Y-14456000D01*
X12950714Y-14441714D01*
X13179286Y-14713143D02*
X13193571Y-14727428D01*
X13179286Y-14741714D01*
X13165000Y-14727428D01*
X13179286Y-14713143D01*
X13179286Y-14741714D01*
X13379286Y-14441714D02*
X13407857Y-14441714D01*
X13436428Y-14456000D01*
X13450714Y-14470286D01*
X13465000Y-14498857D01*
X13479286Y-14556000D01*
X13479286Y-14627428D01*
X13465000Y-14684571D01*
X13450714Y-14713143D01*
X13436428Y-14727428D01*
X13407857Y-14741714D01*
X13379286Y-14741714D01*
X13350714Y-14727428D01*
X13336428Y-14713143D01*
X13322143Y-14684571D01*
X13307857Y-14627428D01*
X13307857Y-14556000D01*
X13322143Y-14498857D01*
X13336428Y-14470286D01*
X13350714Y-14456000D01*
X13379286Y-14441714D01*
X13765000Y-14741714D02*
X13593571Y-14741714D01*
X13679286Y-14741714D02*
X13679286Y-14441714D01*
X13650714Y-14484571D01*
X13622143Y-14513143D01*
X13593571Y-14527428D01*
X13907857Y-14741714D02*
X13965000Y-14741714D01*
X13993571Y-14727428D01*
X14007857Y-14713143D01*
X14036428Y-14670286D01*
X14050714Y-14613143D01*
X14050714Y-14498857D01*
X14036428Y-14470286D01*
X14022143Y-14456000D01*
X13993571Y-14441714D01*
X13936428Y-14441714D01*
X13907857Y-14456000D01*
X13893571Y-14470286D01*
X13879286Y-14498857D01*
X13879286Y-14570286D01*
X13893571Y-14598857D01*
X13907857Y-14613143D01*
X13936428Y-14627428D01*
X13993571Y-14627428D01*
X14022143Y-14613143D01*
X14036428Y-14598857D01*
X14050714Y-14570286D01*
X14150714Y-14441714D02*
X14350714Y-14441714D01*
X14222143Y-14741714D01*
X14450714Y-14441714D02*
X14450714Y-14498857D01*
X14565000Y-14441714D02*
X14565000Y-14498857D01*
X15007857Y-14856000D02*
X14993571Y-14841714D01*
X14965000Y-14798857D01*
X14950714Y-14770286D01*
X14936428Y-14727428D01*
X14922143Y-14656000D01*
X14922143Y-14598857D01*
X14936428Y-14527428D01*
X14950714Y-14484571D01*
X14965000Y-14456000D01*
X14993571Y-14413143D01*
X15007857Y-14398857D01*
X15093571Y-14441714D02*
X15279286Y-14441714D01*
X15179286Y-14556000D01*
X15222143Y-14556000D01*
X15250714Y-14570286D01*
X15265000Y-14584571D01*
X15279286Y-14613143D01*
X15279286Y-14684571D01*
X15265000Y-14713143D01*
X15250714Y-14727428D01*
X15222143Y-14741714D01*
X15136428Y-14741714D01*
X15107857Y-14727428D01*
X15093571Y-14713143D01*
X15393571Y-14470286D02*
X15407857Y-14456000D01*
X15436428Y-14441714D01*
X15507857Y-14441714D01*
X15536428Y-14456000D01*
X15550714Y-14470286D01*
X15565000Y-14498857D01*
X15565000Y-14527428D01*
X15550714Y-14570286D01*
X15379286Y-14741714D01*
X15565000Y-14741714D01*
X15922143Y-14741714D02*
X15922143Y-14441714D01*
X16050714Y-14741714D02*
X16050714Y-14584571D01*
X16036428Y-14556000D01*
X16007857Y-14541714D01*
X15965000Y-14541714D01*
X15936428Y-14556000D01*
X15922143Y-14570286D01*
X16236428Y-14741714D02*
X16207857Y-14727428D01*
X16193571Y-14713143D01*
X16179286Y-14684571D01*
X16179286Y-14598857D01*
X16193571Y-14570286D01*
X16207857Y-14556000D01*
X16236428Y-14541714D01*
X16279286Y-14541714D01*
X16307857Y-14556000D01*
X16322143Y-14570286D01*
X16336428Y-14598857D01*
X16336428Y-14684571D01*
X16322143Y-14713143D01*
X16307857Y-14727428D01*
X16279286Y-14741714D01*
X16236428Y-14741714D01*
X16507857Y-14741714D02*
X16479286Y-14727428D01*
X16465000Y-14698857D01*
X16465000Y-14441714D01*
X16736428Y-14727428D02*
X16707857Y-14741714D01*
X16650714Y-14741714D01*
X16622143Y-14727428D01*
X16607857Y-14698857D01*
X16607857Y-14584571D01*
X16622143Y-14556000D01*
X16650714Y-14541714D01*
X16707857Y-14541714D01*
X16736428Y-14556000D01*
X16750714Y-14584571D01*
X16750714Y-14613143D01*
X16607857Y-14641714D01*
X16865000Y-14727428D02*
X16893571Y-14741714D01*
X16950714Y-14741714D01*
X16979286Y-14727428D01*
X16993571Y-14698857D01*
X16993571Y-14684571D01*
X16979286Y-14656000D01*
X16950714Y-14641714D01*
X16907857Y-14641714D01*
X16879286Y-14627428D01*
X16865000Y-14598857D01*
X16865000Y-14584571D01*
X16879286Y-14556000D01*
X16907857Y-14541714D01*
X16950714Y-14541714D01*
X16979286Y-14556000D01*
X17093571Y-14856000D02*
X17107857Y-14841714D01*
X17136429Y-14798857D01*
X17150714Y-14770286D01*
X17165000Y-14727428D01*
X17179286Y-14656000D01*
X17179286Y-14598857D01*
X17165000Y-14527428D01*
X17150714Y-14484571D01*
X17136429Y-14456000D01*
X17107857Y-14413143D01*
X17093571Y-14398857D01*
X9700000Y-14952000D02*
X9700000Y-15052000D01*
X9650000Y-15002000D02*
X9750000Y-15002000D01*
X10193571Y-15137714D02*
X10022143Y-15137714D01*
X10107857Y-15137714D02*
X10107857Y-14837714D01*
X10079286Y-14880571D01*
X10050714Y-14909143D01*
X10022143Y-14923428D01*
X10322143Y-15109143D02*
X10336429Y-15123428D01*
X10322143Y-15137714D01*
X10307857Y-15123428D01*
X10322143Y-15109143D01*
X10322143Y-15137714D01*
X10522143Y-14837714D02*
X10550714Y-14837714D01*
X10579286Y-14852000D01*
X10593571Y-14866286D01*
X10607857Y-14894857D01*
X10622143Y-14952000D01*
X10622143Y-15023428D01*
X10607857Y-15080571D01*
X10593571Y-15109143D01*
X10579286Y-15123428D01*
X10550714Y-15137714D01*
X10522143Y-15137714D01*
X10493571Y-15123428D01*
X10479286Y-15109143D01*
X10465000Y-15080571D01*
X10450714Y-15023428D01*
X10450714Y-14952000D01*
X10465000Y-14894857D01*
X10479286Y-14866286D01*
X10493571Y-14852000D01*
X10522143Y-14837714D01*
X10807857Y-14837714D02*
X10836429Y-14837714D01*
X10865000Y-14852000D01*
X10879286Y-14866286D01*
X10893571Y-14894857D01*
X10907857Y-14952000D01*
X10907857Y-15023428D01*
X10893571Y-15080571D01*
X10879286Y-15109143D01*
X10865000Y-15123428D01*
X10836429Y-15137714D01*
X10807857Y-15137714D01*
X10779286Y-15123428D01*
X10765000Y-15109143D01*
X10750714Y-15080571D01*
X10736429Y-15023428D01*
X10736429Y-14952000D01*
X10750714Y-14894857D01*
X10765000Y-14866286D01*
X10779286Y-14852000D01*
X10807857Y-14837714D01*
X11093571Y-14837714D02*
X11122143Y-14837714D01*
X11150714Y-14852000D01*
X11165000Y-14866286D01*
X11179286Y-14894857D01*
X11193571Y-14952000D01*
X11193571Y-15023428D01*
X11179286Y-15080571D01*
X11165000Y-15109143D01*
X11150714Y-15123428D01*
X11122143Y-15137714D01*
X11093571Y-15137714D01*
X11065000Y-15123428D01*
X11050714Y-15109143D01*
X11036429Y-15080571D01*
X11022143Y-15023428D01*
X11022143Y-14952000D01*
X11036429Y-14894857D01*
X11050714Y-14866286D01*
X11065000Y-14852000D01*
X11093571Y-14837714D01*
X11322143Y-15137714D02*
X11322143Y-14937714D01*
X11322143Y-14966286D02*
X11336428Y-14952000D01*
X11365000Y-14937714D01*
X11407857Y-14937714D01*
X11436428Y-14952000D01*
X11450714Y-14980571D01*
X11450714Y-15137714D01*
X11450714Y-14980571D02*
X11465000Y-14952000D01*
X11493571Y-14937714D01*
X11536428Y-14937714D01*
X11565000Y-14952000D01*
X11579286Y-14980571D01*
X11579286Y-15137714D01*
X11722143Y-15137714D02*
X11722143Y-14937714D01*
X11722143Y-14966286D02*
X11736428Y-14952000D01*
X11765000Y-14937714D01*
X11807857Y-14937714D01*
X11836428Y-14952000D01*
X11850714Y-14980571D01*
X11850714Y-15137714D01*
X11850714Y-14980571D02*
X11865000Y-14952000D01*
X11893571Y-14937714D01*
X11936428Y-14937714D01*
X11965000Y-14952000D01*
X11979286Y-14980571D01*
X11979286Y-15137714D01*
X12565000Y-14823428D02*
X12307857Y-15209143D01*
X12950714Y-14837714D02*
X12979286Y-14837714D01*
X13007857Y-14852000D01*
X13022143Y-14866286D01*
X13036428Y-14894857D01*
X13050714Y-14952000D01*
X13050714Y-15023428D01*
X13036428Y-15080571D01*
X13022143Y-15109143D01*
X13007857Y-15123428D01*
X12979286Y-15137714D01*
X12950714Y-15137714D01*
X12922143Y-15123428D01*
X12907857Y-15109143D01*
X12893571Y-15080571D01*
X12879286Y-15023428D01*
X12879286Y-14952000D01*
X12893571Y-14894857D01*
X12907857Y-14866286D01*
X12922143Y-14852000D01*
X12950714Y-14837714D01*
X13179286Y-15109143D02*
X13193571Y-15123428D01*
X13179286Y-15137714D01*
X13165000Y-15123428D01*
X13179286Y-15109143D01*
X13179286Y-15137714D01*
X13379286Y-14837714D02*
X13407857Y-14837714D01*
X13436428Y-14852000D01*
X13450714Y-14866286D01*
X13465000Y-14894857D01*
X13479286Y-14952000D01*
X13479286Y-15023428D01*
X13465000Y-15080571D01*
X13450714Y-15109143D01*
X13436428Y-15123428D01*
X13407857Y-15137714D01*
X13379286Y-15137714D01*
X13350714Y-15123428D01*
X13336428Y-15109143D01*
X13322143Y-15080571D01*
X13307857Y-15023428D01*
X13307857Y-14952000D01*
X13322143Y-14894857D01*
X13336428Y-14866286D01*
X13350714Y-14852000D01*
X13379286Y-14837714D01*
X13579286Y-14837714D02*
X13765000Y-14837714D01*
X13665000Y-14952000D01*
X13707857Y-14952000D01*
X13736428Y-14966286D01*
X13750714Y-14980571D01*
X13765000Y-15009143D01*
X13765000Y-15080571D01*
X13750714Y-15109143D01*
X13736428Y-15123428D01*
X13707857Y-15137714D01*
X13622143Y-15137714D01*
X13593571Y-15123428D01*
X13579286Y-15109143D01*
X13907857Y-15137714D02*
X13965000Y-15137714D01*
X13993571Y-15123428D01*
X14007857Y-15109143D01*
X14036428Y-15066286D01*
X14050714Y-15009143D01*
X14050714Y-14894857D01*
X14036428Y-14866286D01*
X14022143Y-14852000D01*
X13993571Y-14837714D01*
X13936428Y-14837714D01*
X13907857Y-14852000D01*
X13893571Y-14866286D01*
X13879286Y-14894857D01*
X13879286Y-14966286D01*
X13893571Y-14994857D01*
X13907857Y-15009143D01*
X13936428Y-15023428D01*
X13993571Y-15023428D01*
X14022143Y-15009143D01*
X14036428Y-14994857D01*
X14050714Y-14966286D01*
X14307857Y-14937714D02*
X14307857Y-15137714D01*
X14236428Y-14823428D02*
X14165000Y-15037714D01*
X14350714Y-15037714D01*
X14450714Y-14837714D02*
X14450714Y-14894857D01*
X14565000Y-14837714D02*
X14565000Y-14894857D01*
X15007857Y-15252000D02*
X14993571Y-15237714D01*
X14965000Y-15194857D01*
X14950714Y-15166286D01*
X14936428Y-15123428D01*
X14922143Y-15052000D01*
X14922143Y-14994857D01*
X14936428Y-14923428D01*
X14950714Y-14880571D01*
X14965000Y-14852000D01*
X14993571Y-14809143D01*
X15007857Y-14794857D01*
X15107857Y-14866286D02*
X15122143Y-14852000D01*
X15150714Y-14837714D01*
X15222143Y-14837714D01*
X15250714Y-14852000D01*
X15265000Y-14866286D01*
X15279286Y-14894857D01*
X15279286Y-14923428D01*
X15265000Y-14966286D01*
X15093571Y-15137714D01*
X15279286Y-15137714D01*
X15450714Y-14966286D02*
X15422143Y-14952000D01*
X15407857Y-14937714D01*
X15393571Y-14909143D01*
X15393571Y-14894857D01*
X15407857Y-14866286D01*
X15422143Y-14852000D01*
X15450714Y-14837714D01*
X15507857Y-14837714D01*
X15536428Y-14852000D01*
X15550714Y-14866286D01*
X15565000Y-14894857D01*
X15565000Y-14909143D01*
X15550714Y-14937714D01*
X15536428Y-14952000D01*
X15507857Y-14966286D01*
X15450714Y-14966286D01*
X15422143Y-14980571D01*
X15407857Y-14994857D01*
X15393571Y-15023428D01*
X15393571Y-15080571D01*
X15407857Y-15109143D01*
X15422143Y-15123428D01*
X15450714Y-15137714D01*
X15507857Y-15137714D01*
X15536428Y-15123428D01*
X15550714Y-15109143D01*
X15565000Y-15080571D01*
X15565000Y-15023428D01*
X15550714Y-14994857D01*
X15536428Y-14980571D01*
X15507857Y-14966286D01*
X15922143Y-15137714D02*
X15922143Y-14837714D01*
X16050714Y-15137714D02*
X16050714Y-14980571D01*
X16036428Y-14952000D01*
X16007857Y-14937714D01*
X15965000Y-14937714D01*
X15936428Y-14952000D01*
X15922143Y-14966286D01*
X16236428Y-15137714D02*
X16207857Y-15123428D01*
X16193571Y-15109143D01*
X16179286Y-15080571D01*
X16179286Y-14994857D01*
X16193571Y-14966286D01*
X16207857Y-14952000D01*
X16236428Y-14937714D01*
X16279286Y-14937714D01*
X16307857Y-14952000D01*
X16322143Y-14966286D01*
X16336428Y-14994857D01*
X16336428Y-15080571D01*
X16322143Y-15109143D01*
X16307857Y-15123428D01*
X16279286Y-15137714D01*
X16236428Y-15137714D01*
X16507857Y-15137714D02*
X16479286Y-15123428D01*
X16465000Y-15094857D01*
X16465000Y-14837714D01*
X16736428Y-15123428D02*
X16707857Y-15137714D01*
X16650714Y-15137714D01*
X16622143Y-15123428D01*
X16607857Y-15094857D01*
X16607857Y-14980571D01*
X16622143Y-14952000D01*
X16650714Y-14937714D01*
X16707857Y-14937714D01*
X16736428Y-14952000D01*
X16750714Y-14980571D01*
X16750714Y-15009143D01*
X16607857Y-15037714D01*
X16865000Y-15123428D02*
X16893571Y-15137714D01*
X16950714Y-15137714D01*
X16979286Y-15123428D01*
X16993571Y-15094857D01*
X16993571Y-15080571D01*
X16979286Y-15052000D01*
X16950714Y-15037714D01*
X16907857Y-15037714D01*
X16879286Y-15023428D01*
X16865000Y-14994857D01*
X16865000Y-14980571D01*
X16879286Y-14952000D01*
X16907857Y-14937714D01*
X16950714Y-14937714D01*
X16979286Y-14952000D01*
X17093571Y-15252000D02*
X17107857Y-15237714D01*
X17136429Y-15194857D01*
X17150714Y-15166286D01*
X17165000Y-15123428D01*
X17179286Y-15052000D01*
X17179286Y-14994857D01*
X17165000Y-14923428D01*
X17150714Y-14880571D01*
X17136429Y-14852000D01*
X17107857Y-14809143D01*
X17093571Y-14794857D01*
X9732427Y-15440427D02*
X9732427Y-15355573D01*
X9647573Y-15355573D01*
X9647573Y-15440427D01*
X9732427Y-15440427D01*
X10193571Y-15533714D02*
X10022143Y-15533714D01*
X10107857Y-15533714D02*
X10107857Y-15233714D01*
X10079286Y-15276571D01*
X10050714Y-15305143D01*
X10022143Y-15319428D01*
X10322143Y-15505143D02*
X10336429Y-15519428D01*
X10322143Y-15533714D01*
X10307857Y-15519428D01*
X10322143Y-15505143D01*
X10322143Y-15533714D01*
X10450714Y-15262286D02*
X10465000Y-15248000D01*
X10493571Y-15233714D01*
X10565000Y-15233714D01*
X10593571Y-15248000D01*
X10607857Y-15262286D01*
X10622143Y-15290857D01*
X10622143Y-15319428D01*
X10607857Y-15362286D01*
X10436429Y-15533714D01*
X10622143Y-15533714D01*
X10807857Y-15233714D02*
X10836429Y-15233714D01*
X10865000Y-15248000D01*
X10879286Y-15262286D01*
X10893571Y-15290857D01*
X10907857Y-15348000D01*
X10907857Y-15419428D01*
X10893571Y-15476571D01*
X10879286Y-15505143D01*
X10865000Y-15519428D01*
X10836429Y-15533714D01*
X10807857Y-15533714D01*
X10779286Y-15519428D01*
X10765000Y-15505143D01*
X10750714Y-15476571D01*
X10736429Y-15419428D01*
X10736429Y-15348000D01*
X10750714Y-15290857D01*
X10765000Y-15262286D01*
X10779286Y-15248000D01*
X10807857Y-15233714D01*
X11093571Y-15233714D02*
X11122143Y-15233714D01*
X11150714Y-15248000D01*
X11165000Y-15262286D01*
X11179286Y-15290857D01*
X11193571Y-15348000D01*
X11193571Y-15419428D01*
X11179286Y-15476571D01*
X11165000Y-15505143D01*
X11150714Y-15519428D01*
X11122143Y-15533714D01*
X11093571Y-15533714D01*
X11065000Y-15519428D01*
X11050714Y-15505143D01*
X11036429Y-15476571D01*
X11022143Y-15419428D01*
X11022143Y-15348000D01*
X11036429Y-15290857D01*
X11050714Y-15262286D01*
X11065000Y-15248000D01*
X11093571Y-15233714D01*
X11322143Y-15533714D02*
X11322143Y-15333714D01*
X11322143Y-15362286D02*
X11336428Y-15348000D01*
X11365000Y-15333714D01*
X11407857Y-15333714D01*
X11436428Y-15348000D01*
X11450714Y-15376571D01*
X11450714Y-15533714D01*
X11450714Y-15376571D02*
X11465000Y-15348000D01*
X11493571Y-15333714D01*
X11536428Y-15333714D01*
X11565000Y-15348000D01*
X11579286Y-15376571D01*
X11579286Y-15533714D01*
X11722143Y-15533714D02*
X11722143Y-15333714D01*
X11722143Y-15362286D02*
X11736428Y-15348000D01*
X11765000Y-15333714D01*
X11807857Y-15333714D01*
X11836428Y-15348000D01*
X11850714Y-15376571D01*
X11850714Y-15533714D01*
X11850714Y-15376571D02*
X11865000Y-15348000D01*
X11893571Y-15333714D01*
X11936428Y-15333714D01*
X11965000Y-15348000D01*
X11979286Y-15376571D01*
X11979286Y-15533714D01*
X12565000Y-15219428D02*
X12307857Y-15605143D01*
X12950714Y-15233714D02*
X12979286Y-15233714D01*
X13007857Y-15248000D01*
X13022143Y-15262286D01*
X13036428Y-15290857D01*
X13050714Y-15348000D01*
X13050714Y-15419428D01*
X13036428Y-15476571D01*
X13022143Y-15505143D01*
X13007857Y-15519428D01*
X12979286Y-15533714D01*
X12950714Y-15533714D01*
X12922143Y-15519428D01*
X12907857Y-15505143D01*
X12893571Y-15476571D01*
X12879286Y-15419428D01*
X12879286Y-15348000D01*
X12893571Y-15290857D01*
X12907857Y-15262286D01*
X12922143Y-15248000D01*
X12950714Y-15233714D01*
X13179286Y-15505143D02*
X13193571Y-15519428D01*
X13179286Y-15533714D01*
X13165000Y-15519428D01*
X13179286Y-15505143D01*
X13179286Y-15533714D01*
X13379286Y-15233714D02*
X13407857Y-15233714D01*
X13436428Y-15248000D01*
X13450714Y-15262286D01*
X13465000Y-15290857D01*
X13479286Y-15348000D01*
X13479286Y-15419428D01*
X13465000Y-15476571D01*
X13450714Y-15505143D01*
X13436428Y-15519428D01*
X13407857Y-15533714D01*
X13379286Y-15533714D01*
X13350714Y-15519428D01*
X13336428Y-15505143D01*
X13322143Y-15476571D01*
X13307857Y-15419428D01*
X13307857Y-15348000D01*
X13322143Y-15290857D01*
X13336428Y-15262286D01*
X13350714Y-15248000D01*
X13379286Y-15233714D01*
X13736428Y-15333714D02*
X13736428Y-15533714D01*
X13665000Y-15219428D02*
X13593571Y-15433714D01*
X13779286Y-15433714D01*
X13865000Y-15233714D02*
X14065000Y-15233714D01*
X13936428Y-15533714D01*
X14165000Y-15262286D02*
X14179286Y-15248000D01*
X14207857Y-15233714D01*
X14279286Y-15233714D01*
X14307857Y-15248000D01*
X14322143Y-15262286D01*
X14336428Y-15290857D01*
X14336428Y-15319428D01*
X14322143Y-15362286D01*
X14150714Y-15533714D01*
X14336428Y-15533714D01*
X14450714Y-15233714D02*
X14450714Y-15290857D01*
X14565000Y-15233714D02*
X14565000Y-15290857D01*
X15007857Y-15648000D02*
X14993571Y-15633714D01*
X14965000Y-15590857D01*
X14950714Y-15562286D01*
X14936428Y-15519428D01*
X14922143Y-15448000D01*
X14922143Y-15390857D01*
X14936428Y-15319428D01*
X14950714Y-15276571D01*
X14965000Y-15248000D01*
X14993571Y-15205143D01*
X15007857Y-15190857D01*
X15250714Y-15333714D02*
X15250714Y-15533714D01*
X15179286Y-15219428D02*
X15107857Y-15433714D01*
X15293571Y-15433714D01*
X15636428Y-15533714D02*
X15636428Y-15233714D01*
X15765000Y-15533714D02*
X15765000Y-15376571D01*
X15750714Y-15348000D01*
X15722143Y-15333714D01*
X15679286Y-15333714D01*
X15650714Y-15348000D01*
X15636428Y-15362286D01*
X15950714Y-15533714D02*
X15922143Y-15519428D01*
X15907857Y-15505143D01*
X15893571Y-15476571D01*
X15893571Y-15390857D01*
X15907857Y-15362286D01*
X15922143Y-15348000D01*
X15950714Y-15333714D01*
X15993571Y-15333714D01*
X16022143Y-15348000D01*
X16036428Y-15362286D01*
X16050714Y-15390857D01*
X16050714Y-15476571D01*
X16036428Y-15505143D01*
X16022143Y-15519428D01*
X15993571Y-15533714D01*
X15950714Y-15533714D01*
X16222143Y-15533714D02*
X16193571Y-15519428D01*
X16179286Y-15490857D01*
X16179286Y-15233714D01*
X16450714Y-15519428D02*
X16422143Y-15533714D01*
X16365000Y-15533714D01*
X16336428Y-15519428D01*
X16322143Y-15490857D01*
X16322143Y-15376571D01*
X16336428Y-15348000D01*
X16365000Y-15333714D01*
X16422143Y-15333714D01*
X16450714Y-15348000D01*
X16465000Y-15376571D01*
X16465000Y-15405143D01*
X16322143Y-15433714D01*
X16579286Y-15519428D02*
X16607857Y-15533714D01*
X16665000Y-15533714D01*
X16693571Y-15519428D01*
X16707857Y-15490857D01*
X16707857Y-15476571D01*
X16693571Y-15448000D01*
X16665000Y-15433714D01*
X16622143Y-15433714D01*
X16593571Y-15419428D01*
X16579286Y-15390857D01*
X16579286Y-15376571D01*
X16593571Y-15348000D01*
X16622143Y-15333714D01*
X16665000Y-15333714D01*
X16693571Y-15348000D01*
X16807857Y-15648000D02*
X16822143Y-15633714D01*
X16850714Y-15590857D01*
X16865000Y-15562286D01*
X16879286Y-15519428D01*
X16893571Y-15448000D01*
X16893571Y-15390857D01*
X16879286Y-15319428D01*
X16865000Y-15276571D01*
X16850714Y-15248000D01*
X16822143Y-15205143D01*
X16807857Y-15190857D01*
X9685000Y-15859000D02*
X9750000Y-15794000D01*
X9685000Y-15729000D01*
X9620000Y-15794000D01*
X9685000Y-15859000D01*
X10193571Y-15929714D02*
X10022143Y-15929714D01*
X10107857Y-15929714D02*
X10107857Y-15629714D01*
X10079286Y-15672571D01*
X10050714Y-15701143D01*
X10022143Y-15715428D01*
X10322143Y-15901143D02*
X10336429Y-15915428D01*
X10322143Y-15929714D01*
X10307857Y-15915428D01*
X10322143Y-15901143D01*
X10322143Y-15929714D01*
X10436429Y-15629714D02*
X10622143Y-15629714D01*
X10522143Y-15744000D01*
X10565000Y-15744000D01*
X10593571Y-15758286D01*
X10607857Y-15772571D01*
X10622143Y-15801143D01*
X10622143Y-15872571D01*
X10607857Y-15901143D01*
X10593571Y-15915428D01*
X10565000Y-15929714D01*
X10479286Y-15929714D01*
X10450714Y-15915428D01*
X10436429Y-15901143D01*
X10807857Y-15629714D02*
X10836429Y-15629714D01*
X10865000Y-15644000D01*
X10879286Y-15658286D01*
X10893571Y-15686857D01*
X10907857Y-15744000D01*
X10907857Y-15815428D01*
X10893571Y-15872571D01*
X10879286Y-15901143D01*
X10865000Y-15915428D01*
X10836429Y-15929714D01*
X10807857Y-15929714D01*
X10779286Y-15915428D01*
X10765000Y-15901143D01*
X10750714Y-15872571D01*
X10736429Y-15815428D01*
X10736429Y-15744000D01*
X10750714Y-15686857D01*
X10765000Y-15658286D01*
X10779286Y-15644000D01*
X10807857Y-15629714D01*
X11093571Y-15629714D02*
X11122143Y-15629714D01*
X11150714Y-15644000D01*
X11165000Y-15658286D01*
X11179286Y-15686857D01*
X11193571Y-15744000D01*
X11193571Y-15815428D01*
X11179286Y-15872571D01*
X11165000Y-15901143D01*
X11150714Y-15915428D01*
X11122143Y-15929714D01*
X11093571Y-15929714D01*
X11065000Y-15915428D01*
X11050714Y-15901143D01*
X11036429Y-15872571D01*
X11022143Y-15815428D01*
X11022143Y-15744000D01*
X11036429Y-15686857D01*
X11050714Y-15658286D01*
X11065000Y-15644000D01*
X11093571Y-15629714D01*
X11322143Y-15929714D02*
X11322143Y-15729714D01*
X11322143Y-15758286D02*
X11336428Y-15744000D01*
X11365000Y-15729714D01*
X11407857Y-15729714D01*
X11436428Y-15744000D01*
X11450714Y-15772571D01*
X11450714Y-15929714D01*
X11450714Y-15772571D02*
X11465000Y-15744000D01*
X11493571Y-15729714D01*
X11536428Y-15729714D01*
X11565000Y-15744000D01*
X11579286Y-15772571D01*
X11579286Y-15929714D01*
X11722143Y-15929714D02*
X11722143Y-15729714D01*
X11722143Y-15758286D02*
X11736428Y-15744000D01*
X11765000Y-15729714D01*
X11807857Y-15729714D01*
X11836428Y-15744000D01*
X11850714Y-15772571D01*
X11850714Y-15929714D01*
X11850714Y-15772571D02*
X11865000Y-15744000D01*
X11893571Y-15729714D01*
X11936428Y-15729714D01*
X11965000Y-15744000D01*
X11979286Y-15772571D01*
X11979286Y-15929714D01*
X12565000Y-15615428D02*
X12307857Y-16001143D01*
X12950714Y-15629714D02*
X12979286Y-15629714D01*
X13007857Y-15644000D01*
X13022143Y-15658286D01*
X13036428Y-15686857D01*
X13050714Y-15744000D01*
X13050714Y-15815428D01*
X13036428Y-15872571D01*
X13022143Y-15901143D01*
X13007857Y-15915428D01*
X12979286Y-15929714D01*
X12950714Y-15929714D01*
X12922143Y-15915428D01*
X12907857Y-15901143D01*
X12893571Y-15872571D01*
X12879286Y-15815428D01*
X12879286Y-15744000D01*
X12893571Y-15686857D01*
X12907857Y-15658286D01*
X12922143Y-15644000D01*
X12950714Y-15629714D01*
X13179286Y-15901143D02*
X13193571Y-15915428D01*
X13179286Y-15929714D01*
X13165000Y-15915428D01*
X13179286Y-15901143D01*
X13179286Y-15929714D01*
X13379286Y-15629714D02*
X13407857Y-15629714D01*
X13436428Y-15644000D01*
X13450714Y-15658286D01*
X13465000Y-15686857D01*
X13479286Y-15744000D01*
X13479286Y-15815428D01*
X13465000Y-15872571D01*
X13450714Y-15901143D01*
X13436428Y-15915428D01*
X13407857Y-15929714D01*
X13379286Y-15929714D01*
X13350714Y-15915428D01*
X13336428Y-15901143D01*
X13322143Y-15872571D01*
X13307857Y-15815428D01*
X13307857Y-15744000D01*
X13322143Y-15686857D01*
X13336428Y-15658286D01*
X13350714Y-15644000D01*
X13379286Y-15629714D01*
X13750714Y-15629714D02*
X13607857Y-15629714D01*
X13593571Y-15772571D01*
X13607857Y-15758286D01*
X13636428Y-15744000D01*
X13707857Y-15744000D01*
X13736428Y-15758286D01*
X13750714Y-15772571D01*
X13765000Y-15801143D01*
X13765000Y-15872571D01*
X13750714Y-15901143D01*
X13736428Y-15915428D01*
X13707857Y-15929714D01*
X13636428Y-15929714D01*
X13607857Y-15915428D01*
X13593571Y-15901143D01*
X14050714Y-15929714D02*
X13879286Y-15929714D01*
X13965000Y-15929714D02*
X13965000Y-15629714D01*
X13936428Y-15672571D01*
X13907857Y-15701143D01*
X13879286Y-15715428D01*
X14165000Y-15658286D02*
X14179286Y-15644000D01*
X14207857Y-15629714D01*
X14279286Y-15629714D01*
X14307857Y-15644000D01*
X14322143Y-15658286D01*
X14336428Y-15686857D01*
X14336428Y-15715428D01*
X14322143Y-15758286D01*
X14150714Y-15929714D01*
X14336428Y-15929714D01*
X14450714Y-15629714D02*
X14450714Y-15686857D01*
X14565000Y-15629714D02*
X14565000Y-15686857D01*
X15007857Y-16044000D02*
X14993571Y-16029714D01*
X14965000Y-15986857D01*
X14950714Y-15958286D01*
X14936428Y-15915428D01*
X14922143Y-15844000D01*
X14922143Y-15786857D01*
X14936428Y-15715428D01*
X14950714Y-15672571D01*
X14965000Y-15644000D01*
X14993571Y-15601143D01*
X15007857Y-15586857D01*
X15250714Y-15729714D02*
X15250714Y-15929714D01*
X15179286Y-15615428D02*
X15107857Y-15829714D01*
X15293571Y-15829714D01*
X15636428Y-15929714D02*
X15636428Y-15629714D01*
X15765000Y-15929714D02*
X15765000Y-15772571D01*
X15750714Y-15744000D01*
X15722143Y-15729714D01*
X15679286Y-15729714D01*
X15650714Y-15744000D01*
X15636428Y-15758286D01*
X15950714Y-15929714D02*
X15922143Y-15915428D01*
X15907857Y-15901143D01*
X15893571Y-15872571D01*
X15893571Y-15786857D01*
X15907857Y-15758286D01*
X15922143Y-15744000D01*
X15950714Y-15729714D01*
X15993571Y-15729714D01*
X16022143Y-15744000D01*
X16036428Y-15758286D01*
X16050714Y-15786857D01*
X16050714Y-15872571D01*
X16036428Y-15901143D01*
X16022143Y-15915428D01*
X15993571Y-15929714D01*
X15950714Y-15929714D01*
X16222143Y-15929714D02*
X16193571Y-15915428D01*
X16179286Y-15886857D01*
X16179286Y-15629714D01*
X16450714Y-15915428D02*
X16422143Y-15929714D01*
X16365000Y-15929714D01*
X16336428Y-15915428D01*
X16322143Y-15886857D01*
X16322143Y-15772571D01*
X16336428Y-15744000D01*
X16365000Y-15729714D01*
X16422143Y-15729714D01*
X16450714Y-15744000D01*
X16465000Y-15772571D01*
X16465000Y-15801143D01*
X16322143Y-15829714D01*
X16579286Y-15915428D02*
X16607857Y-15929714D01*
X16665000Y-15929714D01*
X16693571Y-15915428D01*
X16707857Y-15886857D01*
X16707857Y-15872571D01*
X16693571Y-15844000D01*
X16665000Y-15829714D01*
X16622143Y-15829714D01*
X16593571Y-15815428D01*
X16579286Y-15786857D01*
X16579286Y-15772571D01*
X16593571Y-15744000D01*
X16622143Y-15729714D01*
X16665000Y-15729714D01*
X16693571Y-15744000D01*
X16807857Y-16044000D02*
X16822143Y-16029714D01*
X16850714Y-15986857D01*
X16865000Y-15958286D01*
X16879286Y-15915428D01*
X16893571Y-15844000D01*
X16893571Y-15786857D01*
X16879286Y-15715428D01*
X16865000Y-15672571D01*
X16850714Y-15644000D01*
X16822143Y-15601143D01*
X16807857Y-15586857D01*
X9430000Y-16030000D02*
X9750000Y-16350000D01*
X9750000Y-16030000D02*
X9430000Y-16350000D01*
X9750000Y-16190000D02*
G75*
G03*
X9750000Y-16190000I-160000J0D01*
G01*
X10007857Y-16025714D02*
X10193571Y-16025714D01*
X10093571Y-16140000D01*
X10136429Y-16140000D01*
X10165000Y-16154286D01*
X10179286Y-16168571D01*
X10193571Y-16197143D01*
X10193571Y-16268571D01*
X10179286Y-16297143D01*
X10165000Y-16311428D01*
X10136429Y-16325714D01*
X10050714Y-16325714D01*
X10022143Y-16311428D01*
X10007857Y-16297143D01*
X10322143Y-16297143D02*
X10336429Y-16311428D01*
X10322143Y-16325714D01*
X10307857Y-16311428D01*
X10322143Y-16297143D01*
X10322143Y-16325714D01*
X10450714Y-16054286D02*
X10465000Y-16040000D01*
X10493571Y-16025714D01*
X10565000Y-16025714D01*
X10593571Y-16040000D01*
X10607857Y-16054286D01*
X10622143Y-16082857D01*
X10622143Y-16111428D01*
X10607857Y-16154286D01*
X10436429Y-16325714D01*
X10622143Y-16325714D01*
X10807857Y-16025714D02*
X10836429Y-16025714D01*
X10865000Y-16040000D01*
X10879286Y-16054286D01*
X10893571Y-16082857D01*
X10907857Y-16140000D01*
X10907857Y-16211428D01*
X10893571Y-16268571D01*
X10879286Y-16297143D01*
X10865000Y-16311428D01*
X10836429Y-16325714D01*
X10807857Y-16325714D01*
X10779286Y-16311428D01*
X10765000Y-16297143D01*
X10750714Y-16268571D01*
X10736429Y-16211428D01*
X10736429Y-16140000D01*
X10750714Y-16082857D01*
X10765000Y-16054286D01*
X10779286Y-16040000D01*
X10807857Y-16025714D01*
X11093571Y-16025714D02*
X11122143Y-16025714D01*
X11150714Y-16040000D01*
X11165000Y-16054286D01*
X11179286Y-16082857D01*
X11193571Y-16140000D01*
X11193571Y-16211428D01*
X11179286Y-16268571D01*
X11165000Y-16297143D01*
X11150714Y-16311428D01*
X11122143Y-16325714D01*
X11093571Y-16325714D01*
X11065000Y-16311428D01*
X11050714Y-16297143D01*
X11036429Y-16268571D01*
X11022143Y-16211428D01*
X11022143Y-16140000D01*
X11036429Y-16082857D01*
X11050714Y-16054286D01*
X11065000Y-16040000D01*
X11093571Y-16025714D01*
X11322143Y-16325714D02*
X11322143Y-16125714D01*
X11322143Y-16154286D02*
X11336428Y-16140000D01*
X11365000Y-16125714D01*
X11407857Y-16125714D01*
X11436428Y-16140000D01*
X11450714Y-16168571D01*
X11450714Y-16325714D01*
X11450714Y-16168571D02*
X11465000Y-16140000D01*
X11493571Y-16125714D01*
X11536428Y-16125714D01*
X11565000Y-16140000D01*
X11579286Y-16168571D01*
X11579286Y-16325714D01*
X11722143Y-16325714D02*
X11722143Y-16125714D01*
X11722143Y-16154286D02*
X11736428Y-16140000D01*
X11765000Y-16125714D01*
X11807857Y-16125714D01*
X11836428Y-16140000D01*
X11850714Y-16168571D01*
X11850714Y-16325714D01*
X11850714Y-16168571D02*
X11865000Y-16140000D01*
X11893571Y-16125714D01*
X11936428Y-16125714D01*
X11965000Y-16140000D01*
X11979286Y-16168571D01*
X11979286Y-16325714D01*
X12565000Y-16011428D02*
X12307857Y-16397143D01*
X12950714Y-16025714D02*
X12979286Y-16025714D01*
X13007857Y-16040000D01*
X13022143Y-16054286D01*
X13036428Y-16082857D01*
X13050714Y-16140000D01*
X13050714Y-16211428D01*
X13036428Y-16268571D01*
X13022143Y-16297143D01*
X13007857Y-16311428D01*
X12979286Y-16325714D01*
X12950714Y-16325714D01*
X12922143Y-16311428D01*
X12907857Y-16297143D01*
X12893571Y-16268571D01*
X12879286Y-16211428D01*
X12879286Y-16140000D01*
X12893571Y-16082857D01*
X12907857Y-16054286D01*
X12922143Y-16040000D01*
X12950714Y-16025714D01*
X13179286Y-16297143D02*
X13193571Y-16311428D01*
X13179286Y-16325714D01*
X13165000Y-16311428D01*
X13179286Y-16297143D01*
X13179286Y-16325714D01*
X13479286Y-16325714D02*
X13307857Y-16325714D01*
X13393571Y-16325714D02*
X13393571Y-16025714D01*
X13365000Y-16068571D01*
X13336428Y-16097143D01*
X13307857Y-16111428D01*
X13593571Y-16054286D02*
X13607857Y-16040000D01*
X13636428Y-16025714D01*
X13707857Y-16025714D01*
X13736428Y-16040000D01*
X13750714Y-16054286D01*
X13765000Y-16082857D01*
X13765000Y-16111428D01*
X13750714Y-16154286D01*
X13579286Y-16325714D01*
X13765000Y-16325714D01*
X14022143Y-16025714D02*
X13965000Y-16025714D01*
X13936428Y-16040000D01*
X13922143Y-16054286D01*
X13893571Y-16097143D01*
X13879286Y-16154286D01*
X13879286Y-16268571D01*
X13893571Y-16297143D01*
X13907857Y-16311428D01*
X13936428Y-16325714D01*
X13993571Y-16325714D01*
X14022143Y-16311428D01*
X14036428Y-16297143D01*
X14050714Y-16268571D01*
X14050714Y-16197143D01*
X14036428Y-16168571D01*
X14022143Y-16154286D01*
X13993571Y-16140000D01*
X13936428Y-16140000D01*
X13907857Y-16154286D01*
X13893571Y-16168571D01*
X13879286Y-16197143D01*
X14236428Y-16025714D02*
X14265000Y-16025714D01*
X14293571Y-16040000D01*
X14307857Y-16054286D01*
X14322143Y-16082857D01*
X14336428Y-16140000D01*
X14336428Y-16211428D01*
X14322143Y-16268571D01*
X14307857Y-16297143D01*
X14293571Y-16311428D01*
X14265000Y-16325714D01*
X14236428Y-16325714D01*
X14207857Y-16311428D01*
X14193571Y-16297143D01*
X14179286Y-16268571D01*
X14165000Y-16211428D01*
X14165000Y-16140000D01*
X14179286Y-16082857D01*
X14193571Y-16054286D01*
X14207857Y-16040000D01*
X14236428Y-16025714D01*
X14450714Y-16025714D02*
X14450714Y-16082857D01*
X14565000Y-16025714D02*
X14565000Y-16082857D01*
X15007857Y-16440000D02*
X14993571Y-16425714D01*
X14965000Y-16382857D01*
X14950714Y-16354286D01*
X14936428Y-16311428D01*
X14922143Y-16240000D01*
X14922143Y-16182857D01*
X14936428Y-16111428D01*
X14950714Y-16068571D01*
X14965000Y-16040000D01*
X14993571Y-15997143D01*
X15007857Y-15982857D01*
X15250714Y-16125714D02*
X15250714Y-16325714D01*
X15179286Y-16011428D02*
X15107857Y-16225714D01*
X15293571Y-16225714D01*
X15636428Y-16325714D02*
X15636428Y-16025714D01*
X15765000Y-16325714D02*
X15765000Y-16168571D01*
X15750714Y-16140000D01*
X15722143Y-16125714D01*
X15679286Y-16125714D01*
X15650714Y-16140000D01*
X15636428Y-16154286D01*
X15950714Y-16325714D02*
X15922143Y-16311428D01*
X15907857Y-16297143D01*
X15893571Y-16268571D01*
X15893571Y-16182857D01*
X15907857Y-16154286D01*
X15922143Y-16140000D01*
X15950714Y-16125714D01*
X15993571Y-16125714D01*
X16022143Y-16140000D01*
X16036428Y-16154286D01*
X16050714Y-16182857D01*
X16050714Y-16268571D01*
X16036428Y-16297143D01*
X16022143Y-16311428D01*
X15993571Y-16325714D01*
X15950714Y-16325714D01*
X16222143Y-16325714D02*
X16193571Y-16311428D01*
X16179286Y-16282857D01*
X16179286Y-16025714D01*
X16450714Y-16311428D02*
X16422143Y-16325714D01*
X16365000Y-16325714D01*
X16336428Y-16311428D01*
X16322143Y-16282857D01*
X16322143Y-16168571D01*
X16336428Y-16140000D01*
X16365000Y-16125714D01*
X16422143Y-16125714D01*
X16450714Y-16140000D01*
X16465000Y-16168571D01*
X16465000Y-16197143D01*
X16322143Y-16225714D01*
X16579286Y-16311428D02*
X16607857Y-16325714D01*
X16665000Y-16325714D01*
X16693571Y-16311428D01*
X16707857Y-16282857D01*
X16707857Y-16268571D01*
X16693571Y-16240000D01*
X16665000Y-16225714D01*
X16622143Y-16225714D01*
X16593571Y-16211428D01*
X16579286Y-16182857D01*
X16579286Y-16168571D01*
X16593571Y-16140000D01*
X16622143Y-16125714D01*
X16665000Y-16125714D01*
X16693571Y-16140000D01*
X16807857Y-16440000D02*
X16822143Y-16425714D01*
X16850714Y-16382857D01*
X16865000Y-16354286D01*
X16879286Y-16311428D01*
X16893571Y-16240000D01*
X16893571Y-16182857D01*
X16879286Y-16111428D01*
X16865000Y-16068571D01*
X16850714Y-16040000D01*
X16822143Y-15997143D01*
X16807857Y-15982857D01*
M02*
