M48
; DRILL file {KiCad 5.1.12-84ad8e8a86~92~ubuntu16.04.1} date dom 14 nov 2021 14:14:29 CET
; FORMAT={-:-/ absolute / inch / decimal}
; #@! TF.CreationDate,2021-11-14T14:14:29+01:00
; #@! TF.GenerationSoftware,Kicad,Pcbnew,5.1.12-84ad8e8a86~92~ubuntu16.04.1
FMAT,2
INCH
T1C0.0180
T2C0.0197
T3C0.0394
T4C0.0472
T5C0.0512
T6C0.1260
%
G90
G05
T1
X4.537Y-4.1981
X4.627Y-4.4181
X4.637Y-4.5581
X4.797Y-3.8481
X4.837Y-2.8281
X4.852Y-4.1931
X4.907Y-3.8181
X5.137Y-3.0381
X5.217Y-4.0981
X5.237Y-3.0181
X5.237Y-3.5981
X5.337Y-4.4381
X5.357Y-3.6681
X5.387Y-3.9181
X5.507Y-4.0281
X5.557Y-4.4681
X5.557Y-4.5181
X5.557Y-4.5681
X5.777Y-3.0181
X5.837Y-3.0181
X5.897Y-3.0181
X6.077Y-3.0181
X6.137Y-3.0181
X6.197Y-3.0181
T2
X4.0425Y-2.3181
X4.0425Y-4.9181
X4.0702Y-2.2513
X4.0702Y-2.3849
X4.0702Y-4.8513
X4.0702Y-4.9849
X4.137Y-2.2236
X4.137Y-2.4126
X4.137Y-4.8236
X4.137Y-5.0126
X4.2038Y-2.2513
X4.2038Y-2.3849
X4.2038Y-4.8513
X4.2038Y-4.9849
X4.2315Y-2.3181
X4.2315Y-4.9181
X6.6425Y-2.3181
X6.6425Y-4.9181
X6.6702Y-2.2513
X6.6702Y-2.3849
X6.6702Y-4.8513
X6.6702Y-4.9849
X6.737Y-2.2236
X6.737Y-2.4126
X6.737Y-4.8236
X6.737Y-5.0126
X6.8038Y-2.2513
X6.8038Y-2.3849
X6.8038Y-4.8513
X6.8038Y-4.9849
X6.8315Y-2.3181
X6.8315Y-4.9181
T3
X4.137Y-2.7181
X4.137Y-2.9181
X4.137Y-3.2181
X4.137Y-3.3181
X4.137Y-3.6181
X4.137Y-3.7181
X4.137Y-4.0181
X4.137Y-4.1181
X4.137Y-4.4181
X4.137Y-4.5181
X4.237Y-2.7181
X4.237Y-2.9181
X4.237Y-3.2181
X4.237Y-3.3181
X4.237Y-3.6181
X4.237Y-3.7181
X4.237Y-4.0181
X4.237Y-4.1181
X4.237Y-4.4181
X4.237Y-4.5181
X4.337Y-3.2181
X4.337Y-3.3181
X4.337Y-3.6181
X4.337Y-3.7181
X4.337Y-4.0181
X4.337Y-4.1181
X4.337Y-4.4181
X4.337Y-4.5181
T4
X4.437Y-2.4181
X4.937Y-4.8181
X5.637Y-2.4181
X6.137Y-4.8181
T5
X6.637Y-2.7181
X6.637Y-2.9181
X6.637Y-4.3181
X6.637Y-4.5181
T6
X4.137Y-2.3181
X4.137Y-4.9181
X6.737Y-2.3181
X6.737Y-4.9181
T0
M30
